<svg xmlns="http://www.w3.org/2000/svg" width="66.89" height="61.631" viewBox="0 0 66.89 61.631">
  <g id="Grupo_106809" data-name="Grupo 106809" transform="translate(-98.147 -1115.583)">
    <g id="Grupo_106806" data-name="Grupo 106806" transform="translate(98.147 1115.583)">
      <g id="Grupo_106795" data-name="Grupo 106795" transform="translate(29.032 0)">
        <circle id="Elipse_4278" data-name="Elipse 4278" cx="6.449" cy="6.449" r="6.449" transform="matrix(0.974, -0.228, 0.228, 0.974, 0, 2.934)" fill="#00978e"/>
      </g>
      <g id="Grupo_106796" data-name="Grupo 106796" transform="translate(28.363 15.78)">
        <path id="Trazado_151251" data-name="Trazado 151251" d="M204.543,1189.078v.159h3.223v-.437a3.335,3.335,0,0,1,3.659-3.319,3.423,3.423,0,0,1,3.008,3.433v.322h1.2v-10.984a6.667,6.667,0,0,0-6.667-6.667h-3.5a6.667,6.667,0,0,0-6.667,6.667v9.911l5.738-.643Z" transform="translate(-198.805 -1171.586)" fill="#00978e"/>
      </g>
      <g id="Grupo_106797" data-name="Grupo 106797" transform="translate(48.293 1.992)">
        <circle id="Elipse_4279" data-name="Elipse 4279" cx="6.449" cy="6.449" r="6.449" transform="translate(0 3.455) rotate(-15.541)" fill="#00978e"/>
      </g>
      <g id="Grupo_106798" data-name="Grupo 106798" transform="translate(47.817 17.966)">
        <path id="Trazado_151252" data-name="Trazado 151252" d="M272.516,1200.4c-.008-.141-.021-.28-.021-.423a7.861,7.861,0,0,1,12.187-6.572v-7.391a6.667,6.667,0,0,0-6.667-6.667h-3.5a6.667,6.667,0,0,0-6.667,6.667v9.069A6.624,6.624,0,0,1,272.516,1200.4Z" transform="translate(-267.849 -1179.343)" fill="#00978e"/>
      </g>
      <g id="Grupo_106799" data-name="Grupo 106799" transform="translate(10.007 1.468)">
        <circle id="Elipse_4280" data-name="Elipse 4280" cx="6.449" cy="6.449" r="6.449" transform="translate(0 2.953) rotate(-13.239)" fill="#00978e"/>
      </g>
      <g id="Grupo_106800" data-name="Grupo 106800" transform="translate(9.345 17.255)">
        <path id="Trazado_151253" data-name="Trazado 151253" d="M148.143,1183.489a6.667,6.667,0,0,0-6.667-6.667h-3.5a6.667,6.667,0,0,0-6.667,6.667v10.566l16.832-1.886Z" transform="translate(-131.311 -1176.822)" fill="#00978e"/>
      </g>
      <g id="Grupo_106801" data-name="Grupo 106801" transform="translate(0 46.984)">
        <path id="Trazado_151254" data-name="Trazado 151254" d="M132.247,1289.515H101.672v-7.186H98.147v14.646h66.89v-14.646H132.247Z" transform="translate(-98.147 -1282.329)" fill="#00978e"/>
      </g>
      <g id="Grupo_106802" data-name="Grupo 106802" transform="translate(53.774 32.038)">
        <circle id="Elipse_4281" data-name="Elipse 4281" cx="6.558" cy="6.558" r="6.558" fill="#00978e"/>
      </g>
      <g id="Grupo_106803" data-name="Grupo 106803" transform="translate(34.101 34.743)">
        <path id="Trazado_151255" data-name="Trazado 151255" d="M219.169,1249.487h11.859a5.3,5.3,0,0,0,0-10.6h-1.959a.579.579,0,0,0,.336.474l3.727,1.667a3.409,3.409,0,0,1,1.9,4.131,3.326,3.326,0,0,1-3.15,2.267h0a3.3,3.3,0,0,1-1.354-.29L223.513,1244a1.9,1.9,0,0,1-1.12-1.729v-3.384h-3.223Z" transform="translate(-219.169 -1238.885)" fill="#00978e"/>
      </g>
      <g id="Grupo_106804" data-name="Grupo 106804" transform="translate(38.636 30.972)">
        <path id="Trazado_151256" data-name="Trazado 151256" d="M235.264,1232.658a.582.582,0,0,0,.344.531l7.013,3.136a1.99,1.99,0,0,0,.818.176,2.015,2.015,0,0,0,1.908-1.375,2.087,2.087,0,0,0-1.191-2.514l-3.727-1.667a1.9,1.9,0,0,1-1.12-1.729v-1.576a2.1,2.1,0,0,0-1.822-2.128q-.1-.01-.2-.01a2.024,2.024,0,0,0-2.022,2.023Z" transform="translate(-235.264 -1225.503)" fill="#00978e"/>
      </g>
      <g id="Grupo_106805" data-name="Grupo 106805" transform="translate(4.836 33.181)">
        <path id="Trazado_151257" data-name="Trazado 151257" d="M115.311,1236.474v16.546h27.953v-19.678Z" transform="translate(-115.311 -1233.342)" fill="#00978e"/>
      </g>
    </g>
    <g id="Grupo_106807" data-name="Grupo 106807" transform="translate(156.778 1125.71)">
      <path id="Trazado_151258" data-name="Trazado 151258" d="M308.316,1153.458a1.045,1.045,0,1,1-2.09,0c0-.577,1.045-1.933,1.045-1.933S308.316,1152.88,308.316,1153.458Z" transform="translate(-306.226 -1151.524)" fill="#00978e"/>
    </g>
    <g id="Grupo_106808" data-name="Grupo 106808" transform="translate(117.929 1125.71)">
      <path id="Trazado_151259" data-name="Trazado 151259" d="M170.442,1153.458a1.045,1.045,0,1,1-2.09,0c0-.577,1.045-1.933,1.045-1.933S170.442,1152.88,170.442,1153.458Z" transform="translate(-168.352 -1151.524)" fill="#00978e"/>
    </g>
  </g>
</svg>
