<svg xmlns="http://www.w3.org/2000/svg" xmlns:xlink="http://www.w3.org/1999/xlink" width="262.861" height="209.121" viewBox="0 0 262.861 209.121">
  <defs>
    <radialGradient id="radial-gradient" cx="0.5" cy="0.5" r="0.5" gradientUnits="objectBoundingBox">
      <stop offset="0" stop-color="#f6f6f7"/>
      <stop offset="0.477" stop-color="#f9f9fa"/>
      <stop offset="0.715" stop-color="#fff"/>
    </radialGradient>
  </defs>
  <g id="Grupo_106448" data-name="Grupo 106448" transform="translate(-131.205 -262.68)">
    <g id="Grupo_106415" data-name="Grupo 106415" transform="translate(133.085 262.68)">
      <path id="Trazado_149952" data-name="Trazado 149952" d="M376.81,367.24c0,57.748-54.723,104.561-122.232,104.561S132.347,424.988,132.347,367.24s54.725-104.56,122.231-104.56S376.81,309.49,376.81,367.24Z" transform="translate(-132.347 -262.68)" fill="url(#radial-gradient)"/>
    </g>
    <g id="Grupo_106447" data-name="Grupo 106447" transform="translate(131.205 277.988)">
      <g id="Grupo_106422" data-name="Grupo 106422" transform="translate(33.794)">
        <g id="Grupo_106420" data-name="Grupo 106420" transform="translate(0 3.516)">
          <path id="Trazado_149953" data-name="Trazado 149953" d="M175.4,289.529s9.706,2.7,7.279,24.4L181.6,343.589l-3.911,1.484-3.5-51.1Z" transform="translate(-137.207 -264.145)" fill="#4d3c4b"/>
          <path id="Trazado_149954" data-name="Trazado 149954" d="M163.069,320.848c.828.463.729,1.851,1.026,2.689a5.668,5.668,0,0,0,1.548,2.429c-.71.751-2.185.11-2.933-.369-.3,1.581-.529,3.85-1.464,5.236-1.693,2.514-1.785-.548-1.635-2.01.036.943-.54,3.046-1.283,3.563-.83-.637-.387-2.822-.124-3.69-.025.616-.726,3.069-1.54,2.914-1-.193-.5-2.834-.247-3.427a2.885,2.885,0,0,1-.519,2.022c-.612-.58-.318-3.229-.263-4.138a17.991,17.991,0,0,1,1-4.973c.657-1.742,1.663-1.039,3.234-.886,1.139.11,2.646-.114,3.456.766Z" transform="translate(-149.279 -244.483)" fill="#ff8f67"/>
          <g id="haed" transform="translate(28.965)">
            <g id="Grupo_106419" data-name="Grupo 106419">
              <g id="Grupo_106416" data-name="Grupo 106416">
                <path id="Trazado_149955" data-name="Trazado 149955" d="M169.738,285.015c-.632-2.536-.706-5.638.911-7.846,2.544-3.478,9.087-4.172,12.145-1.126,2.024,2.017,2.587,4.41,2.508,7.233a5.381,5.381,0,0,0,1.414,4.344c.152.143.331.339.244.529s-.314.186-.5.234c-.6.15-.868.83-.96,1.434a24.854,24.854,0,0,1-.78,4.316,1.374,1.374,0,0,1-.553.779,1.639,1.639,0,0,1-.981.1c-1.12-.127-2.228-.313-3.333-.548a.688.688,0,0,0-.194.119,1.635,1.635,0,0,0-.338.81q-.766,3.369-1.521,6.743a39.548,39.548,0,0,0-7.922-4.857,10.389,10.389,0,0,0,1.579-7.795A19.523,19.523,0,0,1,169.738,285.015Z" transform="translate(-169.32 -274.113)" fill="#ff8f67"/>
                <path id="Trazado_149956" data-name="Trazado 149956" d="M178.446,288.568a.148.148,0,0,1-.053-.01c-.16-.056-3.9-1.408-4.819-4.467a.162.162,0,0,1,.31-.094c.874,2.9,4.581,4.242,4.617,4.255a.163.163,0,0,1-.054.316Z" transform="translate(-166.574 -267.796)" fill="#894c4c"/>
              </g>
              <g id="Grupo_106418" data-name="Grupo 106418" transform="translate(13.448 9.525)">
                <g id="Grupo_106417" data-name="Grupo 106417">
                  <path id="Trazado_149957" data-name="Trazado 149957" d="M179.489,280.839a.451.451,0,0,1-.2.007,1.875,1.875,0,0,0-1.116.171.462.462,0,1,1-.445-.81,2.866,2.866,0,0,1,1.727-.27.463.463,0,0,1,.033.9Z" transform="translate(-177.487 -279.897)" fill="#a86060"/>
                  <path id="Trazado_149958" data-name="Trazado 149958" d="M178.831,281.34c.013.38-.123.695-.3.7s-.338-.3-.347-.682.125-.695.3-.7S178.819,280.961,178.831,281.34Z" transform="translate(-177.04 -279.406)" fill="#a86060"/>
                </g>
              </g>
            </g>
            <path id="Trazado_149959" data-name="Trazado 149959" d="M178.187,284.35a.127.127,0,0,1-.084-.031.129.129,0,0,1-.016-.183,1.4,1.4,0,0,1,1.433-.367.129.129,0,0,1,.094.158.126.126,0,0,1-.158.092,1.186,1.186,0,0,0-1.169.283A.127.127,0,0,1,178.187,284.35Z" transform="translate(-163.671 -267.906)" fill="#894c4c"/>
          </g>
          <path id="Trazado_149960" data-name="Trazado 149960" d="M156.014,317.747v4.314l6.876.539.405-4.988Z" transform="translate(-148.959 -245.987)" fill="#7a8ecb"/>
          <path id="Trazado_149961" data-name="Trazado 149961" d="M187.352,376.825l16.34-4.622c1.148-.326,1.8-1.22,1.469-2a3.117,3.117,0,0,0-2.761-1.349c-2.4-.026-6.272-.387-8.9-2.224l-9.3,3.909a17.682,17.682,0,0,0,.3,4.872A2.283,2.283,0,0,0,187.352,376.825Z" transform="translate(-130.768 -214.296)" fill="#4d3c4b"/>
          <path id="Trazado_149962" data-name="Trazado 149962" d="M153.778,373.693l16.456,4.194c1.156.295,2.173-.15,2.277-1a3.126,3.126,0,0,0-1.716-2.551c-2.06-1.225-5.231-3.479-6.583-6.387L154.2,366.67a17.714,17.714,0,0,0-2.177,4.368A2.283,2.283,0,0,0,153.778,373.693Z" transform="translate(-151.585 -214.269)" fill="#4d3c4b"/>
          <path id="Trazado_149963" data-name="Trazado 149963" d="M177.794,325.555l-6.473,24.8s-19.233,36.132-19.592,44.22c0,0,2.516,3.594,14.559.538l14.2-37.747,11.146-26.424Z" transform="translate(-151.729 -240.852)" fill="#5b4f5a"/>
          <path id="Trazado_149964" data-name="Trazado 149964" d="M165.922,329.641l16.444,38.826L195.038,405.4s8.63-.27,12.405-5.122l-13.752-40.714-9.975-31.815.808-12.132Z" transform="translate(-142.552 -247.275)" fill="#5b4f5a"/>
          <path id="Trazado_149965" data-name="Trazado 149965" d="M171.59,289.2c0-.076,5.038,2.4,5.355,2.635a17.988,17.988,0,0,1,5.992,7.386,12.24,12.24,0,0,1,.828,4.843q-.057,3.067-.115,6.137-.121,6.209-.237,12.417c-.031,1.609-.063,3.212-.094,4.821-.044,2.4-1.327,3.16-3.323,4.363l-3.925,2.368q-2.509,1.514-5.019,3.026S171.59,289.246,171.59,289.2Z" transform="translate(-139.236 -264.358)" fill="#7a8ecb"/>
          <path id="Trazado_149966" data-name="Trazado 149966" d="M184.688,298.656A11.688,11.688,0,0,0,182.2,293.4c-2.193-2.725-5.7-4.958-9.328-4.382,0,0-10.964,2.336-9.166,20.852,0,0,3.308,24.8.39,37.609,1.879.364,16.1,2.523,20.46-14.424q.067-3.287.137-6.58.136-6.4.268-12.805c.033-1.619.119-3.249.091-4.866-.03-1.724-.041-3.454-.028-5.182A24.6,24.6,0,0,0,184.688,298.656Z" transform="translate(-144.114 -264.534)" fill="#4d3c4b"/>
          <path id="Trazado_149967" data-name="Trazado 149967" d="M174.747,291.167q-3.784,4.908-7.571,9.818c-2.755,3.575-6.089,6.764-8.266,10.759-1.7,3.12-1.783,6.235-2.068,9.683-.084,1.032-1.278,15.031-1.237,15.036l8.088.808,2.425-19.683,16.179-15.1S184.993,292.245,174.747,291.167Z" transform="translate(-149.223 -263.086)" fill="#4d3c4b"/>
          <path id="Trazado_149968" data-name="Trazado 149968" d="M164.826,309.321a.27.27,0,0,1-.189-.463l10.426-10.246a.27.27,0,0,1,.379.385l-10.428,10.247A.267.267,0,0,1,164.826,309.321Z" transform="translate(-143.435 -258.321)" fill="#fff"/>
          <path id="Trazado_149969" data-name="Trazado 149969" d="M169.8,288.421s6.155,2.717,8.177,5.076l1.349-4.044-9.525-2.518Z" transform="translate(-140.047 -265.821)" fill="#7a8ecb"/>
          <path id="Trazado_149970" data-name="Trazado 149970" d="M181.036,296.557a16.965,16.965,0,0,0-1.9-3.249,13.747,13.747,0,0,0-6.117-4.617c-.2-.081-3.41-1.067-3.41-1.044,0,.466-.013.932-.02,1.4a5.329,5.329,0,0,1-.054,1.846c-.2.481-.762.835-1.031,1.314-.784,1.4,1.381,2,2.238,2.416l4.293,2.089q1.754.857,3.514,1.7c.652.318,1.279.68,1.92,1.018a1.829,1.829,0,0,1,.876,1.334c.074.3.082.807.324,1A11.686,11.686,0,0,0,181.036,296.557Z" transform="translate(-140.988 -265.362)" fill="#4d3c4b"/>
          <path id="Trazado_149971" data-name="Trazado 149971" d="M176.875,350.5a.27.27,0,0,1-.247-.165l-9.977-23.592a.27.27,0,0,1,.5-.209l9.975,23.592a.269.269,0,0,1-.142.352A.31.31,0,0,1,176.875,350.5Z" transform="translate(-142.095 -240.322)" fill="#fff"/>
        </g>
        <path id="Trazado_149972" data-name="Trazado 149972" d="M179.8,288.054c.2.146.418.148.66-.11.436-.463-.229-1.559-.247-2.076-.041-1.115-.222-2.921.823-3.685,1.169-.853,3.232-.15,4.572-.4,4.395-.812,5.08-7.291,1.635-9.809-.03.51-.008,1.054-.051,1.569-.044-.077-.428-.787-.375-.662,0,.214-.013-.194-.025-.263-1.446,1.574-5.691.968-7.665.794-3.236-.288-3.871,1.177-5.557,3.543-.617.868-.229.407-1.177.779a6.131,6.131,0,0,0-1.515.5,3.237,3.237,0,0,0-1.345,2.325c-.443,2.249,1.22,4.541-.076,6.639-.7,1.141-1.8,1.791-2.187,3.2-.392,1.441.356,3.385,2.17,2.75-.715,1.331.678.774,1.342,1,.713.235.851.924,1.857.319.048.209.235.392.283.538.2-.24.708-.441.917-.677a.714.714,0,0,0,.165.239c.366.352,3.667-4.7,3.7-5.378.023-.5-.505-1.182-.7-1.619a5.271,5.271,0,0,1-.611-2.073.928.928,0,0,1,1.452-.853,2.453,2.453,0,0,1,.962,1.322C178.938,286.277,179.283,287.67,179.8,288.054Z" transform="translate(-141.746 -271.977)" fill="#a86060"/>
        <g id="Grupo_106421" data-name="Grupo 106421" transform="translate(35.447 13.946)">
          <path id="Trazado_149973" data-name="Trazado 149973" d="M174.572,282.451a.163.163,0,0,1-.158-.122c-.1-.4-.491-1.465-1.024-1.561a.162.162,0,0,1,.058-.319c.83.15,1.237,1.632,1.281,1.8a.159.159,0,0,1-.115.2A.127.127,0,0,1,174.572,282.451Z" transform="translate(-173.257 -280.447)" fill="#894c4c"/>
          <path id="Trazado_149974" data-name="Trazado 149974" d="M174.253,281.28h-.835a.162.162,0,0,1,0-.324h.835a.162.162,0,0,1,0,.324Z" transform="translate(-173.257 -280.118)" fill="#894c4c"/>
        </g>
      </g>
      <g id="Grupo_106429" data-name="Grupo 106429" transform="translate(158.932 1.459)">
        <g id="Grupo_106427" data-name="Grupo 106427" transform="translate(0 2.057)">
          <path id="Trazado_149975" data-name="Trazado 149975" d="M251.407,289.529s9.7,2.7,7.279,24.4l-1.08,29.658-3.911,1.484-3.5-51.1Z" transform="translate(-213.205 -264.145)" fill="#4d3c4b"/>
          <path id="Trazado_149976" data-name="Trazado 149976" d="M239.069,320.848c.83.463.733,1.851,1.027,2.689a5.656,5.656,0,0,0,1.549,2.429c-.711.751-2.187.11-2.934-.369-.3,1.581-.53,3.85-1.464,5.236-1.693,2.514-1.785-.548-1.635-2.01.036.943-.54,3.046-1.283,3.563-.83-.637-.387-2.822-.12-3.69-.028.616-.729,3.069-1.543,2.914-1-.193-.5-2.834-.247-3.427a2.91,2.91,0,0,1-.519,2.022c-.613-.58-.318-3.229-.263-4.138a18.051,18.051,0,0,1,.995-4.973c.662-1.742,1.665-1.039,3.235-.886,1.138.11,2.646-.114,3.456.766Z" transform="translate(-225.278 -244.483)" fill="#ff8f67"/>
          <g id="haed-2" data-name="haed" transform="translate(28.967)">
            <g id="Grupo_106426" data-name="Grupo 106426">
              <g id="Grupo_106423" data-name="Grupo 106423">
                <path id="Trazado_149977" data-name="Trazado 149977" d="M245.741,285.015c-.634-2.536-.706-5.638.911-7.846,2.544-3.478,9.087-4.172,12.143-1.126,2.024,2.017,2.588,4.41,2.509,7.233a5.382,5.382,0,0,0,1.416,4.344c.148.143.331.339.242.529s-.315.186-.5.234c-.6.15-.868.83-.958,1.434a25.016,25.016,0,0,1-.782,4.316,1.374,1.374,0,0,1-.553.779,1.639,1.639,0,0,1-.981.1c-1.121-.127-2.228-.313-3.334-.548a.7.7,0,0,0-.193.119,1.668,1.668,0,0,0-.339.81q-.761,3.369-1.52,6.743a39.514,39.514,0,0,0-7.923-4.857,10.382,10.382,0,0,0,1.581-7.795A19.6,19.6,0,0,1,245.741,285.015Z" transform="translate(-245.322 -274.113)" fill="#ff8f67"/>
                <path id="Trazado_149978" data-name="Trazado 149978" d="M254.45,288.568a.157.157,0,0,1-.054-.01c-.158-.056-3.9-1.408-4.821-4.467a.162.162,0,0,1,.31-.094c.874,2.9,4.582,4.242,4.62,4.255a.163.163,0,0,1-.054.316Z" transform="translate(-242.576 -267.796)" fill="#894c4c"/>
              </g>
              <g id="Grupo_106425" data-name="Grupo 106425" transform="translate(13.449 9.525)">
                <g id="Grupo_106424" data-name="Grupo 106424">
                  <path id="Trazado_149979" data-name="Trazado 149979" d="M255.491,280.839a.451.451,0,0,1-.2.007,1.875,1.875,0,0,0-1.116.171.462.462,0,1,1-.443-.81,2.852,2.852,0,0,1,1.726-.27.463.463,0,0,1,.033.9Z" transform="translate(-253.49 -279.897)" fill="#a86060"/>
                  <path id="Trazado_149980" data-name="Trazado 149980" d="M254.833,281.34c.015.38-.122.695-.3.7s-.334-.3-.347-.682.127-.695.3-.7S254.822,280.961,254.833,281.34Z" transform="translate(-253.043 -279.406)" fill="#a86060"/>
                </g>
              </g>
            </g>
            <path id="Trazado_149981" data-name="Trazado 149981" d="M254.19,284.35a.124.124,0,0,1-.084-.031.13.13,0,0,1-.016-.183,1.38,1.38,0,0,1,1.432-.367.13.13,0,0,1,.094.158.124.124,0,0,1-.158.092,1.17,1.17,0,0,0-1.169.283A.127.127,0,0,1,254.19,284.35Z" transform="translate(-239.672 -267.907)" fill="#894c4c"/>
          </g>
          <path id="Trazado_149982" data-name="Trazado 149982" d="M232.016,317.747v4.314l6.876.539.405-4.988Z" transform="translate(-224.957 -245.987)" fill="#7a8ecb"/>
          <path id="Trazado_149983" data-name="Trazado 149983" d="M263.355,376.825l16.337-4.622c1.149-.326,1.806-1.22,1.472-2a3.12,3.12,0,0,0-2.763-1.349c-2.4-.026-6.272-.387-8.9-2.224l-9.3,3.909a17.644,17.644,0,0,0,.3,4.872A2.285,2.285,0,0,0,263.355,376.825Z" transform="translate(-206.766 -214.296)" fill="#4d3c4b"/>
          <path id="Trazado_149984" data-name="Trazado 149984" d="M229.778,373.693l16.457,4.194c1.154.295,2.173-.15,2.274-1a3.111,3.111,0,0,0-1.712-2.551c-2.058-1.225-5.231-3.479-6.585-6.387L230.2,366.67a17.712,17.712,0,0,0-2.177,4.368A2.285,2.285,0,0,0,229.778,373.693Z" transform="translate(-227.583 -214.269)" fill="#4d3c4b"/>
          <path id="Trazado_149985" data-name="Trazado 149985" d="M253.8,325.555l-6.471,24.8s-19.233,36.132-19.6,44.22c0,0,2.521,3.594,14.561.538l14.2-37.747,11.142-26.424Z" transform="translate(-227.729 -240.852)" fill="#5b4f5a"/>
          <path id="Trazado_149986" data-name="Trazado 149986" d="M241.924,329.641l16.446,38.826L271.042,405.4s8.63-.27,12.4-5.122l-13.752-40.714-9.977-31.815.81-12.132Z" transform="translate(-218.551 -247.275)" fill="#5b4f5a"/>
          <path id="Trazado_149987" data-name="Trazado 149987" d="M247.594,289.2c0-.076,5.034,2.4,5.355,2.635a17.97,17.97,0,0,1,5.989,7.386,12.213,12.213,0,0,1,.83,4.843q-.057,3.067-.117,6.137-.116,6.209-.237,12.417c-.031,1.609-.063,3.212-.089,4.821-.048,2.4-1.33,3.16-3.326,4.363q-1.961,1.183-3.925,2.368-2.509,1.514-5.019,3.026S247.594,289.246,247.594,289.2Z" transform="translate(-215.234 -264.358)" fill="#7a8ecb"/>
          <path id="Trazado_149988" data-name="Trazado 149988" d="M260.69,298.656A11.717,11.717,0,0,0,258.2,293.4c-2.193-2.725-5.7-4.958-9.328-4.382,0,0-10.966,2.336-9.168,20.852,0,0,3.308,24.8.39,37.609,1.879.364,16.1,2.523,20.46-14.424q.067-3.287.138-6.58.136-6.4.267-12.805c.033-1.619.119-3.249.091-4.866-.03-1.724-.043-3.454-.03-5.182A24.48,24.48,0,0,0,260.69,298.656Z" transform="translate(-220.113 -264.534)" fill="#4d3c4b"/>
          <path id="Trazado_149989" data-name="Trazado 149989" d="M250.749,291.167l-7.571,9.818c-2.756,3.575-6.091,6.764-8.266,10.759-1.7,3.12-1.785,6.235-2.066,9.683-.086,1.032-1.279,15.031-1.24,15.036l8.09.808,2.425-19.683,16.179-15.1S261,292.245,250.749,291.167Z" transform="translate(-225.223 -263.086)" fill="#4d3c4b"/>
          <path id="Trazado_149990" data-name="Trazado 149990" d="M240.828,309.321a.272.272,0,0,1-.193-.081.269.269,0,0,1,0-.382l10.426-10.246a.27.27,0,1,1,.377.385l-10.426,10.247A.267.267,0,0,1,240.828,309.321Z" transform="translate(-219.435 -258.321)" fill="#fff"/>
          <path id="Trazado_149991" data-name="Trazado 149991" d="M245.8,288.421s6.155,2.717,8.178,5.076l1.347-4.044-9.525-2.518Z" transform="translate(-216.046 -265.821)" fill="#7a8ecb"/>
          <path id="Trazado_149992" data-name="Trazado 149992" d="M257.038,296.557a17.053,17.053,0,0,0-1.9-3.249,13.747,13.747,0,0,0-6.117-4.617c-.2-.081-3.41-1.067-3.41-1.044q-.01.7-.018,1.4a5.369,5.369,0,0,1-.056,1.846c-.2.481-.764.835-1.031,1.314-.784,1.4,1.383,2,2.238,2.416q2.146,1.047,4.293,2.089c1.169.571,2.343,1.136,3.512,1.7.654.318,1.281.68,1.921,1.018a1.829,1.829,0,0,1,.876,1.334c.072.3.084.807.324,1A11.732,11.732,0,0,0,257.038,296.557Z" transform="translate(-216.987 -265.362)" fill="#4d3c4b"/>
          <path id="Trazado_149993" data-name="Trazado 149993" d="M252.876,350.5a.27.27,0,0,1-.247-.165l-9.977-23.592a.27.27,0,0,1,.5-.209l9.975,23.592a.268.268,0,0,1-.143.352A.294.294,0,0,1,252.876,350.5Z" transform="translate(-218.094 -240.322)" fill="#fff"/>
        </g>
        <path id="Trazado_149994" data-name="Trazado 149994" d="M255.8,287.481c.2.147.418.148.659-.11.438-.463-.227-1.559-.244-2.076-.043-1.115-.224-2.921.823-3.685,2.106-1.539,5.363.254,7.013,1.571a9.627,9.627,0,0,0-.285-3.28,12.648,12.648,0,0,0,.958,1.941c-.018-.473-.091-.953-.12-1.4a4.106,4.106,0,0,0,.626.341,7.281,7.281,0,0,0-.789-4.433c-1.523-2.559-4.821-2.946-7.556-3.341-3.8-.55-5.2.4-7.314,3.374-.616.868-.229.407-1.177.779a6.213,6.213,0,0,0-1.516.5,3.235,3.235,0,0,0-1.344,2.325c-.443,2.249,1.22,4.541-.077,6.639-.7,1.141-1.8,1.791-2.187,3.2-.39,1.441.357,3.385,2.172,2.75-.715,1.33.678.774,1.34,1,.715.235.853.924,1.859.319.051.209.235.392.283.538.2-.24.706-.441.917-.677a.734.734,0,0,0,.163.239c.369.352,3.669-4.7,3.7-5.378.023-.5-.5-1.182-.7-1.619a5.3,5.3,0,0,1-.613-2.073.93.93,0,0,1,1.454-.853,2.473,2.473,0,0,1,.963,1.322C254.939,285.7,255.286,287.1,255.8,287.481Z" transform="translate(-217.745 -272.863)" fill="#a86060"/>
        <g id="Grupo_106428" data-name="Grupo 106428" transform="translate(35.45 12.487)">
          <path id="Trazado_149995" data-name="Trazado 149995" d="M250.576,282.451a.163.163,0,0,1-.158-.122c-.105-.4-.494-1.465-1.026-1.561a.162.162,0,0,1,.058-.319c.828.15,1.238,1.632,1.283,1.8a.161.161,0,0,1-.117.2A.112.112,0,0,1,250.576,282.451Z" transform="translate(-249.259 -280.447)" fill="#894c4c"/>
          <path id="Trazado_149996" data-name="Trazado 149996" d="M250.255,281.28h-.835a.162.162,0,0,1,0-.324h.835a.162.162,0,0,1,0,.324Z" transform="translate(-249.259 -280.118)" fill="#894c4c"/>
        </g>
      </g>
      <g id="cascet" transform="translate(14.202 43.395)">
        <path id="Trazado_149997" data-name="Trazado 149997" d="M167.13,301.938a3.81,3.81,0,0,1,4.3-3.6l74.614,4.673c2.379.152,4.306,1.558,4.306,3.147v2.877L167.13,305.8Z" transform="translate(-122.179 -298.332)" fill="#aa6868"/>
        <path id="Trazado_149998" data-name="Trazado 149998" d="M151.464,306.049a5.142,5.142,0,0,1,5.388-5.178l178.77,7.12a5.661,5.661,0,0,1,5.388,5.61v6.2l-189.545-2.964Z" transform="translate(-132.308 -296.694)" fill="#b57878"/>
        <rect id="Rectángulo_33893" data-name="Rectángulo 33893" width="217.318" height="42.872" transform="translate(4.313 27.477)" fill="#b57878"/>
        <rect id="Rectángulo_33894" data-name="Rectángulo 33894" width="217.048" height="13.751" transform="translate(4.313 15.073)" fill="#b57878"/>
        <rect id="Rectángulo_33895" data-name="Rectángulo 33895" width="217.318" height="2.341" transform="translate(4.313 27.477)" fill="#aa6868"/>
        <rect id="Rectángulo_33896" data-name="Rectángulo 33896" width="217.318" height="2.338" transform="translate(4.313 14.536)" fill="#aa6868"/>
        <rect id="Rectángulo_33897" data-name="Rectángulo 33897" width="34.78" height="8.358" rx="1.965" transform="translate(0 20.466)" fill="#b57878"/>
        <rect id="Rectángulo_33898" data-name="Rectángulo 33898" width="34.78" height="8.358" rx="1.965" transform="translate(190.895 20.466)" fill="#b57878"/>
        <rect id="Rectángulo_33899" data-name="Rectángulo 33899" width="213.274" height="3.775" transform="translate(7.548 66.573)" fill="#aa6868"/>
        <rect id="Rectángulo_33900" data-name="Rectángulo 33900" width="34.782" height="8.358" rx="1.965" transform="translate(1.347 64.955)" fill="#b57878"/>
        <path id="Rectángulo_33901" data-name="Rectángulo 33901" d="M1.965,0H32.817a1.965,1.965,0,0,1,1.965,1.965V6.393a1.965,1.965,0,0,1-1.965,1.965H1.966A1.966,1.966,0,0,1,0,6.392V1.965A1.965,1.965,0,0,1,1.965,0Z" transform="translate(188.648 64.955)" fill="#b57878"/>
      </g>
      <g id="Grupo_106435" data-name="Grupo 106435" transform="translate(0 3.035)">
        <path id="Trazado_149999" data-name="Trazado 149999" d="M176.77,321.674a3.941,3.941,0,0,1,.339,3.054c-.142.72-.013,2.75-.695,2.969-1.166.37-1.676-1.508-1.869-2.249-.288-1.1-.313-2.289-1.633-2.623.7-.962,3.6-2.6,3.948-.613Z" transform="translate(-104.239 -243.139)" fill="#ff8f67"/>
        <g id="Grupo_106430" data-name="Grupo 106430" transform="translate(57.881 80.151)">
          <path id="Trazado_150000" data-name="Trazado 150000" d="M182.009,325.238a3.028,3.028,0,0,1-3.235,2.742h-6.562a2.779,2.779,0,1,1,0-5.481h6.562A3.027,3.027,0,0,1,182.009,325.238Z" transform="translate(-164.664 -322.498)" fill="#8e5757"/>
          <path id="Trazado_150001" data-name="Trazado 150001" d="M168.951,329.774h-2.157V326.99a3.241,3.241,0,0,1,3.237-3.237h13.93a3.239,3.239,0,0,1,3.234,3.237v2.6h-2.157v-2.6a1.078,1.078,0,0,0-1.077-1.079h-13.93a1.079,1.079,0,0,0-1.08,1.079Z" transform="translate(-166.075 -321.687)" fill="#8e5757"/>
          <circle id="Elipse_4246" data-name="Elipse 4246" cx="1.888" cy="1.888" r="1.888" transform="translate(0 6.919)" fill="#8e5757"/>
          <path id="Trazado_150002" data-name="Trazado 150002" d="M177.384,328.589a1.887,1.887,0,1,1,1.885,1.887A1.887,1.887,0,0,1,177.384,328.589Z" transform="translate(-159.228 -319.781)" fill="#8e5757"/>
        </g>
        <path id="Trazado_150003" data-name="Trazado 150003" d="M154.881,289.966s9.706,2.7,7.278,24.4l-1.077,29.658-3.911,1.484-3.5-51.093Z" transform="translate(-116.682 -263.381)" fill="#4d3c4b"/>
        <path id="Trazado_150004" data-name="Trazado 150004" d="M169.06,321.136c1.042,1.846.43,4,1.918,5.633.324.356,1.786,2.4,1.984,2.462,1.721.517.726-1.953.71-2.462-.086-2.809,3.431-.967,5.094-1.719,1.91-.869-1.115-3.95-2.256-4.892-1.258-1.036-2.643-2.478-4.111-1.617-1.029.6-2.47,2.961-3.339,3Z" transform="translate(-106.73 -245.075)" fill="#ff8f67"/>
        <path id="Trazado_150005" data-name="Trazado 150005" d="M142.545,321.285c.83.463.731,1.852,1.026,2.687a5.665,5.665,0,0,0,1.551,2.429c-.711.751-2.188.11-2.936-.366-.3,1.579-.527,3.845-1.46,5.233-1.7,2.514-1.787-.548-1.638-2.007.038.942-.54,3.041-1.281,3.56-.831-.637-.387-2.821-.122-3.69-.028.616-.729,3.073-1.543,2.914-1-.191-.5-2.834-.247-3.425a2.88,2.88,0,0,1-.517,2.02c-.613-.578-.319-3.227-.265-4.136a18.079,18.079,0,0,1,1-4.973c.657-1.742,1.663-1.039,3.235-.887,1.136.112,2.643-.112,3.453.769Z" transform="translate(-128.755 -243.719)" fill="#ff8f67"/>
        <g id="haed-3" data-name="haed" transform="translate(27.535)">
          <g id="Grupo_106434" data-name="Grupo 106434">
            <g id="Grupo_106431" data-name="Grupo 106431">
              <path id="Trazado_150006" data-name="Trazado 150006" d="M149.216,285.451c-.634-2.534-.708-5.636.911-7.846,2.544-3.476,9.087-4.172,12.145-1.125,2.024,2.015,2.587,4.41,2.509,7.233a5.38,5.38,0,0,0,1.413,4.345c.15.142.331.336.245.524s-.318.188-.5.237c-.594.15-.868.83-.958,1.434a24.717,24.717,0,0,1-.784,4.314,1.366,1.366,0,0,1-.552.779,1.613,1.613,0,0,1-.981.1c-1.12-.125-2.229-.311-3.334-.547a.68.68,0,0,0-.193.119,1.644,1.644,0,0,0-.339.812q-.763,3.369-1.521,6.741a39.492,39.492,0,0,0-7.92-4.857,10.393,10.393,0,0,0,1.579-7.795A19.581,19.581,0,0,1,149.216,285.451Z" transform="translate(-147.366 -273.349)" fill="#ff8f67"/>
              <path id="Trazado_150007" data-name="Trazado 150007" d="M164.9,279.876a3.5,3.5,0,0,0,2.592-2.419,5.339,5.339,0,0,0-.278-3.637,4.5,4.5,0,0,1-3.983,1.572.97.97,0,0,0,1.149-.731,3.9,3.9,0,0,1-1.363.461c.153-.122.3-.247.459-.367-2.562.555-5.215-.642-7.818-.354a6.879,6.879,0,0,0-4.041,1.991,7.431,7.431,0,0,0-1.358,1.843c-.293.571-.328,1.436-.65,1.943-.338.532-.971.776-1.289,1.4a4.163,4.163,0,0,0-.389,1.757,8.423,8.423,0,0,0,.807,3.622c.881,1.994,2.152,3.939,2.152,6.119.392-.54,1.576-.273,2.272-.611.191-.091,1.982-1.306,1.854-1.454a2.162,2.162,0,0,1,.161.206c.171-.119,1.362-1.288,1.151-1.535a.742.742,0,0,1,.156.614,4.23,4.23,0,0,0,1.525-1.607,1.217,1.217,0,0,0,.173-.558,1.486,1.486,0,0,0-.216-.649,4.367,4.367,0,0,1-.558-2.231,1.28,1.28,0,0,1,.25-.728,1.14,1.14,0,0,1,1.67.174,3.312,3.312,0,0,1,.548,1.808,6,6,0,0,1,2.2-3.917c1.149-.851,1.831-1.745,1.339-3.255a1.4,1.4,0,0,0,1.78.729,2.858,2.858,0,0,0,1.484-1.472Z" transform="translate(-147.928 -273.82)" fill="#a86060"/>
              <path id="Trazado_150008" data-name="Trazado 150008" d="M157.925,289a.159.159,0,0,1-.054-.01c-.158-.056-3.9-1.406-4.821-4.465a.162.162,0,0,1,.311-.092c.874,2.9,4.581,4.24,4.619,4.253a.163.163,0,0,1,.1.207A.164.164,0,0,1,157.925,289Z" transform="translate(-144.621 -267.031)" fill="#894c4c"/>
              <path id="Trazado_150009" data-name="Trazado 150009" d="M155.376,282.611a.161.161,0,0,1-.156-.122c-.1-.4-.492-1.467-1.024-1.559a.162.162,0,0,1,.056-.319c.832.145,1.238,1.63,1.283,1.8a.16.16,0,0,1-.117.2A.114.114,0,0,1,155.376,282.611Z" transform="translate(-143.962 -269.431)" fill="#894c4c"/>
              <path id="Trazado_150010" data-name="Trazado 150010" d="M155.058,281.442h-.835a.162.162,0,0,1,0-.324h.835a.162.162,0,0,1,0,.324Z" transform="translate(-143.962 -269.101)" fill="#894c4c"/>
            </g>
            <g id="Grupo_106433" data-name="Grupo 106433" transform="translate(14.88 10.725)">
              <g id="Grupo_106432" data-name="Grupo 106432">
                <path id="Trazado_150011" data-name="Trazado 150011" d="M158.966,281.273a.388.388,0,0,1-.2.008,1.894,1.894,0,0,0-1.116.173.462.462,0,0,1-.446-.81,2.881,2.881,0,0,1,1.727-.272.463.463,0,0,1,.372.538A.457.457,0,0,1,158.966,281.273Z" transform="translate(-156.965 -280.334)" fill="#a86060"/>
                <path id="Trazado_150012" data-name="Trazado 150012" d="M158.31,281.774c.012.38-.125.7-.306.7s-.336-.3-.347-.678.125-.7.306-.7S158.3,281.394,158.31,281.774Z" transform="translate(-156.518 -279.841)" fill="#a86060"/>
              </g>
            </g>
          </g>
          <path id="Trazado_150013" data-name="Trazado 150013" d="M157.663,284.786a.145.145,0,0,1-.084-.03.132.132,0,0,1-.015-.184,1.4,1.4,0,0,1,1.432-.366.129.129,0,1,1-.066.25,1.152,1.152,0,0,0-1.167.283A.134.134,0,0,1,157.663,284.786Z" transform="translate(-141.717 -267.141)" fill="#894c4c"/>
        </g>
        <path id="Trazado_150014" data-name="Trazado 150014" d="M167.422,320.474l2.426,3.237,5.662-4.314-2.56-3.64Z" transform="translate(-107.789 -246.706)" fill="#7a8ecb"/>
        <path id="Trazado_150015" data-name="Trazado 150015" d="M135.49,318.184V322.5l6.876.54.405-4.988Z" transform="translate(-128.434 -245.224)" fill="#7a8ecb"/>
        <path id="Trazado_150016" data-name="Trazado 150016" d="M159.2,296.516l11.864,19.952,9.976,13.348-7.1,5.346-16.536-24.985Z" transform="translate(-114.264 -259.146)" fill="#4d3c4b"/>
        <path id="Trazado_150017" data-name="Trazado 150017" d="M166.829,377.262l16.34-4.622c1.146-.324,1.8-1.222,1.469-2a3.123,3.123,0,0,0-2.761-1.347c-2.4-.026-6.273-.385-8.9-2.224l-9.3,3.911a17.694,17.694,0,0,0,.306,4.869A2.285,2.285,0,0,0,166.829,377.262Z" transform="translate(-110.244 -213.532)" fill="#4d3c4b"/>
        <path id="Trazado_150018" data-name="Trazado 150018" d="M133.257,374.13l16.452,4.194c1.156.295,2.175-.153,2.277-1a3.119,3.119,0,0,0-1.714-2.549c-2.06-1.225-5.233-3.484-6.585-6.39l-10.009-1.283a17.7,17.7,0,0,0-2.177,4.37A2.286,2.286,0,0,0,133.257,374.13Z" transform="translate(-131.06 -213.505)" fill="#4d3c4b"/>
        <path id="Trazado_150019" data-name="Trazado 150019" d="M157.27,325.99,150.8,350.8s-19.233,36.127-19.594,44.217c0,0,2.516,3.594,14.561.538l14.2-37.746,11.146-26.424Z" transform="translate(-131.205 -240.089)" fill="#5b4f5a"/>
        <path id="Trazado_150020" data-name="Trazado 150020" d="M145.4,330.077,161.845,368.9l12.67,36.939s8.628-.268,12.4-5.121l-13.75-40.714-9.977-31.816L164,316.057Z" transform="translate(-122.028 -246.511)" fill="#5b4f5a"/>
        <path id="Trazado_150021" data-name="Trazado 150021" d="M151.067,289.64c0-.077,5.037,2.4,5.353,2.63a18.03,18.03,0,0,1,4.222,4.251,18.412,18.412,0,0,1,1.772,3.14,12.156,12.156,0,0,1,.828,4.839q-.057,3.068-.115,6.14-.119,6.207-.239,12.415c-.028,1.605-.061,3.214-.092,4.818-.046,2.4-1.325,3.161-3.323,4.367q-1.964,1.181-3.927,2.366-2.509,1.512-5.017,3.026S151.067,289.683,151.067,289.64Z" transform="translate(-118.711 -263.593)" fill="#7a8ecb"/>
        <path id="Trazado_150022" data-name="Trazado 150022" d="M164.165,299.092a11.742,11.742,0,0,0-2.486-5.256c-2.193-2.723-5.7-4.959-9.329-4.38,0,0-10.964,2.336-9.166,20.852,0,0,3.306,24.8.39,37.611,1.877.364,16.1,2.519,20.46-14.424q.067-3.29.138-6.581.133-6.4.267-12.8c.031-1.622.119-3.249.089-4.871-.028-1.719-.04-3.451-.026-5.18A24.744,24.744,0,0,0,164.165,299.092Z" transform="translate(-123.589 -263.77)" fill="#4d3c4b"/>
        <path id="Trazado_150023" data-name="Trazado 150023" d="M154.224,291.6q-3.784,4.91-7.571,9.818c-2.756,3.573-6.091,6.766-8.266,10.76-1.7,3.119-1.783,6.235-2.066,9.682-.087,1.034-1.279,15.033-1.24,15.036l8.09.808,2.425-19.683,16.179-15.1S164.471,292.681,154.224,291.6Z" transform="translate(-128.699 -262.322)" fill="#4d3c4b"/>
        <path id="Trazado_150024" data-name="Trazado 150024" d="M144.3,309.757a.266.266,0,0,1-.191-.079.271.271,0,0,1,0-.384l10.426-10.245a.268.268,0,0,1,.38,0,.272.272,0,0,1,0,.382l-10.426,10.247A.269.269,0,0,1,144.3,309.757Z" transform="translate(-122.911 -257.558)" fill="#fff"/>
        <path id="Trazado_150025" data-name="Trazado 150025" d="M149.273,288.855s6.156,2.72,8.178,5.078l1.349-4.044-9.527-2.516Z" transform="translate(-119.523 -265.057)" fill="#7a8ecb"/>
        <path id="Trazado_150026" data-name="Trazado 150026" d="M160.512,296.993a16.944,16.944,0,0,0-1.894-3.247,13.723,13.723,0,0,0-6.117-4.617c-.2-.081-3.41-1.067-3.41-1.047,0,.468-.013.935-.02,1.4a5.414,5.414,0,0,1-.053,1.846c-.2.479-.762.836-1.032,1.312-.785,1.4,1.383,2,2.238,2.415q2.146,1.045,4.293,2.093,1.754.852,3.514,1.7c.65.316,1.279.675,1.918,1.016a1.819,1.819,0,0,1,.878,1.334c.074.3.084.805.323,1A11.7,11.7,0,0,0,160.512,296.993Z" transform="translate(-120.464 -264.599)" fill="#4d3c4b"/>
        <path id="Trazado_150027" data-name="Trazado 150027" d="M156.354,350.941a.271.271,0,0,1-.249-.166l-9.977-23.592a.269.269,0,1,1,.5-.209l9.978,23.592a.269.269,0,0,1-.143.352A.264.264,0,0,1,156.354,350.941Z" transform="translate(-121.57 -239.56)" fill="#fff"/>
        <path id="Trazado_150028" data-name="Trazado 150028" d="M164.556,373.392a.269.269,0,0,1-.254-.178l-7.372-19.951a.269.269,0,0,1,.16-.346.274.274,0,0,1,.347.16l7.37,19.951a.268.268,0,0,1-.16.346A.254.254,0,0,1,164.556,373.392Z" transform="translate(-114.583 -222.69)" fill="#fff"/>
        <path id="Trazado_150029" data-name="Trazado 150029" d="M168.39,361.189a.271.271,0,0,1-.255-.184l-6.021-18.064a.27.27,0,0,1,.171-.341.266.266,0,0,1,.341.17l6.02,18.064a.268.268,0,0,1-.17.341A.26.26,0,0,1,168.39,361.189Z" transform="translate(-111.23 -229.361)" fill="#fff"/>
      </g>
      <g id="Grupo_106446" data-name="Grupo 106446" transform="translate(180.112 1.783)">
        <path id="Trazado_150030" data-name="Trazado 150030" d="M285.562,316.82c.594.843,2.332.909,3.265,1.451,1.3.754,2.1,1.615,3.723,1.538.079,1.668-2.261,1.293-3.328,1.347-.033.971,1.594,2.644,2.241,3.38a19.211,19.211,0,0,1,2.577,2.766c-1.2.69-3.076-.886-4.014-1.561.808.841,2.091,1.739,2.394,2.921-1.039.224-2.891-1.171-3.708-1.75.822.65,2.185,1.5,2.224,2.7-1.092.244-2.636-1.118-3.275-1.824.641.4,1.47.934,1.52,1.689-2.01.115-4.314-2.837-5.338-4.322-1.217-1.765-1.862-3.914-2.852-5.766,1.258-.789,3.254-2.225,4.661-2.518Z" transform="translate(-214.472 -244.766)" fill="#ff8f67"/>
        <path id="Trazado_150031" data-name="Trazado 150031" d="M279.837,321.461l1.886,1.483,5.662-4.583-4.178-3.505Z" transform="translate(-215.218 -246.036)" fill="#7a8ecb"/>
        <g id="Grupo_106444" data-name="Grupo 106444">
          <path id="Trazado_150032" data-name="Trazado 150032" d="M252.01,319.858a3.941,3.941,0,0,0-.181,2.251c.184.576.711.894,1.018,1.411.374.629.351,1.329.868,1.917.375.425,1.795,1.024.632,1.342-.675.186-1.067-.5-1.612-.72a5.6,5.6,0,0,0-2.256-.183,20.755,20.755,0,0,1-4.4.183,4.826,4.826,0,0,0-.616-.015,5.086,5.086,0,0,1,.188-3.757,24.535,24.535,0,0,0,1.07-5.02c.915-.048,2.063,1.008,2.865,1.424a26.8,26.8,0,0,1,2.6,1.1c-.036.086-.105.074-.173.155Z" transform="translate(-237.633 -244.478)" fill="#ff8f67"/>
          <path id="Trazado_150033" data-name="Trazado 150033" d="M247.2,315.675l-1.754,3.369,6.742,2.833,2.155-4.586Z" transform="translate(-237.452 -245.507)" fill="#7a8ecb"/>
          <g id="Grupo_106436" data-name="Grupo 106436" transform="translate(0 81.403)">
            <path id="Trazado_150034" data-name="Trazado 150034" d="M256.242,325.238a3.028,3.028,0,0,1-3.235,2.742h-6.56a2.779,2.779,0,1,1,0-5.481h6.56A3.027,3.027,0,0,1,256.242,325.238Z" transform="translate(-238.899 -322.498)" fill="#8e5757"/>
            <path id="Trazado_150035" data-name="Trazado 150035" d="M243.183,329.774h-2.155V326.99a3.239,3.239,0,0,1,3.234-3.237h13.932a3.238,3.238,0,0,1,3.234,3.237v2.6h-2.155v-2.6a1.079,1.079,0,0,0-1.079-1.079H244.262a1.079,1.079,0,0,0-1.078,1.079Z" transform="translate(-240.31 -321.687)" fill="#8e5757"/>
            <path id="Trazado_150036" data-name="Trazado 150036" d="M240.592,328.589a1.887,1.887,0,1,1,1.887,1.887A1.886,1.886,0,0,1,240.592,328.589Z" transform="translate(-240.592 -319.781)" fill="#8e5757"/>
            <circle id="Elipse_4247" data-name="Elipse 4247" cx="1.888" cy="1.888" r="1.888" transform="translate(18.154 6.919)" fill="#8e5757"/>
          </g>
          <path id="Trazado_150037" data-name="Trazado 150037" d="M269.286,291.85s-13.75,18.333-16.177,23.322l-7.414,16.986,7.818,3.639,10.787-20.22,10.515-15.371Z" transform="translate(-237.293 -260.911)" fill="#4d3c4b"/>
          <g id="Grupo_106443" data-name="Grupo 106443" transform="translate(8.267)">
            <g id="Grupo_106442" data-name="Grupo 106442" transform="translate(0 2.452)">
              <path id="Trazado_150038" data-name="Trazado 150038" d="M269.288,289.966s9.706,2.7,7.279,24.4l-1.078,29.658-3.909,1.484-3.505-51.093Z" transform="translate(-231.091 -264.581)" fill="#4d3c4b"/>
              <g id="haed-4" data-name="haed" transform="translate(28.964)">
                <g id="Grupo_106440" data-name="Grupo 106440">
                  <g id="Grupo_106437" data-name="Grupo 106437">
                    <path id="Trazado_150039" data-name="Trazado 150039" d="M263.621,285.451c-.631-2.534-.7-5.636.914-7.846,2.544-3.476,9.086-4.172,12.143-1.125,2.022,2.015,2.587,4.41,2.508,7.233a5.392,5.392,0,0,0,1.414,4.345c.15.142.333.336.245.524s-.315.188-.5.237c-.594.15-.868.83-.958,1.434a25.027,25.027,0,0,1-.782,4.314,1.358,1.358,0,0,1-.552.779,1.616,1.616,0,0,1-.981.1c-1.123-.125-2.233-.311-3.334-.547a.667.667,0,0,0-.194.119,1.661,1.661,0,0,0-.341.812q-.761,3.369-1.52,6.741a39.491,39.491,0,0,0-7.92-4.857,10.4,10.4,0,0,0,1.579-7.795A19.821,19.821,0,0,1,263.621,285.451Z" transform="translate(-263.204 -274.549)" fill="#ff8f67"/>
                    <path id="Trazado_150040" data-name="Trazado 150040" d="M272.33,289a.159.159,0,0,1-.054-.01c-.158-.056-3.9-1.406-4.818-4.465a.161.161,0,0,1,.107-.2.163.163,0,0,1,.2.109c.873,2.9,4.579,4.24,4.617,4.253a.162.162,0,0,1-.054.315Z" transform="translate(-260.458 -268.231)" fill="#894c4c"/>
                  </g>
                  <g id="Grupo_106439" data-name="Grupo 106439" transform="translate(13.449 9.525)">
                    <g id="Grupo_106438" data-name="Grupo 106438">
                      <path id="Trazado_150041" data-name="Trazado 150041" d="M273.375,281.273a.4.4,0,0,1-.2.008,1.9,1.9,0,0,0-1.116.173.462.462,0,1,1-.443-.81,2.859,2.859,0,0,1,1.726-.272.461.461,0,0,1,.369.538A.451.451,0,0,1,273.375,281.273Z" transform="translate(-271.372 -280.334)" fill="#a86060"/>
                      <path id="Trazado_150042" data-name="Trazado 150042" d="M272.715,281.774c.015.38-.124.7-.3.7s-.334-.3-.347-.678.127-.7.3-.7S272.7,281.394,272.715,281.774Z" transform="translate(-270.925 -279.841)" fill="#a86060"/>
                    </g>
                  </g>
                </g>
                <path id="Trazado_150043" data-name="Trazado 150043" d="M272.07,284.787a.136.136,0,0,1-.082-.03.131.131,0,0,1-.016-.184,1.393,1.393,0,0,1,1.434-.366.129.129,0,1,1-.064.25,1.149,1.149,0,0,0-1.171.283A.134.134,0,0,1,272.07,284.787Z" transform="translate(-257.555 -268.343)" fill="#894c4c"/>
                <g id="Grupo_106441" data-name="Grupo 106441" transform="translate(6.569 10.93)">
                  <path id="Trazado_150044" data-name="Trazado 150044" d="M268.158,282.229a.208.208,0,0,1-.044-.007l-.8-.229a.164.164,0,0,1-.112-.2.167.167,0,0,1,.2-.11l.8.227a.163.163,0,0,1-.044.319Z" transform="translate(-267.194 -280.87)" fill="#894c4c"/>
                  <path id="Trazado_150045" data-name="Trazado 150045" d="M268.14,283.444h0a.164.164,0,0,1-.158-.166c.01-.417-.069-1.546-.553-1.785a.16.16,0,0,1-.076-.216.165.165,0,0,1,.217-.074c.756.369.739,1.907.734,2.083A.162.162,0,0,1,268.14,283.444Z" transform="translate(-267.103 -281.187)" fill="#894c4c"/>
                </g>
              </g>
              <path id="Trazado_150046" data-name="Trazado 150046" d="M281.236,377.262l16.339-4.622c1.149-.324,1.806-1.222,1.472-2a3.128,3.128,0,0,0-2.763-1.347c-2.4-.026-6.272-.385-8.9-2.224l-9.3,3.911a17.62,17.62,0,0,0,.306,4.869A2.282,2.282,0,0,0,281.236,377.262Z" transform="translate(-224.652 -214.732)" fill="#4d3c4b"/>
              <path id="Trazado_150047" data-name="Trazado 150047" d="M247.662,374.13l16.456,4.194c1.156.295,2.175-.153,2.274-1a3.111,3.111,0,0,0-1.711-2.549c-2.06-1.225-5.234-3.484-6.586-6.39l-10.008-1.283a17.68,17.68,0,0,0-2.178,4.37A2.286,2.286,0,0,0,247.662,374.13Z" transform="translate(-245.469 -214.705)" fill="#4d3c4b"/>
              <path id="Trazado_150048" data-name="Trazado 150048" d="M271.678,325.99,265.209,350.8s-19.235,36.127-19.6,44.217c0,0,2.516,3.594,14.559.538l14.2-37.746,11.144-26.424Z" transform="translate(-245.613 -241.289)" fill="#5b4f5a"/>
              <path id="Trazado_150049" data-name="Trazado 150049" d="M259.8,330.077,276.251,368.9l12.674,36.939s8.628-.268,12.4-5.121l-13.75-40.714L277.6,328.189l.807-12.132Z" transform="translate(-236.437 -247.712)" fill="#5b4f5a"/>
              <path id="Trazado_150050" data-name="Trazado 150050" d="M265.477,289.64c0-.077,5.035,2.4,5.355,2.63a17.95,17.95,0,0,1,5.989,7.391,12.189,12.189,0,0,1,.831,4.839q-.057,3.068-.117,6.14-.119,6.207-.237,12.415c-.031,1.605-.064,3.214-.091,4.818-.049,2.4-1.33,3.161-3.326,4.367l-3.927,2.366q-2.509,1.512-5.019,3.026S265.477,289.683,265.477,289.64Z" transform="translate(-233.12 -264.793)" fill="#7a8ecb"/>
              <path id="Trazado_150051" data-name="Trazado 150051" d="M278.57,299.092a11.69,11.69,0,0,0-2.486-5.256c-2.192-2.723-5.7-4.959-9.326-4.38,0,0-10.966,2.336-9.165,20.852,0,0,3.3,24.8.387,37.611,1.88.364,16.1,2.519,20.462-14.424q.067-3.29.137-6.581.133-6.4.265-12.8c.035-1.622.12-3.249.091-4.871-.028-1.719-.04-3.451-.026-5.18A24.619,24.619,0,0,0,278.57,299.092Z" transform="translate(-237.997 -264.97)" fill="#4d3c4b"/>
              <path id="Trazado_150052" data-name="Trazado 150052" d="M263.68,288.855s6.158,2.72,8.178,5.078l1.35-4.044-9.529-2.516Z" transform="translate(-233.932 -266.258)" fill="#7a8ecb"/>
              <path id="Trazado_150053" data-name="Trazado 150053" d="M274.92,296.993a17.132,17.132,0,0,0-1.9-3.247,13.709,13.709,0,0,0-6.115-4.617c-.194-.081-3.41-1.067-3.41-1.047l-.02,1.4a5.373,5.373,0,0,1-.054,1.846c-.2.479-.762.836-1.031,1.312-.784,1.4,1.383,2,2.236,2.415q2.149,1.045,4.3,2.093,1.754.852,3.512,1.7c.65.316,1.279.675,1.922,1.016a1.824,1.824,0,0,1,.874,1.334c.074.3.084.805.324,1A11.743,11.743,0,0,0,274.92,296.993Z" transform="translate(-234.872 -265.799)" fill="#4d3c4b"/>
              <path id="Trazado_150054" data-name="Trazado 150054" d="M270.759,350.941a.271.271,0,0,1-.249-.166l-9.975-23.592a.27.27,0,0,1,.5-.209l9.975,23.592a.269.269,0,0,1-.143.352A.264.264,0,0,1,270.759,350.941Z" transform="translate(-235.979 -240.76)" fill="#fff"/>
            </g>
            <path id="Trazado_150055" data-name="Trazado 150055" d="M258.951,319.856a.27.27,0,0,1-.27-.27,59.325,59.325,0,0,0-.767-8.017c-.914-6.553-1.861-13.331,1.9-18.786a.27.27,0,1,1,.445.306c-3.637,5.282-2.705,11.954-1.806,18.405a59.617,59.617,0,0,1,.772,8.091A.27.27,0,0,1,258.951,319.856Z" transform="translate(-238.191 -260.382)" fill="#fff"/>
            <path id="Trazado_150056" data-name="Trazado 150056" d="M280.13,277.066a9.391,9.391,0,0,0-4.363-3.4c-3.843-1.46-8.109-.147-11.146,2.554a10.161,10.161,0,0,0-2.83,10.209c.749,2.359,2.4,4.174,2.468,6.708-.013.379.012.764.036,1.144a4.636,4.636,0,0,0,.907-2.63c.362.978.1,2.588.174,3.754a5.519,5.519,0,0,0,2.5-1.23,10.767,10.767,0,0,0,1.558-2.229,8.73,8.73,0,0,0,1.1-4.075c.056-.665,1.05-2.714,1.716-1.434.343.655-.319,2.544,1.107,2.318a2.828,2.828,0,0,1,.329-2.664c.338-.529,1.624-1.806,1.544-2.45.035.285.058,2.146-.342,2.221,2.663-.5,6.408-3.784,6.012-6.789A4.849,4.849,0,0,0,280.13,277.066Z" transform="translate(-235.416 -273.06)" fill="#a86060"/>
          </g>
        </g>
        <g id="Grupo_106445" data-name="Grupo 106445" transform="translate(34.165 30.699)">
          <path id="Trazado_150057" data-name="Trazado 150057" d="M273.023,321.665a41.159,41.159,0,0,0,6.585,6.369q6.049,5.031,12.1,10.059l6.473-7.368L280.2,314.906q-2.623-5.915-5.249-11.829c-1.452-3.275-2.257-7.171-4.821-9.823-2.621-2.712-7.67-1.8-8.544,2.218a12,12,0,0,0,.746,7.184,114.934,114.934,0,0,0,10.135,18.262C272.649,321.174,272.835,321.421,273.023,321.665Z" transform="translate(-261.341 -291.704)" fill="#4d3c4b"/>
          <path id="Trazado_150058" data-name="Trazado 150058" d="M280.969,323.953a.274.274,0,0,1-.158-.051c-11.789-8.575-17.383-21.912-17.439-22.046a.271.271,0,0,1,.147-.352.267.267,0,0,1,.352.147c.054.132,5.593,13.334,17.256,21.814a.271.271,0,0,1-.158.489Z" transform="translate(-260.042 -285.382)" fill="#fff"/>
        </g>
        <path id="Trazado_150059" data-name="Trazado 150059" d="M256.934,370.2a.272.272,0,0,1-.094-.018.269.269,0,0,1-.16-.346l7.416-20.086a.27.27,0,0,1,.507.186l-7.416,20.086A.272.272,0,0,1,256.934,370.2Z" transform="translate(-230.201 -223.591)" fill="#fff"/>
        <path id="Trazado_150060" data-name="Trazado 150060" d="M253.006,355.95a.257.257,0,0,1-.119-.03.27.27,0,0,1-.124-.361l6.739-13.615a.27.27,0,1,1,.484.237L253.248,355.8A.273.273,0,0,1,253.006,355.95Z" transform="translate(-232.74 -228.62)" fill="#fff"/>
      </g>
    </g>
  </g>
</svg>
