<svg xmlns="http://www.w3.org/2000/svg" width="591.66" height="230.827" viewBox="0 0 591.66 230.827">
  <g id="Grupo_106978" data-name="Grupo 106978" transform="translate(-326.116 -56.17)">
    <g id="Grupo_106915" data-name="Grupo 106915" transform="translate(482.612 207.8)">
      <path id="Trazado_151503" data-name="Trazado 151503" d="M429.218,129.883c-.3.175-10.95,0-10.95,0v66.13h9.31Z" transform="translate(-385.203 -129.883)" fill="#4c4056"/>
      <path id="Trazado_151504" data-name="Trazado 151504" d="M471.834,162.948a33.065,33.065,0,1,1-33.065-33.065A33.066,33.066,0,0,1,471.834,162.948Z" transform="translate(-398.484 -129.883)" fill="#4c4056"/>
      <path id="Trazado_151505" data-name="Trazado 151505" d="M468.324,162.948a33.065,33.065,0,1,1-33.065-33.065A33.066,33.066,0,0,1,468.324,162.948Z" transform="translate(-402.194 -129.883)" fill="#64546f"/>
      <path id="Trazado_151506" data-name="Trazado 151506" d="M425.514,148.417a4.787,4.787,0,1,1-4.787-4.787A4.785,4.785,0,0,1,425.514,148.417Z" transform="translate(-387.663 -115.352)" fill="#64546f"/>
      <g id="Grupo_106914" data-name="Grupo 106914" transform="translate(9.498 9.497)">
        <g id="Grupo_106902" data-name="Grupo 106902" transform="translate(0 0)">
          <circle id="Elipse_4294" data-name="Elipse 4294" cx="19.578" cy="19.578" r="19.578" transform="translate(0 9.033) rotate(-13.338)" fill="#c0aeba"/>
        </g>
        <g id="Grupo_106913" data-name="Grupo 106913" transform="translate(4.409 3.989)">
          <g id="Grupo_106903" data-name="Grupo 106903" transform="translate(17.417 19.578)">
            <rect id="Rectángulo_34063" data-name="Rectángulo 34063" width="3.481" height="19.578" fill="#64546f"/>
          </g>
          <g id="Grupo_106904" data-name="Grupo 106904" transform="translate(17.75 18.555)">
            <rect id="Rectángulo_34064" data-name="Rectángulo 34064" width="3.48" height="19.578" transform="matrix(0.809, -0.588, 0.588, 0.809, 0, 2.046)" fill="#64546f"/>
          </g>
          <g id="Grupo_106905" data-name="Grupo 106905" transform="translate(18.62 17.923)">
            <rect id="Rectángulo_34065" data-name="Rectángulo 34065" width="3.481" height="19.578" transform="translate(0 3.31) rotate(-72.001)" fill="#64546f"/>
          </g>
          <g id="Grupo_106906" data-name="Grupo 106906" transform="translate(18.62 11.875)">
            <rect id="Rectángulo_34066" data-name="Rectángulo 34066" width="19.578" height="3.481" transform="matrix(0.951, -0.309, 0.309, 0.951, 0, 6.046)" fill="#64546f"/>
          </g>
          <g id="Grupo_106907" data-name="Grupo 106907" transform="translate(17.752 2.715)">
            <rect id="Rectángulo_34067" data-name="Rectángulo 34067" width="19.578" height="3.48" transform="translate(0 15.842) rotate(-54.017)" fill="#64546f"/>
          </g>
          <g id="Grupo_106908" data-name="Grupo 106908" transform="translate(17.417)">
            <rect id="Rectángulo_34068" data-name="Rectángulo 34068" width="3.481" height="19.578" fill="#64546f"/>
          </g>
          <g id="Grupo_106909" data-name="Grupo 106909" transform="translate(6.243 2.717)">
            <rect id="Rectángulo_34069" data-name="Rectángulo 34069" width="3.48" height="19.578" transform="matrix(0.809, -0.588, 0.588, 0.809, 0, 2.046)" fill="#64546f"/>
          </g>
          <g id="Grupo_106910" data-name="Grupo 106910" transform="translate(0 11.873)">
            <rect id="Rectángulo_34070" data-name="Rectángulo 34070" width="3.481" height="19.578" transform="translate(0 3.31) rotate(-72.001)" fill="#64546f"/>
          </g>
          <g id="Grupo_106911" data-name="Grupo 106911" transform="translate(0 17.925)">
            <rect id="Rectángulo_34071" data-name="Rectángulo 34071" width="19.578" height="3.48" transform="matrix(0.951, -0.309, 0.309, 0.951, 0, 6.045)" fill="#64546f"/>
          </g>
          <g id="Grupo_106912" data-name="Grupo 106912" transform="translate(6.245 18.554)">
            <rect id="Rectángulo_34072" data-name="Rectángulo 34072" width="19.578" height="3.48" transform="translate(0 15.842) rotate(-54.017)" fill="#64546f"/>
          </g>
        </g>
      </g>
    </g>
    <g id="Grupo_106929" data-name="Grupo 106929" transform="translate(814.626 207.8)">
      <path id="Trazado_151507" data-name="Trazado 151507" d="M590.62,129.883c-.3.175-10.948,0-10.948,0v66.13h9.308Z" transform="translate(-546.607 -129.883)" fill="#4c4056"/>
      <path id="Trazado_151508" data-name="Trazado 151508" d="M633.237,162.948a33.065,33.065,0,1,1-33.063-33.065A33.064,33.064,0,0,1,633.237,162.948Z" transform="translate(-559.889 -129.883)" fill="#4c4056"/>
      <path id="Trazado_151509" data-name="Trazado 151509" d="M629.726,162.948a33.064,33.064,0,1,1-33.063-33.065A33.064,33.064,0,0,1,629.726,162.948Z" transform="translate(-563.598 -129.883)" fill="#64546f"/>
      <path id="Trazado_151510" data-name="Trazado 151510" d="M586.916,148.417a4.786,4.786,0,1,1-4.785-4.787A4.785,4.785,0,0,1,586.916,148.417Z" transform="translate(-549.067 -115.352)" fill="#64546f"/>
      <g id="Grupo_106928" data-name="Grupo 106928" transform="translate(10.595 10.595)">
        <g id="Grupo_106916" data-name="Grupo 106916" transform="translate(0 0)">
          <circle id="Elipse_4295" data-name="Elipse 4295" cx="19.578" cy="19.578" r="19.578" transform="translate(0 6.291) rotate(-9.245)" fill="#c0aeba"/>
        </g>
        <g id="Grupo_106927" data-name="Grupo 106927" transform="translate(3.311 2.891)">
          <g id="Grupo_106917" data-name="Grupo 106917" transform="translate(17.418 19.578)">
            <rect id="Rectángulo_34073" data-name="Rectángulo 34073" width="3.479" height="19.578" fill="#64546f"/>
          </g>
          <g id="Grupo_106918" data-name="Grupo 106918" transform="translate(17.75 18.555)">
            <rect id="Rectángulo_34074" data-name="Rectángulo 34074" width="3.48" height="19.577" transform="translate(0 2.046) rotate(-35.998)" fill="#64546f"/>
          </g>
          <g id="Grupo_106919" data-name="Grupo 106919" transform="translate(18.62 17.923)">
            <rect id="Rectángulo_34075" data-name="Rectángulo 34075" width="3.481" height="19.578" transform="translate(0 3.311) rotate(-72.001)" fill="#64546f"/>
          </g>
          <g id="Grupo_106920" data-name="Grupo 106920" transform="translate(18.62 11.87)">
            <rect id="Rectángulo_34076" data-name="Rectángulo 34076" width="19.578" height="3.481" transform="translate(0 6.055) rotate(-18.016)" fill="#64546f"/>
          </g>
          <g id="Grupo_106921" data-name="Grupo 106921" transform="translate(17.752 2.715)">
            <rect id="Rectángulo_34077" data-name="Rectángulo 34077" width="19.577" height="3.48" transform="translate(0 15.842) rotate(-54.017)" fill="#64546f"/>
          </g>
          <g id="Grupo_106922" data-name="Grupo 106922" transform="translate(17.418)">
            <rect id="Rectángulo_34078" data-name="Rectángulo 34078" width="3.479" height="19.578" fill="#64546f"/>
          </g>
          <g id="Grupo_106923" data-name="Grupo 106923" transform="translate(6.241 2.716)">
            <rect id="Rectángulo_34079" data-name="Rectángulo 34079" width="3.48" height="19.578" transform="translate(0 2.046) rotate(-36.003)" fill="#64546f"/>
          </g>
          <g id="Grupo_106924" data-name="Grupo 106924" transform="translate(0 11.873)">
            <rect id="Rectángulo_34080" data-name="Rectángulo 34080" width="3.481" height="19.578" transform="translate(0 3.311) rotate(-72.001)" fill="#64546f"/>
          </g>
          <g id="Grupo_106925" data-name="Grupo 106925" transform="translate(0.001 17.92)">
            <rect id="Rectángulo_34081" data-name="Rectángulo 34081" width="19.578" height="3.481" transform="translate(0 6.055) rotate(-18.016)" fill="#64546f"/>
          </g>
          <g id="Grupo_106926" data-name="Grupo 106926" transform="translate(6.244 18.554)">
            <rect id="Rectángulo_34082" data-name="Rectángulo 34082" width="19.578" height="3.48" transform="translate(0 15.842) rotate(-54.017)" fill="#64546f"/>
          </g>
        </g>
      </g>
    </g>
    <path id="Trazado_151511" data-name="Trazado 151511" d="M486.82,57.326,411.068,70.574,464.706,75.7Z" transform="translate(89.798 1.221)" fill="#64546f"/>
    <path id="Trazado_151512" data-name="Trazado 151512" d="M744.054,242.172h-286.5V56.545H753.978Z" transform="translate(138.932 0.397)" fill="#64546f"/>
    <path id="Trazado_151513" data-name="Trazado 151513" d="M554.469,56.548V242.163H472.745c.019-.627.054-1.253.054-1.878,0-23.111-19.528-41.836-43.611-41.836A44.2,44.2,0,0,0,395.7,213.5l-29.846-27.48a47.042,47.042,0,0,1,14.235-15.8c2.855-2,36.424-18.429,45.664-26.68,4.316-3.845,53.218-58.14,61.466-64.441A110.587,110.587,0,0,1,554.469,56.548Z" transform="translate(42.01 0.399)" fill="#64546f"/>
    <rect id="Rectángulo_34083" data-name="Rectángulo 34083" width="272.539" height="36.763" transform="translate(343.693 205.409)" fill="#64546f"/>
    <path id="Trazado_151514" data-name="Trazado 151514" d="M717.16,62.985l-9.937,185.634H670.955c.019-.627.051-1.253.051-1.9a40.653,40.653,0,0,0-11.24-28.019,44.8,44.8,0,0,0-64.721,0A40.72,40.72,0,0,0,583.8,246.722c0,.644.016,1.269.051,1.9H420.724V62.985Z" transform="translate(100.005 7.203)" fill="#4c4056"/>
    <path id="Trazado_151515" data-name="Trazado 151515" d="M520.729,62.985V248.619H439.006c.016-.627.035-1.253.035-1.9A40.645,40.645,0,0,0,427.8,218.7a44.782,44.782,0,0,0-64.7,0,40.647,40.647,0,0,0-11.244,28.019c0,.644.019,1.269.054,1.9h-.854l-8.387-4.3A30.415,30.415,0,0,1,326.151,218.7c-.018-.469-.035-.957-.035-1.444v-1.74a47.419,47.419,0,0,1,20.223-38.843c2.87-2,36.44-18.429,45.662-26.678,4.318-3.863,53.236-58.142,61.485-64.459A110.542,110.542,0,0,1,520.729,62.985Z" transform="translate(0 7.203)" fill="#4c4056"/>
    <g id="Grupo_106930" data-name="Grupo 106930" transform="translate(417.576 95.2)">
      <path id="Trazado_151516" data-name="Trazado 151516" d="M454.88,231.6H402.285a5.616,5.616,0,0,1-5.546-5.124,42.538,42.538,0,0,0-23.121-33.725,5.557,5.557,0,0,1-3.04-4.976V126.619a16.161,16.161,0,0,1,5.019-11.678l34.122-32.359a14.232,14.232,0,0,1,8.646-3.851L463.5,75.163a6.709,6.709,0,0,1,7.237,6.687v82.2a20.611,20.611,0,0,1-3.314,11.221,19.085,19.085,0,0,0-3.067,10.386V222.13A9.483,9.483,0,0,1,454.88,231.6Zm9.162-154.918c-.14,0-.282,0-.422.016L418.487,80.27a12.661,12.661,0,0,0-7.7,3.431l-34.124,32.359a14.616,14.616,0,0,0-4.538,10.559v61.158a4.018,4.018,0,0,0,2.2,3.6,44.07,44.07,0,0,1,23.954,34.945,4.077,4.077,0,0,0,4.011,3.736H454.88a7.939,7.939,0,0,0,7.93-7.93V185.656a20.629,20.629,0,0,1,3.314-11.223,19.083,19.083,0,0,0,3.067-10.384V81.85a5.167,5.167,0,0,0-5.149-5.165Z" transform="translate(-370.578 -75.144)" fill="#64546f"/>
    </g>
    <g id="Grupo_106944" data-name="Grupo 106944" transform="translate(357.293 220.867)">
      <path id="Trazado_151517" data-name="Trazado 151517" d="M368.3,136.235c-.3.177-10.95,0-10.95,0v66.13h9.31Z" transform="translate(-324.281 -136.235)" fill="#4c4056"/>
      <path id="Trazado_151518" data-name="Trazado 151518" d="M410.912,169.3a33.065,33.065,0,1,1-33.067-33.065A33.066,33.066,0,0,1,410.912,169.3Z" transform="translate(-337.562 -136.235)" fill="#4c4056"/>
      <path id="Trazado_151519" data-name="Trazado 151519" d="M407.4,169.3a33.065,33.065,0,1,1-33.065-33.065A33.065,33.065,0,0,1,407.4,169.3Z" transform="translate(-341.272 -136.235)" fill="#64546f"/>
      <path id="Trazado_151520" data-name="Trazado 151520" d="M364.59,154.769a4.786,4.786,0,1,1-4.785-4.787A4.785,4.785,0,0,1,364.59,154.769Z" transform="translate(-326.741 -121.704)" fill="#64546f"/>
      <g id="Grupo_106943" data-name="Grupo 106943" transform="translate(13.488 13.487)">
        <g id="Grupo_106931" data-name="Grupo 106931" transform="translate(0 0.001)">
          <path id="Trazado_151521" data-name="Trazado 151521" d="M386.983,162.369a19.577,19.577,0,1,0-19.577,19.579A19.565,19.565,0,0,0,386.983,162.369Z" transform="translate(-347.829 -142.792)" fill="#c0aeba"/>
        </g>
        <g id="Grupo_106942" data-name="Grupo 106942" transform="translate(0.419)">
          <g id="Grupo_106932" data-name="Grupo 106932" transform="translate(17.416 19.578)">
            <rect id="Rectángulo_34084" data-name="Rectángulo 34084" width="3.481" height="19.578" fill="#64546f"/>
          </g>
          <g id="Grupo_106933" data-name="Grupo 106933" transform="translate(17.749 18.555)">
            <rect id="Rectángulo_34085" data-name="Rectángulo 34085" width="3.481" height="19.578" transform="translate(0 2.046) rotate(-36.001)" fill="#64546f"/>
          </g>
          <g id="Grupo_106934" data-name="Grupo 106934" transform="translate(18.619 17.923)">
            <rect id="Rectángulo_34086" data-name="Rectángulo 34086" width="3.481" height="19.578" transform="translate(0 3.31) rotate(-72.001)" fill="#64546f"/>
          </g>
          <g id="Grupo_106935" data-name="Grupo 106935" transform="translate(18.619 11.876)">
            <rect id="Rectángulo_34087" data-name="Rectángulo 34087" width="19.578" height="3.481" transform="translate(0 6.044) rotate(-17.983)" fill="#64546f"/>
          </g>
          <g id="Grupo_106936" data-name="Grupo 106936" transform="translate(17.751 2.715)">
            <rect id="Rectángulo_34088" data-name="Rectángulo 34088" width="19.578" height="3.481" transform="matrix(0.588, -0.809, 0.809, 0.588, 0, 15.842)" fill="#64546f"/>
          </g>
          <g id="Grupo_106937" data-name="Grupo 106937" transform="translate(17.416)">
            <rect id="Rectángulo_34089" data-name="Rectángulo 34089" width="3.481" height="19.578" fill="#64546f"/>
          </g>
          <g id="Grupo_106938" data-name="Grupo 106938" transform="translate(6.241 2.716)">
            <rect id="Rectángulo_34090" data-name="Rectángulo 34090" width="3.481" height="19.578" transform="translate(0 2.046) rotate(-36)" fill="#64546f"/>
          </g>
          <g id="Grupo_106939" data-name="Grupo 106939" transform="translate(0 11.873)">
            <rect id="Rectángulo_34091" data-name="Rectángulo 34091" width="3.481" height="19.577" transform="translate(0 3.31) rotate(-72)" fill="#64546f"/>
          </g>
          <g id="Grupo_106940" data-name="Grupo 106940" transform="translate(0 17.925)">
            <rect id="Rectángulo_34092" data-name="Rectángulo 34092" width="19.577" height="3.481" transform="translate(0 6.045) rotate(-17.986)" fill="#64546f"/>
          </g>
          <g id="Grupo_106941" data-name="Grupo 106941" transform="translate(6.243 18.554)">
            <rect id="Rectángulo_34093" data-name="Rectángulo 34093" width="19.578" height="3.481" transform="translate(0 15.842) rotate(-54.014)" fill="#64546f"/>
          </g>
        </g>
      </g>
    </g>
    <g id="Grupo_106958" data-name="Grupo 106958" transform="translate(689.25 220.867)">
      <path id="Trazado_151522" data-name="Trazado 151522" d="M529.67,136.235c-.3.177-10.947,0-10.947,0v66.13h9.308Z" transform="translate(-485.656 -136.235)" fill="#4c4056"/>
      <path id="Trazado_151523" data-name="Trazado 151523" d="M572.288,169.3a33.065,33.065,0,1,1-33.065-33.065A33.066,33.066,0,0,1,572.288,169.3Z" transform="translate(-498.938 -136.235)" fill="#4c4056"/>
      <path id="Trazado_151524" data-name="Trazado 151524" d="M568.778,169.3a33.065,33.065,0,1,1-33.063-33.065A33.064,33.064,0,0,1,568.778,169.3Z" transform="translate(-502.648 -136.235)" fill="#64546f"/>
      <path id="Trazado_151525" data-name="Trazado 151525" d="M525.969,154.769a4.787,4.787,0,1,1-4.785-4.787A4.787,4.787,0,0,1,525.969,154.769Z" transform="translate(-488.117 -121.704)" fill="#64546f"/>
      <g id="Grupo_106957" data-name="Grupo 106957" transform="translate(13.488 13.487)">
        <g id="Grupo_106945" data-name="Grupo 106945" transform="translate(0 0)">
          <circle id="Elipse_4296" data-name="Elipse 4296" cx="19.578" cy="19.578" r="19.578" fill="#c0aeba"/>
        </g>
        <g id="Grupo_106956" data-name="Grupo 106956" transform="translate(0.42)">
          <g id="Grupo_106946" data-name="Grupo 106946" transform="translate(17.418 19.578)">
            <rect id="Rectángulo_34094" data-name="Rectángulo 34094" width="3.479" height="19.578" fill="#64546f"/>
          </g>
          <g id="Grupo_106947" data-name="Grupo 106947" transform="translate(17.75 18.555)">
            <rect id="Rectángulo_34095" data-name="Rectángulo 34095" width="3.481" height="19.577" transform="translate(0 2.046) rotate(-35.998)" fill="#64546f"/>
          </g>
          <g id="Grupo_106948" data-name="Grupo 106948" transform="translate(18.62 17.923)">
            <rect id="Rectángulo_34096" data-name="Rectángulo 34096" width="3.481" height="19.578" transform="translate(0 3.311) rotate(-72.001)" fill="#64546f"/>
          </g>
          <g id="Grupo_106949" data-name="Grupo 106949" transform="translate(18.62 11.87)">
            <rect id="Rectángulo_34097" data-name="Rectángulo 34097" width="19.578" height="3.481" transform="translate(0 6.056) rotate(-18.018)" fill="#64546f"/>
          </g>
          <g id="Grupo_106950" data-name="Grupo 106950" transform="translate(17.751 2.716)">
            <rect id="Rectángulo_34098" data-name="Rectángulo 34098" width="19.577" height="3.481" transform="translate(0 15.841) rotate(-54.014)" fill="#64546f"/>
          </g>
          <g id="Grupo_106951" data-name="Grupo 106951" transform="translate(17.418)">
            <rect id="Rectángulo_34099" data-name="Rectángulo 34099" width="3.479" height="19.578" fill="#64546f"/>
          </g>
          <g id="Grupo_106952" data-name="Grupo 106952" transform="translate(6.241 2.716)">
            <rect id="Rectángulo_34100" data-name="Rectángulo 34100" width="3.48" height="19.578" transform="matrix(0.809, -0.588, 0.588, 0.809, 0, 2.046)" fill="#64546f"/>
          </g>
          <g id="Grupo_106953" data-name="Grupo 106953" transform="translate(0 11.873)">
            <rect id="Rectángulo_34101" data-name="Rectángulo 34101" width="3.481" height="19.578" transform="translate(0 3.311) rotate(-72.001)" fill="#64546f"/>
          </g>
          <g id="Grupo_106954" data-name="Grupo 106954" transform="translate(0 17.92)">
            <rect id="Rectángulo_34102" data-name="Rectángulo 34102" width="19.578" height="3.481" transform="translate(0 6.055) rotate(-18.015)" fill="#64546f"/>
          </g>
          <g id="Grupo_106955" data-name="Grupo 106955" transform="translate(6.243 18.554)">
            <rect id="Rectángulo_34103" data-name="Rectángulo 34103" width="19.578" height="3.481" transform="translate(0 15.842) rotate(-54.014)" fill="#64546f"/>
          </g>
        </g>
      </g>
    </g>
    <g id="Grupo_106959" data-name="Grupo 106959" transform="translate(482.002 174.449)">
      <rect id="Rectángulo_34104" data-name="Rectángulo 34104" width="23.711" height="2.719" transform="translate(4.685 0.737)" fill="#64546f"/>
      <path id="Trazado_151526" data-name="Trazado 151526" d="M402.956,117.009l5.138.835a1.309,1.309,0,0,0,1.516-1.292v-1.576a1.306,1.306,0,0,0-1.516-1.29l-5.138.833A1.261,1.261,0,0,0,402.956,117.009Z" transform="translate(-401.897 -113.67)" fill="#64546f"/>
      <path id="Trazado_151527" data-name="Trazado 151527" d="M419.689,117.009l-5.141.835a1.309,1.309,0,0,1-1.516-1.292v-1.576a1.306,1.306,0,0,1,1.516-1.29l5.141.833A1.261,1.261,0,0,1,419.689,117.009Z" transform="translate(-390.128 -113.67)" fill="#64546f"/>
    </g>
    <g id="Grupo_106960" data-name="Grupo 106960" transform="translate(529.423 174.449)">
      <rect id="Rectángulo_34105" data-name="Rectángulo 34105" width="23.711" height="2.719" transform="translate(4.687 0.737)" fill="#64546f"/>
      <path id="Trazado_151528" data-name="Trazado 151528" d="M426.009,117.009l5.139.835a1.308,1.308,0,0,0,1.516-1.292v-1.576a1.305,1.305,0,0,0-1.516-1.29l-5.139.833A1.261,1.261,0,0,0,426.009,117.009Z" transform="translate(-424.95 -113.67)" fill="#64546f"/>
      <path id="Trazado_151529" data-name="Trazado 151529" d="M442.741,117.009l-5.139.835a1.308,1.308,0,0,1-1.516-1.292v-1.576a1.305,1.305,0,0,1,1.516-1.29l5.139.833A1.261,1.261,0,0,1,442.741,117.009Z" transform="translate(-413.18 -113.67)" fill="#64546f"/>
    </g>
    <g id="Grupo_106961" data-name="Grupo 106961" transform="translate(525.18 93.186)">
      <path id="Trazado_151530" data-name="Trazado 151530" d="M520.867,232.637H430a7.118,7.118,0,0,1-7.109-7.109V81.272A7.116,7.116,0,0,1,430,74.165h90.87a7.118,7.118,0,0,1,7.111,7.107V225.528A7.119,7.119,0,0,1,520.867,232.637ZM430,75.708a5.571,5.571,0,0,0-5.566,5.564V225.528A5.573,5.573,0,0,0,430,231.095h90.87a5.573,5.573,0,0,0,5.568-5.566V81.272a5.572,5.572,0,0,0-5.568-5.564Z" transform="translate(-422.888 -74.165)" fill="#64546f"/>
    </g>
    <path id="Trazado_151531" data-name="Trazado 151531" d="M473.638,88.976l-5.428,30.993a19.316,19.316,0,0,1-16.341,15.8l-70.254,9.9L364.89,148.04a3.513,3.513,0,0,1-2.925-6.021c5.064-4.838,11.974-11.5,19.4-18.639,12.287-11.8,26-24.9,35.311-33.413a36.584,36.584,0,0,1,22.187-9.485l25.53-1.775A8.766,8.766,0,0,1,473.638,88.976Z" transform="translate(36.731 23.799)" fill="#c5f4ff"/>
    <g id="Grupo_106962" data-name="Grupo 106962" transform="translate(477.828 109.965)">
      <path id="Trazado_151532" data-name="Trazado 151532" d="M401.172,84.995a1.306,1.306,0,0,1-.115-2.606l.765-.062a1.285,1.285,0,0,1,1.389,1.218,1.306,1.306,0,0,1-1.218,1.389l-.7.056A1.19,1.19,0,0,1,401.172,84.995Z" transform="translate(-399.868 -82.322)" fill="#fff"/>
    </g>
    <g id="Grupo_106963" data-name="Grupo 106963" transform="translate(472.288 110.799)">
      <path id="Trazado_151533" data-name="Trazado 151533" d="M398.481,85.488a1.305,1.305,0,0,1-.309-2.573l.666-.156a1.3,1.3,0,1,1,.57,2.547l-.619.146A1.228,1.228,0,0,1,398.481,85.488Z" transform="translate(-397.175 -82.727)" fill="#fff"/>
    </g>
    <g id="Grupo_106964" data-name="Grupo 106964" transform="translate(441.786 112.74)">
      <path id="Trazado_151534" data-name="Trazado 151534" d="M383.653,106.615a1.3,1.3,0,0,1-.9-2.252c5.961-5.645,10.74-10.106,14.6-13.638a37.62,37.62,0,0,1,10.869-6.951,1.305,1.305,0,1,1,1.01,2.407A35.062,35.062,0,0,0,399.12,92.65c-3.853,3.522-8.619,7.975-14.57,13.609A1.3,1.3,0,0,1,383.653,106.615Z" transform="translate(-382.347 -83.671)" fill="#fff"/>
    </g>
    <path id="Trazado_151535" data-name="Trazado 151535" d="M381.614,122.707l-16.724,2.366a3.513,3.513,0,0,1-2.925-6.021c5.064-4.838,11.974-11.5,19.4-18.639Z" transform="translate(36.731 46.766)" fill="#64546f"/>
    <g id="Grupo_106965" data-name="Grupo 106965" transform="translate(396.822 101.708)">
      <path id="Trazado_151536" data-name="Trazado 151536" d="M364.764,149.256a4.3,4.3,0,0,1-2.933-7.4c3.538-3.378,7.971-7.638,12.85-12.33,13.745-13.212,30.849-29.656,41.873-39.728a37.57,37.57,0,0,1,22.652-9.691l25.53-1.775A9.548,9.548,0,0,1,474.8,89.5l-5.435,31a20.043,20.043,0,0,1-16.989,16.432L365.4,149.21A4.387,4.387,0,0,1,364.764,149.256ZM465.411,79.849c-.189,0-.378.006-.568.021l-25.53,1.775a36.03,36.03,0,0,0-21.72,9.29c-11.007,10.059-28.1,26.495-41.842,39.7-4.881,4.692-9.314,8.954-12.854,12.334a2.75,2.75,0,0,0,2.285,4.713l86.982-12.272a18.512,18.512,0,0,0,15.685-15.173l5.435-31a8.009,8.009,0,0,0-7.872-9.388Z" transform="translate(-360.489 -78.308)" fill="#64546f"/>
    </g>
    <g id="Grupo_106966" data-name="Grupo 106966" transform="translate(416.528 138.67)">
      <path id="Trazado_151537" data-name="Trazado 151537" d="M383,127.812l-12.167-.613L383.691,98.9a4.126,4.126,0,0,1,4.285-2.6l4.168.448a4.126,4.126,0,0,1,3.627,4.772l-3.049,18.456A9.37,9.37,0,0,1,383,127.812Z" transform="translate(-369.261 -96.276)" fill="#64546f"/>
      <path id="Trazado_151538" data-name="Trazado 151538" d="M378.083,104.418l-7.326,1.689-.688,12.637,4.127.225Z" transform="translate(-370.068 -87.671)" fill="#64546f"/>
    </g>
    <rect id="Rectángulo_34106" data-name="Rectángulo 34106" width="13.27" height="6.915" transform="translate(780.626 179.255)" fill="#ff6393"/>
    <rect id="Rectángulo_34107" data-name="Rectángulo 34107" width="13.27" height="25.768" transform="translate(780.626 193.177)" fill="#ff6393"/>
    <path id="Trazado_151539" data-name="Trazado 151539" d="M363.08,138.685A40.647,40.647,0,0,0,351.836,166.7c0,.644.018,1.269.054,1.9h-.854l-8.387-4.3a30.415,30.415,0,0,1-16.516-25.616Z" transform="translate(0.018 87.221)" fill="#af9caa"/>
    <path id="Trazado_151540" data-name="Trazado 151540" d="M642.8,138.685A40.72,40.72,0,0,0,631.557,166.7c0,.644.017,1.269.051,1.9H386.755c.016-.627.035-1.253.035-1.9a40.645,40.645,0,0,0-11.242-28.019Z" transform="translate(52.252 87.221)" fill="#af9caa"/>
    <path id="Trazado_151541" data-name="Trazado 151541" d="M572.224,138.685,584.387,168.6H548.119c.019-.627.051-1.253.051-1.9a40.654,40.654,0,0,0-11.24-28.019Z" transform="translate(222.84 87.221)" fill="#af9caa"/>
    <g id="Grupo_106971" data-name="Grupo 106971" transform="translate(794.29 56.17)">
      <path id="Trazado_151542" data-name="Trazado 151542" d="M663.485,68.136c-1.279-7.893-8.251-12.713-16.432-11.365l-64.394,10.6a20.352,20.352,0,0,0-16.23,16.639l-10,65.506a202.631,202.631,0,0,0-2.345,30.557v61.1c0,9.129,7.337,15.426,16.4,14.062l88.881-13.383c9.2-1.384,16.662-9.979,16.662-19.194V161a188.307,188.307,0,0,0-2.388-30.086Z" transform="translate(-553.316 -55.773)" fill="#64546f"/>
      <g id="Grupo_106967" data-name="Grupo 106967">
        <path id="Trazado_151543" data-name="Trazado 151543" d="M568.422,256.589a14.609,14.609,0,0,1-9.658-3.485,14.909,14.909,0,0,1-5.052-11.536v-61.1a204.07,204.07,0,0,1,2.353-30.675l10-65.5a21.042,21.042,0,0,1,16.87-17.285l64.394-10.6A15.346,15.346,0,0,1,658.9,58.9a14.393,14.393,0,0,1,5.739,9.51L674.8,131.184a189.491,189.491,0,0,1,2.4,30.21v61.66c0,9.567-7.769,18.52-17.32,19.957L571,256.394A17.232,17.232,0,0,1,568.422,256.589ZM650.146,57.715a15.945,15.945,0,0,0-2.571.214l-64.393,10.6a19.46,19.46,0,0,0-15.592,16l-10,65.5a202.037,202.037,0,0,0-2.339,30.442v61.1a13.053,13.053,0,0,0,15.516,13.3l88.879-13.383c8.825-1.331,16.006-9.6,16.006-18.433v-61.66a188.082,188.082,0,0,0-2.378-29.963l-10.16-62.775A12.872,12.872,0,0,0,658,60.15,13.363,13.363,0,0,0,650.146,57.715Z" transform="translate(-553.712 -56.17)" fill="#64546f"/>
      </g>
      <g id="Grupo_106968" data-name="Grupo 106968" transform="translate(0.771 103.66)">
        <path id="Trazado_151544" data-name="Trazado 151544" d="M609.244,115.2l8.483-1.325v-5.749c0-.522-.027-1.041-.031-1.563l-8.452,1.325Z" transform="translate(-495.784 -106.563)" fill="#ff6393"/>
        <path id="Trazado_151545" data-name="Trazado 151545" d="M554.087,123.418v25.814l8.339-1.281v-25.83Z" transform="translate(-554.087 -90.117)" fill="#ff6393"/>
        <path id="Trazado_151546" data-name="Trazado 151546" d="M617.728,113.534l-8.483,1.319v26.036l8.483-1.3Z" transform="translate(-495.784 -99.195)" fill="#ff6393"/>
        <path id="Trazado_151547" data-name="Trazado 151547" d="M562.426,122.463v-7.255l-8.308,1.3c0,.52-.031,1.041-.031,1.559v5.7Z" transform="translate(-554.087 -97.425)" fill="#ff6393"/>
        <path id="Trazado_151548" data-name="Trazado 151548" d="M667.5,130.918c-.475,7.578-6.973,14.519-14.934,15.728L577.2,158.1c-7.862,1.2-14.264-3.736-14.733-11.11l-8.385,1.284v15.662c0,9.129,7.337,15.426,16.4,14.062l88.881-13.383c9.2-1.384,16.662-9.979,16.662-19.194V129.614Z" transform="translate(-554.087 -82.197)" fill="#af9caa"/>
      </g>
      <g id="Grupo_106969" data-name="Grupo 106969" transform="translate(60.948 6.311)">
        <rect id="Rectángulo_34108" data-name="Rectángulo 34108" width="1.029" height="167.541" fill="#c0aeba"/>
      </g>
      <g id="Grupo_106970" data-name="Grupo 106970" transform="translate(8.596 8.484)">
        <path id="Trazado_151549" data-name="Trazado 151549" d="M570.83,232.069a13.14,13.14,0,0,1-8.693-3.1,12.374,12.374,0,0,1-4.246-9.567V166.866a167.541,167.541,0,0,1,2.121-26.375L569.02,84.1a18.509,18.509,0,0,1,15.045-14.837l53.327-8.751c7.693-1.253,14.159,2.979,15.362,10.084l9.131,53.851a155.058,155.058,0,0,1,2.156,25.908v52.956c0,8.144-6.916,15.823-15.417,17.115l-75.364,11.454A16.1,16.1,0,0,1,570.83,232.069ZM640.037,61.322a15.2,15.2,0,0,0-2.481.208l-53.327,8.749a17.454,17.454,0,0,0-14.193,13.986l-9.008,56.39a166.469,166.469,0,0,0-2.109,26.213v52.539a11.354,11.354,0,0,0,3.888,8.788,12.6,12.6,0,0,0,10.3,2.672l75.364-11.456c8.016-1.218,14.541-8.44,14.541-16.1V150.357a154.305,154.305,0,0,0-2.139-25.736L651.742,70.77C650.764,65.024,646.017,61.322,640.037,61.322Z" transform="translate(-557.891 -60.295)" fill="#c0aeba"/>
      </g>
    </g>
    <path id="Trazado_151550" data-name="Trazado 151550" d="M328.817,149.787c-3.357-2.937-1.08-11.74,2.615-16.839,7.047-9.728,21.379-8.928,23.335-8.79a101.005,101.005,0,0,1-9.752,17.6c-3.645,5.245-6.3,7.961-10.121,8.788C333.879,150.762,330.715,151.447,328.817,149.787Z" transform="translate(1.125 71.788)" fill="#e6cf69"/>
    <g id="Grupo_106972" data-name="Grupo 106972" transform="translate(330.031 206.174)">
      <path id="Trazado_151551" data-name="Trazado 151551" d="M329.327,137.9a1.268,1.268,0,0,1-.261-.027,1.307,1.307,0,0,1-1.02-1.539,12.292,12.292,0,0,1,4.2-6.945,1.305,1.305,0,1,1,1.668,2.008,9.669,9.669,0,0,0-3.308,5.455A1.305,1.305,0,0,1,329.327,137.9Z" transform="translate(-328.019 -129.092)" fill="#fff"/>
    </g>
    <g id="Grupo_106973" data-name="Grupo 106973" transform="translate(330.193 217.264)">
      <path id="Trazado_151552" data-name="Trazado 151552" d="M329.515,137.479a1.3,1.3,0,0,1-1.247-.917l-.126-.434a1.3,1.3,0,1,1,2.52-.679l.1.339a1.305,1.305,0,0,1-.86,1.633A1.336,1.336,0,0,1,329.515,137.479Z" transform="translate(-328.098 -134.484)" fill="#fff"/>
    </g>
    <g id="Grupo_106976" data-name="Grupo 106976" transform="translate(686.406 106.273)">
      <g id="Grupo_106974" data-name="Grupo 106974" transform="translate(0 6.995)">
        <path id="Trazado_151553" data-name="Trazado 151553" d="M512.648,138.06a4.174,4.174,0,0,1-3.939-5.521,4.185,4.185,0,0,1-3.563-6.722,4.541,4.541,0,0,1-3.787-3.129c-.516-2.139,1.193-4.371,3.049-5.036,1.7-.6,3.178.187,5.414,1.386,1.092.584,2.45,1.314,4.147,2.051a41.813,41.813,0,0,0,4.439,1.629,4.117,4.117,0,0,1-1.1-1.1,4.226,4.226,0,0,1-.588-3.46,4.138,4.138,0,0,1-3.631-.726,4.2,4.2,0,0,1-1.2-5.161,4.214,4.214,0,0,1-3.9-1.816,4.13,4.13,0,0,1-.27-4.2,4.172,4.172,0,0,1-2.448-6.891,4.208,4.208,0,0,1-2.754-3.448,4.158,4.158,0,0,1,2.016-4.091,4.185,4.185,0,1,1,3.861-7.426.728.728,0,0,1,.451.1c.438.3.928.609,1.454.946l.317.2c1.065.636,2.164,1.364,3.345,2.215l.191.125c1.473.975,3.071,2.043,4.813,3.2l2.547,1.7c8.144,5.459,11.192,7.5,12.822,11.593a17.032,17.032,0,0,1,1.035,6.383,76.564,76.564,0,0,1,13.243-5.293c2.931-.952,6.21-1.825,8.055-.084a5.756,5.756,0,0,1,1.354,5.114,6.132,6.132,0,0,1-.572,1.465,5.415,5.415,0,0,0-.628,1.816,6.287,6.287,0,0,0,.095,2.322.514.514,0,0,1-.9.438c-1.389-1.718-2.635-2.543-3.5-2.337-.523.123-.817.6-1.432,1.66l-.358.617c-.646,1.08-2.018,2.816-4.75,6.27a28.964,28.964,0,0,1-4.32,4.826c-1.405,1.15-5.692,4.643-11.26,3.832a12.531,12.531,0,0,1-5.947-2.649l-9.8,8.668a.624.624,0,0,1-.115.076A4.227,4.227,0,0,1,512.648,138.06Zm-3.03-6.727a.515.515,0,0,1,.428.8,3.145,3.145,0,0,0,3.966,4.591l10.071-8.911a.51.51,0,0,1,.673-.008,11.639,11.639,0,0,0,5.778,2.7c5.147.759,9.144-2.532,10.462-3.61a28.164,28.164,0,0,0,4.143-4.641c2.726-3.446,4.081-5.163,4.692-6.186l.354-.6c.642-1.111,1.107-1.915,2.082-2.148,1.014-.243,2.187.251,3.452,1.485a7.318,7.318,0,0,1,.08-1.061,6.415,6.415,0,0,1,.726-2.125,5.166,5.166,0,0,0,.485-1.23,4.8,4.8,0,0,0-1.055-4.139c-1.37-1.292-4.19-.611-7.031.317a72.779,72.779,0,0,0-13.813,5.626.52.52,0,0,1-.508,0,.512.512,0,0,1-.257-.44,17.92,17.92,0,0,0-.975-6.873c-1.446-3.631-3.956-5.433-12.437-11.116l-2.545-1.7c-1.74-1.16-3.339-2.228-4.791-3.188l-.228-.15c-1.172-.848-2.246-1.559-3.3-2.189l-.329-.212c-.389-.249-.755-.483-1.1-.71a.488.488,0,0,1-.307-.058l-.321-.181a3.386,3.386,0,0,0-1.051-.37,3.161,3.161,0,0,0-1.026,6.239c.058.01.115.025.171.039a.582.582,0,0,1,.446.535.476.476,0,0,1-.374.5,3.156,3.156,0,0,0,.237,6.264.514.514,0,0,1,.243.94,3.145,3.145,0,0,0,1.938,5.766.5.5,0,0,1,.49.28.51.51,0,0,1-.06.559,3.131,3.131,0,0,0-.191,3.764,3.171,3.171,0,0,0,4.351.874.51.51,0,0,1,.7.136.516.516,0,0,1-.113.708,3.032,3.032,0,0,0-.628.586,3.163,3.163,0,0,0,.566,4.435,3.129,3.129,0,0,0,3.771.051.514.514,0,0,1,.718.718,3.184,3.184,0,0,0-.045,3.651,3.123,3.123,0,0,0,3,1.327.5.5,0,0,1,.518.272.514.514,0,0,1-.072.582c-.3.331-.572.65-.835.959a.505.505,0,0,1-.372.179.525.525,0,0,1-.352-.123,42.26,42.26,0,0,1-6.48-2.2c-1.736-.755-3.116-1.493-4.225-2.09-2.135-1.146-3.312-1.779-4.581-1.325-1.411.506-2.765,2.287-2.392,3.826a3.529,3.529,0,0,0,3.812,2.341,1.662,1.662,0,0,1,.171-.033.586.586,0,0,1,.621.321.481.481,0,0,1-.152.6,3.155,3.155,0,0,0,2.645,5.682A.477.477,0,0,1,509.618,131.333Z" transform="translate(-501.266 -83.927)" fill="#c0aeba"/>
      </g>
      <path id="Trazado_151554" data-name="Trazado 151554" d="M537.234,99.97c.368-3.289.706-6.216.983-8.763.012-.111.021-.187.031-.274.2-1.306.352-2.623.434-3.958.074-.771.136-1.481.212-2.113l-.136.1c0-.125.012-.247.014-.37l0-.119a3.737,3.737,0,0,0-.179-1.15,3.677,3.677,0,0,0-7,2.259c.027.08.041.167.066.245a3.671,3.671,0,0,0-6.35,3.581,3.66,3.66,0,0,0-4.931,5.077,3.662,3.662,0,0,0-2.579,6.77,3.657,3.657,0,0,0-3.269,6.543,3.675,3.675,0,0,0-2.3,6.866c.2.107.383.208.582.337-.1.5-.144.759-.144.759a24.191,24.191,0,0,0,.483,9.849,47.942,47.942,0,0,0,9.419-2.874c.808-.335,1.65-.716,2.5-1.146.263-.13.529-.259.8-.413,3.38-1.765,5.268-2.74,7.054-4.781C535.633,113.282,536.078,109.978,537.234,99.97Z" transform="translate(-491.717 -80.261)" fill="#4c4056"/>
      <g id="Grupo_106975" data-name="Grupo 106975" transform="translate(18.066)">
        <path id="Trazado_151555" data-name="Trazado 151555" d="M513.417,126.391a.515.515,0,0,1-.5-.389,24.556,24.556,0,0,1-.494-10.057s.025-.146.078-.424c-.08-.045-.161-.088-.245-.134a4.179,4.179,0,0,1-2.03-2.489,4.126,4.126,0,0,1,.323-3.186,4.227,4.227,0,0,1,2.806-2.106,4.184,4.184,0,0,1,3.018-6.992,4.211,4.211,0,0,1-.173-4.3,4.147,4.147,0,0,1,3.612-2.164,4.172,4.172,0,0,1,5-5.33,4.21,4.21,0,0,1,1.806-4.03,4.168,4.168,0,0,1,4.56-.082,4.184,4.184,0,0,1,8.167-1.275,4.261,4.261,0,0,1,.2,1.31l0,.14a.367.367,0,0,1,.119.306c-.058.49-.109,1.024-.165,1.6l-.045.5c-.076,1.228-.22,2.536-.438,3.984l-.012.113-.527.084.51.056q-.272,2.518-.617,5.525l-.366,3.24c-1.123,9.742-1.545,13.387-4.435,16.707-1.829,2.09-3.806,3.125-7.084,4.838l-.117.062c-.251.142-.514.274-.776.4-.845.426-1.7.817-2.565,1.177a48.546,48.546,0,0,1-9.516,2.9A.52.52,0,0,1,513.417,126.391Zm.835-17.853a3.191,3.191,0,0,0-2.8,1.666,3.121,3.121,0,0,0-.243,2.4,3.166,3.166,0,0,0,1.528,1.878,6.853,6.853,0,0,1,.617.356.517.517,0,0,1,.226.537c-.1.473-.142.728-.142.736a23.447,23.447,0,0,0,.358,9.164,47.579,47.579,0,0,0,8.835-2.744c.847-.352,1.676-.732,2.47-1.131.282-.138.527-.259.774-.4l.136-.07c3.277-1.716,5.083-2.66,6.784-4.6,2.565-2.946,3.018-6,4.188-16.144l.366-3.242q.342-3,.619-5.521l.014-.142L538,91.14c.214-1.436.354-2.715.43-3.931l.049-.514c.041-.436.08-.852.124-1.238a.326.326,0,0,1-.1-.235l.015-.37a3.308,3.308,0,0,0-.154-1.1,3.161,3.161,0,1,0-6.015,1.944c.014.053.031.111.045.171a.58.58,0,0,1-.272.642.482.482,0,0,1-.615-.107,3.156,3.156,0,0,0-5.461,3.077.514.514,0,0,1-.724.648,3.146,3.146,0,0,0-4.238,4.365.514.514,0,0,1-.551.765,3.125,3.125,0,0,0-3.435,1.555,3.176,3.176,0,0,0,1.218,4.266.514.514,0,0,1-.479.909,3.213,3.213,0,0,0-.808-.29,3.152,3.152,0,0,0-2,5.912.514.514,0,0,1-.311.967A3.043,3.043,0,0,0,514.253,108.538Z" transform="translate(-510.048 -80.527)" fill="#c0aeba"/>
      </g>
    </g>
    <g id="Grupo_106977" data-name="Grupo 106977" transform="translate(666.955 168.83)">
      <path id="Trazado_151556" data-name="Trazado 151556" d="M495.264,112.319l4.009,1.862-.372.806-3.051-1.415-1.146,2.475,2.816,1.306-.368.8-2.818-1.306-1.563,3.367-.961-.444Z" transform="translate(-491.81 -109.478)" fill="#c0aeba"/>
      <path id="Trazado_151557" data-name="Trazado 151557" d="M498.073,113.851l-1.718,4.546c-.648,1.72-.16,2.738.866,3.125,1.138.43,2.152-.047,2.791-1.742l1.715-4.546,1,.379-1.691,4.476c-.889,2.357-2.5,2.857-4.161,2.23-1.571-.594-2.417-1.942-1.516-4.322l1.707-4.521Z" transform="translate(-488.442 -108.256)" fill="#c0aeba"/>
      <path id="Trazado_151558" data-name="Trazado 151558" d="M498.412,122.663l2.238-7.911,1.115.315,1.4,4.719a23.21,23.21,0,0,1,.693,2.972c.232-1.088.481-2.057.831-3.289l.934-3.31.963.272-2.236,7.911-1.035-.292-1.376-4.725a26.581,26.581,0,0,1-.732-3.059c-.261,1.016-.508,1.973-.878,3.287l-.956,3.382Z" transform="translate(-484.831 -106.906)" fill="#c0aeba"/>
      <path id="Trazado_151559" data-name="Trazado 151559" d="M507.3,120.848l-3.133-.627-.578,2.9,3.487.7-.175.872-4.528-.907,1.611-8.053,4.351.87-.175.872-3.312-.662-.508,2.547,3.133.625Z" transform="translate(-480.648 -105.868)" fill="#c0aeba"/>
      <path id="Trazado_151560" data-name="Trazado 151560" d="M506.464,116.333a10.865,10.865,0,0,1,2.039.093,3.347,3.347,0,0,1,2.269.969,2.041,2.041,0,0,1,.44,1.629,2.154,2.154,0,0,1-1.8,1.88,2.161,2.161,0,0,1,.979,1.835,13.041,13.041,0,0,0,.339,2.316l-1.088-.14a10.751,10.751,0,0,1-.292-2.018c-.1-1.154-.475-1.633-1.426-1.794l-.991-.128-.455,3.528-1.053-.138Zm.57,3.845,1.074.14a1.616,1.616,0,0,0,2.039-1.308c.136-1.051-.566-1.609-1.676-1.765a4.339,4.339,0,0,0-1.049-.039Z" transform="translate(-477.423 -105.252)" fill="#c0aeba"/>
      <path id="Trazado_151561" data-name="Trazado 151561" d="M510.594,122.282l-.985,2.532-1.094-.056,3.215-8.051,1.275.066,2.37,8.343-1.131-.06-.743-2.623Zm2.732-.687-.679-2.4c-.154-.545-.251-1.039-.348-1.52-.173.479-.331.971-.516,1.46l-.926,2.331Z" transform="translate(-474.153 -104.84)" fill="#c0aeba"/>
      <path id="Trazado_151562" data-name="Trazado 151562" d="M512.528,116.8l1.061-.023.158,7.323,3.511-.076.019.891-4.571.1Z" transform="translate(-469.91 -104.77)" fill="#c0aeba"/>
      <path id="Trazado_151563" data-name="Trazado 151563" d="M517.1,123.731a3.718,3.718,0,0,0,1.948.319c1.078-.123,1.644-.763,1.549-1.588-.086-.761-.572-1.148-1.722-1.446-1.386-.321-2.287-.917-2.421-2.067a2.364,2.364,0,0,1,2.386-2.516,3.716,3.716,0,0,1,1.851.193l-.191.893a3.268,3.268,0,0,0-1.594-.212c-1.113.128-1.463.841-1.4,1.4.086.763.627,1.082,1.8,1.391,1.442.374,2.22.961,2.355,2.16.146,1.259-.665,2.454-2.588,2.674a4.265,4.265,0,0,1-2.143-.284Z" transform="translate(-465.776 -105.166)" fill="#c0aeba"/>
      <path id="Trazado_151564" data-name="Trazado 151564" d="M524.2,120.2l-3.137.572.529,2.909,3.5-.636.158.874-4.538.825-1.469-8.072,4.359-.792.158.874-3.316.6.465,2.551,3.137-.572Z" transform="translate(-462.811 -105.709)" fill="#c0aeba"/>
      <path id="Trazado_151565" data-name="Trazado 151565" d="M522.032,116.23a10.885,10.885,0,0,1,1.932-.666,3.364,3.364,0,0,1,2.469.066,2.037,2.037,0,0,1,1.01,1.354,2.153,2.153,0,0,1-.983,2.413,2.162,2.162,0,0,1,1.586,1.345,13.044,13.044,0,0,0,1.17,2.03l-1.063.269a10.507,10.507,0,0,1-1.014-1.767c-.516-1.039-1.047-1.345-1.989-1.144l-.969.247.876,3.45-1.029.261Zm1.948,3.367,1.053-.267c1.1-.28,1.643-1.059,1.413-1.969-.261-1.029-1.121-1.288-2.211-1.024a4.2,4.2,0,0,0-.992.354Z" transform="translate(-459.864 -106.253)" fill="#c0aeba"/>
      <path id="Trazado_151566" data-name="Trazado 151566" d="M529.828,123.108l-5.138-6.938,1.088-.362,2.491,3.431c.685.94,1.29,1.79,1.8,2.633-.058-.981-.062-2.071-.056-3.2l.037-4.285,1.072-.358-.187,8.714Z" transform="translate(-457.055 -107.676)" fill="#c0aeba"/>
      <path id="Trazado_151567" data-name="Trazado 151567" d="M529.134,113.679l2.989,7.642-.985.387-2.991-7.642Z" transform="translate(-453.4 -108.041)" fill="#c0aeba"/>
      <path id="Trazado_151568" data-name="Trazado 151568" d="M537.479,119.355a5.3,5.3,0,0,1-1.816,1.255,3.839,3.839,0,0,1-5.414-2.1,4.089,4.089,0,0,1,2.121-5.706,4.418,4.418,0,0,1,1.926-.475l.125.895a3.85,3.85,0,0,0-1.65.374,3.055,3.055,0,0,0-1.516,4.412,2.985,2.985,0,0,0,4.24,1.7,4.267,4.267,0,0,0,1.438-1.029Z" transform="translate(-451.656 -109.475)" fill="#c0aeba"/>
      <path id="Trazado_151569" data-name="Trazado 151569" d="M538.237,114.855l-2.8,1.524,1.411,2.6,3.127-1.7.424.78-4.056,2.205-3.919-7.212,3.894-2.117.424.78-2.962,1.613,1.238,2.277,2.8-1.522Z" transform="translate(-448.884 -110.938)" fill="#c0aeba"/>
    </g>
  </g>
</svg>
