<svg xmlns="http://www.w3.org/2000/svg" width="104.013" height="56.524" viewBox="0 0 104.013 56.524">
  <g id="Grupo_106815" data-name="Grupo 106815" transform="translate(-396.948 -503.755)">
    <g id="Grupo_106810" data-name="Grupo 106810" transform="translate(396.948 503.755)">
      <path id="Trazado_151260" data-name="Trazado 151260" d="M493.342,529.634H476.135L466.9,505.727a3.042,3.042,0,0,0-2.848-1.972H407.445a3.043,3.043,0,0,0-2.905,2.139l-7.591,23.74v20.088a2.688,2.688,0,0,0,2.688,2.687h6.575c0-.056-.008-.11-.008-.166a10.695,10.695,0,1,1,21.39,0c0,.056-.008.11-.008.166h29c0-.056-.008-.11-.008-.166a10.695,10.695,0,1,1,21.39,0c0,.056-.008.11-.008.166H498.91a2.05,2.05,0,0,0,2.051-2.05V537.253A7.619,7.619,0,0,0,493.342,529.634Zm-67.434-12.108h-2.676v5.486h-3.657v-5.486H416.9v-3.657h2.677v-2.826h3.657v2.826h2.676Zm42.734,8.118H445.408v-16.68h16.966Z" transform="translate(-396.948 -503.755)" fill="#00978e"/>
    </g>
    <g id="Grupo_106812" data-name="Grupo 106812" transform="translate(408.861 544.206)">
      <path id="Trazado_151262" data-name="Trazado 151262" d="M444.445,618.495a8.037,8.037,0,1,0-8.037,8.036A8.037,8.037,0,0,0,444.445,618.495Zm-8.037,2.522a2.522,2.522,0,1,1,2.522-2.522A2.522,2.522,0,0,1,436.408,621.017Z" transform="translate(-428.372 -610.458)" fill="#00978e"/>
    </g>
    <g id="Grupo_106813" data-name="Grupo 106813" transform="translate(459.232 544.206)">
      <path id="Trazado_151263" data-name="Trazado 151263" d="M577.318,618.495a8.037,8.037,0,1,0-8.037,8.036A8.037,8.037,0,0,0,577.318,618.495Zm-8.037,2.522a2.522,2.522,0,1,1,2.522-2.522A2.522,2.522,0,0,1,569.281,621.017Z" transform="translate(-561.245 -610.458)" fill="#00978e"/>
    </g>
  </g>
</svg>
