<svg xmlns="http://www.w3.org/2000/svg" width="404" height="285.096" viewBox="0 0 404 285.096">
  <g id="Grupo_107049" data-name="Grupo 107049" transform="translate(-92.493 -14.099)">
    <g id="Grupo_106366" data-name="Grupo 106366" transform="translate(163.208 14.099)">
      <path id="Trazado_149847" data-name="Trazado 149847" d="M457.28,156.649c0,78.722-74.61,142.546-166.644,142.546S124,235.372,124,156.649,198.6,14.1,290.636,14.1,457.28,77.918,457.28,156.649Z" transform="translate(-123.995 -14.099)" fill="#f9e4cf"/>
    </g>
    <g id="coronavirus" transform="translate(92.493 27.696)">
      <g id="Grupo_106376" data-name="Grupo 106376" transform="translate(205.521 2.184)">
        <g id="Grupo_106372" data-name="Grupo 106372" transform="translate(57.356 4.064)">
          <g id="haed" transform="translate(4.267 3.494)">
            <g id="Grupo_106370" data-name="Grupo 106370">
              <g id="Grupo_106367" data-name="Grupo 106367">
                <path id="Trazado_149848" data-name="Trazado 149848" d="M212.1,40.028c-.9-3.612-1.006-8.034,1.3-11.177,3.623-4.954,12.943-5.944,17.3-1.605,2.885,2.876,3.686,6.283,3.576,10.3-.067,2.285.251,4.53,2.016,6.191.213.2.471.478.348.75-.11.251-.449.265-.718.332-.844.215-1.23,1.185-1.363,2.043a35.377,35.377,0,0,1-1.116,6.148,1.921,1.921,0,0,1-.788,1.109,2.325,2.325,0,0,1-1.4.141c-1.594-.18-3.174-.444-4.748-.777a.9.9,0,0,0-.276.171,2.306,2.306,0,0,0-.483,1.147c-.723,3.206-1.446,6.4-2.166,9.61a56.334,56.334,0,0,0-11.28-6.921,14.839,14.839,0,0,0,2.249-11.107A27.862,27.862,0,0,1,212.1,40.028Z" transform="translate(-211.5 -24.496)" fill="#ff8f67"/>
                <path id="Trazado_149849" data-name="Trazado 149849" d="M222.889,41.38a.2.2,0,0,1-.079-.016c-.224-.079-5.554-2-6.865-6.362a.235.235,0,0,1,.155-.29.231.231,0,0,1,.287.155c1.244,4.133,6.523,6.043,6.577,6.063a.231.231,0,0,1-.076.449Z" transform="translate(-205.977 -11.789)" fill="#894c4c"/>
              </g>
              <g id="Grupo_106369" data-name="Grupo 106369" transform="translate(19.158 13.568)">
                <g id="Grupo_106368" data-name="Grupo 106368">
                  <path id="Trazado_149850" data-name="Trazado 149850" d="M222.889,31.878a.622.622,0,0,1-.287.013,2.72,2.72,0,0,0-1.592.245.658.658,0,1,1-.633-1.154,4.068,4.068,0,0,1,2.463-.386.654.654,0,0,1,.525.765A.645.645,0,0,1,222.889,31.878Z" transform="translate(-220.034 -30.54)" fill="#a86060"/>
                  <path id="Trazado_149851" data-name="Trazado 149851" d="M221.685,32.307c.018.539-.175.99-.431,1s-.476-.424-.5-.968.177-.992.433-1S221.669,31.766,221.685,32.307Z" transform="translate(-219.135 -29.551)" fill="#a86060"/>
                </g>
              </g>
            </g>
            <path id="Trazado_149852" data-name="Trazado 149852" d="M220.813,35.434a.187.187,0,0,1-.119-.045.185.185,0,0,1-.022-.26,2.009,2.009,0,0,1,2.043-.521.185.185,0,1,1-.092.359,1.665,1.665,0,0,0-1.668.4A.186.186,0,0,1,220.813,35.434Z" transform="translate(-200.136 -12.009)" fill="#894c4c"/>
            <g id="Grupo_106371" data-name="Grupo 106371" transform="translate(9.36 15.567)">
              <path id="Trazado_149853" data-name="Trazado 149853" d="M217.04,32.734a.324.324,0,0,1-.065-.009l-1.138-.33a.232.232,0,0,1-.159-.285.228.228,0,0,1,.285-.157l1.14.328a.231.231,0,0,1-.063.453Z" transform="translate(-215.669 -30.794)" fill="#894c4c"/>
              <path id="Trazado_149854" data-name="Trazado 149854" d="M216.966,34.646h-.007a.23.23,0,0,1-.224-.236c.013-.593-.1-2.2-.79-2.541a.231.231,0,0,1-.106-.31.234.234,0,0,1,.31-.106c1.073.53,1.053,2.718,1.046,2.968A.229.229,0,0,1,216.966,34.646Z" transform="translate(-215.487 -31.431)" fill="#894c4c"/>
            </g>
          </g>
          <path id="Trazado_149855" data-name="Trazado 149855" d="M236.3,28.649a13.393,13.393,0,0,0-6.214-4.849c-5.477-2.081-11.556-.207-15.88,3.639a14.48,14.48,0,0,0-4.034,14.542c1.066,3.363,3.412,5.949,3.515,9.556-.016.541.018,1.089.056,1.634a6.648,6.648,0,0,0,1.288-3.749c.516,1.394.144,3.686.247,5.349a7.871,7.871,0,0,0,3.571-1.755,15.672,15.672,0,0,0,2.22-3.174,12.493,12.493,0,0,0,1.558-5.81c.079-.945,1.5-3.861,2.442-2.041.485.934-.456,3.625,1.578,3.3-.332-1.724-.46-2.332.471-3.794.48-.756,2.31-2.575,2.2-3.491.049.4.079,3.055-.489,3.161,3.791-.7,9.132-5.385,8.566-9.673A6.921,6.921,0,0,0,236.3,28.649Z" transform="translate(-209.599 -22.939)" fill="#a86060"/>
        </g>
        <path id="Trazado_149856" data-name="Trazado 149856" d="M203.088,119.149c-3.592-1.937-7.248-5.872-11.715-4.95-3.313.682-7.59,4.02-7.311,7.673.231,2.95,4.231,5,6.427,6.683,5.327,4.077,9.57,7.783,15.969,9.644,6.22,1.809,16.441,1.794,9.715-6.5-2.115-2.6-4.615-4.777-6.535-7.592-1.113-1.639-.545-1.776-2.2-3.037C206.287,120.2,204.316,119.811,203.088,119.149Z" transform="translate(-184.048 94.552)" fill="#b57878"/>
        <g id="Grupo_106373" data-name="Grupo 106373" transform="translate(38.765 43.14)">
          <path id="Trazado_149857" data-name="Trazado 149857" d="M242.206,103.989H215.279c-2.867-.121-5.356-.3-5.356-.3-11.161-.718-9.125-13.9-6.71-21.646,1.535-4.925-.319-8.25.292-12.908.608-4.6,2.344-6.817,1.9-11.677-.667-7.331,6.615-17.112,14.746-17.112h7.841c4.741,0,10.169,1.56,13.334,5.3,3.441,4.068,2.227,9.415,4.75,13.713,2.885,4.909.893,11.231,1.913,16.584,1.109,5.814,1.446,11.336,2.072,17.26,0,0,.018.157.034.418C250.21,95.544,250.267,103.52,242.206,103.989Z" transform="translate(-201.317 -40.347)" fill="#b1e5d2"/>
        </g>
        <g id="Grupo_106374" data-name="Grupo 106374" transform="translate(54.526 97.963)">
          <path id="Trazado_149858" data-name="Trazado 149858" d="M239.119,118.6c-4,.8-9.329.1-12.182,3.663-2.112,2.64-3.275,7.935-.73,10.568,2.056,2.13,6.447,1.156,9.208,1.051,6.705-.26,12.335-.117,18.452-2.766,5.944-2.577,13.8-9.109,3.336-11.2-3.289-.658-6.6-.734-9.875-1.679-1.9-.548-1.551-1.017-3.637-.932C242.253,117.369,240.481,118.326,239.119,118.6Z" transform="translate(-187.902 0.616)" fill="#b57878"/>
          <path id="Trazado_149859" data-name="Trazado 149859" d="M260.668,127.376c2.249,6.485,2,13.464,3.91,19.976,1.681,5.74,4.229,11.8,4.849,17.732.53,5.078,4.166,9.293,5.264,14.205,1.237,5.536-3.073,4.992-6.822,6.135-1.771.536-2.754,2.047-4.456,2.546-3.392.988-6.561-2.029-10.007-.884-2.615.873-4.068,3.5-7.228,3.36-5.089-.231-6.373-11.772-7-16.506-.882-6.656-4.456-13.419-4.407-20.089.052-7.235-3.385-12.108-5.453-19s-4.644-12.652-5.953-19.918c-1.284-7.114-7.255-10.634-8.705-17.961-.725-3.659-.813-5.744-2.972-9.008-5.473-8.241-4.658-17.68,5.549-21.94A16.182,16.182,0,0,1,238.38,74.6q4.044,9.58,8.095,19.157,5.741,13.58,11.475,27.162c.88,2.083,1.913,4.162,2.662,6.3C260.63,127.272,260.65,127.322,260.668,127.376Z" transform="translate(-208.338 -64.769)" fill="#b1e5d2"/>
        </g>
        <path id="Trazado_149860" data-name="Trazado 149860" d="M236.126,139.959q-.327,1.017-.66,2.032C231.6,153.753,225.158,165.13,220,176.4c-1.41,3.078-4.867,14.645-7.392,15.132-4.667.9-10.194-6.629-14.537-8.057-3.764-1.241-13.062-3.928-12.865-9.426.24-6.649,5.83-13.392,8.97-18.9,1.8-3.17,1.951-6.326,3.2-9.509,2.173-5.549,6.1-9.913,8.133-15.619.8-2.247,1.645-4.348,2.285-6.678q2.482-9.031,4.961-18.062,3.973-14.475,7.951-28.946a16.128,16.128,0,1,1,31.1,8.541q-3.185,11.6-6.377,23.2C242.477,118.822,239.518,129.427,236.126,139.959Z" transform="translate(-182.611 32.828)" fill="#b1e5d2"/>
        <path id="Trazado_149861" data-name="Trazado 149861" d="M227.984,45.624a11.724,11.724,0,0,1,5.307-7.085c1.039-.671,10.133-4.261,10.414-2.454-.368-2.382,1.641-3.075,1.3-5.334-.281-1.859-3.286-4.5-4.653-5.531-12.2-9.195-27.326-1.751-33.274,10.986-2.4,5.129-2.638,11.08-2.391,16.643.391,8.847,3.078,21.435,14.209,18.766a24.222,24.222,0,0,1,8.64-.815c6.263.418,3.5-2.229,2.422-6.07-1.6-5.684-3.551-12.546-2.108-18.582C227.89,45.972,227.937,45.8,227.984,45.624Z" transform="translate(-158.457 -21.129)" fill="#b1e5d2"/>
        <path id="Trazado_149862" data-name="Trazado 149862" d="M228.6,32.36a1.8,1.8,0,0,0-.435-.083,29.615,29.615,0,0,0-3.365.155c-2.074.1-4.146.2-6.223.3L216.96,38.8c-.265,1,.732,2.781,1.264,3.524a5.6,5.6,0,0,0,2.75,2.034,7.4,7.4,0,0,0,2.243.377,6.761,6.761,0,0,0,2.281-.02c.691-.236.954-.9,1.336-1.473a18.411,18.411,0,0,0,1.825-3.461,26.6,26.6,0,0,0,1.219-4.178C230.137,34.411,229.8,32.757,228.6,32.36Z" transform="translate(-143.134 -7.277)" fill="#b1e5d2"/>
        <path id="Trazado_149863" data-name="Trazado 149863" d="M221.56,34.891s-2.784-6.261-6.258-2.844l-.379.887s3.1-4.11,6.07,2.337S221.56,34.891,221.56,34.891Z" transform="translate(-145.617 -8.809)" fill="#b1e5d2"/>
        <path id="Trazado_149864" data-name="Trazado 149864" d="M221.336,35.964s-5.06,0-6.324-4.427l-.314,1.012s.694,3.479,6.7,3.861S221.336,35.964,221.336,35.964Z" transform="translate(-145.896 -8.173)" fill="#b1e5d2"/>
        <g id="Grupo_106375" data-name="Grupo 106375" transform="translate(8.941 41.999)">
          <path id="Trazado_149865" data-name="Trazado 149865" d="M231.181,40.2c-6.043,2.543-9.8,6.072-14.641,10.7a72.946,72.946,0,0,0-6.514,6.714c-2.579,3.158-6.189,4.626-8.8,7.668-2.635,3.078-3.677,7.138-5.944,10.5A24.678,24.678,0,0,0,191.4,83.44c-.963,3.408-2.355,6.907-2.561,10.479-.335,5.8,2.287,6.743,7.691,7.747,4.714.878,4.7.5,6.438-3.993,1.417-3.657,2.438-7.309,4.094-10.916,2.007-4.384,4.766-5.859,8.238-9.484,3.841-4.007,5.747-6.27,10.957-8.009,4.285-1.434,4.779-3.426,6.4-7.45,1.74-4.328,6.624-17.049,2.216-21.027-1.228-1.109-2.956-1.464-3.877.164Z" transform="translate(-187.058 -39.839)" fill="#b1e5d2"/>
          <path id="Trazado_149866" data-name="Trazado 149866" d="M188.154,74.419c.539-3.111,1.286-10.5,6-10.357,2.018.063,4.35,1.437,5.827,2.662,3.257,2.7,2.629,7.565,1.924,11.246a5.55,5.55,0,0,0-.186,1.9c.121.543.848.99.92,1.425a1.5,1.5,0,0,1-1.807,1.641c-1.066-.128-1.506-1.374-2.624-.979-1.055.375-.673,1.605-1.01,2.478a2,2,0,0,1-2.4,1.268c-.489-.074-1.093-.7-1.4-.725-.7-.065-.474.476-1.1.633s-.642.146-1.185-.281c-.135-.1.025-.676-.2-.819-.2-.128-.546,0-.593-.025-.487-.263-.851.218-1.349-.68-.629-1.134-.487-3.035-.633-4.288A18.077,18.077,0,0,1,188.154,74.419Z" transform="translate(-188.031 -9.69)" fill="#b1e5d2"/>
        </g>
        <path id="Trazado_149867" data-name="Trazado 149867" d="M202.862,61.057l-.33-.162-.267-.251a16.868,16.868,0,0,1,3.816-4.393c.581-.406,1.3-1.01,2.065-1.652,2.665-2.238,5.978-5.028,8.717-4.3a.361.361,0,0,1,.258.442.354.354,0,0,1-.442.258c-2.379-.62-5.661,2.142-8.065,4.16-.774.651-1.508,1.266-2.115,1.69A16.382,16.382,0,0,0,202.862,61.057Z" transform="translate(-161.372 15.032)" fill="#fff"/>
        <path id="Trazado_149868" data-name="Trazado 149868" d="M236.911,70.141c1.708,2.148,3.488,4.245,5.172,6.422,3.06,3.969,5.093,8.277,8.613,11.9,1.6,1.645,9.3,8.007,2.945,8.708,1.621,2.564,2.7,5.879-1.383,6.739-1.549.323-1.524,1.517-3.684,1.136-1.715-.3-3.405-2.023-4.714-3.066-3.235-2.577-4.1-5.706-6.465-9.044-2.64-3.735-6.954-6.932-10.981-9.522-4.909-3.158-9.989-8.2-9.367-14.429.35-3.542.92-14.288,4.344-16.317,4.272-2.532,9.24,8.041,10.676,10.548A55.379,55.379,0,0,0,236.911,70.141Z" transform="translate(-143.037 17.643)" fill="#b1e5d2"/>
        <path id="Trazado_149869" data-name="Trazado 149869" d="M221.911,83.927a3.13,3.13,0,0,1-.77-.1.362.362,0,1,1,.177-.7,1.967,1.967,0,0,0,2-.557c2.108-2.13,2.236-9.062,1.634-11.347a17.851,17.851,0,0,0-1.4-3.39,15.117,15.117,0,0,1-1.592-4.267,39.074,39.074,0,0,1-.337-5.729c-.007-.667-.013-1.32-.034-1.944a.362.362,0,0,1,.352-.373.372.372,0,0,1,.375.35c.018.629.025,1.286.031,1.96a38.592,38.592,0,0,0,.33,5.619,14.331,14.331,0,0,0,1.524,4.061,18.411,18.411,0,0,1,1.45,3.529c.631,2.393.595,9.605-1.818,12.043A2.649,2.649,0,0,1,221.911,83.927Z" transform="translate(-138.217 21.677)" fill="#fff"/>
        <path id="Trazado_149870" data-name="Trazado 149870" d="M198.333,174.578a.445.445,0,0,1-.209-.054.436.436,0,0,1-.175-.59,41.256,41.256,0,0,0,2.81-7.165,54.956,54.956,0,0,1,2.059-5.675c.907-2.032,1.966-4.023,2.992-5.946,1.053-1.975,2.142-4.018,3.057-6.095,1.046-2.373,2.076-4.586,3.073-6.728a134.44,134.44,0,0,0,9.309-24.619c1.021-3.839,2.211-7.7,3.36-11.428.579-1.874,1.158-3.749,1.717-5.63l6.808-22.854a.433.433,0,0,1,.543-.294.438.438,0,0,1,.294.543L227.165,100.9c-.561,1.881-1.14,3.758-1.72,5.637-1.147,3.722-2.337,7.569-3.351,11.392a134.972,134.972,0,0,1-9.363,24.762c-.995,2.139-2.023,4.35-3.066,6.714-.927,2.106-2.025,4.164-3.084,6.153-1.019,1.91-2.072,3.888-2.968,5.89a55.391,55.391,0,0,0-2.023,5.587,41.887,41.887,0,0,1-2.873,7.314A.436.436,0,0,1,198.333,174.578Z" transform="translate(-166.81 49.016)" fill="#fff"/>
      </g>
      <g id="Grupo_106388" data-name="Grupo 106388" transform="translate(66.537 5.568)">
        <g id="Grupo_106386" data-name="Grupo 106386">
          <g id="Grupo_106384" data-name="Grupo 106384" transform="translate(0.626)">
            <g id="Grupo_106382" data-name="Grupo 106382" transform="translate(37.105 4.064)">
              <g id="haed-2" data-name="haed" transform="translate(4.268 3.493)">
                <g id="Grupo_106380" data-name="Grupo 106380">
                  <g id="Grupo_106377" data-name="Grupo 106377">
                    <path id="Trazado_149871" data-name="Trazado 149871" d="M141.437,41.534c-.9-3.612-1-8.032,1.3-11.177,3.625-4.952,12.948-5.944,17.3-1.6,2.885,2.871,3.686,6.281,3.574,10.3-.065,2.283.254,4.525,2.016,6.191.215.2.474.48.348.748-.108.251-.449.269-.716.334-.846.216-1.235,1.183-1.363,2.043a35.461,35.461,0,0,1-1.116,6.148,1.941,1.941,0,0,1-.788,1.109,2.308,2.308,0,0,1-1.4.139c-1.594-.18-3.179-.442-4.748-.777a.861.861,0,0,0-.276.173,2.3,2.3,0,0,0-.483,1.147q-1.084,4.8-2.168,9.608A56.263,56.263,0,0,0,141.637,59,14.838,14.838,0,0,0,143.889,47.9,27.745,27.745,0,0,1,141.437,41.534Z" transform="translate(-140.843 -26.003)" fill="#ff8f67"/>
                    <path id="Trazado_149872" data-name="Trazado 149872" d="M152.232,42.886a.194.194,0,0,1-.076-.016c-.224-.079-5.558-2-6.867-6.359a.233.233,0,0,1,.153-.29.231.231,0,0,1,.29.155c1.241,4.133,6.526,6.041,6.579,6.061a.231.231,0,0,1-.079.449Z" transform="translate(-135.321 -13.296)" fill="#894c4c"/>
                  </g>
                  <g id="Grupo_106379" data-name="Grupo 106379" transform="translate(19.156 13.569)">
                    <g id="Grupo_106378" data-name="Grupo 106378">
                      <path id="Trazado_149873" data-name="Trazado 149873" d="M152.232,33.388a.592.592,0,0,1-.287.009,2.716,2.716,0,0,0-1.589.245.658.658,0,1,1-.635-1.152,4.081,4.081,0,0,1,2.463-.386.659.659,0,0,1,.049,1.284Z" transform="translate(-149.377 -32.048)" fill="#a86060"/>
                      <path id="Trazado_149874" data-name="Trazado 149874" d="M151.03,33.815c.018.539-.175.99-.433,1s-.476-.424-.5-.97.18-.992.433-1S151.012,33.272,151.03,33.815Z" transform="translate(-148.478 -31.059)" fill="#a86060"/>
                    </g>
                  </g>
                </g>
                <path id="Trazado_149875" data-name="Trazado 149875" d="M150.157,36.942a.187.187,0,0,1-.119-.045.185.185,0,0,1-.022-.26,2.016,2.016,0,0,1,2.043-.523.184.184,0,0,1,.132.224.186.186,0,0,1-.225.135,1.631,1.631,0,0,0-1.668.4A.185.185,0,0,1,150.157,36.942Z" transform="translate(-129.479 -13.517)" fill="#894c4c"/>
                <g id="Grupo_106381" data-name="Grupo 106381" transform="translate(9.358 15.567)">
                  <path id="Trazado_149876" data-name="Trazado 149876" d="M146.383,34.24a.219.219,0,0,1-.063-.011l-1.143-.325a.23.23,0,0,1,.128-.442l1.143.325a.228.228,0,0,1,.157.285A.232.232,0,0,1,146.383,34.24Z" transform="translate(-145.012 -32.299)" fill="#894c4c"/>
                  <path id="Trazado_149877" data-name="Trazado 149877" d="M146.307,36.155h0a.23.23,0,0,1-.224-.236c.014-.593-.1-2.2-.79-2.541a.231.231,0,1,1,.2-.415c1.075.528,1.053,2.718,1.046,2.965A.23.23,0,0,1,146.307,36.155Z" transform="translate(-144.83 -32.938)" fill="#894c4c"/>
                </g>
              </g>
              <path id="Trazado_149878" data-name="Trazado 149878" d="M165.644,30.155a13.374,13.374,0,0,0-6.211-4.846c-5.48-2.081-11.556-.207-15.877,3.639a14.474,14.474,0,0,0-4.036,14.542c1.066,3.363,3.412,5.946,3.518,9.554a16.013,16.013,0,0,0,.054,1.636,6.632,6.632,0,0,0,1.289-3.749c.516,1.394.146,3.686.249,5.347a7.882,7.882,0,0,0,3.569-1.753,15.655,15.655,0,0,0,2.222-3.174,12.518,12.518,0,0,0,1.556-5.809c.081-.945,1.5-3.863,2.442-2.043.487.938-.456,3.628,1.58,3.307-.334-1.724-.465-2.332.469-3.8.48-.754,2.31-2.575,2.2-3.488.049.4.079,3.053-.489,3.158,3.791-.7,9.132-5.385,8.566-9.668A6.96,6.96,0,0,0,165.644,30.155Z" transform="translate(-138.942 -24.447)" fill="#a86060"/>
            </g>
            <path id="Trazado_149879" data-name="Trazado 149879" d="M140.715,121.69c-3.9-1.2-8.25-4.355-12.454-2.586-3.118,1.313-6.665,5.414-5.682,8.945.792,2.849,5.118,4.088,7.6,5.309,6.016,2.97,10.9,5.78,17.536,6.366,6.456.57,16.477-1.425,8.272-8.252-2.579-2.148-5.455-3.8-7.879-6.184-1.412-1.387-.88-1.639-2.754-2.555C144.058,122.1,142.046,122.1,140.715,121.69Z" transform="translate(-122.413 96.789)" fill="#b57878"/>
            <path id="Trazado_149880" data-name="Trazado 149880" d="M162.068,119.573c-4.077.09-9.2-1.535-12.634,1.468-2.543,2.229-4.618,7.239-2.575,10.279,1.65,2.454,6.146,2.269,8.883,2.649,6.647.923,12.162,2.054,18.65.516,6.306-1.491,15.188-6.541,5.248-10.436-3.123-1.228-6.368-1.883-9.426-3.39-1.776-.873-1.349-1.277-3.414-1.556C165.371,118.911,163.462,119.544,162.068,119.573Z" transform="translate(-93.011 97.399)" fill="#b57878"/>
            <g id="Grupo_106383" data-name="Grupo 106383" transform="translate(18.514 43.143)">
              <path id="Trazado_149881" data-name="Trazado 149881" d="M171.551,105.5H144.62c-2.862-.123-5.356-.3-5.356-.3-11.159-.721-9.123-13.9-6.707-21.646,1.538-4.927-.317-8.252.294-12.91.608-4.6,2.344-6.815,1.9-11.677-.667-7.331,6.615-17.108,14.744-17.108h7.841c4.743,0,10.171,1.556,13.336,5.3,3.441,4.07,2.227,9.415,4.748,13.716,2.882,4.907.9,11.226,1.913,16.58,1.111,5.814,1.448,11.338,2.072,17.262,0,0,.016.155.036.415C179.556,97.051,179.612,105.026,171.551,105.5Z" transform="translate(-130.66 -41.856)" fill="#b1e5d2"/>
            </g>
            <path id="Trazado_149882" data-name="Trazado 149882" d="M167.8,139.478c-1.113,6.77-4.658,12.789-6.088,19.424-1.257,5.85-1.906,12.391-4.187,17.9-1.96,4.712-.772,10.151-2.146,14.993-1.551,5.455-5.084,2.925-8.925,2.142-1.812-.37-3.4.489-5.125.114-3.455-.75-4.806-4.912-8.375-5.547-2.716-.476-5.246,1.14-7.96-.492-4.362-2.631.009-13.388,1.715-17.846,2.4-6.272,2.485-13.922,5.706-19.759,3.5-6.335,2.8-12.259,4.265-19.3s1.946-13.336,4.261-20.347c2.265-6.865-1.306-12.8.909-19.936,1.109-3.562,2.027-5.437,1.679-9.338-.878-9.852,4.339-17.761,15.343-16.641a16.179,16.179,0,0,1,14.495,17.615q-1.007,10.354-2.018,20.7-1.428,14.674-2.858,29.346c-.222,2.254-.3,4.573-.662,6.808C167.821,139.368,167.812,139.422,167.8,139.478Z" transform="translate(-121.533 29.77)" fill="#b1e5d2"/>
            <path id="Trazado_149883" data-name="Trazado 149883" d="M182.656,133.475c.146.7.287,1.394.429,2.092,2.44,12.14,2.44,25.216,3.5,37.564.294,3.372,2.986,15.139,1.028,16.809-3.614,3.084-12.133-.743-16.618.15-3.89.779-13.3,3.026-15.841-1.856-3.069-5.9-1.526-14.524-1.508-20.865.011-3.646-1.421-6.463-1.9-9.843-.846-5.9.422-11.637-.629-17.6-.411-2.353-.709-4.6-1.3-6.939q-2.293-9.081-4.586-18.163l-7.347-29.1a16.129,16.129,0,1,1,31.274-7.9l5.886,23.335C177.765,111.952,180.416,122.638,182.656,133.475Z" transform="translate(-103.769 30.906)" fill="#b1e5d2"/>
            <path id="Trazado_149884" data-name="Trazado 149884" d="M138.031,166.433a.5.5,0,0,1-.117-.013.439.439,0,0,1-.305-.539l11.767-42.606,4.079-45.214a.435.435,0,0,1,.866.081l-4.09,45.288L138.45,166.114A.436.436,0,0,1,138.031,166.433Z" transform="translate(-103.516 45.859)" fill="#fff"/>
            <path id="Trazado_149885" data-name="Trazado 149885" d="M157.33,47.128a11.713,11.713,0,0,1,5.307-7.08c1.037-.671,10.133-4.261,10.414-2.454-.368-2.382,1.639-3.075,1.3-5.336-.283-1.854-3.289-4.5-4.656-5.531-12.2-9.192-27.324-1.749-33.274,10.986-2.393,5.129-2.64,11.082-2.391,16.645.391,8.847,3.08,21.435,14.212,18.764a24.307,24.307,0,0,1,8.638-.815c6.265.418,3.5-2.227,2.424-6.068-1.6-5.684-3.556-12.546-2.11-18.585C157.236,47.48,157.283,47.3,157.33,47.128Z" transform="translate(-108.051 -22.637)" fill="#b1e5d2"/>
            <path id="Trazado_149886" data-name="Trazado 149886" d="M157.937,33.865a1.747,1.747,0,0,0-.431-.081,29.085,29.085,0,0,0-3.365.157q-3.115.145-6.225.294s-1.607,6.059-1.612,6.072c-.265,1,.73,2.777,1.262,3.52a5.615,5.615,0,0,0,2.75,2.038,7.482,7.482,0,0,0,2.245.375,6.879,6.879,0,0,0,2.281-.018c.691-.238.95-.907,1.336-1.477A18.51,18.51,0,0,0,158,41.287a26.4,26.4,0,0,0,1.219-4.18C159.479,35.917,159.142,34.267,157.937,33.865Z" transform="translate(-92.727 -8.784)" fill="#b1e5d2"/>
            <path id="Trazado_149887" data-name="Trazado 149887" d="M150.9,36.4s-2.784-6.261-6.261-2.844l-.377.884s3.1-4.11,6.068,2.337S150.9,36.4,150.9,36.4Z" transform="translate(-95.21 -10.316)" fill="#b1e5d2"/>
            <path id="Trazado_149888" data-name="Trazado 149888" d="M150.679,37.472s-5.057,0-6.324-4.427l-.314,1.015s.694,3.475,6.7,3.857S150.679,37.472,150.679,37.472Z" transform="translate(-95.49 -9.681)" fill="#b1e5d2"/>
          </g>
          <g id="Grupo_106385" data-name="Grupo 106385" transform="translate(0 46.679)">
            <path id="Trazado_149889" data-name="Trazado 149889" d="M151.231,44.21C145.94,48.078,143.1,52.379,139.453,58a72.319,72.319,0,0,0-4.786,8.034c-1.785,3.668-4.956,5.928-6.79,9.493-1.854,3.6-1.935,7.794-3.363,11.585a24.518,24.518,0,0,0-2.011,8.342c-.155,3.544-.7,7.266-.076,10.788,1.012,5.72,3.782,6.036,9.269,5.769,4.793-.233,4.687-.6,5.345-5.376.532-3.881.687-7.673,1.464-11.563.945-4.728,3.289-6.8,5.832-11.13,2.81-4.788,4.146-7.428,8.813-10.322,3.836-2.379,3.861-4.436,4.51-8.723.7-4.618,2.516-18.124-2.692-20.973-1.45-.8-3.212-.743-3.735,1.051Z" transform="translate(-122.134 -43.431)" fill="#b1e5d2"/>
            <path id="Trazado_149890" data-name="Trazado 149890" d="M122.762,82.618c-.2-3.156-1.174-10.524,3.45-11.466,1.978-.4,4.564.4,6.283,1.246,3.8,1.881,4.3,6.757,4.472,10.5a5.289,5.289,0,0,0,.254,1.888c.242.5,1.053.77,1.221,1.176a1.492,1.492,0,0,1-1.378,2.014c-1.064.119-1.785-.988-2.779-.348-.943.608-.283,1.715-.413,2.647a2,2,0,0,1-2.043,1.787c-.5.04-1.228-.429-1.526-.386-.7.1-.35.575-.929.871s-.59.29-1.217,0c-.153-.07-.132-.66-.379-.747-.227-.081-.534.121-.579.108-.534-.139-.781.409-1.473-.348-.871-.958-1.174-2.842-1.6-4.025A18.073,18.073,0,0,1,122.762,82.618Z" transform="translate(-121.627 -9.059)" fill="#b1e5d2"/>
          </g>
          <path id="Trazado_149891" data-name="Trazado 149891" d="M131.324,74.972a.362.362,0,0,1-.218-.651c1.636-1.239,2.341-3.484,3.091-5.861a16.9,16.9,0,0,1,2.357-5.32c.438-.559.95-1.349,1.491-2.189,1.89-2.92,4.24-6.557,7.062-6.676a.346.346,0,0,1,.379.348.365.365,0,0,1-.348.379c-2.447.1-4.779,3.708-6.483,6.342-.552.853-1.073,1.659-1.529,2.243a16.427,16.427,0,0,0-2.238,5.091c-.75,2.382-1.524,4.844-3.345,6.22A.361.361,0,0,1,131.324,74.972Z" transform="translate(-111.145 16.744)" fill="#fff"/>
        </g>
        <path id="Trazado_149892" data-name="Trazado 149892" d="M166.252,71.651c1.71,2.146,3.493,4.24,5.174,6.42,3.06,3.967,5.1,8.274,8.615,11.9,1.6,1.645,9.3,8.012,2.943,8.712,1.621,2.559,2.7,5.877-1.383,6.737-1.547.323-1.524,1.513-3.681,1.136-1.715-.3-3.408-2.023-4.714-3.064-3.237-2.579-4.1-5.708-6.467-9.046-2.642-3.733-6.952-6.932-10.981-9.525-4.909-3.158-9.989-8.207-9.368-14.427.352-3.545.918-14.288,4.341-16.317,4.276-2.53,9.244,8.041,10.681,10.548A56.287,56.287,0,0,0,166.252,71.651Z" transform="translate(-92.005 16.136)" fill="#b1e5d2"/>
        <path id="Trazado_149893" data-name="Trazado 149893" d="M151.255,85.436a3.116,3.116,0,0,1-.77-.1.363.363,0,0,1-.263-.44.369.369,0,0,1,.44-.265,1.957,1.957,0,0,0,2-.552c2.108-2.128,2.236-9.062,1.636-11.35a18.235,18.235,0,0,0-1.4-3.392,15.122,15.122,0,0,1-1.594-4.267,39.357,39.357,0,0,1-.337-5.751c-.007-.66-.013-1.3-.031-1.919a.365.365,0,0,1,.352-.375h.011a.362.362,0,0,1,.361.352c.02.622.027,1.271.034,1.935a38.628,38.628,0,0,0,.328,5.643,14.32,14.32,0,0,0,1.526,4.061A18.553,18.553,0,0,1,155,72.544c.629,2.4.59,9.61-1.82,12.043A2.645,2.645,0,0,1,151.255,85.436Z" transform="translate(-87.184 20.168)" fill="#fff"/>
        <g id="Grupo_106387" data-name="Grupo 106387" transform="translate(11.706 161.797)">
          <path id="Trazado_149894" data-name="Trazado 149894" d="M152.385,150.329a.325.325,0,0,1-.079-.009.363.363,0,0,1-.276-.433c.283-1.271-.822-6.474-1.271-8.371l-1.268-4.71a.32.32,0,0,1-.011-.094c0-3.291-4.956-19.1-5.006-19.256L139.866,95.15a.363.363,0,0,1,.281-.429.359.359,0,0,1,.429.283l4.6,22.27c.2.615,4.983,15.889,5.031,19.388l1.259,4.676c.171.725,1.643,7.04,1.275,8.708A.364.364,0,0,1,152.385,150.329Z" transform="translate(-111.776 -94.714)" fill="#fff"/>
          <path id="Trazado_149895" data-name="Trazado 149895" d="M137.4,146.186a.357.357,0,0,1-.276-.128c-1.486-1.733-2.624-13.619-2.75-14.968l-7.01-28.269a.363.363,0,1,1,.7-.175l7.019,28.322c.492,5.262,1.576,13.44,2.586,14.618a.361.361,0,0,1-.038.512A.366.366,0,0,1,137.4,146.186Z" transform="translate(-127.348 -85.181)" fill="#fff"/>
        </g>
      </g>
      <g id="Grupo_106403" data-name="Grupo 106403" transform="translate(46.618)">
        <g id="Grupo_106389" data-name="Grupo 106389" transform="translate(0 86.15)">
          <path id="Trazado_149896" data-name="Trazado 149896" d="M396.087,67.973c0,5.19-6.537,9.439-14.524,9.439H133.192c-7.987,0-14.524-4.249-14.524-9.439s6.537-9.439,14.524-9.439H381.563C389.55,58.534,396.087,62.781,396.087,67.973Z" transform="translate(-106.529 -58.534)" fill="#b57878"/>
          <g id="cascet" transform="translate(0 6.225)">
            <rect id="Rectángulo_33884" data-name="Rectángulo 33884" width="296.272" height="58.445" transform="translate(5.882 17.643)" fill="#b57878"/>
            <rect id="Rectángulo_33885" data-name="Rectángulo 33885" width="295.904" height="18.748" transform="translate(5.882 0.732)" fill="#b57878"/>
            <rect id="Rectángulo_33886" data-name="Rectángulo 33886" width="296.272" height="3.19" transform="translate(5.882 17.643)" fill="#aa6868"/>
            <rect id="Rectángulo_33887" data-name="Rectángulo 33887" width="296.272" height="3.188" transform="translate(5.882)" fill="#aa6868"/>
            <path id="Rectángulo_33888" data-name="Rectángulo 33888" d="M1.965,0H45.454a1.965,1.965,0,0,1,1.965,1.965V9.43a1.965,1.965,0,0,1-1.965,1.965H1.966A1.966,1.966,0,0,1,0,9.429V1.965A1.965,1.965,0,0,1,1.965,0Z" transform="translate(0 8.085)" fill="#b57878"/>
            <rect id="Rectángulo_33889" data-name="Rectángulo 33889" width="47.417" height="11.395" rx="1.965" transform="translate(260.25 8.085)" fill="#b57878"/>
            <rect id="Rectángulo_33890" data-name="Rectángulo 33890" width="290.761" height="5.147" transform="translate(10.29 70.941)" fill="#aa6868"/>
            <path id="Rectángulo_33891" data-name="Rectángulo 33891" d="M1.965,0H45.454a1.965,1.965,0,0,1,1.965,1.965V9.429a1.964,1.964,0,0,1-1.964,1.964H1.964A1.964,1.964,0,0,1,0,9.429V1.965A1.965,1.965,0,0,1,1.965,0Z" transform="translate(1.837 68.738)" fill="#b57878"/>
            <path id="Rectángulo_33892" data-name="Rectángulo 33892" d="M1.965,0H45.454a1.963,1.963,0,0,1,1.963,1.963V9.429a1.964,1.964,0,0,1-1.964,1.964H1.965A1.965,1.965,0,0,1,0,9.428V1.965A1.965,1.965,0,0,1,1.965,0Z" transform="translate(257.19 68.738)" fill="#b57878"/>
          </g>
        </g>
        <g id="Grupo_106390" data-name="Grupo 106390" transform="translate(252.519 121.546)">
          <path id="Trazado_149897" data-name="Trazado 149897" d="M246.139,78.037c0,2.056-1.987,3.738-4.411,3.738h-8.945c-2.424,0-4.411-1.681-4.411-3.738s1.987-3.735,4.411-3.735h8.945C244.153,74.3,246.139,75.981,246.139,78.037Z" transform="translate(-222.491 -74.302)" fill="#8e5757"/>
          <path id="Trazado_149898" data-name="Trazado 149898" d="M229.13,83.765h-2.941v-3.8a4.415,4.415,0,0,1,4.411-4.411h18.993A4.414,4.414,0,0,1,254,79.969V83.52h-2.938V79.969a1.474,1.474,0,0,0-1.468-1.473H230.6a1.474,1.474,0,0,0-1.47,1.473Z" transform="translate(-225.208 -72.739)" fill="#8e5757"/>
          <path id="Trazado_149899" data-name="Trazado 149899" d="M225.752,81.079a2.573,2.573,0,1,1,2.575,2.573A2.576,2.576,0,0,1,225.752,81.079Z" transform="translate(-225.752 -69.071)" fill="#8e5757"/>
          <path id="Trazado_149900" data-name="Trazado 149900" d="M236.779,81.079a2.573,2.573,0,1,1,2.573,2.573A2.573,2.573,0,0,1,236.779,81.079Z" transform="translate(-212.026 -69.071)" fill="#8e5757"/>
        </g>
        <g id="Grupo_106391" data-name="Grupo 106391" transform="translate(45.855 121.546)">
          <path id="Trazado_149901" data-name="Trazado 149901" d="M154.072,78.037c0,2.056-1.987,3.738-4.411,3.738h-8.943c-2.424,0-4.411-1.681-4.411-3.738s1.987-3.735,4.411-3.735h8.943C152.086,74.3,154.072,75.981,154.072,78.037Z" transform="translate(-130.427 -74.302)" fill="#8e5757"/>
          <path id="Trazado_149902" data-name="Trazado 149902" d="M137.066,83.765h-2.941v-3.8a4.414,4.414,0,0,1,4.406-4.411h18.993a4.414,4.414,0,0,1,4.409,4.411V83.52h-2.941V79.969a1.472,1.472,0,0,0-1.468-1.473H138.531a1.472,1.472,0,0,0-1.466,1.473Z" transform="translate(-133.143 -72.739)" fill="#8e5757"/>
          <circle id="Elipse_4245" data-name="Elipse 4245" cx="2.573" cy="2.573" r="2.573" transform="translate(0 9.435)" fill="#8e5757"/>
          <path id="Trazado_149903" data-name="Trazado 149903" d="M144.713,81.079a2.574,2.574,0,1,1,2.575,2.573A2.576,2.576,0,0,1,144.713,81.079Z" transform="translate(-119.963 -69.071)" fill="#8e5757"/>
        </g>
        <g id="Grupo_106402" data-name="Grupo 106402" transform="translate(258.848)">
          <g id="Grupo_106401" data-name="Grupo 106401">
            <g id="Grupo_106399" data-name="Grupo 106399" transform="translate(0.625)">
              <g id="Grupo_106397" data-name="Grupo 106397" transform="translate(37.106 4.064)">
                <g id="haed-3" data-name="haed" transform="translate(4.267 3.494)">
                  <g id="Grupo_106395" data-name="Grupo 106395">
                    <g id="Grupo_106392" data-name="Grupo 106392">
                      <path id="Trazado_149904" data-name="Trazado 149904" d="M247.877,39.055c-.9-3.612-1.006-8.03,1.3-11.177,3.628-4.954,12.946-5.944,17.3-1.605,2.885,2.873,3.684,6.281,3.574,10.3-.067,2.287.254,4.53,2.016,6.191.213.2.471.478.346.748-.108.254-.447.269-.712.341-.849.209-1.237,1.179-1.365,2.041a35.619,35.619,0,0,1-1.118,6.144,1.92,1.92,0,0,1-.783,1.109,2.316,2.316,0,0,1-1.4.146q-2.394-.276-4.752-.781a.845.845,0,0,0-.274.171,2.307,2.307,0,0,0-.485,1.152q-1.084,4.8-2.166,9.6a56.176,56.176,0,0,0-11.282-6.918,14.815,14.815,0,0,0,2.251-11.1A27.812,27.812,0,0,1,247.877,39.055Z" transform="translate(-247.28 -23.523)" fill="#ff8f67"/>
                      <path id="Trazado_149905" data-name="Trazado 149905" d="M258.672,40.4a.228.228,0,0,1-.076-.013c-.227-.079-5.556-2-6.869-6.362a.232.232,0,0,1,.155-.287.229.229,0,0,1,.287.155c1.246,4.137,6.526,6.041,6.579,6.059a.23.23,0,0,1,.141.294A.233.233,0,0,1,258.672,40.4Z" transform="translate(-241.758 -10.815)" fill="#894c4c"/>
                    </g>
                    <g id="Grupo_106394" data-name="Grupo 106394" transform="translate(19.159 13.569)">
                      <g id="Grupo_106393" data-name="Grupo 106393">
                        <path id="Trazado_149906" data-name="Trazado 149906" d="M258.67,30.909a.6.6,0,0,1-.29.007,2.68,2.68,0,0,0-1.589.249.659.659,0,0,1-.633-1.156,4.1,4.1,0,0,1,2.46-.386.66.66,0,0,1,.052,1.286Z" transform="translate(-255.815 -29.568)" fill="#a86060"/>
                        <path id="Trazado_149907" data-name="Trazado 149907" d="M257.467,31.333c.016.543-.177.992-.435,1s-.474-.427-.492-.97.177-.99.431-1S257.449,30.792,257.467,31.333Z" transform="translate(-254.915 -28.578)" fill="#a86060"/>
                      </g>
                    </g>
                  </g>
                  <path id="Trazado_149908" data-name="Trazado 149908" d="M256.6,34.463a.193.193,0,0,1-.121-.045.185.185,0,0,1-.02-.26,2.022,2.022,0,0,1,2.043-.525.185.185,0,1,1-.092.359,1.634,1.634,0,0,0-1.668.406A.19.19,0,0,1,256.6,34.463Z" transform="translate(-235.917 -11.036)" fill="#894c4c"/>
                  <g id="Grupo_106396" data-name="Grupo 106396" transform="translate(9.36 15.569)">
                    <path id="Trazado_149909" data-name="Trazado 149909" d="M252.822,31.76a.2.2,0,0,1-.063-.009l-1.143-.33a.227.227,0,0,1-.157-.285.233.233,0,0,1,.285-.157l1.14.33a.23.23,0,0,1,.159.285A.233.233,0,0,1,252.822,31.76Z" transform="translate(-251.45 -29.822)" fill="#894c4c"/>
                    <path id="Trazado_149910" data-name="Trazado 149910" d="M252.748,33.672h-.007a.231.231,0,0,1-.225-.236c.016-.593-.1-2.2-.792-2.541a.229.229,0,0,1-.106-.308.232.232,0,0,1,.31-.106c1.08.53,1.055,2.718,1.048,2.965A.228.228,0,0,1,252.748,33.672Z" transform="translate(-251.268 -30.458)" fill="#894c4c"/>
                  </g>
                </g>
                <path id="Trazado_149911" data-name="Trazado 149911" d="M272.082,27.674a13.405,13.405,0,0,0-6.214-4.846c-5.477-2.079-11.554-.209-15.88,3.639a14.493,14.493,0,0,0-4.034,14.544c1.068,3.365,3.417,5.946,3.52,9.554a15.925,15.925,0,0,0,.052,1.634,6.628,6.628,0,0,0,1.291-3.749c.516,1.394.146,3.688.249,5.349a7.882,7.882,0,0,0,3.569-1.753,15.541,15.541,0,0,0,2.22-3.172,12.476,12.476,0,0,0,1.556-5.812c.081-.943,1.5-3.863,2.447-2.041.487.936-.458,3.628,1.576,3.3-.33-1.722-.462-2.328.471-3.8.48-.75,2.308-2.573,2.2-3.486.047.4.081,3.053-.489,3.161,3.791-.7,9.132-5.39,8.564-9.671A6.927,6.927,0,0,0,272.082,27.674Z" transform="translate(-245.38 -21.967)" fill="#a86060"/>
              </g>
              <path id="Trazado_149912" data-name="Trazado 149912" d="M247.152,119.209c-3.9-1.2-8.247-4.355-12.452-2.584-3.12,1.311-6.665,5.414-5.684,8.943.795,2.849,5.123,4.088,7.6,5.309,6.021,2.968,10.9,5.78,17.538,6.366,6.454.568,16.477-1.428,8.27-8.254-2.577-2.146-5.455-3.794-7.879-6.184-1.41-1.387-.878-1.634-2.752-2.552C250.5,119.62,248.483,119.62,247.152,119.209Z" transform="translate(-228.85 99.27)" fill="#b57878"/>
              <path id="Trazado_149913" data-name="Trazado 149913" d="M268.508,117.093c-4.079.088-9.2-1.535-12.631,1.468-2.548,2.227-4.622,7.237-2.579,10.277,1.654,2.456,6.148,2.269,8.88,2.649,6.647.923,12.164,2.054,18.654.519,6.3-1.491,15.188-6.541,5.251-10.438-3.127-1.226-6.373-1.886-9.428-3.39-1.773-.871-1.351-1.271-3.414-1.553C271.807,116.431,269.9,117.064,268.508,117.093Z" transform="translate(-199.449 99.88)" fill="#b57878"/>
              <g id="Grupo_106398" data-name="Grupo 106398" transform="translate(18.516 43.138)">
                <path id="Trazado_149914" data-name="Trazado 149914" d="M277.984,103.019H251.06c-2.867-.123-5.358-.3-5.358-.3-11.159-.718-9.121-13.9-6.707-21.646,1.535-4.927-.321-8.252.294-12.908.606-4.6,2.344-6.817,1.9-11.677-.669-7.334,6.615-17.116,14.746-17.116h7.839c4.741.007,10.169,1.562,13.334,5.307,3.444,4.068,2.229,9.412,4.752,13.711,2.88,4.914.891,11.231,1.91,16.587,1.109,5.814,1.448,11.336,2.072,17.26,0,0,.016.153.034.418C285.991,94.572,286.049,102.548,277.984,103.019Z" transform="translate(-237.098 -39.373)" fill="#b1e5d2"/>
              </g>
              <path id="Trazado_149915" data-name="Trazado 149915" d="M274.239,137c-1.111,6.775-4.658,12.793-6.086,19.426-1.257,5.845-1.906,12.391-4.191,17.9-1.955,4.714-.77,10.155-2.144,15-1.549,5.455-5.082,2.927-8.923,2.142-1.812-.37-3.394.489-5.127.114-3.455-.75-4.8-4.914-8.375-5.549-2.714-.476-5.246,1.143-7.958-.494-4.362-2.626.009-13.386,1.715-17.846,2.4-6.267,2.483-13.918,5.706-19.756,3.493-6.335,2.795-12.259,4.263-19.3s1.946-13.336,4.263-20.347c2.263-6.862-1.309-12.8.909-19.936,1.111-3.56,2.025-5.435,1.681-9.338-.882-9.85,4.335-17.761,15.341-16.638a16.182,16.182,0,0,1,14.495,17.617l-2.02,20.7q-1.424,14.674-2.858,29.348c-.222,2.252-.3,4.57-.662,6.8C274.257,136.886,274.248,136.942,274.239,137Z" transform="translate(-227.969 32.251)" fill="#b1e5d2"/>
              <path id="Trazado_149916" data-name="Trazado 149916" d="M289.1,130.994q.216,1.044.424,2.092c2.442,12.14,2.44,25.213,3.5,37.564.29,3.372,2.983,15.137,1.026,16.809-3.616,3.087-12.135-.743-16.62.153-3.888.779-13.3,3.024-15.837-1.859-3.071-5.9-1.529-14.524-1.511-20.863.011-3.648-1.421-6.463-1.9-9.848-.848-5.9.424-11.632-.624-17.6-.413-2.348-.714-4.6-1.3-6.936q-2.293-9.078-4.584-18.158-3.677-14.556-7.354-29.106a16.13,16.13,0,1,1,31.277-7.9l5.886,23.335C284.2,109.471,286.858,120.159,289.1,130.994Z" transform="translate(-210.207 33.388)" fill="#b1e5d2"/>
              <path id="Trazado_149917" data-name="Trazado 149917" d="M244.467,163.952a.417.417,0,0,1-.117-.016.436.436,0,0,1-.3-.536l11.767-42.6,4.076-45.217a.436.436,0,0,1,.869.079l-4.09,45.293-11.781,42.68A.44.44,0,0,1,244.467,163.952Z" transform="translate(-209.953 48.339)" fill="#fff"/>
              <path id="Trazado_149918" data-name="Trazado 149918" d="M263.766,44.649a11.733,11.733,0,0,1,5.3-7.078c1.039-.673,10.135-4.265,10.416-2.454-.368-2.384,1.643-3.073,1.3-5.336-.283-1.859-3.289-4.5-4.656-5.533-12.2-9.195-27.326-1.749-33.274,10.986-2.4,5.132-2.638,11.08-2.4,16.643.4,8.849,3.082,21.435,14.212,18.766a24.336,24.336,0,0,1,8.64-.813c6.265.415,3.506-2.227,2.424-6.07-1.6-5.686-3.553-12.546-2.106-18.582C263.672,45,263.719,44.824,263.766,44.649Z" transform="translate(-214.489 -20.156)" fill="#b1e5d2"/>
              <path id="Trazado_149919" data-name="Trazado 149919" d="M264.376,31.389a1.631,1.631,0,0,0-.433-.085,28.617,28.617,0,0,0-3.365.159q-3.111.145-6.223.294s-1.61,6.059-1.614,6.07c-.265,1,.732,2.779,1.264,3.52a5.623,5.623,0,0,0,2.748,2.041A7.488,7.488,0,0,0,259,43.76a6.832,6.832,0,0,0,2.283-.018c.694-.236.954-.907,1.338-1.477a18.432,18.432,0,0,0,1.821-3.459,25.8,25.8,0,0,0,1.219-4.18C265.916,33.438,265.581,31.786,264.376,31.389Z" transform="translate(-199.165 -6.304)" fill="#b1e5d2"/>
              <path id="Trazado_149920" data-name="Trazado 149920" d="M257.342,33.919s-2.784-6.261-6.258-2.846l-.379.887s3.1-4.112,6.07,2.341S257.342,33.919,257.342,33.919Z" transform="translate(-201.646 -7.835)" fill="#b1e5d2"/>
              <path id="Trazado_149921" data-name="Trazado 149921" d="M257.118,34.992s-5.06,0-6.321-4.427l-.319,1.01s.7,3.479,6.7,3.857S257.118,34.992,257.118,34.992Z" transform="translate(-201.927 -7.2)" fill="#b1e5d2"/>
            </g>
            <g id="Grupo_106400" data-name="Grupo 106400" transform="translate(0 46.679)">
              <path id="Trazado_149922" data-name="Trazado 149922" d="M257.672,41.728c-5.3,3.87-8.135,8.169-11.781,13.79a72.342,72.342,0,0,0-4.786,8.036c-1.787,3.666-4.954,5.928-6.79,9.489-1.856,3.6-1.937,7.794-3.365,11.588a24.489,24.489,0,0,0-2.009,8.344c-.157,3.542-.7,7.264-.079,10.788,1.015,5.715,3.785,6.034,9.271,5.767,4.79-.233,4.687-.6,5.343-5.374.534-3.883.687-7.673,1.466-11.563.945-4.734,3.289-6.8,5.832-11.13,2.81-4.788,4.146-7.43,8.811-10.324,3.839-2.382,3.863-4.433,4.512-8.725.7-4.615,2.514-18.12-2.691-20.973-1.452-.795-3.214-.743-3.733,1.055Z" transform="translate(-228.571 -40.951)" fill="#b1e5d2"/>
              <path id="Trazado_149923" data-name="Trazado 149923" d="M229.2,80.136c-.2-3.152-1.176-10.517,3.448-11.464,1.98-.4,4.561.4,6.285,1.246,3.794,1.879,4.3,6.752,4.467,10.5a5.379,5.379,0,0,0,.254,1.886c.242.5,1.055.772,1.226,1.176A1.5,1.5,0,0,1,243.5,85.5c-1.066.119-1.782-.99-2.781-.346-.941.6-.283,1.713-.411,2.644a1.991,1.991,0,0,1-2.043,1.785c-.5.045-1.226-.424-1.529-.384-.7.1-.348.575-.925.873s-.595.287-1.219,0c-.153-.072-.132-.662-.379-.75-.227-.081-.532.119-.581.108-.534-.141-.779.411-1.47-.348-.873-.959-1.174-2.84-1.6-4.025A17.781,17.781,0,0,1,229.2,80.136Z" transform="translate(-228.063 -6.578)" fill="#b1e5d2"/>
            </g>
            <path id="Trazado_149924" data-name="Trazado 149924" d="M237.761,72.492a.364.364,0,0,1-.22-.653c1.639-1.239,2.346-3.484,3.1-5.859A16.834,16.834,0,0,1,243,60.66c.433-.559.945-1.349,1.488-2.186,1.89-2.923,4.24-6.559,7.062-6.68a.363.363,0,0,1,.029.725c-2.445.105-4.779,3.713-6.481,6.348-.552.851-1.071,1.657-1.529,2.24a16.4,16.4,0,0,0-2.238,5.091c-.75,2.379-1.524,4.842-3.347,6.22A.371.371,0,0,1,237.761,72.492Z" transform="translate(-217.584 19.225)" fill="#fff"/>
          </g>
          <path id="Trazado_149925" data-name="Trazado 149925" d="M272.693,69.17c1.711,2.146,3.491,4.243,5.172,6.422,3.06,3.964,5.093,8.277,8.616,11.9,1.6,1.648,9.3,8.009,2.941,8.71,1.623,2.564,2.7,5.879-1.381,6.737-1.549.328-1.524,1.517-3.684,1.136-1.713-.3-3.405-2.023-4.712-3.062-3.237-2.579-4.106-5.708-6.465-9.046-2.642-3.738-6.957-6.93-10.984-9.525-4.907-3.161-9.989-8.207-9.37-14.425.355-3.547.92-14.295,4.344-16.322,4.274-2.53,9.244,8.041,10.681,10.55A55.6,55.6,0,0,0,272.693,69.17Z" transform="translate(-198.443 18.616)" fill="#b1e5d2"/>
          <path id="Trazado_149926" data-name="Trazado 149926" d="M257.692,82.955a3.144,3.144,0,0,1-.77-.1.363.363,0,0,1-.263-.44.369.369,0,0,1,.442-.263,1.95,1.95,0,0,0,2-.554c2.108-2.13,2.236-9.062,1.634-11.347a18.164,18.164,0,0,0-1.4-3.392,15.031,15.031,0,0,1-1.594-4.267,39.321,39.321,0,0,1-.337-5.771c-.007-.653-.013-1.293-.029-1.9a.36.36,0,0,1,.352-.373h.009a.363.363,0,0,1,.364.352c.018.615.025,1.257.031,1.917a38.841,38.841,0,0,0,.325,5.661,14.309,14.309,0,0,0,1.526,4.063,18.505,18.505,0,0,1,1.452,3.529c.629,2.393.59,9.608-1.821,12.043A2.643,2.643,0,0,1,257.692,82.955Z" transform="translate(-193.622 22.648)" fill="#fff"/>
          <path id="Trazado_149927" data-name="Trazado 149927" d="M229.938,136.3h-.04a.546.546,0,0,1-.505-.581c.725-10.119,8.144-33.057,8.461-34.029a.554.554,0,0,1,.687-.35.545.545,0,0,1,.35.687c-.079.236-7.7,23.783-8.411,33.768A.542.542,0,0,1,229.938,136.3Z" transform="translate(-227.55 80.871)" fill="#fff"/>
        </g>
      </g>
      <g id="Grupo_106413" data-name="Grupo 106413" transform="translate(0 7.993)">
        <g id="Grupo_106409" data-name="Grupo 106409" transform="translate(57.353 4.065)">
          <g id="haed-4" data-name="haed" transform="translate(4.267 3.493)">
            <g id="Grupo_106407" data-name="Grupo 106407">
              <g id="Grupo_106404" data-name="Grupo 106404">
                <path id="Trazado_149928" data-name="Trazado 149928" d="M120.54,42.613c-.9-3.607-1.006-8.032,1.3-11.175,3.625-4.954,12.941-5.944,17.3-1.605,2.887,2.873,3.684,6.283,3.574,10.3-.067,2.285.254,4.53,2.016,6.191.216.2.471.478.348.75-.11.254-.447.265-.714.334-.849.211-1.237,1.183-1.365,2.041a35.6,35.6,0,0,1-1.118,6.148,1.92,1.92,0,0,1-.783,1.109,2.3,2.3,0,0,1-1.4.141c-1.6-.18-3.179-.444-4.75-.779a.947.947,0,0,0-.276.173,2.306,2.306,0,0,0-.483,1.149Q133.1,62.2,132.019,67a56.484,56.484,0,0,0-11.282-6.918,14.817,14.817,0,0,0,2.252-11.1A27.786,27.786,0,0,1,120.54,42.613Z" transform="translate(-119.943 -27.084)" fill="#ff8f67"/>
                <path id="Trazado_149929" data-name="Trazado 149929" d="M131.337,43.968a.186.186,0,0,1-.076-.016c-.227-.079-5.558-2-6.871-6.362a.232.232,0,0,1,.444-.135c1.241,4.133,6.528,6.043,6.579,6.063a.229.229,0,0,1,.141.294A.234.234,0,0,1,131.337,43.968Z" transform="translate(-114.421 -14.377)" fill="#894c4c"/>
              </g>
              <g id="Grupo_106406" data-name="Grupo 106406" transform="translate(19.159 13.569)">
                <g id="Grupo_106405" data-name="Grupo 106405">
                  <path id="Trazado_149930" data-name="Trazado 149930" d="M131.335,34.465a.6.6,0,0,1-.29.013,2.723,2.723,0,0,0-1.587.242.658.658,0,1,1-.638-1.152,4.047,4.047,0,0,1,2.46-.384.65.65,0,0,1,.528.761A.642.642,0,0,1,131.335,34.465Z" transform="translate(-128.478 -33.129)" fill="#a86060"/>
                  <path id="Trazado_149931" data-name="Trazado 149931" d="M130.13,34.894c.018.539-.175.99-.433,1s-.478-.424-.494-.968.177-.994.431-1S130.112,34.355,130.13,34.894Z" transform="translate(-127.578 -32.139)" fill="#a86060"/>
                </g>
              </g>
            </g>
            <path id="Trazado_149932" data-name="Trazado 149932" d="M129.257,38.021a.183.183,0,0,1-.119-.045.185.185,0,0,1-.022-.26,2.014,2.014,0,0,1,2.043-.521.187.187,0,0,1,.135.227.191.191,0,0,1-.227.132,1.649,1.649,0,0,0-1.668.4A.182.182,0,0,1,129.257,38.021Z" transform="translate(-108.579 -14.597)" fill="#894c4c"/>
            <g id="Grupo_106408" data-name="Grupo 106408" transform="translate(9.359 15.568)">
              <path id="Trazado_149933" data-name="Trazado 149933" d="M125.485,35.323a.206.206,0,0,1-.063-.011l-1.143-.328a.23.23,0,1,1,.128-.442l1.14.328a.231.231,0,0,1-.063.453Z" transform="translate(-124.113 -33.382)" fill="#894c4c"/>
              <path id="Trazado_149934" data-name="Trazado 149934" d="M125.41,37.233a.246.246,0,0,1-.231-.236c.013-.593-.1-2.2-.79-2.539a.231.231,0,0,1,.2-.415c1.078.525,1.055,2.716,1.048,2.965A.228.228,0,0,1,125.41,37.233Z" transform="translate(-123.93 -34.019)" fill="#894c4c"/>
            </g>
          </g>
          <path id="Trazado_149935" data-name="Trazado 149935" d="M144.745,31.237a13.385,13.385,0,0,0-6.214-4.849c-5.475-2.079-11.552-.207-15.88,3.639a14.489,14.489,0,0,0-4.034,14.542c1.069,3.363,3.417,5.951,3.522,9.556a15.928,15.928,0,0,0,.052,1.634,6.648,6.648,0,0,0,1.288-3.749c.519,1.394.146,3.686.247,5.349A7.845,7.845,0,0,0,127.3,55.6a15.486,15.486,0,0,0,2.218-3.174,12.409,12.409,0,0,0,1.556-5.807c.081-.947,1.5-3.863,2.447-2.041.487.934-.458,3.625,1.576,3.3-.33-1.724-.462-2.33.471-3.8.48-.754,2.31-2.57,2.2-3.486.045.4.079,3.055-.492,3.158,3.791-.7,9.13-5.385,8.566-9.671A6.95,6.95,0,0,0,144.745,31.237Z" transform="translate(-118.043 -25.528)" fill="#a86060"/>
        </g>
        <path id="Trazado_149936" data-name="Trazado 149936" d="M111.529,121.738c-3.587-1.935-7.246-5.872-11.713-4.952-3.311.685-7.59,4.023-7.309,7.673.227,2.952,4.229,5.006,6.422,6.685,5.331,4.077,9.572,7.783,15.972,9.644,6.223,1.809,16.441,1.794,9.715-6.494-2.115-2.606-4.615-4.781-6.537-7.592-1.109-1.639-.543-1.78-2.2-3.039C114.73,122.786,112.756,122.4,111.529,121.738Z" transform="translate(-92.493 91.963)" fill="#b57878"/>
        <g id="Grupo_106410" data-name="Grupo 106410" transform="translate(38.763 43.14)">
          <path id="Trazado_149937" data-name="Trazado 149937" d="M150.649,106.577H123.723c-2.864-.119-5.358-.3-5.358-.3-11.157-.721-9.123-13.9-6.707-21.646,1.538-4.925-.319-8.254.294-12.91.606-4.6,2.344-6.817,1.9-11.675-.671-7.334,6.613-17.114,14.744-17.114h7.839c4.741,0,10.167,1.558,13.336,5.3,3.441,4.07,2.227,9.415,4.75,13.716,2.88,4.909.889,11.228,1.91,16.58,1.109,5.818,1.448,11.338,2.072,17.262,0,0,.016.155.034.415C158.654,98.132,158.713,106.108,150.649,106.577Z" transform="translate(-109.761 -42.935)" fill="#b1e5d2"/>
        </g>
        <g id="Grupo_106411" data-name="Grupo 106411" transform="translate(54.524 97.962)">
          <path id="Trazado_149938" data-name="Trazado 149938" d="M147.564,121.189c-4,.8-9.329.1-12.182,3.663-2.115,2.642-3.277,7.935-.73,10.571,2.056,2.126,6.449,1.154,9.208,1.051,6.705-.263,12.337-.119,18.45-2.768,5.946-2.577,13.805-9.107,3.338-11.2-3.291-.655-6.6-.734-9.877-1.679-1.9-.545-1.549-1.017-3.634-.929C150.7,119.956,148.929,120.913,147.564,121.189Z" transform="translate(-96.348 -1.97)" fill="#b57878"/>
          <path id="Trazado_149939" data-name="Trazado 149939" d="M169.112,129.966c2.249,6.483,2,13.464,3.91,19.976,1.681,5.738,4.231,11.8,4.851,17.729.525,5.075,4.164,9.293,5.26,14.2,1.241,5.531-3.069,4.995-6.822,6.135-1.769.539-2.748,2.049-4.454,2.548-3.392.985-6.564-2.032-10-.887-2.613.875-4.07,3.5-7.23,3.363-5.087-.233-6.375-11.772-7-16.506-.882-6.658-4.454-13.419-4.4-20.089.056-7.235-3.387-12.111-5.453-19s-4.647-12.652-5.953-19.918c-1.28-7.114-7.251-10.634-8.7-17.958-.723-3.659-.813-5.744-2.977-9.011-5.471-8.241-4.653-17.68,5.554-21.943a16.183,16.183,0,0,1,21.139,8.577q4.044,9.583,8.092,19.157,5.744,13.583,11.478,27.164c.882,2.083,1.915,4.16,2.662,6.3C169.074,129.861,169.092,129.91,169.112,129.966Z" transform="translate(-116.782 -67.357)" fill="#b1e5d2"/>
        </g>
        <path id="Trazado_149940" data-name="Trazado 149940" d="M144.573,142.547c-.218.678-.44,1.351-.662,2.031-3.859,11.763-10.308,23.139-15.467,34.41-1.41,3.075-4.864,14.643-7.392,15.13-4.667.9-10.194-6.629-14.537-8.057-3.764-1.244-13.065-3.926-12.865-9.424.238-6.649,5.83-13.395,8.972-18.9,1.8-3.172,1.946-6.326,3.2-9.507,2.171-5.556,6.1-9.915,8.128-15.621.8-2.247,1.648-4.348,2.287-6.676q2.482-9.034,4.961-18.062,3.973-14.479,7.951-28.949a16.129,16.129,0,1,1,31.106,8.541q-3.185,11.6-6.377,23.2C150.923,121.41,147.965,132.015,144.573,142.547Z" transform="translate(-91.057 30.24)" fill="#b1e5d2"/>
        <path id="Trazado_149941" data-name="Trazado 149941" d="M136.429,48.21a11.743,11.743,0,0,1,5.307-7.082c1.039-.671,10.133-4.261,10.411-2.451-.366-2.384,1.645-3.078,1.3-5.338-.283-1.854-3.284-4.5-4.653-5.529-12.2-9.195-27.324-1.751-33.272,10.986-2.4,5.129-2.64,11.08-2.4,16.643.391,8.849,3.08,21.435,14.212,18.766a24.173,24.173,0,0,1,8.64-.813c6.263.418,3.5-2.229,2.42-6.072-1.6-5.686-3.551-12.548-2.1-18.58C136.334,48.56,136.382,48.385,136.429,48.21Z" transform="translate(-66.904 -23.717)" fill="#b1e5d2"/>
        <path id="Trazado_149942" data-name="Trazado 149942" d="M137.038,34.948a1.631,1.631,0,0,0-.433-.083,29.069,29.069,0,0,0-3.363.157q-3.111.145-6.227.294s-1.607,6.061-1.609,6.072c-.267,1,.73,2.777,1.264,3.522a5.608,5.608,0,0,0,2.748,2.036,7.4,7.4,0,0,0,2.243.375,6.818,6.818,0,0,0,2.281-.018c.694-.236.954-.907,1.34-1.475a18.374,18.374,0,0,0,1.818-3.461,26.02,26.02,0,0,0,1.219-4.18C138.583,37,138.244,35.347,137.038,34.948Z" transform="translate(-51.58 -9.865)" fill="#b1e5d2"/>
        <path id="Trazado_149943" data-name="Trazado 149943" d="M130.008,37.479s-2.786-6.261-6.261-2.844l-.382.887s3.1-4.11,6.072,2.335S130.008,37.479,130.008,37.479Z" transform="translate(-54.063 -11.397)" fill="#b1e5d2"/>
        <path id="Trazado_149944" data-name="Trazado 149944" d="M129.779,38.553s-5.057,0-6.321-4.427l-.317,1.012s.7,3.477,6.7,3.857S129.779,38.553,129.779,38.553Z" transform="translate(-54.343 -10.76)" fill="#b1e5d2"/>
        <g id="Grupo_106412" data-name="Grupo 106412" transform="translate(8.939 42)">
          <path id="Trazado_149945" data-name="Trazado 149945" d="M139.624,42.788c-6.043,2.548-9.8,6.074-14.643,10.7a73.164,73.164,0,0,0-6.51,6.712c-2.584,3.156-6.189,4.629-8.8,7.668-2.635,3.078-3.684,7.138-5.949,10.5a24.56,24.56,0,0,0-3.877,7.655c-.97,3.412-2.359,6.907-2.566,10.481-.332,5.8,2.29,6.743,7.691,7.747,4.714.88,4.7.505,6.438-3.993,1.416-3.657,2.438-7.307,4.092-10.916,2.014-4.386,4.766-5.857,8.243-9.482,3.839-4.009,5.747-6.272,10.952-8.012,4.285-1.434,4.784-3.426,6.407-7.45,1.744-4.326,6.627-17.049,2.218-21.027-1.23-1.107-2.961-1.464-3.879.162Z" transform="translate(-95.502 -42.427)" fill="#b1e5d2"/>
          <path id="Trazado_149946" data-name="Trazado 149946" d="M96.6,77.005c.536-3.111,1.284-10.5,6-10.355,2.02.063,4.35,1.434,5.827,2.66,3.257,2.7,2.629,7.567,1.928,11.249a5.323,5.323,0,0,0-.189,1.9c.117.541.846.992.918,1.428a1.494,1.494,0,0,1-1.809,1.639c-1.06-.128-1.5-1.374-2.622-.979-1.055.375-.671,1.605-1.012,2.478a2,2,0,0,1-2.4,1.271c-.494-.076-1.1-.7-1.4-.727-.7-.065-.474.476-1.107.633s-.64.146-1.183-.281c-.13-.1.022-.673-.2-.819-.2-.126-.545,0-.586-.025-.489-.26-.855.218-1.356-.68-.626-1.131-.485-3.035-.631-4.285A18.012,18.012,0,0,1,96.6,77.005Z" transform="translate(-96.475 -12.277)" fill="#b1e5d2"/>
        </g>
        <path id="Trazado_149947" data-name="Trazado 149947" d="M111.3,63.659l-.319-.175-.278-.238a16.885,16.885,0,0,1,3.827-4.4c.579-.406,1.3-1.012,2.065-1.654,2.665-2.238,5.978-5.026,8.714-4.3a.361.361,0,0,1,.26.442.356.356,0,0,1-.444.258c-2.373-.622-5.659,2.142-8.063,4.16-.777.651-1.509,1.266-2.117,1.693A16.44,16.44,0,0,0,111.3,63.659Z" transform="translate(-69.823 12.444)" fill="#fff"/>
        <path id="Trazado_149948" data-name="Trazado 149948" d="M145.356,72.729c1.711,2.15,3.491,4.243,5.174,6.422,3.055,3.969,5.091,8.277,8.613,11.9,1.6,1.648,9.3,8.009,2.943,8.71,1.623,2.561,2.7,5.879-1.383,6.739-1.549.323-1.524,1.515-3.684,1.136-1.713-.305-3.4-2.025-4.712-3.066-3.239-2.577-4.1-5.711-6.465-9.044C143.2,91.789,138.886,88.59,134.859,86c-4.909-3.158-9.989-8.2-9.37-14.429.357-3.542.923-14.288,4.344-16.317,4.274-2.53,9.244,8.041,10.681,10.548A55.7,55.7,0,0,0,145.356,72.729Z" transform="translate(-51.484 15.056)" fill="#b1e5d2"/>
        <path id="Trazado_149949" data-name="Trazado 149949" d="M130.355,86.515a3.112,3.112,0,0,1-.768-.1.363.363,0,1,1,.177-.7,1.947,1.947,0,0,0,2-.554c2.108-2.13,2.236-9.06,1.634-11.345a17.954,17.954,0,0,0-1.4-3.392,15.051,15.051,0,0,1-1.592-4.267,39.01,39.01,0,0,1-.339-5.747c-.007-.662-.011-1.309-.029-1.926a.36.36,0,0,1,.35-.373h.011a.361.361,0,0,1,.364.35c.018.622.025,1.275.031,1.942a38.2,38.2,0,0,0,.328,5.637,14.271,14.271,0,0,0,1.526,4.061,18.726,18.726,0,0,1,1.45,3.531c.631,2.391.59,9.6-1.821,12.041A2.646,2.646,0,0,1,130.355,86.515Z" transform="translate(-46.663 19.089)" fill="#fff"/>
        <path id="Trazado_149950" data-name="Trazado 149950" d="M106.779,177.168a.437.437,0,0,1-.384-.644,41.375,41.375,0,0,0,2.813-7.177,55.4,55.4,0,0,1,2.052-5.661c.909-2.034,1.971-4.027,3-5.951,1.053-1.975,2.142-4.016,3.055-6.09,1.048-2.375,2.079-4.6,3.078-6.739a134.442,134.442,0,0,0,9.3-24.607c1.019-3.836,2.207-7.688,3.358-11.415.581-1.881,1.161-3.76,1.724-5.646l6.808-22.856a.428.428,0,0,1,.543-.294.436.436,0,0,1,.292.543l-6.808,22.856q-.845,2.832-1.726,5.655c-1.147,3.717-2.332,7.56-3.347,11.379a135.234,135.234,0,0,1-9.359,24.753c-1,2.139-2.025,4.355-3.071,6.723-.927,2.1-2.023,4.16-3.082,6.146-1.019,1.913-2.074,3.892-2.97,5.9a54.6,54.6,0,0,0-2.018,5.574,42,42,0,0,1-2.876,7.325A.441.441,0,0,1,106.779,177.168Z" transform="translate(-75.255 46.426)" fill="#fff"/>
      </g>
    </g>
  </g>
</svg>
