<svg xmlns="http://www.w3.org/2000/svg" width="420" height="283.367" viewBox="0 0 420 283.367">
  <g id="Grupo_107018" data-name="Grupo 107018" transform="translate(-38.334 -265.588)">
    <path id="Trazado_151636" data-name="Trazado 151636" d="M458.334,416.723s-94.021,7.343-210,7.343-210-7.343-210-7.343,94.021-7.341,210-7.341S458.334,416.723,458.334,416.723Z" transform="translate(0 124.889)" fill="#b5c1eb"/>
    <g id="Grupo_107015" data-name="Grupo 107015" transform="translate(65.072 265.588)">
      <path id="Trazado_151637" data-name="Trazado 151637" d="M192.144,422.079c-.71,3.249-1.461,6.527-2.253,9.789-9.352,39.067-22.966,78.023-22.966,78.023a43.743,43.743,0,0,1-9.094,2.4c-6.486,1.2-16.809,2.4-32.212,2.416h-.067c-30.82-.013-41.306-4.821-41.306-4.821s-13.614-38.955-22.953-78.008c-.792-3.277-1.543-6.555-2.267-9.8-4.425-20.113-7.293-39.394-6.118-52.394,1.6-17.805,9.995-34.108,18.842-46.753v-.015a152.192,152.192,0,0,1,22.927-25.943h61.8a149.389,149.389,0,0,1,19.294,20.959v.013c10.064,13.177,20.66,31.489,22.49,51.738C199.435,382.685,196.568,401.966,192.144,422.079Z" transform="translate(-52.643 -238.327)" fill="#2c3352"/>
      <path id="Trazado_151638" data-name="Trazado 151638" d="M198.506,367v.193c-.013.613-.013,1.228-.026,1.842v.028c-.26,9.475-1.857,20.877-4.193,32.948-.654,3.4-1.379,6.841-2.143,10.324-.71,3.249-1.461,6.527-2.253,9.789-9.352,39.067-22.966,78.023-22.966,78.023a43.746,43.746,0,0,1-9.094,2.4c-6.486,1.2-16.809,2.4-32.212,2.416h-.067c-30.82-.013-41.306-4.821-41.306-4.821s-13.614-38.955-22.953-78.008c-.792-3.277-1.543-6.555-2.267-9.8-4.425-20.113-7.293-39.394-6.118-52.394a75.459,75.459,0,0,1,2.853-14.705l.013-.013c3.524-12.032,9.642-22.968,15.976-32.034-17.149,75.563,30.586,94.148,69.638,91.063s56.94-47.014,34.383-96.048c10.064,13.177,20.66,31.488,22.49,51.738A68.434,68.434,0,0,1,198.506,367Z" transform="translate(-52.643 -228.579)" fill="#2c3352" opacity="0.1" style="mix-blend-mode: multiply;isolation: isolate"/>
      <path id="Trazado_151639" data-name="Trazado 151639" d="M151.655,296.912v7.633s-.355.957-.983,2.5c-.846,2.089-2.225,5.286-3.933,8.631a61.925,61.925,0,0,1-5.135,8.562,81.17,81.17,0,0,1-30.9,6.431,81.209,81.209,0,0,1-30.9-6.431c-5.613-7.633-10.036-19.691-10.036-19.691v-7.633A183.451,183.451,0,0,1,85.253,281.62c7.659-6.691,17.041-13.573,25.425-16.032,8.068,2.089,16.208,7.483,23.089,13.218A139.46,139.46,0,0,1,151.655,296.912Z" transform="translate(-37.77 -265.588)" fill="#2c3352"/>
      <path id="Trazado_151640" data-name="Trazado 151640" d="M126.57,278.806c-.9,11.116-46.358,13.928-48.515,2.814,7.659-6.691,17.041-13.573,25.425-16.032C111.549,267.677,119.688,273.071,126.57,278.806Z" transform="translate(-30.573 -265.588)" fill="#434d7d" opacity="0.4"/>
      <path id="Trazado_151641" data-name="Trazado 151641" d="M151.655,284.427v3.756s-.355.957-.983,2.5L77.62,293.153s9.858,9.791,35.611,11.088c16.933.846,27.787-2.663,33.508-4.929a61.924,61.924,0,0,1-5.135,8.562,81.169,81.169,0,0,1-30.9,6.431,81.208,81.208,0,0,1-30.9-6.431c-5.613-7.633-10.036-19.691-10.036-19.691v-3.756Z" transform="translate(-37.77 -249.226)" fill="#2c3352" opacity="0.4" style="mix-blend-mode: multiply;isolation: isolate"/>
      <path id="Trazado_151642" data-name="Trazado 151642" d="M189.177,363.928c-.71,3.249-1.461,6.527-2.253,9.789-12.125.9-46.534,3.291-64.244,3.291-.015,0-.015.015-.028.015h-.067a.045.045,0,0,1-.028-.015c-17.71,0-52.093-2.388-64.231-3.276-.792-3.277-1.543-6.555-2.267-9.8,11.605.463,47.517,1.842,66.552,1.842S177.6,364.378,189.177,363.928Z" transform="translate(-49.677 -180.176)" fill="#434d7d" opacity="0.3" style="mix-blend-mode: screen;isolation: isolate"/>
      <path id="Trazado_151643" data-name="Trazado 151643" d="M68.129,281.667,68.8,292l86.621-1.166v-8.5Z" transform="translate(-39.194 -251.623)" fill="#434d7d"/>
      <path id="Trazado_151644" data-name="Trazado 151644" d="M125.458,334.763H109.034l.427-20H96.848l.513,20H78.391l1.846,12.92H97.692l1,39.069h9.229l.835-39.069h16.7Z" transform="translate(-30.281 -222.875)" fill="#656e96"/>
      <path id="Trazado_151645" data-name="Trazado 151645" d="M194.287,384.8c-.654,3.4-1.379,6.841-2.143,10.324-.71,3.249-1.461,6.527-2.253,9.789-9.352,39.067-22.966,78.023-22.966,78.023a43.745,43.745,0,0,1-9.094,2.4c-6.486,1.2-16.809,2.4-32.212,2.416h-.067c-30.82-.013-41.306-4.821-41.306-4.821S70.631,443.98,61.292,404.927c-.792-3.277-1.543-6.555-2.267-9.8-4.425-20.113-7.293-39.394-6.118-52.394a75.459,75.459,0,0,1,2.853-14.705l.013-.013C50.081,365.124,92.1,466.331,130.4,472.04,160.4,476.5,184.838,427.649,194.287,384.8Z" transform="translate(-52.643 -211.372)" fill="#2c3352" opacity="0.3" style="mix-blend-mode: multiply;isolation: isolate"/>
      <path id="Trazado_151646" data-name="Trazado 151646" d="M70.856,288.935l-1-5.76,6.282-.387.4,5.952-.769.051-.348-5.187-4.657.287.743,4.272H74.1l-.1-2.673-1.449.079.126,1.083.6-.049.062.769L72,287.481l-.306-2.636,3.052-.166.152,4.256Z" transform="translate(-37.696 -250.649)" fill="#2c3352"/>
      <path id="Trazado_151647" data-name="Trazado 151647" d="M76.392,288.935l-1-5.76,6.282-.387.4,5.952-.769.051-.348-5.187-4.657.287.743,4.272h2.594l-.1-2.673-1.449.079.126,1.083.6-.049.062.769-1.346.107-.306-2.636,3.052-.166.152,4.256Z" transform="translate(-32.888 -250.649)" fill="#2c3352"/>
      <path id="Trazado_151648" data-name="Trazado 151648" d="M81.927,288.935l-1-5.76,6.282-.387.4,5.952-.769.051-.348-5.187-4.657.287.743,4.272h2.594l-.1-2.673-1.449.079.126,1.083.6-.049.062.769-1.346.107-.306-2.636,3.052-.166.152,4.256Z" transform="translate(-28.08 -250.649)" fill="#2c3352"/>
      <path id="Trazado_151649" data-name="Trazado 151649" d="M87.463,288.935l-1-5.76,6.282-.387.4,5.952-.769.051-.348-5.187-4.657.287.743,4.272h2.594l-.1-2.673-1.449.079.126,1.083.6-.049.062.769-1.346.107-.306-2.636,3.052-.166.152,4.256Z" transform="translate(-23.272 -250.649)" fill="#2c3352"/>
      <path id="Trazado_151650" data-name="Trazado 151650" d="M93,288.935l-1-5.76,6.282-.387.4,5.952-.769.051-.348-5.187-4.657.287.743,4.272h2.594l-.1-2.673-1.449.079.126,1.083.6-.049.062.769-1.346.107-.306-2.636,3.052-.166.152,4.256Z" transform="translate(-18.464 -250.649)" fill="#2c3352"/>
      <path id="Trazado_151651" data-name="Trazado 151651" d="M98.535,288.935l-1-5.76,6.282-.387.4,5.952-.769.051L103.1,283.6l-4.657.287.743,4.272h2.594l-.1-2.673-1.449.079.126,1.083.6-.049.062.769-1.346.107-.306-2.636,3.052-.166.152,4.256Z" transform="translate(-13.656 -250.649)" fill="#2c3352"/>
      <path id="Trazado_151652" data-name="Trazado 151652" d="M104.071,288.935l-1-5.76,6.282-.387.4,5.952-.769.051-.348-5.187-4.657.287.743,4.272h2.594l-.1-2.673-1.449.079.126,1.083.6-.049.062.769-1.346.107-.306-2.636,3.052-.166.152,4.256Z" transform="translate(-8.848 -250.649)" fill="#2c3352"/>
      <path id="Trazado_151653" data-name="Trazado 151653" d="M109.607,288.935l-1-5.76,6.282-.387.4,5.952-.769.051-.348-5.187-4.657.287.743,4.272h2.594l-.1-2.673-1.449.079.126,1.083.6-.049.062.769-1.346.107-.306-2.636,3.052-.166.152,4.256Z" transform="translate(-4.039 -250.649)" fill="#2c3352"/>
    </g>
    <g id="Grupo_107017" data-name="Grupo 107017" transform="translate(236.066 325.246)">
      <rect id="Rectángulo_34124" data-name="Rectángulo 34124" width="171.493" height="216.727" fill="#51566b"/>
      <rect id="Rectángulo_34125" data-name="Rectángulo 34125" width="188.106" height="142.873" transform="translate(157.183 14.31) rotate(90)" fill="#dedff1"/>
      <rect id="Rectángulo_34126" data-name="Rectángulo 34126" width="133.322" height="178.566" transform="translate(19.085 19.078)" fill="#1d87a9"/>
      <path id="Trazado_151654" data-name="Trazado 151654" d="M214.014,372l-14.634,1.855L184.746,372l-1.256,16.548,15.795,2.55v.031l.1-.016.1.016V391.1l15.795-2.55Z" transform="translate(-109.994 -232.826)" fill="#ffc3aa"/>
      <path id="Trazado_151655" data-name="Trazado 151655" d="M287.1,403.937v18.71H155.053c1.2-7.142,3.9-18.041,9.432-23.086,8.61-7.835,43.43-18.556,43.43-18.556l16.159,2.291L240.245,381s34.809,10.722,43.419,18.556A18.871,18.871,0,0,1,287.1,403.937Z" transform="translate(-134.692 -225.003)" fill="#8c94ad"/>
      <path id="Trazado_151656" data-name="Trazado 151656" d="M209.733,378.139l5.356,6.5L199.4,398.417l-7.461-12.625Z" transform="translate(-102.652 -227.491)" fill="#9aa1b9"/>
      <path id="Trazado_151657" data-name="Trazado 151657" d="M251.308,372.127v20.141l-35.37,38.089H196.262Z" transform="translate(-98.901 -232.713)" fill="#2c3352"/>
      <g id="Grupo_107016" data-name="Grupo 107016" transform="translate(49.364 29.032)">
        <path id="Trazado_151658" data-name="Trazado 151658" d="M175.713,344.952s-5.57,16.636-2,22.021,11.587,3.178,11.587,3.178l-2.674-22.08Z" transform="translate(-168.889 -285.347)" fill="#ffc3aa"/>
        <path id="Trazado_151659" data-name="Trazado 151659" d="M213.463,344.952s5.57,16.636,2,22.021-11.587,3.178-11.587,3.178l2.674-22.08Z" transform="translate(-141.647 -285.347)" fill="#ffc3aa"/>
        <path id="Trazado_151660" data-name="Trazado 151660" d="M179.316,379.891c-2.154,3.705,1.467,4.195,1.467,4.195s1.045,18.616,5.546,34.4,35.147,17.678,43.348,7.033c9.494-12.317,9.2-39.766,9.2-39.766a5.041,5.041,0,0,0,2.328-7.37c7.158-.607,9.774-11.923,5.766-12.082,5.974-4.445.729-7.106.551-8.229,6.74-6.867,3.638-13.011-.049-15.61,4.486-11.863-4-11.533-6.93-10.757,1-14.008-12.231-17.656-17.805-12.08-7.384-10.552-26.716-6.637-24.728-.538-16.725,0-21.15,4.733-18.441,9.524-7.818,5.932-4.266,12.575-3.384,12.833-8.885,4.072-3.367,14.773-.721,15.546-4.408,4.285-1.962,6.891-1.962,6.891-6.2,4.436-1.02,7.007,1.472,8.029C172.539,376.5,179.316,379.891,179.316,379.891Z" transform="translate(-170.575 -313.053)" fill="#96492c"/>
        <path id="Trazado_151661" data-name="Trazado 151661" d="M225.645,373.588c-2.237,1.725-13.311,6.177-23.2,6.215-10.888.043-21.626-5.443-22.447-7.577-1.293-3.345-2.009-13.9-1.34-24.579,1.962.2,1.968-2.285,1.575-3.769,4.967,5.413,7.91,2.285,8.653.463,4.178,5.144,16,2.379,18.685-3.076,5.977,2.435,7.2-.06,8.294-1.878,4.157,2.721,5.8-1.738,6.553-3.558,1.659,3.431,2.3,1.6,3.109.815-.46,4.853,1.187,6.863,2.558,7.693C229.6,356.976,229.066,370.968,225.645,373.588Z" transform="translate(-163.777 -293.27)" fill="#ffc3aa"/>
        <path id="Trazado_151662" data-name="Trazado 151662" d="M187.979,358.639s2.452,5.348,6.906,5.792,7.8-6.015,7.8-6.015Z" transform="translate(-155.459 -273.652)" fill="#ffc3aa"/>
      </g>
      <path id="Trazado_151663" data-name="Trazado 151663" d="M185.014,378.139l-5.356,6.5,15.686,13.773,7.46-12.625Z" transform="translate(-113.322 -227.491)" fill="#9aa1b9"/>
    </g>
  </g>
</svg>
