<svg xmlns="http://www.w3.org/2000/svg" xmlns:xlink="http://www.w3.org/1999/xlink" width="372.617" height="311" viewBox="0 0 372.617 311">
  <defs>
    <clipPath id="clip-path">
      <rect id="Rectángulo_34134" data-name="Rectángulo 34134" width="294" height="311" transform="translate(1106 1058)" fill="#fff" stroke="#707070" stroke-width="1"/>
    </clipPath>
  </defs>
  <g id="Grupo_107078" data-name="Grupo 107078" transform="translate(-1030.813 -1082)">
    <g id="Grupo_107058" data-name="Grupo 107058" transform="translate(990.113 1134.114)">
      <path id="Trazado_151785" data-name="Trazado 151785" d="M133.662,109.089c-.322,8.008-1.535,36.775-2.668,63.129v.015c-.849,19.99-1.643,38.608-1.942,45.767-.094,1.995-.135,3.1-.135,3.1l-9.437,2-28.105,5.916-13.116,2.765-15.128,3.181-6.4-60.177-5.744-54.017a33.107,33.107,0,0,0-.606-34.323c23.323-14.586,57.186-16.97,77.284-1.333C124.509,93.3,128.3,105.609,133.662,109.089Z" transform="translate(18.67)" fill="#9aa1b9"/>
      <path id="Trazado_151786" data-name="Trazado 151786" d="M52.672,87.3a36.362,36.362,0,0,1-.243,34.186l4.3,53.291-5.744-54.017a33.107,33.107,0,0,0-.606-34.323c23.323-14.586,57.186-16.97,77.284-1.333C102.765,71.746,78.608,74.455,52.672,87.3Z" transform="translate(18.67)" fill="#acbacf"/>
      <path id="Trazado_151787" data-name="Trazado 151787" d="M73.75,227.026l-16.566,3.491L44.874,116.6s10.421-11.039,5.691-29.965A95.8,95.8,0,0,1,61,78.509a33.107,33.107,0,0,1,.606,34.323Z" transform="translate(8.051 7.931)" fill="#655d82"/>
      <path id="Trazado_151788" data-name="Trazado 151788" d="M61.6,112.832,44.874,116.6s10.421-11.039,5.691-29.965A95.8,95.8,0,0,1,61,78.509,33.107,33.107,0,0,1,61.6,112.832Z" transform="translate(8.051 7.931)" fill="#7a7ba1"/>
      <path id="Trazado_151789" data-name="Trazado 151789" d="M108.672,104.255l-.609,108.966-4.1.861L66.842,221.9,56.3,112.775S64.967,96.666,58.981,84.4c-.053-.105-.108-.228-.161-.337,14.2-6,36.289-5.673,45.119-1.265C100.152,95.1,108.672,104.255,108.672,104.255Z" transform="translate(30.087 9.875)" fill="#655d82"/>
      <path id="Trazado_151790" data-name="Trazado 151790" d="M104.572,104.9l-.322,57.467-.284,50.47-37.123,7.82-6.2-64.142L56.3,111.534s8.669-16.109,2.683-28.378c14.035-4.352,32.865-3.705,40.861.284C96.052,95.747,104.572,104.9,104.572,104.9Z" transform="translate(30.087 11.116)" fill="#8d8eb0"/>
      <path id="Trazado_151791" data-name="Trazado 151791" d="M101.391,112.083l-.284,50.47-37.123,7.82-6.2-64.142C72,145.352,92.426,132.21,101.391,112.083Z" transform="translate(32.945 61.403)" fill="#8d8eb0" opacity="0.1" style="mix-blend-mode: multiply;isolation: isolate"/>
      <path id="Trazado_151792" data-name="Trazado 151792" d="M126.812,107.8c-.849,19.99-1.643,38.608-1.942,45.767-11.039,3.342-24.939,7.372-37.677,11.013l-13.116,2.765L58.95,170.526l-6.4-60.177C74.291,149.725,113.292,146.058,126.812,107.8Z" transform="translate(22.851 64.432)" fill="#8d8eb0" opacity="0.2" style="mix-blend-mode: multiply;isolation: isolate"/>
      <g id="Grupo_107056" data-name="Grupo 107056" transform="translate(95.564 114.742)">
        <path id="Trazado_151793" data-name="Trazado 151793" d="M72.158,105.476l-5.582-4.016s4.018-5.407,2.791-9.6c-1.213-4.177-9.935-2.613-9.935-2.613l2.088,21.284,3.843-.876-1.4-7.144,6.81,5.931Zm-8.763-6.833-.823-6.54s3.641,0,3.91,1.807S63.395,98.643,63.395,98.643Z" transform="translate(-59.432 -86.652)" fill="#655d82"/>
        <path id="Trazado_151794" data-name="Trazado 151794" d="M77.055,92.527c-.855-4.267-10.234-4.355-10.234-4.355l.281,21.387,3.9-.548-.791-7.237S77.921,96.809,77.055,92.527Zm-7.079,5.345-.267-6.587s3.629.31,3.743,2.132S69.975,97.872,69.975,97.872Z" transform="translate(-45.18 -88.172)" fill="#655d82"/>
        <path id="Trazado_151795" data-name="Trazado 151795" d="M64.044,88.965l1.273,19.459,3.455-.273L68.136,88.51Z" transform="translate(-50.536 -87.52)" fill="#655d82"/>
      </g>
      <path id="Trazado_151796" data-name="Trazado 151796" d="M78.841,111.15l-.445-5.328-4.215.275c-.07-3.954-.12-6.827-.12-6.827l-7.252.5.425,6.774-4.97.322.448,5.474,4.865-.36,1.1,17.541s5.925-.164,5.913-.609c-.006-.246-.17-9.367-.313-17.427Z" transform="translate(41.594 47.976)" fill="#655d82"/>
      <path id="Trazado_151797" data-name="Trazado 151797" d="M79.628,111.15l-.445-5.328-4.215.275c-.07-3.954-.12-6.827-.12-6.827l-7.252.5.425,6.774-4.973.322.448,5.474,4.865-.36,1.1,17.541s5.928-.164,5.916-.609c-.009-.246-.17-9.367-.313-17.427Z" transform="translate(43.106 47.976)" fill="#9aa1b9"/>
      <path id="Trazado_151798" data-name="Trazado 151798" d="M413.317,155.261s-80.275,15.052-192.928,10.494S40.7,155.261,40.7,155.261s56.214-13.807,102.924-23.741c12.984-2.762,25.235-5.231,35.346-7.023.905-.146,1.781-.308,2.642-.457a3.479,3.479,0,0,0,.378-.067c4.531-.77,8.561-1.377,11.932-1.792.917-.108,1.86-.231,2.8-.337a.461.461,0,0,0,.135-.015c1.415-.161,2.87-.31,4.341-.457,26.612-2.738,61.5-3.614,83.608-2.522,3.263.176,6.241.378,8.869.621a.709.709,0,0,0,.149.012,53.053,53.053,0,0,1,10.043,1.672c.108.041.217.067.337.108,7.738,2.466,40.2,12.577,67.727,21.123C394.242,149.342,413.317,155.261,413.317,155.261Z" transform="translate(0 84.86)" fill="#808728"/>
      <path id="Trazado_151799" data-name="Trazado 151799" d="M110.573,133.357c.082.105.176.2.269.308-3.72,7.442-19.345,7.63-23.159,3.816a2.266,2.266,0,0,0,.659-1c.621-1.8-.445-4.581-.551-4.839.24.31,2.343,3.128,3.192,4.382.1.135.176.243.231.337.053-.135.108-.269.146-.4,1.5-4.247.879-12.618.879-12.618s1.59,7.252,3.45,9.949a22.38,22.38,0,0,1,0-6.687s1.766,5.392,3.813,6.511c-.928-10.986,4.086-20.654,7.618-20.936-5.635,7.185-2.563,19.615-1.025,21.65.026.038.067.079.094.12.015-.041.026-.094.041-.135,2.144-7.589,5.459-7.873,5.459-7.873S108.295,130.363,110.573,133.357Z" transform="translate(90.626 72.874)" fill="#808728"/>
      <path id="Trazado_151800" data-name="Trazado 151800" d="M52.52,152.643c-1.259-6.707-11.739-13.836-11.739-13.836s13.7,6.151,16.768,10.761c-7.823-18.584-15.09-25.85-15.09-25.85s17.187,16.768,20.262,23.616c-1.538-18.446,3.772-28.369,3.772-28.369s-1.956,21.662,1.956,26.413c3.213-3.913,2.654-11.461,2.794-11.039s3.913,11.177,4.191,13.833S52.52,152.643,52.52,152.643Z" transform="translate(0.156 85.964)" fill="#808728"/>
      <path id="Trazado_151801" data-name="Trazado 151801" d="M143.975,129.929a2.608,2.608,0,0,0,.108.31c-10.3,3.948-20.315-1.59-20.315-1.59a3.888,3.888,0,0,0,.808-1.133c2.047-3.963,1.807-13.616,1.807-13.616s3.963,7.7,4.165,13.321c1.456-2.4,1.362-7.6,1.362-7.6a37.6,37.6,0,0,1,1.535,8.52,4.2,4.2,0,0,1,.015.431c.041-.135.082-.284.135-.419,3.48-11.364,10.38-12.591,10.38-12.591s-6.862,6.567-5.512,12.7c5.093-5.621,7.6-6.039,7.6-6.039S142.83,126.531,143.975,129.929Z" transform="translate(160.23 76.194)" fill="#808728"/>
      <g id="Grupo_107057" data-name="Grupo 107057" transform="translate(96.967 113.722)">
        <path id="Trazado_151802" data-name="Trazado 151802" d="M72.637,105.127l-5.579-4.015s4.015-5.407,2.788-9.6S59.911,88.9,59.911,88.9L62,110.182l3.84-.876-1.4-7.144,6.807,5.931Zm-8.763-6.833-.82-6.537s3.638,0,3.91,1.8C67.233,95.382,63.874,98.294,63.874,98.294Z" transform="translate(-59.911 -86.306)" fill="#9aa1b9"/>
        <path id="Trazado_151803" data-name="Trazado 151803" d="M77.534,92.176C76.679,87.909,67.3,87.824,67.3,87.824l.278,21.387,3.9-.548-.794-7.24S78.4,96.458,77.534,92.176Zm-7.079,5.345-.267-6.584s3.626.308,3.743,2.129S70.455,97.522,70.455,97.522Z" transform="translate(-45.657 -87.824)" fill="#9aa1b9"/>
        <path id="Trazado_151804" data-name="Trazado 151804" d="M64.524,88.616,65.8,108.074l3.455-.273-.636-19.64Z" transform="translate(-51.014 -87.173)" fill="#9aa1b9"/>
      </g>
      <path id="Trazado_151805" data-name="Trazado 151805" d="M304.15,154.371C272.74,156.92,126.1,167.288,75.841,143.505c12.984-2.762,25.235-5.231,35.346-7.023.621-1.8-.445-4.581-.551-4.839.24.31,2.343,3.128,3.192,4.382a3.481,3.481,0,0,0,.378-.067c1.5-4.247.879-12.618.879-12.618s1.59,7.252,3.45,9.949a22.38,22.38,0,0,1,0-6.687s1.766,5.392,3.813,6.511c-.928-10.986,4.086-20.654,7.618-20.936-5.635,7.185-2.563,19.615-1.025,21.65a.461.461,0,0,0,.135-.015c2.144-7.589,5.459-7.873,5.459-7.873s-3.4,4.423-1.119,7.416c26.612-2.738,61.5-3.614,83.608-2.522,2.047-3.963,1.807-13.616,1.807-13.616s3.963,7.7,4.165,13.321c1.456-2.4,1.362-7.6,1.362-7.6a37.6,37.6,0,0,1,1.535,8.52.708.708,0,0,0,.149.012c3.479-11.364,10.38-12.591,10.38-12.591s-6.862,6.567-5.512,12.7c5.093-5.621,7.6-6.039,7.6-6.039s-3.236,4.314-2.091,7.712C244.161,135.714,276.621,145.825,304.15,154.371Z" transform="translate(67.783 72.874)" fill="#6a9432" opacity="0.2" style="mix-blend-mode: screen;isolation: isolate"/>
    </g>
    <g id="Enmascarar_grupo_122" data-name="Enmascarar grupo 122" transform="translate(0 24)" clip-path="url(#clip-path)">
      <g id="Grupo_107061" data-name="Grupo 107061" transform="translate(1011.723 1056.512)">
        <path id="Trazado_151806" data-name="Trazado 151806" d="M174.469,105.46l-.524,16.852-3.158,101.034-12.727.337s-10.275-61.4-13.49-102.512c-.467-5.846-.784-11.266-.913-16.048Z" transform="translate(83.56 228.361)" fill="#3b4261"/>
        <path id="Trazado_151807" data-name="Trazado 151807" d="M195.423,227.084l-12.691.337S165.58,168.69,156.348,126.051c-1.774-8.2-3.268-15.788-4.279-22.272l30.87.353,1.888,18.537Z" transform="translate(109.302 224.249)" fill="#3b4261"/>
        <path id="Trazado_151808" data-name="Trazado 151808" d="M189.527,94.847l-21.675,5.066-4.5-14.932s-18.593,1.7-18.874-1.681,1.12-19.154,1.12-19.154-5.9.28-5.9-1.12a55.278,55.278,0,0,1,1.194-6.707c.8-3.776,2.018-8.972,3.589-15.269l1.587-.2h.02c7.791-.934,41.238-4.6,41.482,1.6.053,1.141.13,3.272.239,6.037.28,7.364.71,19.247,1.084,29.132C189.247,87.17,189.527,94.847,189.527,94.847Z" transform="translate(71.438 25.807)" fill="#ffc3aa"/>
        <path id="Trazado_151809" data-name="Trazado 151809" d="M184.073,77.622c-6.426,2.951-14.928,1.064-18.2-4.092-2.277-3.609-3.755-9.719-4.5-13.381-.353-1.851-.54-3.065-.54-3.065l-5.44-1.624s-.093-.28-.3-.784a21.78,21.78,0,0,0-1.234-2.525,27.618,27.618,0,0,0-12.593-11.3c7.791-.934,41.238-4.6,41.482,1.6.053,1.141.13,3.272.239,6.037C183.27,55.854,183.7,67.736,184.073,77.622Z" transform="translate(76.254 25.807)" fill="#96492c"/>
        <path id="Trazado_151810" data-name="Trazado 151810" d="M143.656,105.123l30.813.337-.524,16.852a208.341,208.341,0,0,1-29.376-1.141C144.1,115.325,143.786,109.905,143.656,105.123Z" transform="translate(83.56 228.361)" fill="#3b4261" opacity="0.5" style="mix-blend-mode: multiply;isolation: isolate"/>
        <path id="Trazado_151811" data-name="Trazado 151811" d="M144.555,48c1.7-8.493,6.682-8.4,8.5-3.974,1.409,3.443.361,10.332-2.172,12.471C145.1,61.376,143.11,55.234,144.555,48Z" transform="translate(84.926 32.354)" fill="#ffc3aa"/>
        <path id="Trazado_151812" data-name="Trazado 151812" d="M186.906,48.489a109.9,109.9,0,0,1-20.664,5.14c-2.375.39-4.782.727-7.23,1.047-.637.073-1.291.146-1.945.223-5.757.69-11.586,1.157-17.079,1.421.8-3.776,2.018-8.972,3.589-15.269l1.587-.2h.02c7.791-.934,41.238-4.6,41.482,1.6C186.719,43.593,186.8,45.725,186.906,48.489Z" transform="translate(72.337 25.807)" fill="#5c2b21" opacity="0.4" style="mix-blend-mode: multiply;isolation: isolate"/>
        <path id="Trazado_151813" data-name="Trazado 151813" d="M184.827,122.669a257.626,257.626,0,0,1-28.479,3.382c-1.774-8.2-3.268-15.788-4.279-22.272l30.87.353Z" transform="translate(109.302 224.249)" fill="#3b4261" opacity="0.5" style="mix-blend-mode: multiply;isolation: isolate"/>
        <path id="Trazado_151814" data-name="Trazado 151814" d="M132.774,46.724c31.085,15.723,92.89,5.6,109.336-2.712C217.894,31.183,154.822,35.519,132.774,46.724Z" transform="translate(50.265 17.371)" fill="#3b4261"/>
        <path id="Trazado_151815" data-name="Trazado 151815" d="M186.7,58.309s-32.53,9.755-46.451.187l.576-6.39,1.945-21.618,42.659,1.084.917,19.413Z" transform="translate(73.148 0)" fill="#3b4261"/>
        <path id="Trazado_151816" data-name="Trazado 151816" d="M186.7,42.861s-32.53,9.755-46.451.187l.576-6.39c17.022,3.739,36.513.71,45.521-1.12Z" transform="translate(73.148 15.448)" fill="#191d30"/>
        <path id="Trazado_151817" data-name="Trazado 151817" d="M171.794,134.243v8.785H143.327s2.679-4.689,5.022-4.393,10.718-4.06,10.718-4.06Z" transform="translate(82.554 317.459)" fill="#191d30"/>
        <path id="Trazado_151818" data-name="Trazado 151818" d="M183.292,134.15l1.206,9.163H156.031s2.034-4.888,4.421-4.579,10.161-4.234,10.161-4.234Z" transform="translate(121.424 317.175)" fill="#191d30"/>
        <path id="Trazado_151819" data-name="Trazado 151819" d="M165.732,117.765l16.993,67.562,5.323,1.023-3.89-66.743Z" transform="translate(151.107 267.043)" fill="#aeb6d1"/>
        <path id="Trazado_151820" data-name="Trazado 151820" d="M165.262,46.555c-3.317,10.645-2.619,34.909,5.412,45.907,8.2,0,16.758-7.856,16.758-7.856s-5.586-24.614-9.776-29.327S165.262,46.555,165.262,46.555Z" transform="translate(143.957 49.16)" fill="#ffc3aa"/>
        <path id="Trazado_151821" data-name="Trazado 151821" d="M172.855,117.413l1.778,68.842,5.093,1.043,11.141-68.007Z" transform="translate(172.901 265.963)" fill="#aeb6d1"/>
        <path id="Trazado_151822" data-name="Trazado 151822" d="M233.356,298.723c-1.25.244-2.541.447-3.849.654-19.673,3.008-43.349,2.168-51.14,1.774-1.685-.093-2.618-.15-2.618-.15s-9.248-73.675-7.157-102.3,6.28-37.877,6.447-51.668c-3.138,2.785-11.339,7.157-13.787-1.23-2.432-8.371,6.11-60.916,10.835-68.95,4.709-8.018,12.033-11.509,24.086-16.576,0,0,22.349-2.278,25.653-.71,3.329,1.587,10.129,12.053,9.963,19.9-.041,1.608-.617,5.68-1.514,11.229-3.5,21.675-11.83,65.645-11.416,69.961.524,5.4,10.835,20.757,13.974,34.211C235.975,208.3,234.57,254.212,233.356,298.723Z" transform="translate(136.092 87.285)" fill="#3b4261"/>
        <path id="Trazado_151823" data-name="Trazado 151823" d="M222.444,110.159c-.69,21.472,1.384,36.907-7.173,46.678s-29.672,9.082-35.429-7.328c-5.773-16.405,7.157-40.674.694-50.616-6.467-9.958-12.333-13.568-12.914-24.963-3.682-3.329-8.221-13.1.694-21.135,1.214-17.806,19.73-15.358,33.164-8.2,7.961,4.238,12.727,8.107,15.865,12.443a32.3,32.3,0,0,1,4.725,9.9C224.875,76.021,223.154,88.692,222.444,110.159Z" transform="translate(143.176 26.677)" fill="#c15a45"/>
        <path id="Trazado_151824" data-name="Trazado 151824" d="M222.444,99.918c-.69,21.472,1.384,36.907-7.173,46.678s-29.672,9.082-35.429-7.328c-5.773-16.405,7.157-40.674.694-50.616-6.467-9.958-12.333-13.568-12.914-24.963-3.682-3.329-8.221-13.1.694-21.135C165.51,52.74,182.833,79.907,189.28,79.57c6-.317-1.514-17.4-2.578-19.75,1.494,2.765,14.067,25.637,23.636,22.125,9.492-3.5,12.22-22.909,7.007-35.149a32.3,32.3,0,0,1,4.725,9.9C224.875,65.78,223.154,78.45,222.444,99.918Z" transform="translate(143.176 36.918)" fill="#c15a45" opacity="0.6" style="mix-blend-mode: multiply;isolation: isolate"/>
        <path id="Trazado_151825" data-name="Trazado 151825" d="M233.034,274.846c-1.25.244-2.541.447-3.849.654-19.673,3.008-43.349,2.168-51.14,1.774-1.685-.093-2.618-.15-2.618-.15s-9.248-73.675-7.157-102.3,6.28-37.877,6.447-51.668c-3.138,2.785-11.339,7.157-13.787-1.23,1.924,5.416,9.6.54,12.22-2.785,2.614-3.309,10.312-44.174,10.312-44.174s1.384,38.941,14.651,52.021c12.37,12.22,27.338-42.546,31.84-60.169-3.5,21.675-11.83,65.645-11.416,69.961.524,5.4,10.835,20.757,13.974,34.211C235.653,184.424,234.248,230.336,233.034,274.846Z" transform="translate(136.414 111.162)" fill="#3b4261" opacity="0.2" style="mix-blend-mode: multiply;isolation: isolate"/>
        <path id="Trazado_151826" data-name="Trazado 151826" d="M166.539,125.853l20.473-1.228V172.46h-19.04L178.414,167Z" transform="translate(153.576 288.028)" fill="#3b4261"/>
        <path id="Trazado_151827" data-name="Trazado 151827" d="M173.788,125.653l20.75-1.252-9.565,43.281,1.25,5.46H171.481l4.914-5.559Z" transform="translate(168.697 287.346)" fill="#3b4261"/>
        <path id="Trazado_151828" data-name="Trazado 151828" d="M175.981,64.014s2.269-4.19,4.015-4.539,6.284,2.619,8.2,5.237-5.062,8.379-5.062,8.379Z" transform="translate(182.465 88.606)" fill="#ffc3aa"/>
        <path id="Trazado_151829" data-name="Trazado 151829" d="M304.172,102.149c-2.541,5.363-9.922,12.91-18.744,20.534-14.984,12.93-34.195,26.1-41.255,29.169-9.942-13.194-22.048-28.552-22.048-28.552S223.4,202.806,233.5,271.662c-22.219,11.94-89.991,7.23-89.991,7.23s2-55.253,3.345-105.085c1.027-37.5,1.664-71.922.8-77.431-1.981-12.837-10.482-15-10.482-15,5.249-5.606,26.757-14.091,26.757-14.091l-7.774-10.125s9.958-2.712,21.1-4.916c8.781-1.738,18.293-3.158,24.253-2.671-1.535,4.782-1.945,12.48-1.514,13,.02.02.037.02.073,0a.267.267,0,0,0,.114-.016c1.421.093,15.212,6.313,19.584,10.5,4.518,4.336,26.758,50.978,26.758,50.978l48.245-30.74S300.92,92.751,304.172,102.149Z" transform="translate(63.746 58.083)" fill="#3b4261"/>
        <path id="Trazado_151830" data-name="Trazado 151830" d="M239.4,108.417c-9.942-13.194-22.048-28.552-22.048-28.552s1.271,79.505,11.379,148.362c-22.219,11.94-89.991,7.23-89.991,7.23s2-55.253,3.345-105.085l17.246-63.7s9.942,57.51,34.438,65.678c23.993,7.977,22.255-65.138,21.618-68.686,1.141,2.164,19.47,31.576,25.02,36.022,5.793,4.636,40.248-21.728,40.248-20.441C265.671,92.178,246.46,105.352,239.4,108.417Z" transform="translate(68.519 101.518)" fill="#3b4261" opacity="0.2" style="mix-blend-mode: multiply;isolation: isolate"/>
        <path id="Trazado_151831" data-name="Trazado 151831" d="M169.791,62.571c-6.67.3-19.527,2.225-19.527,2.225a31.311,31.311,0,0,0-3.211-12.557c8.781-1.738,18.293-3.158,24.253-2.671C169.771,54.35,169.361,62.048,169.791,62.571Z" transform="translate(93.954 58.083)" fill="#3b4261" opacity="0.2" style="mix-blend-mode: multiply;isolation: isolate"/>
        <path id="Trazado_151832" data-name="Trazado 151832" d="M147.747,88.451c-6.325-4.34-12.11,1.985-11.749,4.7-6.686-.361-10.3,4.7-8.854,7.409-13.555,4.336-11.383,20.964-3.8,22.048-2.891,3.974-2.891,5.781-.723,6.686-5.241,3.073-3.613,8.493.544,10.121-5.964,6.865,1.985,16.986,7.226,17.168-1.985,4.518,5.241,4.518,5.241,4.518s-.179,6.865,4.34,7.77a14.594,14.594,0,0,0,8.493-1.084Z" transform="translate(2.936 172.823)" fill="#ef4c4a"/>
        <path id="Trazado_151833" data-name="Trazado 151833" d="M137.5,91.648c-5.6-4.157-15.9-5.781-15.9-5.781s5.241,13.551,8.493,15.9S137.5,91.648,137.5,91.648Z" transform="translate(16.073 169.443)" fill="#468f1e"/>
        <path id="Trazado_151834" data-name="Trazado 151834" d="M144.537,92.532c-8.493-1.628-18.614.723-18.614.723s3.8,4.336,7.048,5.241c-7.77-.544-16.624,2.168-16.624,2.168s11.927,7.226,21.143,7.048S144.537,92.532,144.537,92.532Z" transform="translate(0 188.079)" fill="#468f1e"/>
        <path id="Trazado_151835" data-name="Trazado 151835" d="M136.655,100.957c-7.052.723-15.906,7.048-18.618,13.011,7.052,1.084,21.147-5.241,21.147-5.241Z" transform="translate(5.174 215.614)" fill="#468f1e"/>
        <path id="Trazado_151836" data-name="Trazado 151836" d="M154.778,95.747c5.9,7.579-.568,28.483-.568,28.483s-8.846-4.884-9.41-13.957S154.778,95.747,154.778,95.747Z" transform="translate(86.992 199.673)" fill="#6fb8ba"/>
        <path id="Trazado_151837" data-name="Trazado 151837" d="M167.472,101.351l-14.2-.11,13.994,1.587-.8,5.773-4.523-.093,4.32,1.514-.3,2.184s-12.4-3.236-21.07-3.682l-1.669-11,24.606,1.287Z" transform="translate(82.223 205.107)" fill="#96492c"/>
        <path id="Trazado_151838" data-name="Trazado 151838" d="M227.607,151.729l-22.572-8.318-11.042-.524-6.317-.3s-35.409,28.739-50.413,30.362a87.649,87.649,0,0,1-14.03-29.932c-3.065-12.11-3.252-24.18-.507-34.231.227-.861.487-1.7.767-2.541,2.935-8.692,8.221-15.658,15.938-19.491,6.39,2.878,13.324,7.531,19.937,12.67.02,0,.02.016.02.016A287.365,287.365,0,0,1,190.03,127.6l3.236.093,2.371.077s18.423-3.792,32.53-4.523a16.983,16.983,0,0,0-4.409,9.232c-.114.617-.187,1.25-.244,1.888C222.508,146.273,227.607,151.729,227.607,151.729Z" transform="translate(13.603 172.169)" fill="#c8eaf2"/>
        <path id="Trazado_151839" data-name="Trazado 151839" d="M192.154,133.326l-6.317-.3s-35.409,28.739-50.413,30.362a87.648,87.648,0,0,1-14.03-29.932c16.478-2.038,52.878-7.494,56.109-13.454,2.769-5.083-10.612-20.368-19.954-30.123a287.366,287.366,0,0,1,30.643,28.158l3.236.093A41,41,0,0,0,192.154,133.326Z" transform="translate(15.442 181.731)" fill="#a9dde8"/>
        <g id="Grupo_107059" data-name="Grupo 107059" transform="translate(136.328 278.418)">
          <path id="Trazado_151840" data-name="Trazado 151840" d="M189,125.941c-.073.016-1.12.073-2.935.073-10.762,0-48.412-2.2-64.8-31.913.227-.861.487-1.7.767-2.541,17.956,35.352,66.315,32.567,66.839,32.53Z" transform="translate(-121.268 -91.559)" fill="#a9dde8"/>
        </g>
        <g id="Grupo_107060" data-name="Grupo 107060" transform="translate(209.93 304.574)">
          <path id="Trazado_151841" data-name="Trazado 151841" d="M166.829,98.08c-.114.617-.187,1.25-.244,1.888-6.763-.244-17.733.13-26.4,4.186l-.788-1.685C148.573,98.173,159.9,97.779,166.829,98.08Z" transform="translate(-139.398 -98.002)" fill="#a9dde8"/>
        </g>
        <path id="Trazado_151842" data-name="Trazado 151842" d="M138.047,95.06s-1.157,12.208-1.368,14.733,1.79,7.579,1.79,7.579,8.209,2.525,10.945,2.42,6.63-.422,6.63-.422l.422-1.368s-4.734-2.42-5.895-3.682A9.1,9.1,0,0,1,149,107.8c.418-2,1.051-8.948.735-10.421S138.047,95.06,138.047,95.06Z" transform="translate(62.168 197.571)" fill="#ffc3aa"/>
        <path id="Trazado_151843" data-name="Trazado 151843" d="M138.815,57.409c4.157,61.8-2.168,155.239-2.168,155.239s8.132,5.241,16.446.723c9.216-31.264,9.938-46.264,11.745-63.072s1.628-55.3.905-64.155S150.2,55.6,138.815,57.409Z" transform="translate(62.115 82.045)" fill="#3b4261"/>
      </g>
    </g>
  </g>
</svg>
