<svg xmlns="http://www.w3.org/2000/svg" width="219.699" height="219.699" viewBox="0 0 219.699 219.699">
  <g id="Grupo_107045" data-name="Grupo 107045" transform="translate(-27.08 -27.079)">
    <g id="Grupo_107021" data-name="Grupo 107021" transform="translate(27.08 27.079)">
      <path id="Trazado_151664" data-name="Trazado 151664" d="M246.779,136.927A109.849,109.849,0,1,1,136.93,27.079,109.851,109.851,0,0,1,246.779,136.927Z" transform="translate(-27.08 -27.079)" fill="#00978e"/>
      <path id="Trazado_151665" data-name="Trazado 151665" d="M188.128,27.079c-2.5,0-4.985.092-7.446.257,2.658,12.637,2.1,30.434-13.421,45.706-10.922-11.225-21.844-5.158-17.293,6.372C131.462,68.795,115.99,98.83,135.71,93.976c-4.248,4.854-8.8,20.63-1.517,24.877-10.618,1.517-21.54,13.046-16.079,15.169s14.562-6.371,14.562-6.371-13.349,16.383-9.708,21.541,9.708,0,11.225-5.461c-2.731,21.54,23.361,30.642,24.574,46.722,1.14,15.1-2.537,32.34-11.533,48.454a110.264,110.264,0,0,0,70.139,3.928c-4.506-11.576-13.892-40.758-2.176-58.45,14.866-22.451,25.484-19.417,25.484-19.417a10.681,10.681,0,0,0,9.709-8.495c2.427,13.956,11.832,3.337,9.1-3.944s-10.922-4.551-10.922-4.551,5.219-17.981-1.64-23.318c10.335,7.393,16.781,2.917,14.989-1.863-1.82-4.854-10.315-6.674-17.9-5.461,2.731-10.619,2.124-16.686-3.641-20.327,11.528,5.764,14.866-1.213,10.922-8.191s-13.046-8.495-24.877-6.068c8.191-9.4-.607-21.54-18.811-10.922-6.068-6.371-11.687-31.564-7-44.039A110.977,110.977,0,0,0,188.128,27.079Z" transform="translate(-78.279 -27.079)" fill="#b8e4ee"/>
      <path id="Trazado_151666" data-name="Trazado 151666" d="M218,369.766s2.5,5.006-.228,15.472c7.054-14.107,28.442-26.622,48.011,3.869a31.548,31.548,0,0,1,2.048-16.156l-30.263-24.574-17.521,13.652Z" transform="translate(-136.069 -210.715)" fill="#90d0e0"/>
      <path id="Trazado_151667" data-name="Trazado 151667" d="M237.571,391.126c-1.21-9.406,7.921-8.454,7.466-4.586s-4.927,9.64-3.642,11.568c2.464-4.713,7.069-6.748,4.82,2.035-1.411,5.51,4.07,7.177-.453,12.6-3.3,3.954-8.419,2.958-11.377-1.138s-1.666-6.641-1.138-7.737c2.086-4.323-2.048-5.233.228-6.6s3.186,4.323,4.1,1.365S238.141,395.56,237.571,391.126Z" transform="translate(-144.492 -230.938)" fill="#90cedf"/>
      <path id="Trazado_151668" data-name="Trazado 151668" d="M293.609,407.534c1.218-4.626,4.927-.107,2.607,8.411-1.024,3.758.683,8.191,2.048,5.234s3.869-2.048,3.869,3.641,2.5,7.964-1.138,11.6-8.419,2.958-11.377-1.138-3.641-3.641-1.138-7.737-2.048-5.233.228-6.6,3.185,4.323,4.1,1.365S292.471,411.857,293.609,407.534Z" transform="translate(-175.604 -243.469)" fill="#90cedf"/>
      <path id="Trazado_151669" data-name="Trazado 151669" d="M264,439.976c1.218-4.626,6.962-4.177,1.728,14.416-1.056,3.749.228,3.967,1.593,1.009s6.32-1.607,4.323,7.865c-1.173,5.567,3.281,9.06-.36,12.7s-8.5,4.31-11.461.214-4.334-6.088-1.831-10.184-2.2-10.376-.1-11.988c3.642-2.785,4.659,7.992,5.57,5.034S262.86,444.3,264,439.976Z" transform="translate(-158.311 -261.666)" fill="#90cedf"/>
    </g>
    <g id="Grupo_107025" data-name="Grupo 107025" transform="translate(50.228 59.952)">
      <g id="Grupo_107022" data-name="Grupo 107022" transform="translate(0 7.406)">
        <path id="Trazado_151670" data-name="Trazado 151670" d="M191.142,185.625c-.464-1.848,11.026-14.633,15.511-20.857,4.514-6.26,14.03-16.365,9.423-21.254-3.363-3.568-12.327,4.107-18.94,11.453s-17.288,16.488-17.864,16.142,6.716-12.2,10.821-18.8c4.834-7.785,16.936-23.619,10.339-28.209-5.309-3.695-15.867,9.8-23.287,19.8s-13.283,19.118-15.594,17.981c-1.453-.717-.617-5.415,4.191-15.086,3.4-6.838,10.815-21.789,5.578-25.253-9.057-5.989-32.232,49.48-36.109,44.949-1.686-1.642,1.23-15.92-5.375-24.286-3.429-4.348-13.162-5.354-11.852.9,3.089,14.743-.31,23.544-2.4,34.865s3.088,22.6,1.767,31.864c-1.012,7.088-25.024,35.38-36.249,48.28A110.374,110.374,0,0,0,113.8,286.33c10.1-15.988,32-50.442,34.989-53.219,3.906-3.625,11.231-4.57,23.736-13.876s20.71-17.735,29.631-23.693,19.951-11.827,16.49-17.837S191.6,187.474,191.142,185.625Z" transform="translate(-81.106 -121.09)" fill="#fba46c"/>
        <path id="Trazado_151671" data-name="Trazado 151671" d="M247.909,195.933c8.921-5.957,19.951-11.827,16.49-17.837s-27.046,9.768-27.506,7.919,11.026-14.633,15.511-20.857c2.29-3.176,5.864-7.34,8.232-11.312a14.95,14.95,0,0,0-2.533-.314,16.876,16.876,0,0,0,.037-10.311c-4.244,1.147-10.384,6.728-15.253,12.136-6.611,7.344-17.288,16.488-17.864,16.142s6.716-12.2,10.821-18.8c4.21-6.779,13.929-19.661,12.013-25.907a10.581,10.581,0,0,0-5.2-2.688c-5.671,1.688-13.744,12.087-19.756,20.191-7.421,10-13.283,19.118-15.594,17.981-1.453-.717-.617-5.415,4.191-15.086,3.4-6.838,10.815-21.789,5.578-25.253a2.86,2.86,0,0,0-.294-.16,10.577,10.577,0,0,0-3.279,3.638,16.394,16.394,0,0,0-2.534-1.4c-10.707,10.056-26.826,46.586-30,42.875-1.287-1.254.1-9.867-2.1-17.595a14.445,14.445,0,0,0,.4,5.4c-7.94,1.367-9.565,5.982-9.887,8.109-.744,4.931,2.942,10.307,8.914,13.558-1.919,3.1-2.385,6.214-1.251,8.889,1.464,3.455,5.273,5.5,10.51,5.675a8.686,8.686,0,0,0-.3,4.043,13.912,13.912,0,0,0-6.422-1.56,12.158,12.158,0,0,0-12.389,10.229,7.832,7.832,0,0,0-5.156,1.609,25.818,25.818,0,0,1-.171,4.982,13.072,13.072,0,0,1-1.53,3.846,12.653,12.653,0,0,0,1.41,2.632,9.089,9.089,0,0,0-1.426,8.175,10.491,10.491,0,0,0,10.258,7.3,13.974,13.974,0,0,0,4.294-.7,7.893,7.893,0,0,0,1.364,2.409,6.74,6.74,0,0,0,5.242,2.491h0c1.695,0,4.647-.636,7.359-4.36a10.972,10.972,0,0,0,3.888.68,11.818,11.818,0,0,0,1.743-.132,38,38,0,0,1,5.7-3.029,6.827,6.827,0,0,0,.757-1.137,7.741,7.741,0,0,0-.028-6.908,13.159,13.159,0,0,0,3.935-7.8,6.743,6.743,0,0,0,1.206.112c2.273,0,4.415-1.087,6.4-3.241a17.625,17.625,0,0,0,8.64,5.975C232.624,208.466,239.985,201.224,247.909,195.933Z" transform="translate(-126.857 -121.48)" fill="#f38c54"/>
        <path id="Trazado_151672" data-name="Trazado 151672" d="M222.352,249.623c.705,11.386,1.134,23.43-4.123,32.77C227.244,277.2,228.207,253.023,222.352,249.623Z" transform="translate(-159.478 -194.552)" fill="#dd7a4a"/>
        <path id="Trazado_151673" data-name="Trazado 151673" d="M243.093,240.682s14.2,15.376,27.125,17.5C257.818,259.809,243.826,250.19,243.093,240.682Z" transform="translate(-173.689 -189.442)" fill="#f38c54"/>
        <path id="Trazado_151674" data-name="Trazado 151674" d="M224.43,365.7c-9.6,1.071-15.561-.978-22.231-5.572C202.023,365.324,216.039,371.62,224.43,365.7Z" transform="translate(-150.315 -257.709)" fill="#f38c54"/>
      </g>
      <g id="Grupo_107023" data-name="Grupo 107023" transform="translate(3.597)">
        <path id="Trazado_151675" data-name="Trazado 151675" d="M192.711,327.379c-4.539,9.238-11.543,5.513-10.381-.87-11.8,7.268-18.9-5.246-11.6-10.069-5.24-4.832-4.31-12.177,4.063-9.8-.39-12.788,14.715-13.4,18.655-5.545,6.266-4.908,9.578,1.748,7.473,5.647,7.538-3.863,7.918,10.283.865,13.349C208.04,329.084,196.04,331.317,192.711,327.379Z" transform="translate(-134.074 -213.625)" fill="#fff"/>
        <path id="Trazado_151676" data-name="Trazado 151676" d="M228.936,206.114c-7.767,14.087-14.8-.064-12.611-5.682-13.43,1.225-13.426-7.324-7.882-11.72-13.083,2.666-18.308-4.2-10.583-12.179-12.2-4.16-16.42-17.373.245-17.858-5.066-12.5,3.81-13.636,8.584-10.727-8.647-14.682,12.307-28.919,23.122-15.78,1.163-11.977,17.928-9.943,17.843,2.282,7.287-13.972,21.1-1.053,13.609,7.884,10.1-4.484,11.92,9.312,6.478,16.226,14.291-3.976,18.862,10.678,9.479,16.006,12.195,4.16,4.777,19.689-5.644,18.658C265.875,220.034,233.262,221.845,228.936,206.114Z" transform="translate(-145.289 -115.44)" fill="#fff"/>
        <path id="Trazado_151677" data-name="Trazado 151677" d="M121.5,227.574a3.953,3.953,0,1,1-4.774-2.909A3.954,3.954,0,0,1,121.5,227.574Z" transform="translate(-103.334 -172.818)" fill="#fff"/>
        <path id="Trazado_151678" data-name="Trazado 151678" d="M178.192,267.333a6.177,6.177,0,1,1-7.459-4.546A6.176,6.176,0,0,1,178.192,267.333Z" transform="translate(-133.23 -194.57)" fill="#fff"/>
        <path id="Trazado_151679" data-name="Trazado 151679" d="M405.845,128.58a4.7,4.7,0,1,1-5.671-3.455A4.7,4.7,0,0,1,405.845,128.58Z" transform="translate(-265.014 -115.914)" fill="#fff"/>
        <path id="Trazado_151680" data-name="Trazado 151680" d="M449.74,282.058a4.694,4.694,0,1,1-5.668-3.455A4.694,4.694,0,0,1,449.74,282.058Z" transform="translate(-290.104 -203.633)" fill="#fff"/>
        <path id="Trazado_151681" data-name="Trazado 151681" d="M228.2,105.693a2.471,2.471,0,1,1-2.983-1.818A2.471,2.471,0,0,1,228.2,105.693Z" transform="translate(-165.991 -103.804)" fill="#fff"/>
        <path id="Trazado_151682" data-name="Trazado 151682" d="M94.375,323.079a2.471,2.471,0,1,1-2.985-1.818A2.47,2.47,0,0,1,94.375,323.079Z" transform="translate(-89.502 -228.05)" fill="#fff"/>
        <path id="Trazado_151683" data-name="Trazado 151683" d="M284.852,410.881a2.471,2.471,0,1,1-2.985-1.818A2.471,2.471,0,0,1,284.852,410.881Z" transform="translate(-198.368 -278.233)" fill="#fff"/>
        <path id="Trazado_151684" data-name="Trazado 151684" d="M226.788,471.777a2.471,2.471,0,1,1-2.985-1.818A2.471,2.471,0,0,1,226.788,471.777Z" transform="translate(-165.182 -313.038)" fill="#fff"/>
        <path id="Trazado_151685" data-name="Trazado 151685" d="M323.089,517.1a2.471,2.471,0,1,1-2.985-1.818A2.471,2.471,0,0,1,323.089,517.1Z" transform="translate(-220.222 -338.939)" fill="#fff"/>
      </g>
      <g id="Grupo_107024" data-name="Grupo 107024" transform="translate(45.445 15.126)">
        <path id="Trazado_151686" data-name="Trazado 151686" d="M283.232,240.893c-1.119-5.212,1.837-9.376-.17-24.834-2.046-15.775-4.539-24.479-7.426-34.81-3.862-13.81-9.329-32.432-15.873-30.135-6.249,2.195,3.913,30.468,2.088,29.919S255.117,166.9,251.8,158.81c-3.37-8.206-10.387-22.007-16.567-19.372-5.529,2.359.536,14.787,4.7,24.964,3.747,9.145,8.164,21.07,5.76,22.333-.6.313-7.189-15.764-10.767-22.668-4.217-8.137-11.631-26.635-18.949-23.315-5.889,2.672,1.454,18.827,6.253,30.318s9.6,20.862,7.436,22.266c-1.36.882-3.827-3.936-9.016-13.407-4.258-7.781-11.073-21.38-16.727-18.654-9.782,4.718,21,56.192,15.121,57.206-2.275.608-13.068-9.332-23.62-7.806-7.393,1.069-11.331,8.571-5.293,10.642,14.247,4.888,20.072,12.31,28.733,19.894s21,8.907,28.282,14.784c6.609,5.328,17.836,41.237,19.859,47.842a109.865,109.865,0,0,0,36.9-23.072C297.023,268.376,284.049,244.71,283.232,240.893Z" transform="translate(-187.174 -139.109)" fill="#fba46c"/>
        <path id="Trazado_151687" data-name="Trazado 151687" d="M382.265,272.906c-1.129-7.34,3.428-6.427,6.641,2.214,4.722,12.7,4.213,30.634,2.785,34.633C389.978,288.9,383.551,281.261,382.265,272.906Z" transform="translate(-298.577 -212.755)" fill="#feb686"/>
        <path id="Trazado_151688" data-name="Trazado 151688" d="M276.411,280.92a12.286,12.286,0,0,1-8.773,3.912C272.516,287.286,275.134,285.486,276.411,280.92Z" transform="translate(-233.163 -220.16)" fill="#f38c54"/>
        <path id="Trazado_151689" data-name="Trazado 151689" d="M312.146,265.127a12.293,12.293,0,0,1-8.775,3.913C308.251,271.494,310.866,269.695,312.146,265.127Z" transform="translate(-253.586 -211.134)" fill="#f38c54"/>
        <path id="Trazado_151690" data-name="Trazado 151690" d="M348.9,253.964a12.3,12.3,0,0,1-9.323,2.327C343.955,259.556,346.845,258.239,348.9,253.964Z" transform="translate(-274.28 -204.754)" fill="#f38c54"/>
        <path id="Trazado_151691" data-name="Trazado 151691" d="M380.018,244.435a12.292,12.292,0,0,1-9.321,2.327C375.073,250.026,377.964,248.71,380.018,244.435Z" transform="translate(-292.066 -199.308)" fill="#f38c54"/>
        <path id="Trazado_151692" data-name="Trazado 151692" d="M198.888,325.413c-2.55-.737-8.446-1.985-6.961-4.243,1.857-2.824,9.269-.215,9.269-.215Z" transform="translate(-189.755 -242.415)" fill="#fdd6bb"/>
        <path id="Trazado_151693" data-name="Trazado 151693" d="M226.794,200.613c-.627-1.881-2.564-6.46.531-7.585,2.8-1.021,5.642,4.393,5.642,4.393Z" transform="translate(-209.146 -169.853)" fill="#fdd6bb"/>
        <path id="Trazado_151694" data-name="Trazado 151694" d="M255,153.813c-.627-1.881-2.565-6.459.53-7.585,2.8-1.02,5.642,4.394,5.642,4.394Z" transform="translate(-225.267 -143.104)" fill="#fdd6bb"/>
        <path id="Trazado_151695" data-name="Trazado 151695" d="M300.242,151.144c-.627-1.881-2.565-6.46.533-7.586,2.8-1.02,5.642,4.393,5.642,4.393Z" transform="translate(-251.125 -141.579)" fill="#fdd6bb"/>
        <path id="Trazado_151696" data-name="Trazado 151696" d="M355.891,176.677c-.407-1.757-1.769-6.066,1.131-6.821,2.623-.684,4.728,4.458,4.728,4.458Z" transform="translate(-283.217 -156.646)" fill="#fdd6bb"/>
      </g>
    </g>
    <g id="Grupo_107026" data-name="Grupo 107026" transform="translate(46.54 48.662)">
      <path id="Trazado_151697" data-name="Trazado 151697" d="M116.518,345.368c-8.192.91-17.293,10.922-12.439,14.562S111.057,348.1,116.518,345.368Z" transform="translate(-89.772 -230.578)" fill="#b8e4ee"/>
      <path id="Trazado_151698" data-name="Trazado 151698" d="M201.656,89.794c.719-6.242-5.169-14.711-8.7-11.723S200.557,85.271,201.656,89.794Z" transform="translate(-140.951 -77.452)" fill="#b8e4ee"/>
      <path id="Trazado_151699" data-name="Trazado 151699" d="M339.4,94.652c1.66-7.4,11.74-14.72,14.581-9.911S342.447,89.931,339.4,94.652Z" transform="translate(-225.043 -80.737)" fill="#b8e4ee"/>
      <path id="Trazado_151700" data-name="Trazado 151700" d="M95.744,189.9c-9.723-4-26.038,1.63-22.836,8.676S87.962,189.614,95.744,189.9Z" transform="translate(-72.499 -140.962)" fill="#b8e4ee"/>
      <path id="Trazado_151701" data-name="Trazado 151701" d="M440,207.606c9.722-4,26.037,1.629,22.836,8.676S447.782,207.317,440,207.606Z" transform="translate(-282.542 -151.08)" fill="#b8e4ee"/>
      <path id="Trazado_151702" data-name="Trazado 151702" d="M423.558,355.862c8.62,1.61,17.489,12.95,12.051,16.432S429.137,359.189,423.558,355.862Z" transform="translate(-273.145 -236.576)" fill="#b8e4ee"/>
    </g>
    <g id="Grupo_107032" data-name="Grupo 107032" transform="translate(116.848 182.326)">
      <g id="Grupo_107027" data-name="Grupo 107027" transform="translate(1.697 14.927)">
        <path id="Trazado_151703" data-name="Trazado 151703" d="M243.8,424.884a3.219,3.219,0,0,1,3.986.142,4.211,4.211,0,0,1,2.277,3.629c.172,2.147-.135,2.855-2.206,4.7-1.281,1.139-4.27,1.068-5.835-.782-1.153-1.362-1.951-3.434-1.138-4.839A8.808,8.808,0,0,1,243.8,424.884Z" transform="translate(-240.555 -424.26)" fill="#d23e33"/>
        <path id="Trazado_151704" data-name="Trazado 151704" d="M252.6,427.446c.308.481.236.865-.3,1.257a2.127,2.127,0,0,1-1.775.416,2.484,2.484,0,0,1-1.985-1.1,1.166,1.166,0,0,1,.7-1.79,2.8,2.8,0,0,1,2.252.048A3.67,3.67,0,0,1,252.6,427.446Z" transform="translate(-244.99 -425.264)" fill="#ec6342"/>
        <path id="Trazado_151705" data-name="Trazado 151705" d="M250.3,432.886a5.73,5.73,0,0,1-1.814,2.213,3.949,3.949,0,0,1-5.148-.69,6.081,6.081,0,0,1-.961-1.573c-.014.022-.03.042-.043.066-.718,1.239-.012,3.067,1,4.269a3.949,3.949,0,0,0,5.148.691c1.828-1.625,2.1-2.249,1.947-4.144A5.438,5.438,0,0,0,250.3,432.886Z" transform="translate(-241.406 -429.162)" fill="#a72428"/>
      </g>
      <g id="Grupo_107028" data-name="Grupo 107028" transform="translate(8.057 10.294)">
        <path id="Trazado_151706" data-name="Trazado 151706" d="M256.247,413.608a.841.841,0,0,1,1.04.037,1.1,1.1,0,0,1,.594.947c.045.56-.035.745-.575,1.225a1.168,1.168,0,0,1-1.523-.2,1.208,1.208,0,0,1-.3-1.262A2.3,2.3,0,0,1,256.247,413.608Z" transform="translate(-255.399 -413.446)" fill="#d23e33"/>
        <path id="Trazado_151707" data-name="Trazado 151707" d="M258.542,414.277c.081.126.062.226-.079.328a.555.555,0,0,1-.463.109.649.649,0,0,1-.518-.287.3.3,0,0,1,.183-.467.728.728,0,0,1,.587.013A.948.948,0,0,1,258.542,414.277Z" transform="translate(-256.557 -413.708)" fill="#ec6342"/>
        <path id="Trazado_151708" data-name="Trazado 151708" d="M257.943,415.7a1.488,1.488,0,0,1-.473.577,1.031,1.031,0,0,1-1.344-.179,1.616,1.616,0,0,1-.251-.411l-.011.017a1.065,1.065,0,0,0,.262,1.114,1.031,1.031,0,0,0,1.344.18c.477-.424.547-.587.508-1.081A1.32,1.32,0,0,0,257.943,415.7Z" transform="translate(-255.621 -414.725)" fill="#a72428"/>
      </g>
      <g id="Grupo_107029" data-name="Grupo 107029" transform="translate(5.437 0)">
        <path id="Trazado_151709" data-name="Trazado 151709" d="M250.677,389.688a1.378,1.378,0,0,1,1.707.061,1.8,1.8,0,0,1,.975,1.555c.074.918-.057,1.223-.944,2.011a1.918,1.918,0,0,1-2.5-.336,1.983,1.983,0,0,1-.488-2.072A3.769,3.769,0,0,1,250.677,389.688Z" transform="translate(-249.286 -389.42)" fill="#d23e33"/>
        <path id="Trazado_151710" data-name="Trazado 151710" d="M254.444,390.785c.132.207.1.371-.13.538a.908.908,0,0,1-.76.179,1.063,1.063,0,0,1-.85-.471.5.5,0,0,1,.3-.767,1.2,1.2,0,0,1,.965.02A1.571,1.571,0,0,1,254.444,390.785Z" transform="translate(-251.186 -389.851)" fill="#ec6342"/>
        <path id="Trazado_151711" data-name="Trazado 151711" d="M253.46,393.115a2.453,2.453,0,0,1-.776.947,1.691,1.691,0,0,1-2.205-.294,2.637,2.637,0,0,1-.412-.674c-.006.009-.012.018-.018.028a1.749,1.749,0,0,0,.43,1.828,1.691,1.691,0,0,0,2.205.3c.782-.695.9-.963.833-1.773A2.224,2.224,0,0,0,253.46,393.115Z" transform="translate(-249.65 -391.52)" fill="#a72428"/>
      </g>
      <g id="Grupo_107030" data-name="Grupo 107030" transform="translate(0.425 5.293)">
        <path id="Trazado_151712" data-name="Trazado 151712" d="M239.015,402.048a1.416,1.416,0,0,1,1.753.063,1.85,1.85,0,0,1,1,1.6c.076.944-.059,1.256-.97,2.066a1.968,1.968,0,0,1-2.566-.344,2.035,2.035,0,0,1-.5-2.128A3.869,3.869,0,0,1,239.015,402.048Z" transform="translate(-237.586 -401.774)" fill="#d23e33"/>
        <path id="Trazado_151713" data-name="Trazado 151713" d="M242.882,403.176c.136.212.1.381-.133.553a.934.934,0,0,1-.78.183,1.094,1.094,0,0,1-.874-.484.513.513,0,0,1,.309-.787,1.228,1.228,0,0,1,.991.021A1.61,1.61,0,0,1,242.882,403.176Z" transform="translate(-239.537 -402.216)" fill="#ec6342"/>
        <path id="Trazado_151714" data-name="Trazado 151714" d="M241.873,405.569a2.516,2.516,0,0,1-.8.973,1.736,1.736,0,0,1-2.264-.3,2.679,2.679,0,0,1-.423-.692c-.006.009-.013.018-.019.028a1.8,1.8,0,0,0,.442,1.877,1.735,1.735,0,0,0,2.264.3c.8-.714.922-.988.856-1.822A2.335,2.335,0,0,0,241.873,405.569Z" transform="translate(-237.96 -403.931)" fill="#a72428"/>
      </g>
      <g id="Grupo_107031" data-name="Grupo 107031" transform="translate(0 15.39)">
        <path id="Trazado_151715" data-name="Trazado 151715" d="M248.43,447.425a.158.158,0,0,1-.137-.078,2.3,2.3,0,0,1,.232-2.645.16.16,0,1,1,.238.215,1.94,1.94,0,0,0-.195,2.265.16.16,0,0,1-.055.219A.156.156,0,0,1,248.43,447.425Z" transform="translate(-243.093 -436.377)" fill="#7a1315"/>
        <path id="Trazado_151716" data-name="Trazado 151716" d="M243.127,427.049a.159.159,0,0,1-.112-.046,5.655,5.655,0,0,0-2.192-1.348.159.159,0,0,1-.112-.2.156.156,0,0,1,.2-.112,5.863,5.863,0,0,1,2.332,1.429.16.16,0,0,1,0,.226A.157.157,0,0,1,243.127,427.049Z" transform="translate(-238.945 -425.34)" fill="#7a1315"/>
        <path id="Trazado_151717" data-name="Trazado 151717" d="M262.024,437.022a.161.161,0,0,1-.105-.039,1.939,1.939,0,0,0-2.268-.163.16.16,0,0,1-.168-.272,2.289,2.289,0,0,1,2.647.195.16.16,0,0,1-.106.28Z" transform="translate(-249.633 -431.548)" fill="#7a1315"/>
        <path id="Trazado_151718" data-name="Trazado 151718" d="M237.552,437.916a1.4,1.4,0,0,1-.917-.468.16.16,0,0,1,.24-.211,1.092,1.092,0,0,0,.677.359h0a.613.613,0,0,0,.465-.251c.713-.831,2-.227,2.059-.2a.16.16,0,0,1-.138.289c-.012-.006-1.125-.526-1.677.12a.924.924,0,0,1-.708.362Z" transform="translate(-236.595 -431.952)" fill="#7a1315"/>
        <path id="Trazado_151719" data-name="Trazado 151719" d="M256.187,427.406l-.023,0a.16.16,0,0,1-.136-.181c.066-.466.531-.507.982-.545a1.829,1.829,0,0,0,1.5-.645.16.16,0,1,1,.26.186,2.138,2.138,0,0,1-1.735.778c-.47.041-.664.077-.692.272A.16.16,0,0,1,256.187,427.406Z" transform="translate(-247.701 -425.697)" fill="#7a1315"/>
        <path id="Trazado_151720" data-name="Trazado 151720" d="M252.682,438.118a.169.169,0,0,1-.064-.013.16.16,0,0,1-.082-.211,2.306,2.306,0,0,0,.2-1.855,1.037,1.037,0,0,0-.577-.542.16.16,0,0,1,.09-.307,1.356,1.356,0,0,1,.778.714,2.6,2.6,0,0,1-.2,2.119A.161.161,0,0,1,252.682,438.118Z" transform="translate(-245.423 -430.965)" fill="#7a1315"/>
        <path id="Trazado_151721" data-name="Trazado 151721" d="M259.2,444.1a1.242,1.242,0,0,1-.922-.368,2.49,2.49,0,0,1-.513-1.671.162.162,0,0,1,.169-.151.16.16,0,0,1,.151.169,2.211,2.211,0,0,0,.423,1.43.929.929,0,0,0,.746.27.16.16,0,1,1,.012.32Z" transform="translate(-248.695 -434.809)" fill="#7a1315"/>
      </g>
    </g>
    <g id="Grupo_107038" data-name="Grupo 107038" transform="translate(126.83 206.686)">
      <g id="Grupo_107033" data-name="Grupo 107033" transform="translate(1.288 20.652)">
        <path id="Trazado_151722" data-name="Trazado 151722" d="M271.453,495.123c1.763.541,2.68,1.662,2.89,3.8a5.044,5.044,0,0,1-1.638,4.863c-1.86,1.787-2.749,2.04-6.027,1.515-2.027-.324-4.226-3.149-3.7-6,.389-2.1,1.7-4.413,3.623-4.725A10.555,10.555,0,0,1,271.453,495.123Z" transform="translate(-262.9 -494.477)" fill="#f9a809"/>
        <path id="Trazado_151723" data-name="Trazado 151723" d="M282.238,502.434c-.212.65-.624.875-1.4.671a2.545,2.545,0,0,1-1.731-1.33,2.979,2.979,0,0,1-.486-2.675,1.4,1.4,0,0,1,2.193-.706,3.35,3.35,0,0,1,1.663,2.124A4.394,4.394,0,0,1,282.238,502.434Z" transform="translate(-271.826 -496.566)" fill="#ffc354"/>
        <path id="Trazado_151724" data-name="Trazado 151724" d="M273.712,503.841a6.864,6.864,0,0,1-3.426,0c-1.789-.287-3.729-2.779-3.263-5.3a7.277,7.277,0,0,1,.729-2.084c-.03,0-.061.005-.093.01-1.693.274-2.853,2.314-3.2,4.168-.467,2.518,1.474,5.009,3.262,5.3,2.892.463,3.676.24,5.318-1.337A6.522,6.522,0,0,0,273.712,503.841Z" transform="translate(-263.753 -495.608)" fill="#e27c0f"/>
      </g>
      <g id="Grupo_107034" data-name="Grupo 107034" transform="translate(9.221 14.281)">
        <path id="Trazado_151725" data-name="Trazado 151725" d="M284.431,479.835a1.357,1.357,0,0,1,1.018,1.34,1.777,1.777,0,0,1-.578,1.713c-.655.629-.968.719-2.124.534a1.89,1.89,0,0,1-1.3-2.115c.138-.741.6-1.556,1.277-1.665A3.718,3.718,0,0,1,284.431,479.835Z" transform="translate(-281.416 -479.608)" fill="#f9a809"/>
        <path id="Trazado_151726" data-name="Trazado 151726" d="M288.232,482.411c-.074.229-.219.308-.491.237a.9.9,0,0,1-.611-.468,1.053,1.053,0,0,1-.171-.943.492.492,0,0,1,.772-.248,1.183,1.183,0,0,1,.587.748A1.547,1.547,0,0,1,288.232,482.411Z" transform="translate(-284.562 -480.343)" fill="#ffc354"/>
        <path id="Trazado_151727" data-name="Trazado 151727" d="M285.226,482.907a2.419,2.419,0,0,1-1.207,0,1.667,1.667,0,0,1-1.15-1.866,2.581,2.581,0,0,1,.257-.734l-.033,0c-.6.1-1.006.815-1.127,1.469a1.667,1.667,0,0,0,1.15,1.867c1.019.162,1.3.084,1.874-.471A2.3,2.3,0,0,0,285.226,482.907Z" transform="translate(-281.716 -480.006)" fill="#e27c0f"/>
      </g>
      <g id="Grupo_107035" data-name="Grupo 107035" transform="translate(1.564 9.329)">
        <path id="Trazado_151728" data-name="Trazado 151728" d="M266.031,468.238a1.12,1.12,0,0,1,.839,1.106,1.465,1.465,0,0,1-.476,1.413c-.541.52-.8.593-1.752.441a1.558,1.558,0,0,1-1.075-1.745c.113-.611.5-1.284,1.053-1.375A3.081,3.081,0,0,1,266.031,468.238Z" transform="translate(-263.544 -468.05)" fill="#f9a809"/>
        <path id="Trazado_151729" data-name="Trazado 151729" d="M269.167,470.364c-.062.189-.182.254-.406.195a.74.74,0,0,1-.5-.386.867.867,0,0,1-.141-.778.406.406,0,0,1,.637-.2.976.976,0,0,1,.484.617A1.28,1.28,0,0,1,269.167,470.364Z" transform="translate(-266.139 -468.657)" fill="#ffc354"/>
        <path id="Trazado_151730" data-name="Trazado 151730" d="M266.687,470.772a1.992,1.992,0,0,1-1,0,1.375,1.375,0,0,1-.949-1.54,2.1,2.1,0,0,1,.212-.606l-.027,0c-.493.08-.83.673-.929,1.212a1.375,1.375,0,0,0,.948,1.54c.841.135,1.069.07,1.546-.389A1.911,1.911,0,0,0,266.687,470.772Z" transform="translate(-263.792 -468.379)" fill="#e27c0f"/>
      </g>
      <g id="Grupo_107036" data-name="Grupo 107036" transform="translate(5.773 0)">
        <path id="Trazado_151731" data-name="Trazado 151731" d="M275.856,446.464a1.121,1.121,0,0,1,.839,1.106,1.465,1.465,0,0,1-.476,1.413c-.541.52-.8.593-1.752.441a1.559,1.559,0,0,1-1.075-1.745c.113-.611.5-1.283,1.053-1.374A3.089,3.089,0,0,1,275.856,446.464Z" transform="translate(-273.368 -446.277)" fill="#f9a809"/>
        <path id="Trazado_151732" data-name="Trazado 151732" d="M278.991,448.59c-.062.189-.182.254-.406.195a.739.739,0,0,1-.5-.387.865.865,0,0,1-.141-.778.406.406,0,0,1,.638-.2.977.977,0,0,1,.483.618A1.281,1.281,0,0,1,278.991,448.59Z" transform="translate(-275.963 -446.884)" fill="#ffc354"/>
        <path id="Trazado_151733" data-name="Trazado 151733" d="M276.513,449a1.993,1.993,0,0,1-1,0,1.374,1.374,0,0,1-.949-1.539,2.109,2.109,0,0,1,.212-.606l-.027,0c-.492.08-.829.673-.929,1.212a1.375,1.375,0,0,0,.948,1.54c.841.135,1.069.069,1.546-.389A1.912,1.912,0,0,0,276.513,449Z" transform="translate(-273.617 -446.605)" fill="#e27c0f"/>
      </g>
      <g id="Grupo_107037" data-name="Grupo 107037" transform="translate(0 18.301)">
        <path id="Trazado_151734" data-name="Trazado 151734" d="M259.938,513.459a.192.192,0,0,1-.033-.186,2.751,2.751,0,0,1,2.629-1.791.2.2,0,0,1,.182.2.193.193,0,0,1-.2.183,2.323,2.323,0,0,0-2.248,1.536.192.192,0,0,1-.246.115A.2.2,0,0,1,259.938,513.459Z" transform="translate(-259.894 -501.845)" fill="#ab4312"/>
        <path id="Trazado_151735" data-name="Trazado 151735" d="M277.536,492.455a.192.192,0,0,1-.043-.138,6.77,6.77,0,0,0-.411-3.054.19.19,0,0,1,.1-.253.187.187,0,0,1,.253.1,7.022,7.022,0,0,1,.443,3.245.192.192,0,0,1-.208.174A.186.186,0,0,1,277.536,492.455Z" transform="translate(-269.708 -488.992)" fill="#ab4312"/>
        <path id="Trazado_151736" data-name="Trazado 151736" d="M282.218,517.862a.194.194,0,0,1-.044-.128,2.32,2.32,0,0,0-1.568-2.226.192.192,0,1,1,.125-.362,2.743,2.743,0,0,1,1.826,2.6.191.191,0,0,1-.2.185A.2.2,0,0,1,282.218,517.862Z" transform="translate(-271.658 -503.933)" fill="#ab4312"/>
        <path id="Trazado_151737" data-name="Trazado 151737" d="M262.872,495.8a1.673,1.673,0,0,1-.262-1.205.191.191,0,0,1,.378.062,1.313,1.313,0,0,0,.181.9l0,0a.732.732,0,0,0,.584.241c1.311.031,1.73,1.687,1.746,1.757a.191.191,0,0,1-.372.091c0-.015-.366-1.442-1.383-1.465a1.105,1.105,0,0,1-.872-.38Z" transform="translate(-261.435 -492.104)" fill="#ab4312"/>
        <path id="Trazado_151738" data-name="Trazado 151738" d="M285.721,505.87a.263.263,0,0,1-.016-.022.192.192,0,0,1,.065-.264c.483-.293.874.108,1.25.5a2.189,2.189,0,0,0,1.737.9.191.191,0,1,1,.025.382,2.561,2.561,0,0,1-2.037-1.018c-.394-.4-.575-.558-.777-.436A.191.191,0,0,1,285.721,505.87Z" transform="translate(-274.631 -498.418)" fill="#ab4312"/>
        <path id="Trazado_151739" data-name="Trazado 151739" d="M271.768,509.7a.182.182,0,0,1-.036-.069.191.191,0,0,1,.133-.237,2.757,2.757,0,0,0,1.871-1.223,1.235,1.235,0,0,0,.065-.946.192.192,0,0,1,.354-.149,1.622,1.622,0,0,1-.073,1.262,3.111,3.111,0,0,1-2.112,1.425A.192.192,0,0,1,271.768,509.7Z" transform="translate(-266.656 -499.263)" fill="#ab4312"/>
        <path id="Trazado_151740" data-name="Trazado 151740" d="M272.464,520.289a1.489,1.489,0,0,1-.359-1.134,2.977,2.977,0,0,1,1.161-1.742.191.191,0,1,1,.225.309,2.647,2.647,0,0,0-1.005,1.476,1.112,1.112,0,0,0,.316.9.192.192,0,0,1-.288.253C272.5,520.328,272.48,520.308,272.464,520.289Z" transform="translate(-266.868 -505.215)" fill="#ab4312"/>
      </g>
    </g>
    <g id="Grupo_107044" data-name="Grupo 107044" transform="translate(138.77 191.675)">
      <g id="Grupo_107039" data-name="Grupo 107039" transform="translate(2.032 15.786)">
        <path id="Trazado_151741" data-name="Trazado 151741" d="M296.394,448.832c1.534-1.023,2.983-1.023,4.773.171a5.043,5.043,0,0,1,2.727,4.346c.206,2.572-.161,3.42-2.642,5.625-1.534,1.364-5.114,1.279-6.988-.937-1.381-1.632-2.338-4.113-1.364-5.8A10.551,10.551,0,0,1,296.394,448.832Z" transform="translate(-292.503 -448.085)" fill="#a9c22e"/>
        <path id="Trazado_151742" data-name="Trazado 151742" d="M306.925,451.9c.369.575.283,1.036-.363,1.5a2.549,2.549,0,0,1-2.126.5,2.979,2.979,0,0,1-2.378-1.317,1.4,1.4,0,0,1,.842-2.144,3.351,3.351,0,0,1,2.7.057A4.392,4.392,0,0,1,306.925,451.9Z" transform="translate(-297.815 -449.287)" fill="#d4d772"/>
        <path id="Trazado_151743" data-name="Trazado 151743" d="M304.176,458.415a6.872,6.872,0,0,1-2.171,2.65c-1.354,1.2-4.512,1.127-6.166-.827a7.267,7.267,0,0,1-1.152-1.884c-.016.027-.035.051-.051.079-.859,1.484-.015,3.673,1.2,5.113,1.654,1.956,4.812,2.03,6.166.827,2.189-1.946,2.512-2.694,2.331-4.963A6.525,6.525,0,0,0,304.176,458.415Z" transform="translate(-293.521 -453.955)" fill="#759f25"/>
      </g>
      <g id="Grupo_107040" data-name="Grupo 107040" transform="translate(2.658 10.552)">
        <path id="Trazado_151744" data-name="Trazado 151744" d="M295.34,436.134a1.364,1.364,0,0,1,1.687.061,1.78,1.78,0,0,1,.964,1.536c.073.909-.057,1.209-.934,1.988a1.9,1.9,0,0,1-2.47-.332,1.96,1.96,0,0,1-.482-2.048A3.74,3.74,0,0,1,295.34,436.134Z" transform="translate(-293.965 -435.87)" fill="#a9c22e"/>
        <path id="Trazado_151745" data-name="Trazado 151745" d="M299.062,437.219c.131.2.1.367-.128.532a.9.9,0,0,1-.752.176,1.05,1.05,0,0,1-.84-.466.493.493,0,0,1,.3-.758,1.187,1.187,0,0,1,.954.02A1.555,1.555,0,0,1,299.062,437.219Z" transform="translate(-295.842 -436.295)" fill="#d4d772"/>
        <path id="Trazado_151746" data-name="Trazado 151746" d="M298.091,439.521a2.431,2.431,0,0,1-.768.937,1.672,1.672,0,0,1-2.179-.292,2.571,2.571,0,0,1-.407-.666c-.006.009-.013.018-.018.028a1.729,1.729,0,0,0,.425,1.807,1.671,1.671,0,0,0,2.179.292c.774-.688.888-.952.824-1.754A2.339,2.339,0,0,0,298.091,439.521Z" transform="translate(-294.325 -437.945)" fill="#759f25"/>
      </g>
      <g id="Grupo_107041" data-name="Grupo 107041" transform="translate(11.28 13.425)">
        <path id="Trazado_151747" data-name="Trazado 151747" d="M314.976,442.745a.88.88,0,0,1,1.089.039,1.149,1.149,0,0,1,.621.991c.047.586-.036.78-.6,1.282a1.222,1.222,0,0,1-1.593-.213,1.263,1.263,0,0,1-.311-1.321A2.414,2.414,0,0,1,314.976,442.745Z" transform="translate(-314.088 -442.575)" fill="#a9c22e"/>
        <path id="Trazado_151748" data-name="Trazado 151748" d="M317.377,443.445c.084.131.065.237-.083.343a.581.581,0,0,1-.485.114.676.676,0,0,1-.542-.3.318.318,0,0,1,.192-.488.76.76,0,0,1,.615.013A1,1,0,0,1,317.377,443.445Z" transform="translate(-315.3 -442.849)" fill="#d4d772"/>
        <path id="Trazado_151749" data-name="Trazado 151749" d="M316.751,444.93a1.56,1.56,0,0,1-.5.6,1.079,1.079,0,0,1-1.405-.188,1.665,1.665,0,0,1-.263-.43.141.141,0,0,0-.012.018,1.115,1.115,0,0,0,.274,1.165,1.077,1.077,0,0,0,1.405.189c.5-.443.573-.614.532-1.132A1.4,1.4,0,0,0,316.751,444.93Z" transform="translate(-314.321 -443.913)" fill="#759f25"/>
      </g>
      <g id="Grupo_107042" data-name="Grupo 107042" transform="translate(6.274)">
        <path id="Trazado_151750" data-name="Trazado 151750" d="M303.292,411.412a.88.88,0,0,1,1.089.039,1.151,1.151,0,0,1,.621.991c.047.586-.036.78-.6,1.282a1.221,1.221,0,0,1-1.593-.214,1.263,1.263,0,0,1-.311-1.321A2.407,2.407,0,0,1,303.292,411.412Z" transform="translate(-302.405 -411.242)" fill="#a9c22e"/>
        <path id="Trazado_151751" data-name="Trazado 151751" d="M305.694,412.111c.084.132.064.237-.083.343a.58.58,0,0,1-.485.114.678.678,0,0,1-.542-.3.318.318,0,0,1,.192-.489.764.764,0,0,1,.615.013A1.014,1.014,0,0,1,305.694,412.111Z" transform="translate(-303.616 -411.516)" fill="#d4d772"/>
        <path id="Trazado_151752" data-name="Trazado 151752" d="M305.067,413.6a1.555,1.555,0,0,1-.5.6,1.078,1.078,0,0,1-1.405-.189,1.663,1.663,0,0,1-.263-.43l-.012.018a1.115,1.115,0,0,0,.275,1.165,1.077,1.077,0,0,0,1.405.188c.5-.443.573-.614.531-1.131A1.4,1.4,0,0,0,305.067,413.6Z" transform="translate(-302.637 -412.58)" fill="#759f25"/>
      </g>
      <g id="Grupo_107043" data-name="Grupo 107043" transform="translate(0 16.34)">
        <path id="Trazado_151753" data-name="Trazado 151753" d="M301.935,475.829a.192.192,0,0,1-.165-.093,2.749,2.749,0,0,1,.278-3.168.192.192,0,0,1,.285.258,2.323,2.323,0,0,0-.234,2.713.192.192,0,0,1-.066.263A.187.187,0,0,1,301.935,475.829Z" transform="translate(-295.543 -462.597)" fill="#2a5b1b"/>
        <path id="Trazado_151754" data-name="Trazado 151754" d="M295.584,451.426a.19.19,0,0,1-.134-.055,6.777,6.777,0,0,0-2.625-1.614.191.191,0,0,1-.135-.235.187.187,0,0,1,.235-.135,7.012,7.012,0,0,1,2.793,1.711.192.192,0,0,1,0,.271A.19.19,0,0,1,295.584,451.426Z" transform="translate(-290.574 -449.379)" fill="#2a5b1b"/>
        <path id="Trazado_151755" data-name="Trazado 151755" d="M318.216,463.37a.193.193,0,0,1-.127-.048,2.322,2.322,0,0,0-2.716-.195.192.192,0,1,1-.2-.326,2.742,2.742,0,0,1,3.17.233.191.191,0,0,1,.018.27A.2.2,0,0,1,318.216,463.37Z" transform="translate(-303.375 -456.814)" fill="#2a5b1b"/>
        <path id="Trazado_151756" data-name="Trazado 151756" d="M288.907,464.441a1.673,1.673,0,0,1-1.1-.561.192.192,0,0,1,.288-.253,1.311,1.311,0,0,0,.811.43h0a.732.732,0,0,0,.557-.3c.854-1,2.4-.271,2.466-.239a.191.191,0,0,1-.165.345c-.014-.006-1.348-.63-2.009.144a1.109,1.109,0,0,1-.847.434Z" transform="translate(-287.76 -457.297)" fill="#2a5b1b"/>
        <path id="Trazado_151757" data-name="Trazado 151757" d="M311.225,451.852l-.026,0a.192.192,0,0,1-.163-.217c.08-.559.637-.608,1.175-.654a2.19,2.19,0,0,0,1.8-.773.191.191,0,1,1,.311.222,2.56,2.56,0,0,1-2.077.932c-.563.049-.8.092-.829.326A.192.192,0,0,1,311.225,451.852Z" transform="translate(-301.062 -449.806)" fill="#2a5b1b"/>
        <path id="Trazado_151758" data-name="Trazado 151758" d="M307.026,464.682a.2.2,0,0,1-.077-.016.192.192,0,0,1-.1-.253,2.754,2.754,0,0,0,.237-2.222,1.235,1.235,0,0,0-.691-.649.192.192,0,1,1,.109-.368,1.62,1.62,0,0,1,.931.856,3.108,3.108,0,0,1-.234,2.537A.192.192,0,0,1,307.026,464.682Z" transform="translate(-298.333 -456.116)" fill="#2a5b1b"/>
        <path id="Trazado_151759" data-name="Trazado 151759" d="M314.838,471.845a1.485,1.485,0,0,1-1.1-.44,2.977,2.977,0,0,1-.615-2,.193.193,0,0,1,.2-.181.19.19,0,0,1,.181.2,2.646,2.646,0,0,0,.506,1.713,1.109,1.109,0,0,0,.893.322.192.192,0,0,1,.014.384Z" transform="translate(-302.253 -460.721)" fill="#2a5b1b"/>
      </g>
    </g>
  </g>
</svg>
