<svg xmlns="http://www.w3.org/2000/svg" width="301.886" height="210.667" viewBox="0 0 301.886 210.667">
  <g id="Grupo_106712" data-name="Grupo 106712" transform="translate(-981.072 -36.357)">
    <g id="Grupo_106711" data-name="Grupo 106711" transform="translate(981.072 36.358)">
      <g id="Grupo_106695" data-name="Grupo 106695" transform="translate(68.729 26.268)">
        <path id="Rectángulo_33971" data-name="Rectángulo 33971" d="M3.8,0H13.834a.855.855,0,0,1,.855.855V6.2a.719.719,0,0,1-.719.719H.855A.855.855,0,0,1,0,6.062V3.8A3.8,3.8,0,0,1,3.8,0Z" transform="translate(30.696 159.857) rotate(0.752)" fill="#404040"/>
        <path id="Trazado_150820" data-name="Trazado 150820" d="M1080.217,132.909l-21.348-.281s1.348-13.008-.243-21.754c-1.866-10.259-5.19-24.175-5.19-24.175,4.342-2.147,30.688-2.113,33.4.31,0,0-3.9,13.159-6.027,23.5C1079.032,119.124,1080.217,132.909,1080.217,132.909Z" transform="translate(-1016.485 -41.178)" fill="#dae1e6"/>
        <g id="Grupo_106685" data-name="Grupo 106685" transform="translate(36.741 100.309)">
          <path id="Trazado_150821" data-name="Trazado 150821" d="M1055.1,184.618c-3.127-22.913-2.458-35.127,4-60.34l8.069,2.016c-6.169,24.079-7.661,37.017-5,58.183C1062.406,185.263,1055.333,185.405,1055.1,184.618Z" transform="translate(-1053.29 -124.278)" fill="#664a43"/>
        </g>
        <path id="Rectángulo_33972" data-name="Rectángulo 33972" d="M.855,0H13.97a.719.719,0,0,1,.719.719V6.062a.855.855,0,0,1-.855.855H3.8A3.8,3.8,0,0,1,0,3.122V.855A.855.855,0,0,1,.855,0Z" transform="translate(73.702 167.341) rotate(-179.247)" fill="#404040"/>
        <g id="Grupo_106686" data-name="Grupo 106686" transform="translate(55.386 100.584)">
          <path id="Trazado_150822" data-name="Trazado 150822" d="M1076.774,184.894c3.729-22.822,3.38-35.051-2.414-60.425l-8.119,1.8c5.533,24.234,6.685,37.206,3.467,58.294C1069.455,185.346,1076.522,185.674,1076.774,184.894Z" transform="translate(-1066.241 -124.469)" fill="#664a43"/>
        </g>
        <path id="Trazado_150823" data-name="Trazado 150823" d="M1078.475,127.526c-.039,2.931-21.386,2.652-21.348-.281l.12-9.12,21.348.281Z" transform="translate(-1014.862 -26.674)" fill="#292929"/>
        <path id="Trazado_150824" data-name="Trazado 150824" d="M1063.171,80.5c.321,1.716.364,6.058-.477,7.077,1.049,1.628,6.218,1.722,7.689.053a13.006,13.006,0,0,1-.153-7.039C1070.28,80.447,1063.171,80.5,1063.171,80.5Z" transform="translate(-1012.414 -43.222)" fill="#f5ce9d"/>
        <path id="Trazado_150825" data-name="Trazado 150825" d="M1069.674,83.908a10.53,10.53,0,0,1,.412-3.318c.049-.143-7.06-.092-7.06-.092a18.96,18.96,0,0,1,.207,3.434A12.074,12.074,0,0,0,1069.674,83.908Z" transform="translate(-1012.269 -43.222)" fill="#d9d9d9" style="mix-blend-mode: multiply;isolation: isolate"/>
        <path id="Trazado_150826" data-name="Trazado 150826" d="M1057.2,117.253c2.92,2.9,4.56,3.1,6.089,1.6a4.262,4.262,0,0,0,1.4-4.472c-.363-2.193-5.543-1.968-6.191-1.45S1056.327,116.384,1057.2,117.253Z" transform="translate(-1014.945 -29.112)" fill="#f5ce9d"/>
        <g id="Grupo_106688" data-name="Grupo 106688" transform="translate(0 44.207)">
          <g id="Grupo_106687" data-name="Grupo 106687">
            <path id="Trazado_150827" data-name="Trazado 150827" d="M1032.023,99.908c6.706,5.1,12.071,8.884,17.453,8.192,7.814-1,17.862-6.768,21.27-17.306.534-1.654.926-4.2-.523-5.164h0c-1.4-.929-5.163.325-6.126,1.7-5.917,8.428-10.488,12.329-15.029,12.914-4.559.586-10-2.1-17.121-8.437-.577-.514-4.7,4.115-4.123,4.629Q1029.989,98.359,1032.023,99.908Z" transform="translate(-1027.77 -85.31)" fill="#dae1e6"/>
          </g>
        </g>
        <path id="Trazado_150828" data-name="Trazado 150828" d="M1074.372,117.679c-3.071,2.74-4.718,2.849-6.165,1.265a4.261,4.261,0,0,1-1.156-4.541c.479-2.17,5.641-1.667,6.258-1.116S1075.292,116.859,1074.372,117.679Z" transform="translate(-1010.589 -29.01)" fill="#f5ce9d"/>
        <g id="Grupo_106690" data-name="Grupo 106690" transform="translate(61.475 44.867)">
          <g id="Grupo_106689" data-name="Grupo 106689">
            <path id="Trazado_150829" data-name="Trazado 150829" d="M1078.178,127.322c7.15-4.462,11.123-9.1,12.384-14.38,1.831-7.663-2.332-15.779-7.636-23.55-.98-1.437-4.079-4.431-5.492-3.419h0c-1.363.976-.586,5.511.356,6.9,5.783,8.521,7.809,14.178,6.745,18.632-1.068,4.472-5.507,8.6-13.959,13.016-.685.357,2.18,5.852,2.865,5.5Q1076.008,128.675,1078.178,127.322Z" transform="translate(-1070.47 -85.768)" fill="#dae1e6"/>
          </g>
        </g>
        <path id="Trazado_150830" data-name="Trazado 150830" d="M1069.5,91.6c-3.879-.05-9.665-3.673-10.973-6.489-2.715-5.847-2.83-12.063-2.575-18.215.691-16.716,24.61-15.105,26.893-2.828A39.118,39.118,0,0,1,1079.7,88.6c-1.745,3.876-8.222,3.025-10.2,3Z" transform="translate(-1015.42 -54.604)" fill="#754634"/>
        <path id="Trazado_150831" data-name="Trazado 150831" d="M1073.889,71.459c1.333-1.791,3.37-.949,2.645,1.824-.736,2.815-4.125,2.649-4.119,2.247S1073.889,71.459,1073.889,71.459Z" transform="translate(-1008.14 -47.607)" fill="#d1b086"/>
        <path id="Trazado_150832" data-name="Trazado 150832" d="M1058.184,71.261c-1.286-1.827-3.343-1.038-2.692,1.752.662,2.833,4.054,2.757,4.06,2.355S1058.184,71.261,1058.184,71.261Z" transform="translate(-1015.635 -47.713)" fill="#d1b086"/>
        <g id="Grupo_106692" data-name="Grupo 106692" transform="translate(41.522 3.16)">
          <g id="Grupo_106691" data-name="Grupo 106691">
            <path id="Trazado_150833" data-name="Trazado 150833" d="M1056.613,69.248c-.049,5.917,1.087,17.609,3.15,21.474,2,3.749,16.487,4.385,18.8-.092s3.74-20.147,2.728-24.882-4.23-8.719-10.989-8.915S1056.716,56.811,1056.613,69.248Z" transform="translate(-1056.611 -56.798)" fill="#f5ce9d"/>
          </g>
        </g>
        <path id="Trazado_150834" data-name="Trazado 150834" d="M1068.8,68.458c3.745.049,11.752-7.106,12.737,8.267,3.271-13.56-4.47-21.672-12.907-21.782S1054.6,60.9,1056.721,73.268C1056.345,62.53,1065.019,68.409,1068.8,68.458Z" transform="translate(-1015.239 -54.455)" fill="#754634"/>
        <rect id="Rectángulo_33973" data-name="Rectángulo 33973" width="7.42" height="2.058" rx="0.293" transform="translate(61.254 24.619) rotate(-140.118)" fill="#754634"/>
        <rect id="Rectángulo_33974" data-name="Rectángulo 33974" width="7.42" height="2.058" rx="0.293" transform="matrix(0.811, -0.584, 0.584, 0.811, 42.215, 22.61)" fill="#754634"/>
        <path id="Trazado_150835" data-name="Trazado 150835" d="M1063.025,73.658c.019,1.559-.766,2.832-1.753,2.843s-1.8-1.242-1.82-2.8.766-2.832,1.754-2.843S1063.008,72.1,1063.025,73.658Z" transform="translate(-1013.84 -47.458)" fill="#704a3a"/>
        <path id="Trazado_150836" data-name="Trazado 150836" d="M1070.035,73.757c.019,1.576-.774,2.864-1.772,2.875s-1.821-1.255-1.84-2.832.775-2.862,1.772-2.874S1070.017,72.182,1070.035,73.757Z" transform="translate(-1010.775 -47.426)" fill="#704a3a"/>
        <path id="Trazado_150837" data-name="Trazado 150837" d="M1063.582,79.123a5.972,5.972,0,0,1,4.32.088c1.2.393,1.012,1.212,1.012,1.212-.043.59-6.477.642-6.624-.032C1062.18,79.873,1062.688,79.365,1063.582,79.123Z" transform="translate(-1012.598 -43.981)" fill="#b55e5e"/>
        <g id="Grupo_106694" data-name="Grupo 106694" transform="translate(36.506 43.461)">
          <g id="Grupo_106693" data-name="Grupo 106693">
            <path id="Trazado_150838" data-name="Trazado 150838" d="M1087.4,86.609a.94.94,0,0,0-.371-.445c-1.707-1.015-6.689-1.214-10.936-1.371-.331-.013-.622.016-.674.344-1.068,6.693-4.912,23.366-5.475,23.359-.586-.007-3.838-17.953-4.8-23.344-.057-.324-.3-.253-.63-.24-5.006.2-9.472.356-11.121,1.077a.585.585,0,0,0-.251.662c.3,1.742,3.413,14.588,5.14,24.079,1.558,8.57-.3,26.123-.314,26.253-.039.885,22.828,1.189,22.866.3-.011-.138-1.1-18.47.641-26.913,1.926-9.365,5.356-21.2,5.933-23.172A1.025,1.025,0,0,0,1087.4,86.609Z" transform="translate(-1053.127 -84.791)" fill="#46a870"/>
          </g>
          <path id="Trazado_150839" data-name="Trazado 150839" d="M1072.638,85.138c-1.068,6.693-4.912,23.366-5.475,23.359-.586-.007-3.838-17.953-4.8-23.344-.058-.324-.3-.253-.63-.24q-1.166.045-2.279.092c.893,3.752,5.975,28.01,7.561,28.14,1.378.114,6.664-21.028,8.432-28.265-.718-.032-1.437-.059-2.134-.085C1072.981,84.781,1072.69,84.81,1072.638,85.138Z" transform="translate(-1050.345 -84.791)" fill="#327850"/>
          <path id="Trazado_150840" data-name="Trazado 150840" d="M1053.14,86.425c.225,1.307,2.033,8.864,3.651,16.565.764-3.342-1.076-14.665-1.591-17.684a7.875,7.875,0,0,0-1.81.456A.585.585,0,0,0,1053.14,86.425Z" transform="translate(-1053.127 -84.565)" fill="#327850"/>
          <path id="Trazado_150841" data-name="Trazado 150841" d="M1078.3,86.38a.94.94,0,0,0-.372-.445,6.311,6.311,0,0,0-1.849-.623c-.448,2.227-2.807,14.315-2.146,17.943,1.827-7.518,3.932-14.778,4.372-16.283A1.025,1.025,0,0,0,1078.3,86.38Z" transform="translate(-1044.028 -84.562)" fill="#327850"/>
        </g>
      </g>
      <g id="Grupo_106702" data-name="Grupo 106702" transform="translate(58.014 28.398)">
        <path id="Trazado_150842" data-name="Trazado 150842" d="M1036.254,167.818s-.855.5-3.408,2.184-3.777,3.344-3.23,3.606c1.153.554,6.183-.857,8.252-1.513s1.549-3.2,1.078-3.8S1036.254,167.818,1036.254,167.818Z" transform="translate(-1016.3 -6.959)" fill="#73524c"/>
        <path id="Trazado_150843" data-name="Trazado 150843" d="M1047.4,167.984s.842.523,3.35,2.273,3.688,3.442,3.135,3.69c-1.169.523-6.16-1.019-8.21-1.729s-1.464-3.244-.979-3.83S1047.4,167.984,1047.4,167.984Z" transform="translate(-1009.818 -6.893)" fill="#73524c"/>
        <g id="Grupo_106696" data-name="Grupo 106696" transform="translate(29.82 83.794)">
          <path id="Trazado_150844" data-name="Trazado 150844" d="M1046.986,114.355c3.674-.674,6.291,3.683,6.9,7.1,2.19,12.341-3.214,29.443-4.656,33.6a3.41,3.41,0,0,0-.027,2.088c2.967,10.094.389,19.68-.4,34.516,0,1.067-2.328.762-2.5.062-1.83-16.074-2.907-27.76-1.978-34.869a3.167,3.167,0,0,0-.128-1.4c-1.173-3.552-2.861-14.446-3.159-25.069C1041.04,130.389,1041.363,115.385,1046.986,114.355Z" transform="translate(-1041.04 -114.286)" fill="#f5ce9d"/>
        </g>
        <g id="Grupo_106697" data-name="Grupo 106697" transform="translate(15.83 83.613)">
          <path id="Trazado_150845" data-name="Trazado 150845" d="M1039.106,114.251c-3.654-.769-6.385,3.517-7.082,6.921-2.514,12.279,2.439,29.518,3.772,33.714a3.424,3.424,0,0,1-.029,2.088c-3.232,10.013-.906,19.665-.508,34.516-.024,1.067,2.308.822,2.495.127,2.253-16.021,3.635-27.674,2.894-34.8a3.158,3.158,0,0,1,.166-1.4c1.267-3.52,3.238-14.367,3.815-24.977C1044.628,130.436,1044.7,115.427,1039.106,114.251Z" transform="translate(-1031.323 -114.16)" fill="#f5ce9d"/>
        </g>
        <path id="Trazado_150846" data-name="Trazado 150846" d="M1047.555,56.083c-5.594-.062-16.306,3.172-16.471,19.154s.226,25.926-3.314,25.739c4.752,6.231,5.1,7.044,19.787,6.548,11.866-.4,16.063-1.254,18.643-5.911-8.645.068-1.127-21.787-2.077-30.32S1058.342,56.2,1047.555,56.083Z" transform="translate(-1017.055 -56.082)" fill="#916d55"/>
        <path id="Trazado_150847" data-name="Trazado 150847" d="M1043.536,85.722c1.782-1.375,3.01-1.453,5.423.854,1.8,1.713,7.279,2.826,7.91,3.257-.59.72-.893,8.169,1,7.72-.54,1.8-.574,2.24-1.611,6.057-1,3.681-19.2,6.79-22.354-.083a46.448,46.448,0,0,0-2.617-4.892c2.9,2.547,4.426-4.25,1.9-8.545C1033.787,89.563,1041.81,87.052,1043.536,85.722Z" transform="translate(-1015.51 -43.477)" fill="#f29494"/>
        <path id="Trazado_150848" data-name="Trazado 150848" d="M1038.838,86.206a2.988,2.988,0,0,0-.192,3.362,7.3,7.3,0,0,0,2.286,3.146c.331.115,1.424-2.82,1.539-3.189s1.132,3.11,1.574,3.223,2.281-2.8,2.542-4.315a2.478,2.478,0,0,0-1.4-2.8C1044.413,85.319,1039.755,85.321,1038.838,86.206Z" transform="translate(-1012.446 -43.173)" fill="#f0f0f0"/>
        <path id="Trazado_150849" data-name="Trazado 150849" d="M1056.316,96.118c-3.16-4.953-13.4-3.661-16.173-2.607a34.753,34.753,0,0,0-6.786,4.214c2.293,6.519,5.019,7.974,5.645,15.772.252,3.136-15.462,7.607-4.922,45.965-.04,1.576,21.382,2.292,21.71-.189,11.546-38.215-3.786-42.652-3.539-45.543.479-5.585,1.739-8.176,3.912-12.147C1057.292,99.517,1056.4,96.257,1056.316,96.118Z" transform="translate(-1015.883 -40.056)" fill="#f29494"/>
        <path id="Trazado_150850" data-name="Trazado 150850" d="M1039.321,101.287s4.3-3.412,8.647-.048Z" transform="translate(-1011.976 -36.88)" fill="#dbdbdb" style="mix-blend-mode: multiply;isolation: isolate"/>
        <path id="Trazado_150851" data-name="Trazado 150851" d="M1039.2,81.339a18.538,18.538,0,0,1-.364,6.693.782.782,0,0,0,.213.847c1.375,1.215,4.876,1.6,6.394.393a.737.737,0,0,0,.259-.682c-.207-1.542-.276-5.852.465-6.938C1046.979,80.461,1039.2,81.339,1039.2,81.339Z" transform="translate(-1012.21 -45.115)" fill="#f5ce9d"/>
        <path id="Trazado_150852" data-name="Trazado 150852" d="M1046.094,81.53a.2.2,0,0,0,0-.065v-.022a.229.229,0,0,0-.036-.072l-.017-.017a.275.275,0,0,0-.052-.048l-.033-.022a.659.659,0,0,0-.078-.04l-.042-.02c-.035-.013-.074-.026-.114-.037-.023-.007-.047-.014-.073-.02l-.083-.02-.089-.019-.081-.013c-.066-.012-.138-.02-.213-.03l-.062-.007-.153-.014-.04,0c-.182-.014-.379-.023-.587-.029h0c-.65,0-1.351.016-2.04.042-1.448.076-2.832.222-3.154.256l-.072.007c.016.088.029.183.042.282a18.552,18.552,0,0,1,.1,2.62,8.454,8.454,0,0,0,3.534.887,6.868,6.868,0,0,0,2.725-.6c.016-.3.039-.6.069-.883l0-.042c.012-.121.026-.238.042-.353l.016-.107c.013-.1.029-.191.045-.282.009-.05.019-.1.028-.147.014-.075.03-.15.046-.22s.029-.114.045-.168.029-.112.046-.164.042-.121.065-.179c.013-.036.026-.075.04-.107a1.5,1.5,0,0,1,.124-.229.356.356,0,0,0,.046-.1Z" transform="translate(-1012.085 -45.113)" fill="#d6d6d6" style="mix-blend-mode: multiply;isolation: isolate"/>
        <path id="Trazado_150853" data-name="Trazado 150853" d="M1036.123,74.053c-1.3-1.887-2.947-3.277-3.732-1.409s.7,4.919,3.288,4.888S1036.123,74.053,1036.123,74.053Z" transform="translate(-1015.115 -49.189)" fill="#d1b086"/>
        <path id="Trazado_150854" data-name="Trazado 150854" d="M1048.476,74.265c1.347-1.851,3.032-3.2,3.769-1.31s-.834,4.9-3.417,4.8S1048.476,74.265,1048.476,74.265Z" transform="translate(-1008.344 -49.064)" fill="#d1b086"/>
        <path id="Trazado_150855" data-name="Trazado 150855" d="M1033.3,69.313c-.111,5.939,0,14.623,4.621,20.348,1.865,2.312,4.767,4.148,7.592,4.172,2.694.024,5.49-2.023,6.993-3.981,5.944-7.745,5.612-18.55,4.479-23.277s-5.146-6.81-10.072-7.411C1040.181,58.342,1033.461,60.946,1033.3,69.313Z" transform="translate(-1014.632 -54.791)" fill="#f5ce9d"/>
        <path id="Trazado_150856" data-name="Trazado 150856" d="M1033.929,78.96c-.118-6.664,5.307-6.4,5.412-14.331,3.886,9.6,18.376,4.741,18.271,14.643,2.323-6.729,2.847-14.75-1.525-19.181-5.331-5.4-15.907-4.683-19.123,1.264C1032.723,63.248,1031.01,69.234,1033.929,78.96Z" transform="translate(-1014.986 -55.927)" fill="#916d55"/>
        <path id="Trazado_150857" data-name="Trazado 150857" d="M1043.861,68.565c-.416.049-.5,1.143-.1,1.188,1.215.337,4.906.265,6.728,2.584C1049.624,69.954,1048.386,69.062,1043.861,68.565Z" transform="translate(-1010.138 -50.594)" fill="#85644e"/>
        <path id="Trazado_150858" data-name="Trazado 150858" d="M1041.763,68.618c.458.05.541,1.129.132,1.178-1.225.3-5.176.4-6.864,2.442C1035.967,69.882,1037.224,68.975,1041.763,68.618Z" transform="translate(-1013.862 -50.571)" fill="#85644e"/>
        <path id="Trazado_150859" data-name="Trazado 150859" d="M1037.071,71.414s3.1.181,4.225,2.456a13.928,13.928,0,0,0-4.842.452c.694-.822,4.024-.687,3.641-1.1A8.667,8.667,0,0,0,1037.071,71.414Z" transform="translate(-1013.236 -49.341)" fill="#787878" style="mix-blend-mode: multiply;isolation: isolate"/>
        <path id="Trazado_150860" data-name="Trazado 150860" d="M1047.491,71.534s-3.1.1-4.289,2.345a13.887,13.887,0,0,1,4.828.579c-.672-.841-4.005-.793-3.612-1.195A8.69,8.69,0,0,1,1047.491,71.534Z" transform="translate(-1010.27 -49.289)" fill="#787878" style="mix-blend-mode: multiply;isolation: isolate"/>
        <path id="Trazado_150861" data-name="Trazado 150861" d="M1051.518,76.959c-1.195-.68-1.853-1.307-2.759-1.356a5.2,5.2,0,0,1-2.806-1.073c-.881-.537-2.416-1.248-2.242-2.033.285-1.286,3.213-1.89,4.217-1.532a4.76,4.76,0,0,1,2.217,1.748,6.314,6.314,0,0,0,2.53,1.851C1053.534,74.956,1052.069,77.274,1051.518,76.959Z" transform="translate(-1010.051 -49.584)" fill="#e6c193"/>
        <path id="Trazado_150862" data-name="Trazado 150862" d="M1048.768,76.167c-.217-.148-.807-.475-.9-.533s1.342-3.1,1.8-2.915a6.435,6.435,0,0,1,.747.346Z" transform="translate(-1008.221 -48.771)" fill="#f0f0f0"/>
        <g id="Grupo_106699" data-name="Grupo 106699" transform="translate(36.535 24.133)">
          <g id="Grupo_106698" data-name="Grupo 106698">
            <path id="Trazado_150863" data-name="Trazado 150863" d="M1054.744,74.727a20.317,20.317,0,0,0-3.517-1.867c-.186-.249-2.085,2.817-1.675,3.232,3.281,2.892,9.943,9.774,11.921,11.7.472.459-.324.795-1.08,1.3a79.449,79.449,0,0,1-12.219,6.019,4.423,4.423,0,0,0-2.423,4.8c.491,3.821,5.026,4.784,5.069,5.435l.7-2.55c6.211-2.851,8.35-4.522,15.3-10.793,1.877-1.7,2.113-2.138,1.651-3.4-.908-2.471-2.532-4.568-5.374-7.488A37.765,37.765,0,0,0,1054.744,74.727Z" transform="translate(-1045.705 -72.845)" fill="#f29494"/>
          </g>
        </g>
        <path id="Trazado_150864" data-name="Trazado 150864" d="M1033.491,77.458c1.25-.57,1.961-1.136,2.868-1.106a5.2,5.2,0,0,0,2.891-.816c.926-.458,2.518-1.028,2.415-1.824-.17-1.307-3.033-2.171-4.064-1.9a4.762,4.762,0,0,0-2.364,1.542,6.3,6.3,0,0,1-2.685,1.618C1031.663,75.284,1032.914,77.723,1033.491,77.458Z" transform="translate(-1015.088 -49.189)" fill="#e6c193"/>
        <path id="Trazado_150865" data-name="Trazado 150865" d="M1034,76.985c.219-.148.809-.474.9-.533s-1.342-3.1-1.8-2.914a6.309,6.309,0,0,0-.747.344Z" transform="translate(-1015.04 -48.411)" fill="#f0f0f0"/>
        <g id="Grupo_106701" data-name="Grupo 106701" transform="translate(0 25.31)">
          <g id="Grupo_106700" data-name="Grupo 106700">
            <path id="Trazado_150866" data-name="Trazado 150866" d="M1034.262,75.545a20.3,20.3,0,0,1,3.517-1.867c.186-.249,2.085,2.817,1.674,3.232-3.282,2.892-9.942,9.774-11.922,11.7-.472.459.325.795,1.08,1.3a79.525,79.525,0,0,0,12.22,6.019,4.425,4.425,0,0,1,2.423,4.8c-.491,3.821-5.027,4.784-5.069,5.435l-2.085-2.646c-5.443-3.088-6.969-4.426-13.917-10.7-1.879-1.694-2.115-2.136-1.651-3.4.908-2.47,2.532-4.568,5.374-7.488A37.766,37.766,0,0,1,1034.262,75.545Z" transform="translate(-1020.327 -73.663)" fill="#f29494"/>
          </g>
        </g>
        <path id="Trazado_150867" data-name="Trazado 150867" d="M1040.559,78.942a2.436,2.436,0,0,1,3.287.075A9.31,9.31,0,0,0,1040.559,78.942Z" transform="translate(-1011.432 -46.299)" fill="#fff"/>
        <path id="Trazado_150868" data-name="Trazado 150868" d="M1047.462,76.658a.953.953,0,0,1-.772,1.132,1,1,0,0,1-.982-.956,1.122,1.122,0,1,1,1.754-.176Z" transform="translate(-1009.17 -47.792)" fill="#a8ebff"/>
      </g>
      <g id="Grupo_106703" data-name="Grupo 106703" transform="translate(4.676 110.561)">
        <path id="Trazado_150869" data-name="Trazado 150869" d="M1039.948,136.216c-26.934-12.327-57.424-9.626-56.654,3.555.26,4.447,33.736,8.51,51.783,3.51C1039.241,142.127,1044.824,138.784,1039.948,136.216Z" transform="translate(-983.279 -106.5)" fill="#dbdbdb"/>
        <path id="Trazado_150870" data-name="Trazado 150870" d="M1013.114,134.046c1.864-.125,5.956.246,6.869,1.443,1.74-1.363,2.719-6.841,1.988-9.008-1.116.17-6.073-.275-7.125-1.522S1013.114,134.046,1013.114,134.046Z" transform="translate(-970.161 -108.008)" fill="#f5ce9d"/>
        <path id="Trazado_150871" data-name="Trazado 150871" d="M1013.114,134.044a17.835,17.835,0,0,1,3.229.143,31.486,31.486,0,0,0,1.538-8.028,6.907,6.907,0,0,1-2.861-1.039,2.146,2.146,0,0,1-.341-.261C1013.723,124.809,1013.114,134.044,1013.114,134.044Z" transform="translate(-970.161 -108.006)" fill="#d6d6d6" style="mix-blend-mode: multiply;isolation: isolate"/>
        <path id="Trazado_150872" data-name="Trazado 150872" d="M1007.364,114.4c2.013.772,8.76,5.033,10.174,5.694s1.946,22.4-4.126,24.01c-5.7,1.515-10.572.014-17.249-.412C979.211,142.612,985.491,106.009,1007.364,114.4Z" transform="translate(-981.873 -113.153)" fill="#cfcfcf"/>
        <path id="Trazado_150873" data-name="Trazado 150873" d="M1002.423,133.966c-1.693,1.286-1.6,3.294,1.445,3.854s4.253-5.677,3.841-5.792S1002.423,133.966,1002.423,133.966Z" transform="translate(-975.346 -104.856)" fill="#d1b086"/>
        <path id="Trazado_150874" data-name="Trazado 150874" d="M1006.819,120.325c-1.576-1.844-2.548-3.91-.423-4.205s4.843,2.066,4.106,4.7S1006.819,120.325,1006.819,120.325Z" transform="translate(-973.653 -111.86)" fill="#d1b086"/>
        <path id="Trazado_150875" data-name="Trazado 150875" d="M1007.763,116.865c6.183,1.155,16.169,3.853,19.027,6.564,3.277,3.108-.425,19.31-5.685,20.327s-19.485-1.631-24.213-3.671c-5.848-2.522-10.147-4.3-7.869-14.208C991.549,114.892,994.446,114.377,1007.763,116.865Z" transform="translate(-981.027 -112.061)" fill="#f5ce9d"/>
        <path id="Trazado_150876" data-name="Trazado 150876" d="M1002.975,122.368s3.485-.6,2.714-3.788C1007.1,120.991,1005.623,122.63,1002.975,122.368Z" transform="translate(-974.619 -110.767)" fill="#969696" style="mix-blend-mode: multiply;isolation: isolate"/>
        <path id="Trazado_150877" data-name="Trazado 150877" d="M1001.821,125.3s2.171,2.773-.021,5.209C1004.395,129.435,1004.108,126.608,1001.821,125.3Z" transform="translate(-975.136 -107.813)" fill="#969696" style="mix-blend-mode: multiply;isolation: isolate"/>
        <path id="Trazado_150878" data-name="Trazado 150878" d="M1011.935,122.134a24.269,24.269,0,0,0-2.894,13.287c.145,3.811-4.254,7.03-7.858,6.856,5.4,1.009,11.306,1.62,14.3,1.041,5.26-1.016,8.962-17.219,5.685-20.327-2.7-2.56-11.752-5.108-17.96-6.356C1007.342,118.681,1012.813,120.518,1011.935,122.134Z" transform="translate(-975.407 -111.623)" fill="#e8e8e8"/>
        <path id="Trazado_150879" data-name="Trazado 150879" d="M1010.851,128.5a2.208,2.208,0,0,1-.924-2.817c.658-2.043,1.952-1.136,1.8-.705S1011.2,128.877,1010.851,128.5Z" transform="translate(-971.633 -108.209)" fill="#969696" style="mix-blend-mode: multiply;isolation: isolate"/>
        <rect id="Rectángulo_33975" data-name="Rectángulo 33975" width="6.872" height="1.906" rx="0.361" transform="matrix(0.195, 0.981, -0.981, 0.195, 22.644, 16.229)" fill="#e8e8e8"/>
        <rect id="Rectángulo_33976" data-name="Rectángulo 33976" width="5.922" height="1.699" rx="0.319" transform="matrix(0.676, -0.737, 0.737, 0.676, 23.128, 9.38)" fill="#e8e8e8"/>
        <path id="Trazado_150880" data-name="Trazado 150880" d="M1007.807,124.708a10.244,10.244,0,0,1,3.467-2.662,11.062,11.062,0,0,1,2.522-.789c.43-.085.861-.132,1.3-.174.138-.013.466.023.328-.109-.17-.164-.812-.16-1.038-.17a5.568,5.568,0,0,0-1.284.078,6.88,6.88,0,0,0-2.38,1.015,10.682,10.682,0,0,0-2.008,1.641C1008.572,123.683,1007.691,124.525,1007.807,124.708Z" transform="translate(-972.499 -109.793)" fill="#e3e3e3" style="mix-blend-mode: multiply;isolation: isolate"/>
        <path id="Trazado_150881" data-name="Trazado 150881" d="M1007.041,126.134c-.111,3.064,1.67,6.329,4.8,7,0-.176-.543-.392-.69-.485a9.93,9.93,0,0,1-1.052-.779,8.618,8.618,0,0,1-1.457-1.477,8.262,8.262,0,0,1-1.188-2.4,8.87,8.87,0,0,1-.312-1.35C1007.127,126.507,1007.147,126.177,1007.041,126.134Z" transform="translate(-972.834 -107.446)" fill="#e3e3e3" style="mix-blend-mode: multiply;isolation: isolate"/>
        <path id="Trazado_150882" data-name="Trazado 150882" d="M998.858,117.615a6.465,6.465,0,0,0-1.332,4.251,4.637,4.637,0,0,1-.782,2.422,5.35,5.35,0,0,0-1.1,2.148,3.023,3.023,0,0,0,.059,1.054c.046.2.163.727.34.839.137.086.037-.117.016-.222A3.753,3.753,0,0,1,995.98,127a4.7,4.7,0,0,1,.988-2.092,5.318,5.318,0,0,0,.9-2.491,19.731,19.731,0,0,1,.181-2.869,4.885,4.885,0,0,1,.472-1.335C998.6,118.067,998.913,117.724,998.858,117.615Z" transform="translate(-977.854 -111.191)" fill="#e3e3e3" style="mix-blend-mode: multiply;isolation: isolate"/>
        <path id="Trazado_150883" data-name="Trazado 150883" d="M996.512,117.778c-.236,1.592.279,3.308-.563,4.764a10.079,10.079,0,0,0-1.261,2.486,3.43,3.43,0,0,0-.121,1.068c.009.14-.019.487.114.337s.179-.74.264-.959a9.664,9.664,0,0,1,.512-1.073,12.752,12.752,0,0,0,1.157-2.36,6.206,6.206,0,0,0,0-2.55A10.843,10.843,0,0,0,996.512,117.778Z" transform="translate(-978.319 -111.12)" fill="#e3e3e3" style="mix-blend-mode: multiply;isolation: isolate"/>
      </g>
      <g id="Grupo_106710" data-name="Grupo 106710" transform="translate(0 0)">
        <g id="Grupo_106709" data-name="Grupo 106709" transform="translate(123.731)">
          <path id="Trazado_150884" data-name="Trazado 150884" d="M1144.607,94.374a1.752,1.752,0,0,0,1.035,2.2c.786.161,1.6-.563,1.812-1.615a1.754,1.754,0,0,0-1.035-2.2C1145.634,92.6,1144.822,93.322,1144.607,94.374Z" transform="translate(-1031.424 -11.569)" fill="#9bbdc7"/>
          <path id="Trazado_150885" data-name="Trazado 150885" d="M1140.339,52.031V78.425a3.121,3.121,0,0,0,3.121,3.121h14.511a3.122,3.122,0,0,0,3.123-3.121V52.031a3.122,3.122,0,0,0-3.123-3.121H1143.46A3.121,3.121,0,0,0,1140.339,52.031Zm7.122-1.43a.87.87,0,0,1,.87-.87h4.77a.87.87,0,1,1,0,1.741h-4.77A.87.87,0,0,1,1147.461,50.6Z" transform="translate(-1033.277 -30.838)" fill="#a1d2e3"/>
          <g id="Grupo_106708" data-name="Grupo 106708" transform="translate(0 53.424)">
            <g id="Grupo_106707" data-name="Grupo 106707">
              <g id="Grupo_106706" data-name="Grupo 106706">
                <g id="Grupo_106705" data-name="Grupo 106705">
                  <g id="Grupo_106704" data-name="Grupo 106704">
                    <path id="Trazado_150886" data-name="Trazado 150886" d="M1144.833,133.724c42.458-5.014,40.763-44.986,38.959-60.258l-.973.115c1.777,15.043,3.452,54.262-38.1,59.17-17.262,2.039-30.312,37.629-45.153,27.566-12.231-8.294-23.782-16.127-33.592-14.968l.115.973c9.446-1.116,20.853,6.618,32.926,14.806C1114,171.288,1127.21,135.806,1144.833,133.724Z" transform="translate(-1065.974 -73.466)" fill="#a1d2e3"/>
                  </g>
                </g>
              </g>
            </g>
          </g>
          <rect id="Rectángulo_33977" data-name="Rectángulo 33977" width="4.412" height="199.456" transform="translate(146.33 200.628) rotate(180)" fill="#a1d2e3"/>
          <rect id="Rectángulo_33978" data-name="Rectángulo 33978" width="61.609" height="3.547" transform="translate(174.846 3.547) rotate(180)" fill="#a1d2e3"/>
          <path id="Rectángulo_33979" data-name="Rectángulo 33979" d="M.71,0H5.991A.71.71,0,0,1,6.7.71V13.022a.709.709,0,0,1-.709.709H.71a.71.71,0,0,1-.71-.71V.71A.71.71,0,0,1,.71,0Z" transform="translate(147.474 14.904) rotate(180)" fill="#a1d2e3"/>
          <path id="Trazado_150887" data-name="Trazado 150887" d="M1180.356,44.407a6.741,6.741,0,1,0,6.741-6.742A6.74,6.74,0,0,0,1180.356,44.407Zm2.033,0a4.708,4.708,0,1,1,4.708,4.708A4.709,4.709,0,0,1,1182.389,44.407Z" transform="translate(-1015.682 -35.783)" fill="#a1d2e3"/>
          <path id="Trazado_150888" data-name="Trazado 150888" d="M1142.812,44.407a6.741,6.741,0,1,0,6.742-6.742A6.742,6.742,0,0,0,1142.812,44.407Zm2.033,0a4.708,4.708,0,1,1,4.709,4.708A4.71,4.71,0,0,1,1144.845,44.407Z" transform="translate(-1032.19 -35.783)" fill="#a1d2e3"/>
          <path id="Trazado_150889" data-name="Trazado 150889" d="M1150.569,171.187h49.066a2.82,2.82,0,0,1,2.82,2.819v5.68h-3.841v-2.779a2.125,2.125,0,0,0-2.125-2.125h-43.8a2.125,2.125,0,0,0-2.125,2.125v2.779h-3.841v-5.68a2.82,2.82,0,0,1,2.819-2.819Z" transform="translate(-1030.468 22.925)" fill="#a1d2e3"/>
          <path id="Trazado_150890" data-name="Trazado 150890" d="M1180.98,178.475a4.535,4.535,0,1,0,4.535-4.535A4.535,4.535,0,0,0,1180.98,178.475Z" transform="translate(-1015.408 24.135)" fill="#374145"/>
          <path id="Trazado_150891" data-name="Trazado 150891" d="M1182.725,177.708a2.023,2.023,0,1,0,2.023-2.023A2.022,2.022,0,0,0,1182.725,177.708Z" transform="translate(-1014.641 24.902)" fill="#adc2c9"/>
          <path id="Trazado_150892" data-name="Trazado 150892" d="M1144.969,178.475a4.535,4.535,0,1,0,4.535-4.535A4.535,4.535,0,0,0,1144.969,178.475Z" transform="translate(-1031.241 24.135)" fill="#374145"/>
          <path id="Trazado_150893" data-name="Trazado 150893" d="M1146.714,177.708a2.023,2.023,0,1,0,2.023-2.023A2.023,2.023,0,0,0,1146.714,177.708Z" transform="translate(-1030.474 24.902)" fill="#adc2c9"/>
          <path id="Trazado_150894" data-name="Trazado 150894" d="M1162.932,178.475a4.535,4.535,0,1,0,4.535-4.535A4.535,4.535,0,0,0,1162.932,178.475Z" transform="translate(-1023.343 24.135)" fill="#374145"/>
          <path id="Trazado_150895" data-name="Trazado 150895" d="M1164.677,177.708a2.023,2.023,0,1,0,2.023-2.023A2.022,2.022,0,0,0,1164.677,177.708Z" transform="translate(-1022.576 24.902)" fill="#adc2c9"/>
          <path id="Trazado_150896" data-name="Trazado 150896" d="M1147.892,52.586h0a1.3,1.3,0,0,0,1.3-1.3V46.3a1.3,1.3,0,0,0-1.3-1.3h0a1.3,1.3,0,0,0-1.3,1.3v4.987A1.3,1.3,0,0,0,1147.892,52.586Z" transform="translate(-1030.527 -32.557)" fill="#d8e4e8"/>
          <path id="Trazado_150897" data-name="Trazado 150897" d="M1144.42,78.507l3.972,1.42a5.34,5.34,0,0,0,3.6,0l3.974-1.42a3.25,3.25,0,0,1,.677-.14,2.567,2.567,0,0,0,2.217-2.542V59.917a8.626,8.626,0,0,0-8.565-8.791h-.854a7.92,7.92,0,0,0-7.92,7.92v16.78a2.568,2.568,0,0,0,2.217,2.542A3.279,3.279,0,0,1,1144.42,78.507Z" transform="translate(-1032.756 -29.864)" fill="#c9c9c9" style="mix-blend-mode: screen;isolation: isolate"/>
          <path id="Trazado_150898" data-name="Trazado 150898" d="M1141.525,60.93v10.6a2.565,2.565,0,0,0,2.217,2.541,3.378,3.378,0,0,1,.678.141l3.972,1.42a5.34,5.34,0,0,0,3.6,0l3.974-1.42a3.348,3.348,0,0,1,.677-.141,2.564,2.564,0,0,0,2.217-2.541V60.9C1154.433,60.875,1146.466,60.905,1141.525,60.93Z" transform="translate(-1032.756 -25.571)" fill="#b5edff"/>
          <rect id="Rectángulo_33980" data-name="Rectángulo 33980" width="1.031" height="3.287" transform="translate(117.954 53.425) rotate(180)" fill="#69fffc"/>
          <rect id="Rectángulo_33981" data-name="Rectángulo 33981" width="3.398" height="4.475" rx="0.433" transform="translate(119.137 55.986) rotate(180)" fill="#b9e0ed"/>
          <rect id="Rectángulo_33982" data-name="Rectángulo 33982" width="2.193" height="2.727" rx="0.271" transform="translate(118.535 57.16) rotate(180)" fill="#b9e0ed"/>
          <rect id="Rectángulo_33983" data-name="Rectángulo 33983" width="3.662" height="6.782" rx="0.657" transform="translate(116.589 87.107) rotate(-165.344)" fill="#b9e0ed"/>
        </g>
        <rect id="Rectángulo_33984" data-name="Rectángulo 33984" width="129.717" height="28.19" transform="translate(204.949 177.247) rotate(180)" fill="#343c59"/>
        <path id="Rectángulo_33985" data-name="Rectángulo 33985" d="M2.447,0H173.385A3.717,3.717,0,0,1,177.1,3.717v10.79a3.717,3.717,0,0,1-3.717,3.717H2.447A2.447,2.447,0,0,1,0,15.777V2.447A2.447,2.447,0,0,1,2.447,0Z" transform="translate(238.582 161.569) rotate(180)" fill="#5b6b8c"/>
        <rect id="Rectángulo_33986" data-name="Rectángulo 33986" width="81.567" height="16.572" rx="3.538" transform="translate(81.563 161.13) rotate(-179.456)" fill="#5b6b8c"/>
        <path id="Trazado_150899" data-name="Trazado 150899" d="M1021,160.325a3.652,3.652,0,0,1,3.141-2.214h156.472c2.1,0,3.808,2.26,3.808,5.048v13.773h-8.055v-9.014H1028.411V183.36l-8.055-6.428v-13.8h0A6.2,6.2,0,0,1,1021,160.325Z" transform="translate(-962.301 17.175)" fill="#5b6b8c"/>
        <circle id="Elipse_4258" data-name="Elipse 4258" cx="10.066" cy="10.066" r="10.066" transform="translate(208.186 190.535)" fill="#313338"/>
        <path id="Trazado_150900" data-name="Trazado 150900" d="M1127.945,177.314a5.3,5.3,0,1,0,5.3-5.3A5.3,5.3,0,0,0,1127.945,177.314Z" transform="translate(-914.996 23.287)" fill="#5b6b8c"/>
        <circle id="Elipse_4259" data-name="Elipse 4259" cx="10.066" cy="10.066" r="10.066" transform="translate(51.944 190.535)" fill="#313338"/>
        <path id="Trazado_150901" data-name="Trazado 150901" d="M1019.42,177.314a5.3,5.3,0,1,0,5.3-5.3A5.3,5.3,0,0,0,1019.42,177.314Z" transform="translate(-962.712 23.287)" fill="#5b6b8c"/>
        <path id="Trazado_150902" data-name="Trazado 150902" d="M1041.208,157.92c2.126,1.493,2.571,1.807,2.806,2.779.253,1.048.348,1.627,1.222,2.194.959.622,1.382.744,3.208.118a6.08,6.08,0,0,0,2.161-1.273,1.873,1.873,0,0,0,.639-.9c.081-.623.688-1.326.009-2.453a6.782,6.782,0,0,0-4.149-2.3c-.878-.046-2.4-1.375-3.528-2.278C1042.769,153.163,1040.576,157.477,1041.208,157.92Z" transform="translate(-953.182 15.254)" fill="#f5ce9d"/>
        <path id="Trazado_150903" data-name="Trazado 150903" d="M1050.426,170.213c-4.836-3.408-12.066-9.8-13.857-12.014-2.84-3.513-14.392-20.829-14.78-22.183s-.279-6.718,2.486-6.713a7.289,7.289,0,0,1,4.3,2.219c1.618,1.552,3.042,2.92,6.483,11.178,2.491,5.147,5.281,10.77,5.988,11.457,0,0,7.944,7.083,13.064,11.139a.6.6,0,0,1,.142.772l-2.964,3.963A.6.6,0,0,1,1050.426,170.213Z" transform="translate(-961.743 4.509)" fill="#b5edff"/>
        <path id="Trazado_150904" data-name="Trazado 150904" d="M1171.563,131.422c-22.489-8.373-25.576-8.619-41.126-12.868-15.906-4.346-34.749-4.417-52.8-4.417-24.275,0-47.54,2.673-57.55,14.9-3.735,4.564-3.881,13.759,9.467,23.524,22.3-11.235,81.22-.777,113.739-3.555,31.814-2.718,50.5,17,50.5,17s5.066-16.15.516-21.385C1189.64,139.255,1185.66,136.671,1171.563,131.422Z" transform="translate(-963.377 -2.159)" fill="#a1d2e3"/>
        <path id="Trazado_150905" data-name="Trazado 150905" d="M1053.811,124.742h76a7.416,7.416,0,0,1,7.416,7.416v13.035h-4.46V134.768a5.857,5.857,0,0,0-5.855-5.857h-70.684a5.369,5.369,0,0,0-5.369,5.369v10.8l-4.46.109V132.158A7.416,7.416,0,0,1,1053.811,124.742Z" transform="translate(-950.852 2.504)" fill="#5b6b8c"/>
      </g>
      <path id="Trazado_150906" data-name="Trazado 150906" d="M1035.49,87.583c2.164-.825,3.056-1.507,3.352-.5s-.861,3.76-1.922,4.215-4.784-1.551-4.81-2.685C1032.092,87.849,1034.172,88.085,1035.49,87.583Z" transform="translate(-957.133 -14.276)" fill="#f5ce9d"/>
    </g>
  </g>
</svg>
