<svg xmlns="http://www.w3.org/2000/svg" width="435.173" height="183.53" viewBox="0 0 435.173 183.53">
  <g id="Grupo_106732" data-name="Grupo 106732" transform="translate(-215.875 -267.134)">
    <rect id="Rectángulo_33993" data-name="Rectángulo 33993" width="105.76" height="83.97" transform="translate(440.398 288.774)" fill="#241b1b"/>
    <path id="Trazado_150919" data-name="Trazado 150919" d="M351.5,351.086c-7.445-14.013.641-22.562,11.354-39.477s6.677-28.354,6.677-28.354,2.264,5.942,4.171,22.177,7.628,34.659,12.123,26.449-5.312-20.7-3.678-29.759,10.352-7.553,10.352-7.553-9.093,5.969-2.775,14.286,16.464,34.752,16.464,34.752-1.567-21.043-8.1-31.708,1.695-24.926,12.591-30.861,13.709-3.446,15.6-.993,2.412-7.852-3.158,11.249,3.975,28.737,7.653,39.768,10.992-1.109,11.829-11.587,9.009-6.432,9.009-3.551,6.129,30.259-3.268,42.108,11.5,9.807-23.056,8.173S358.447,364.163,351.5,351.086Z" transform="translate(103.555 7.988)" fill="#c22828" style="mix-blend-mode: screen;isolation: isolate"/>
    <path id="Trazado_150920" data-name="Trazado 150920" d="M372.6,357.2c-13.077-8.431-23.115-10.868-20.343-27.016s-3.866-37.4-9.946-41.483c20.073,4.771,21.314,17.531,21.1,29.4s16.543,8.741,14.311-2.158S363.61,288.7,363.61,288.7s34.312-19.811,35.947,3.737,9.547,8.406,8.456-1.342-13.825-12.2-13.825-12.2,41.91-1.848,29.162,31.765,7.276,11.363,7.071-5.5S456.8,283.99,456.8,283.99s-6.264,73.28-47.412,80.945C383.187,369.815,372.6,357.2,372.6,357.2Z" transform="translate(98.638 9.159)" fill="#801111" style="mix-blend-mode: screen;isolation: isolate"/>
    <path id="Trazado_150921" data-name="Trazado 150921" d="M366.583,341.719c-17.262-12.8-26.524-22.065-22.984-41.679s4.288-20.977,4.288-20.977,17.506,13.349,13.146,31.056,18.108,32.075,12.991,15.562-12.174-13.928-8.632-28.367,6.464-20.158,6.464-20.158,15.329,21.52,13.422,40.863,6.537,24.244,6.537,11.169-2.528-25.328,7.318-37.727,18.289-12.943,18.289-12.943-21.218,23.03-11.834,39.982,16.452,16.833,14.825,1.365-6.531-19.008-6.531-19.008,16.073-2.181,16.345,17.979-26.191,31.544-12.8,33.234,22.067-24.926,22.067-24.926,10.624,11.85,2.179,23.019-7.9,11.842-32.691,13.549S366.583,341.719,366.583,341.719Z" transform="translate(99.06 7.819)" fill="#8a1d1d" style="mix-blend-mode: screen;isolation: isolate"/>
    <path id="Trazado_150922" data-name="Trazado 150922" d="M362.521,345.048c-9.246-27.427-2.369-41.917-3.721-46.177s17.912,12.041,15.575,23.785,13.429,26.22,15.064,15.188-6.264-22.515,1.771-31.893,9.125-9.54,7.968-15.793c5.38,10.5,6.606,11.9,3.746,22.64s-6.809,29.241,1.5,32.251,13.41-5.842,13.855-21.1,10-22.312,10-22.312-7.186,15.352-2.065,25.99,8.73,22.875-8.915,25.944S366.2,355.958,362.521,345.048Z" transform="translate(110.565 17.961)" fill="#6e4b09" style="mix-blend-mode: screen;isolation: isolate"/>
    <rect id="Rectángulo_33994" data-name="Rectángulo 33994" width="105.76" height="32.149" transform="translate(440.398 267.134)" fill="#787878"/>
    <rect id="Rectángulo_33995" data-name="Rectángulo 33995" width="28.88" height="102.491" transform="translate(544.524 268.768) rotate(90)" fill="#a6a6a6"/>
    <rect id="Rectángulo_33996" data-name="Rectángulo 33996" width="105.76" height="75.717" transform="translate(440.398 371.532)" fill="#787878"/>
    <rect id="Rectángulo_33997" data-name="Rectángulo 33997" width="72.448" height="102.491" transform="translate(544.524 373.167) rotate(90)" fill="#a6a6a6"/>
    <rect id="Rectángulo_33998" data-name="Rectángulo 33998" width="105.76" height="180.115" transform="translate(545.288 267.134)" fill="#787878"/>
    <rect id="Rectángulo_33999" data-name="Rectángulo 33999" width="176.846" height="102.491" transform="translate(649.414 268.768) rotate(90)" fill="#a6a6a6"/>
    <rect id="Rectángulo_34000" data-name="Rectángulo 34000" width="105.76" height="180.115" transform="translate(335.236 267.134)" fill="#787878"/>
    <rect id="Rectángulo_34001" data-name="Rectángulo 34001" width="176.846" height="102.491" transform="translate(439.362 268.768) rotate(90)" fill="#a6a6a6"/>
    <path id="Trazado_150923" data-name="Trazado 150923" d="M350.535,297.06l-25.782,11.251v3.307H266.046v-3.307l21.357-11.2Z" transform="translate(39.14 23.347)" fill="#b07768"/>
    <rect id="Rectángulo_34002" data-name="Rectángulo 34002" width="39.874" height="60.79" transform="translate(305.186 371.532) rotate(-90)" fill="#a16d5f"/>
    <path id="Trazado_150924" data-name="Trazado 150924" d="M446.572,297.12l23.638,11.191v4.737H306.239v-4.737L289.777,297.06Z" transform="translate(57.654 23.347)" fill="#946458"/>
    <rect id="Rectángulo_34003" data-name="Rectángulo 34003" width="39.874" height="163.971" transform="translate(363.893 371.532) rotate(-90)" fill="#855a4f"/>
    <rect id="Rectángulo_34004" data-name="Rectángulo 34004" width="3.108" height="71.543" transform="translate(305.029 375.706)" fill="#4f4f4f"/>
    <path id="Trazado_150925" data-name="Trazado 150925" d="M272.183,369.74a3.721,3.721,0,1,1-3.721-3.722A3.721,3.721,0,0,1,272.183,369.74Z" transform="translate(38.121 77.144)" fill="#333"/>
    <path id="Trazado_150926" data-name="Trazado 150926" d="M267.745,371.11a2.087,2.087,0,1,1,2.086-2.086A2.088,2.088,0,0,1,267.745,371.11Z" transform="translate(38.838 77.86)" fill="#4f4f4f"/>
    <rect id="Rectángulo_34005" data-name="Rectángulo 34005" width="3.107" height="71.543" transform="translate(467.811 375.706)" fill="#4f4f4f"/>
    <circle id="Elipse_4262" data-name="Elipse 4262" cx="3.721" cy="3.721" r="3.721" transform="translate(465.585 450.544) rotate(-89.076)" fill="#333"/>
    <path id="Trazado_150927" data-name="Trazado 150927" d="M359.188,371.11a2.087,2.087,0,1,1,2.086-2.086A2.088,2.088,0,0,1,359.188,371.11Z" transform="translate(110.177 77.86)" fill="#4f4f4f"/>
    <rect id="Rectángulo_34006" data-name="Rectángulo 34006" width="83.366" height="8.348" transform="translate(289.564 371.532)" fill="gray"/>
    <rect id="Rectángulo_34007" data-name="Rectángulo 34007" width="196.678" height="8.348" transform="translate(348.61 371.532)" fill="#636363"/>
    <rect id="Rectángulo_34008" data-name="Rectángulo 34008" width="3.108" height="71.543" transform="translate(360.786 375.706)" fill="#636363"/>
    <rect id="Rectángulo_34009" data-name="Rectángulo 34009" width="3.108" height="71.543" transform="translate(523.568 375.706)" fill="#636363"/>
    <path id="Trazado_150928" data-name="Trazado 150928" d="M303.5,369.74a3.721,3.721,0,1,1-3.721-3.722A3.721,3.721,0,0,1,303.5,369.74Z" transform="translate(62.557 77.144)" fill="#333"/>
    <path id="Trazado_150929" data-name="Trazado 150929" d="M299.066,371.11a2.087,2.087,0,1,1,2.086-2.086A2.088,2.088,0,0,1,299.066,371.11Z" transform="translate(63.273 77.86)" fill="#636363"/>
    <path id="Trazado_150930" data-name="Trazado 150930" d="M394.946,369.74a3.72,3.72,0,1,1-3.721-3.722A3.721,3.721,0,0,1,394.946,369.74Z" transform="translate(133.896 77.144)" fill="#333"/>
    <path id="Trazado_150931" data-name="Trazado 150931" d="M390.509,371.11a2.087,2.087,0,1,1,2.086-2.086A2.088,2.088,0,0,1,390.509,371.11Z" transform="translate(134.613 77.86)" fill="#636363"/>
    <path id="Trazado_150932" data-name="Trazado 150932" d="M346.573,283.728a1.636,1.636,0,1,1-1.636-1.638A1.636,1.636,0,0,1,346.573,283.728Z" transform="translate(99.411 11.668)" fill="#616161"/>
    <circle id="Elipse_4263" data-name="Elipse 4263" cx="1.636" cy="1.636" r="1.636" transform="translate(540.27 293.758)" fill="#616161"/>
    <path id="Trazado_150933" data-name="Trazado 150933" d="M346.573,332.735a1.636,1.636,0,1,1-1.636-1.636A1.635,1.635,0,0,1,346.573,332.735Z" transform="translate(99.411 49.902)" fill="#616161"/>
    <circle id="Elipse_4264" data-name="Elipse 4264" cx="1.636" cy="1.636" r="1.636" transform="translate(540.27 381.001)" fill="#616161"/>
    <path id="Trazado_150934" data-name="Trazado 150934" d="M346.573,366.735a1.636,1.636,0,1,1-1.636-1.636A1.636,1.636,0,0,1,346.573,366.735Z" transform="translate(99.411 76.427)" fill="#616161"/>
    <circle id="Elipse_4265" data-name="Elipse 4265" cx="1.636" cy="1.636" r="1.636" transform="translate(540.261 444.791) rotate(-89.711)" fill="#616161"/>
    <path id="Trazado_150935" data-name="Trazado 150935" d="M405.582,366.735a1.637,1.637,0,1,1-1.638-1.636A1.638,1.638,0,0,1,405.582,366.735Z" transform="translate(145.445 76.427)" fill="#616161"/>
    <circle id="Elipse_4266" data-name="Elipse 4266" cx="1.636" cy="1.636" r="1.636" transform="translate(645.303 444.791) rotate(-89.711)" fill="#616161"/>
    <circle id="Elipse_4267" data-name="Elipse 4267" cx="1.636" cy="1.636" r="1.636" transform="translate(337.692 444.791) rotate(-89.711)" fill="#616161"/>
    <path id="Trazado_150936" data-name="Trazado 150936" d="M342.388,366.735a1.637,1.637,0,1,1-1.636-1.636A1.638,1.638,0,0,1,342.388,366.735Z" transform="translate(96.144 76.427)" fill="#616161"/>
    <path id="Trazado_150937" data-name="Trazado 150937" d="M287.583,270.529a1.636,1.636,0,1,1-1.636-1.636A1.635,1.635,0,0,1,287.583,270.529Z" transform="translate(53.39 1.372)" fill="#616161"/>
    <path id="Trazado_150938" data-name="Trazado 150938" d="M342.388,270.529a1.637,1.637,0,1,1-1.636-1.636A1.636,1.636,0,0,1,342.388,270.529Z" transform="translate(96.144 1.372)" fill="#616161"/>
    <path id="Trazado_150939" data-name="Trazado 150939" d="M405.582,270.529a1.637,1.637,0,1,1-1.638-1.636A1.636,1.636,0,0,1,405.582,270.529Z" transform="translate(145.445 1.372)" fill="#616161"/>
    <path id="Trazado_150940" data-name="Trazado 150940" d="M460.385,270.529a1.637,1.637,0,1,1-1.636-1.636A1.636,1.636,0,0,1,460.385,270.529Z" transform="translate(188.199 1.372)" fill="#616161"/>
    <path id="Trazado_150941" data-name="Trazado 150941" d="M346.658,270.529a1.636,1.636,0,1,1-1.636-1.636A1.635,1.635,0,0,1,346.658,270.529Z" transform="translate(99.477 1.372)" fill="#616161"/>
    <path id="Trazado_150942" data-name="Trazado 150942" d="M401.463,270.529a1.637,1.637,0,1,1-1.636-1.636A1.636,1.636,0,0,1,401.463,270.529Z" transform="translate(142.231 1.372)" fill="#616161"/>
    <rect id="Rectángulo_34010" data-name="Rectángulo 34010" width="45.221" height="10.544" rx="0.657" transform="translate(575.558 306.298)" fill="#4a4a4a"/>
    <g id="Grupo_106718" data-name="Grupo 106718" transform="translate(579.746 320.407)">
      <rect id="Rectángulo_34011" data-name="Rectángulo 34011" width="10.271" height="4.751" rx="0.443" transform="translate(0 0.001)" fill="#d1d1d1"/>
      <rect id="Rectángulo_34012" data-name="Rectángulo 34012" width="10.271" height="4.751" rx="0.443" transform="translate(13.974 0.001)" fill="#d1d1d1"/>
      <rect id="Rectángulo_34013" data-name="Rectángulo 34013" width="10.271" height="4.75" rx="0.443" transform="translate(0 6.501)" fill="#d1d1d1"/>
      <rect id="Rectángulo_34014" data-name="Rectángulo 34014" width="10.271" height="4.75" rx="0.443" transform="translate(13.974 6.501)" fill="#d1d1d1"/>
      <path id="Trazado_150943" data-name="Trazado 150943" d="M442.279,301.811h-3.639a2.376,2.376,0,0,1-2.376-2.375h0a2.377,2.377,0,0,1,2.376-2.376h3.639a2.377,2.377,0,0,1,2.376,2.376h0A2.376,2.376,0,0,1,442.279,301.811Z" transform="translate(-407.811 -297.06)" fill="#bf4545"/>
      <path id="Trazado_150944" data-name="Trazado 150944" d="M442.279,305.461h-3.639a2.376,2.376,0,0,1-2.376-2.375h0a2.376,2.376,0,0,1,2.376-2.375h3.639a2.376,2.376,0,0,1,2.376,2.375h0A2.376,2.376,0,0,1,442.279,305.461Z" transform="translate(-407.811 -294.211)" fill="#8dd17f"/>
    </g>
    <g id="Grupo_106731" data-name="Grupo 106731" transform="translate(215.876 282.73)">
      <g id="Grupo_106727" data-name="Grupo 106727">
        <g id="Grupo_106721" data-name="Grupo 106721" transform="translate(0 45.197)">
          <path id="Trazado_150945" data-name="Trazado 150945" d="M225.963,325.485c4.044-.02,5.328.972,5.364,3.08a4.189,4.189,0,0,1-2.1,4.1c-1.764,1.285-5.239-2.442-5.335-3.251S224.75,325.492,225.963,325.485Z" transform="translate(-209.629 -282.405)" fill="#f5ce9d"/>
          <g id="Grupo_106719" data-name="Grupo 106719" transform="translate(0 0.848)">
            <path id="Trazado_150946" data-name="Trazado 150946" d="M229.913,348.4c-6.752-4.493-11.172-12.169-12.878-20.789-1.191-6.022-1.572-10.393-.634-21.467.142-1.686,1.1-3.9,2.8-4.379h0c1.956,0,4.052,3.021,3.975,4.691-.815,17.5.091,27.064,9.773,37.28C233.66,344.2,230.623,348.867,229.913,348.4Z" transform="translate(-215.875 -301.761)" fill="#363636"/>
          </g>
          <path id="Trazado_150947" data-name="Trazado 150947" d="M252.11,313.6c2.8-2.916,4.406-3.149,5.944-1.707a4.189,4.189,0,0,1,1.478,4.361c-.306,2.163-5.4,2.061-6.047,1.568S251.271,314.478,252.11,313.6Z" transform="translate(-187.796 -293.678)" fill="#f5ce9d"/>
          <g id="Grupo_106720" data-name="Grupo 106720" transform="translate(28.182)">
            <path id="Trazado_150948" data-name="Trazado 150948" d="M269.4,325.923c-8.723,1.241-16.473.618-21.691-2.626-4.762-2.959-9.428-8.461-14.871-16.474-1.118-1.647-1.494-3.377-.733-4.456l.917-.6c1.372-.883,5.072-.445,5.823.361,7.22,7.758,12.173,19.354,29.323,18.364C269,320.317,270.233,325.743,269.4,325.923Z" transform="translate(-231.707 -301.285)" fill="#363636"/>
          </g>
        </g>
        <path id="Rectángulo_34015" data-name="Rectángulo 34015" d="M.68,0H13.863a.571.571,0,0,1,.571.571V6.118a.68.68,0,0,1-.68.68H3.016A3.016,3.016,0,0,1,0,3.781V.68A.68.68,0,0,1,.68,0Z" transform="translate(40.94 165.871) rotate(180)" fill="#664f4a"/>
        <path id="Trazado_150949" data-name="Trazado 150949" d="M244.919,347.985H223.939s1.155-12.8-.52-21.372c-1.965-10.056-5.412-23.687-5.412-23.687,4.239-2.165,28.189-2.7,30.882-.356,0,0-1.725,13.209-3.681,23.395C243.578,334.454,244.919,347.985,244.919,347.985Z" transform="translate(-214.212 -256.278)" fill="#fff"/>
        <path id="Trazado_150950" data-name="Trazado 150950" d="M228.061,302.516c-2.051,2.855-2.108,3.29-1.8,3.863.757,1.4,1.545,2.579,1.545,2.579s-1.535,20.669-2.131,25.136a72.049,72.049,0,0,0,3.471,6.781,49.991,49.991,0,0,0,3.081-6.777c-.36-2.056-2.788-24.509-2.756-25.132.009-.183,1.107-1.873,1.6-2.823.279-.543-.356-1.346-1.148-2.526C228.9,302.085,228.443,301.984,228.061,302.516Z" transform="translate(-208.229 -255.355)" fill="#363636"/>
        <g id="Grupo_106722" data-name="Grupo 106722" transform="translate(9.777 97.691)">
          <path id="Trazado_150951" data-name="Trazado 150951" d="M228.967,392.282l.522-61.509h-8.121l.493,61.638C221.861,394.182,228.967,394.055,228.967,392.282Z" transform="translate(-221.368 -330.773)" fill="#292929"/>
        </g>
        <g id="Grupo_106723" data-name="Grupo 106723" transform="translate(22.662 99.941)">
          <path id="Trazado_150952" data-name="Trazado 150952" d="M239.153,391.846c3.37-22.473,3.3-34.951-2.725-59.809l-7.822,2.188c5.75,23.74,6.49,36.628,3.6,57.39C231.969,392.386,238.917,392.615,239.153,391.846Z" transform="translate(-228.606 -332.037)" fill="#292929"/>
        </g>
        <path id="Trazado_150953" data-name="Trazado 150953" d="M242.319,336.375c0,2.88-20.979,2.88-20.979,0v-8.963h20.979Z" transform="translate(-211.612 -235.704)" fill="#292929"/>
        <path id="Rectángulo_34016" data-name="Rectángulo 34016" d="M.571,0H8.255a.571.571,0,0,1,.571.571V4.98A2.244,2.244,0,0,1,6.583,7.223H2.244A2.244,2.244,0,0,1,0,4.98V.571A.571.571,0,0,1,.571,0Z" transform="translate(18.056 165.944) rotate(180)" fill="#664f4a"/>
        <path id="Trazado_150954" data-name="Trazado 150954" d="M225.733,297.475c.338,1.682.438,5.949-.376,6.96,1.05,1.586,6.131,1.611,7.555-.046a12.771,12.771,0,0,1-.24-6.914C232.718,297.335,225.733,297.475,225.733,297.475Z" transform="translate(-208.479 -259.108)" fill="#e3bf91"/>
        <path id="Trazado_150955" data-name="Trazado 150955" d="M232.146,300.742a10.288,10.288,0,0,1,.361-3.267c.046-.141-6.939,0-6.939,0a18.531,18.531,0,0,1,.247,3.372A11.868,11.868,0,0,0,232.146,300.742Z" transform="translate(-208.314 -259.108)" fill="#d9d9d9" style="mix-blend-mode: multiply;isolation: isolate"/>
        <g id="Grupo_106724" data-name="Grupo 106724" transform="translate(3.074 44.578)">
          <path id="Trazado_150956" data-name="Trazado 150956" d="M229.39,301.322c-.061-.317-.3-.246-.623-.228-4.915.263-9.3.472-10.912,1.2a.574.574,0,0,0-.237.653c.315,1.709,3.541,14.291,5.36,23.594,1.641,8.4.927,20.571-.413,29.508-.032.208,3.329.506,6.969.668,1.586-4.607,3.993-13.095,3.947-20.4C233.481,334.835,230.408,306.608,229.39,301.322Z" transform="translate(-217.602 -300.829)" fill="#404040"/>
          <path id="Trazado_150957" data-name="Trazado 150957" d="M242.1,302.4c.169-1.638-5.527-1.367-9.7-1.467a.7.7,0,0,0-.691.584c-1.013,7.01-4.274,31.607-4.182,34.786,1.155,13.07,1.383,15.971,2.382,20.573,4.833.039,9.273-.176,9.275-.554-.167-1.663-3.22-22.108-1.166-30.327A136.742,136.742,0,0,0,242.1,302.4Z" transform="translate(-209.859 -300.937)" fill="#404040"/>
          <path id="Trazado_150958" data-name="Trazado 150958" d="M222.544,316.247l4.272.972-3.131,2.031,5.826,15.562c-.491-5.364-2.442-23.069-3.539-30.74-.171-1.189-.319-2.136-.438-2.75-.061-.317-.3-.246-.623-.228l-.482.025Z" transform="translate(-213.747 -300.829)" fill="#b3b3b3" style="mix-blend-mode: multiply;isolation: isolate"/>
          <path id="Trazado_150959" data-name="Trazado 150959" d="M232.776,319.315l-2.834-2.158,4.356-1.481s-1.454-11.162-1.652-14.732l-.294-.007h0a.7.7,0,0,0-.691.582l-.009.062-.011.08c-.176,1.223-.425,3.03-.721,5.189-1.139,8.383-2.868,21.794-3.327,27.307Z" transform="translate(-209.808 -300.937)" fill="#b3b3b3" style="mix-blend-mode: multiply;isolation: isolate"/>
        </g>
        <g id="Grupo_106726" data-name="Grupo 106726" transform="translate(5.191)">
          <g id="Grupo_106725" data-name="Grupo 106725">
            <path id="Trazado_150960" data-name="Trazado 150960" d="M241.464,314.412a31.637,31.637,0,0,0,3.984-5.6c1.091-2.047,3.818-6.825,2.8-6.07s2.113-5.769,1.312-5.526.787-7.765.132-7.277-2.207-7.825-2.437-6.768-4.545-6.1-4.545-4.7-7.137-3.553-6.51-2.4-6.887-.607-5.8.45-7.288,1.732-5.759,2.222S219.7,281.1,221.82,281.1s-2.777,5.157-2.093,4.717-1.057,3.943-.652,3.822-.744,5.125-.062,4.637.03,5.381.83,4.479.58,3.242,1.5,5.082C227.974,317.136,241.464,314.412,241.464,314.412Z" transform="translate(-218.792 -275.895)" fill="#5c3022"/>
            <path id="Trazado_150961" data-name="Trazado 150961" d="M234.174,291.044c1.287-1.778,3.3-.977,2.624,1.757-.687,2.775-4.02,2.656-4.02,2.261S234.174,291.044,234.174,291.044Z" transform="translate(-207.88 -264.816)" fill="#d1b086"/>
            <path id="Trazado_150962" data-name="Trazado 150962" d="M222.412,290.683c-1.287-1.778-3.3-.975-2.622,1.757.687,2.775,4.018,2.658,4.018,2.263S222.412,290.683,222.412,290.683Z" transform="translate(-218.119 -265.097)" fill="#d1b086"/>
            <path id="Trazado_150963" data-name="Trazado 150963" d="M220.58,291.247c.027,5.816,1.419,16.52,3.5,20.292,2.013,3.656,16.162,4.433,18.376,0s3.384-19.412,2.328-24.053-4.269-8.511-10.912-8.616S220.52,279.025,220.58,291.247Z" transform="translate(-217.397 -273.581)" fill="#f5ce9d"/>
            <path id="Rectángulo_34017" data-name="Rectángulo 34017" d="M.233,0H7.059a.232.232,0,0,1,.232.232V1.789a.233.233,0,0,1-.233.233H.232A.232.232,0,0,1,0,1.789V.233A.233.233,0,0,1,.233,0Z" transform="matrix(-0.892, 0.453, -0.453, -0.892, 15.013, 21.41)" fill="#704234"/>
            <rect id="Rectángulo_34018" data-name="Rectángulo 34018" width="7.291" height="2.022" rx="0.232" transform="matrix(0.892, 0.453, -0.453, 0.892, 20.936, 19.607)" fill="#704234"/>
            <path id="Trazado_150964" data-name="Trazado 150964" d="M227.844,293.056c.034,1.348-.63,2.457-1.485,2.478s-1.57-1.052-1.6-2.4.63-2.457,1.483-2.478S227.81,291.71,227.844,293.056Z" transform="translate(-214.14 -264.38)" fill="#5c392a"/>
            <path id="Trazado_150965" data-name="Trazado 150965" d="M234.163,293.056c.034,1.348-.63,2.457-1.483,2.478s-1.572-1.052-1.606-2.4.632-2.457,1.485-2.478S234.131,291.71,234.163,293.056Z" transform="translate(-209.21 -264.38)" fill="#5c392a"/>
            <path id="Trazado_150966" data-name="Trazado 150966" d="M231.721,296.889c0-.354-.356-.468-2.177-.468-1.7,0-2.166.1-2.166.481,0,.326.9.19,2.158.166C230.871,297.041,231.721,297.229,231.721,296.889Z" transform="translate(-212.094 -259.882)" fill="#fff"/>
            <path id="Trazado_150967" data-name="Trazado 150967" d="M230.81,287.939c-4.582,1.225-8.085,4.755-9.358,11.849-1.686-2.553-2.535-12.529,1.138-17.355,3.58-4.7,9.86-5.785,14.3-4.99s6.854,3.811,9.469,9.1c1.522,3.074,1.2,9.259-.945,12.835C245.032,287.939,237.415,286.447,230.81,287.939Z" transform="translate(-217.841 -274.873)" fill="#5c3022"/>
          </g>
        </g>
      </g>
      <g id="Grupo_106730" data-name="Grupo 106730" transform="translate(31.753 3.019)">
        <path id="Trazado_150968" data-name="Trazado 150968" d="M259.808,329.055a2.161,2.161,0,0,1-2.563-1.031c-1.141-2.117-1.478-2.928-3.439-6.48s-6.054-10.745-6.156-12.281a21.312,21.312,0,0,1,3.966-5.933s1.246.146,6.967,15.63v0c.915,2.138,1.837,4.36,2.708,6.606A2.492,2.492,0,0,1,259.808,329.055Z" transform="translate(-222.84 -257.511)" fill="#3b3b3b"/>
        <path id="Trazado_150969" data-name="Trazado 150969" d="M257.437,304.627a10.4,10.4,0,1,1-8.358-12.1A10.4,10.4,0,0,1,257.437,304.627Z" transform="translate(-231.295 -266.071)" fill="#9c523b"/>
        <path id="Trazado_150970" data-name="Trazado 150970" d="M250.9,365.733s.637.426,3.081,2,3.808,3.181,3.291,3.436c-1.091.539-5.889-.749-7.861-1.351s-1.508-3.03-1.066-3.6S250.9,365.733,250.9,365.733Z" transform="translate(-222.599 -208.832)" fill="#454545"/>
        <path id="Trazado_150971" data-name="Trazado 150971" d="M244.168,366.029s.753.57,2.971,2.448,3.188,3.583,2.644,3.769c-1.152.393-5.741-1.506-7.619-2.36s-1.1-3.2-.589-3.712S244.168,366.029,244.168,366.029Z" transform="translate(-228.05 -208.696)" fill="#454545"/>
        <path id="Trazado_150972" data-name="Trazado 150972" d="M249.759,302.155c-3.843-.08-10.927,2.587-11.083,2.827-1.908,2.905,1.679,13.777,4.411,25.645.315,1.378-.361,1.308-1.5,2.989-2.238,3.292,15.7,4.712,15.092.212-.5-3.71.539-6.978,4.265-13.915,3.183-5.923-.5-9.86-1.693-15.48C259.119,303.821,253.5,302.235,249.759,302.155Z" transform="translate(-230.259 -258.429)" fill="#454545"/>
        <path id="Trazado_150973" data-name="Trazado 150973" d="M244.936,297.76c-.069,2.138-.89,7-1.782,8.032.55,1.971,4.785,3.056,6.325,1.383-.025-1.175.785-6.733,1.723-7.913S244.936,297.76,244.936,297.76Z" transform="translate(-226.347 -261.857)" fill="#f5ce9d"/>
        <path id="Trazado_150974" data-name="Trazado 150974" d="M249.608,298.41l.1.021c.742.212,1.173.484.9.831a10.06,10.06,0,0,0-1.1,3.329,7.123,7.123,0,0,1-2.348,0,9.762,9.762,0,0,1-3.238-1.284,28.342,28.342,0,0,0,.418-3.551s.253.011.657.037c.719.087,1.624.2,2.489.3C248.2,298.191,248.933,298.3,249.608,298.41Z" transform="translate(-225.749 -261.857)" fill="#d6d6d6" style="mix-blend-mode: multiply;isolation: isolate"/>
        <path id="Trazado_150975" data-name="Trazado 150975" d="M254.531,292.2c1.837-.986,4.066.23,2.407,2.77-1.4,2.145-6.357,1.574-6.291,1.159S254.531,292.2,254.531,292.2Z" transform="translate(-220.502 -266.463)" fill="#d1b086"/>
        <path id="Trazado_150976" data-name="Trazado 150976" d="M242.926,291.7c-1-2.159-2.451-3.87-3.58-2.092s-.13,5.162,2.522,5.579S242.926,291.7,242.926,291.7Z" transform="translate(-229.676 -268.791)" fill="#d1b086"/>
        <path id="Trazado_150977" data-name="Trazado 150977" d="M241.672,288.38c-1.145,6.065-2.531,14.985,1.207,21.654,1.51,2.693,4.166,5.077,7.055,5.593,2.757.493,5.978-1.121,7.858-2.868,7.436-6.907,8.97-18.038,8.628-23.078s-4.093-7.872-9.038-9.342C250.623,278.328,243.283,279.832,241.672,288.38Z" transform="translate(-228.461 -276.067)" fill="#f5ce9d"/>
        <path id="Trazado_150978" data-name="Trazado 150978" d="M247.457,293.071c-.217,1.385-1.009,2.412-1.769,2.293s-1.2-1.339-.981-2.725,1.009-2.412,1.769-2.291S247.674,291.686,247.457,293.071Z" transform="translate(-225.18 -267.647)" fill="#6e4034"/>
        <path id="Trazado_150979" data-name="Trazado 150979" d="M253,294.284c-.219,1.385-1.011,2.412-1.769,2.293s-1.2-1.339-.983-2.724,1.009-2.412,1.769-2.293S253.219,292.9,253,294.284Z" transform="translate(-220.855 -266.701)" fill="#6e4034"/>
        <path id="Trazado_150980" data-name="Trazado 150980" d="M255.285,293.444a7.388,7.388,0,0,0-1.684-2.864,5.042,5.042,0,0,0-2.786-1.62C253.5,287.958,255.084,290.131,255.285,293.444Z" transform="translate(-220.37 -268.914)" fill="#824431"/>
        <path id="Trazado_150981" data-name="Trazado 150981" d="M244.045,290.558a13.628,13.628,0,0,1,2.934-1.686,6.39,6.39,0,0,1,3.04-.474C247.612,286.992,245.462,288.057,244.045,290.558Z" transform="translate(-225.652 -269.649)" fill="#824431"/>
        <path id="Trazado_150982" data-name="Trazado 150982" d="M245.649,297.2c.034-.174.673-.758,2.031-.427,1.02.249,1.138.951,1.091,1.166-.021.1-.573-.144-1.34-.351C245.9,297.175,245.625,297.312,245.649,297.2Z" transform="translate(-224.402 -262.706)" fill="#bd4d4d"/>
        <path id="Trazado_150983" data-name="Trazado 150983" d="M240.6,298.671c.618-4.853,6.14-3.884,8.032-13.748,2.382,9.577,13.1,3.252,16.121,18.364,3.55-6.492,5.542-14.811,1.828-20.11-4.525-6.462-15.489-7.559-19.817-2.021C242.091,282.36,239.3,288.2,240.6,298.671Z" transform="translate(-228.59 -277.591)" fill="#9c523b"/>
        <path id="Trazado_150984" data-name="Trazado 150984" d="M241.65,311.176s3.039,3.359,7.322,2.22C245.387,315.336,243.273,313.825,241.65,311.176Z" transform="translate(-227.52 -251.39)" fill="#d6d6d6" style="mix-blend-mode: multiply;isolation: isolate"/>
        <path id="Trazado_150985" data-name="Trazado 150985" d="M262.335,343.783h0v0c-.005-.151-.021-.313-.041-.482-1.138-13.554-3.874-18.382-3.961-23.557-3.753,1.337-11.477-.741-13.664-1.408-1.093,3.993-7.032,9.157-8.507,17.965-1.944,11.591,5.78,26.1,7.316,29.971a2.986,2.986,0,0,1,.071,1.953c-2.772,9.5.862,20.956,1.962,34.823.025,1,2.439.8,2.6.144.792-15.571,1.413-28.7.333-35.334a2.746,2.746,0,0,1,.1-1.316c1.1-3.347.08-13.175.158-23.121l1.663.164,5.358,23.662a2.864,2.864,0,0,1-.044,1.456c-1.921,6.428-.812,20.813,2.118,34.49,1.184.6,2.693.041,2.555-.481l.475-32.639a2.918,2.918,0,0,1,.392-1.449C262.814,365.837,262.68,355.567,262.335,343.783Z" transform="translate(-232.045 -245.807)" fill="#f5ce9d"/>
        <path id="Trazado_150986" data-name="Trazado 150986" d="M236.243,332.918c-1.7,4.125-.374,14.572,1.287,23.852,2.109,11.774,3.064,16.372,1.661,33.221-.08.975,23.738.009,23.672-.974-1.34-20.253,1.769-30.076-.121-48.16a134.74,134.74,0,0,0-3.322-17.794c-.353-2.092-.545-3.939-.782-3.82s-5.956,1.294-13.456-1.095C244.649,318.084,238.612,327.163,236.243,332.918Z" transform="translate(-232.355 -245.951)" fill="#292929"/>
        <path id="Trazado_150987" data-name="Trazado 150987" d="M240.888,324.183a20.41,20.41,0,0,1,3.024,2.478,7.632,7.632,0,0,0,2.649,2.416c1.276.644,1.554.011,2.3-.552,1.205-.9,2.131-3.01,1.259-3.95a6.836,6.836,0,0,0-3.555-1.632,10.556,10.556,0,0,1-4.525-2.133C241.152,320.166,240.306,323.724,240.888,324.183Z" transform="translate(-228.265 -243.935)" fill="#f5ce9d"/>
        <g id="Grupo_106728" data-name="Grupo 106728" transform="translate(0 68.728)">
          <path id="Trazado_150988" data-name="Trazado 150988" d="M248.294,329.646c-4.979-3.293-10.371-6.606-13.41-8.644a2.7,2.7,0,0,1-.773-3.632h0a2.562,2.562,0,0,1,3.676-.668c2.971,2.2,7.913,5.647,13.077,9.061C251.46,326.157,248.889,330.04,248.294,329.646Z" transform="translate(-233.713 -316.199)" fill="#3b3b3b"/>
        </g>
        <path id="Trazado_150989" data-name="Trazado 150989" d="M245.318,314.345c-1.721,3.591-4.069,8.158-4.311,8.635a.331.331,0,0,1-.041.057c-.838,2-1.793,4.215-2.877,6.674a2.162,2.162,0,0,1-2.474,1.23,2.491,2.491,0,0,1-1.753-3.357c.689-2.307,1.433-4.595,2.177-6.8v-.005c4.479-15.888,5.385-16.523,5.385-16.523.974-1.164,2.555-.627,3.391.675l.212.331A9.188,9.188,0,0,1,245.318,314.345Z" transform="translate(-233.713 -257.287)" fill="#3b3b3b"/>
        <path id="Trazado_150990" data-name="Trazado 150990" d="M253.655,324.112a20.583,20.583,0,0,0-2.357,3.121,7.593,7.593,0,0,1-2,2.971c-1.089.927-1.508.377-2.369.007-1.383-.595-2.779-2.424-2.152-3.544a6.841,6.841,0,0,1,3.071-2.423,10.56,10.56,0,0,0,3.9-3.138C252.453,320.269,254.112,323.53,253.655,324.112Z" transform="translate(-225.205 -243.75)" fill="#f5ce9d"/>
        <g id="Grupo_106729" data-name="Grupo 106729" transform="translate(23.541 66.723)">
          <path id="Trazado_150991" data-name="Trazado 150991" d="M250.394,331.046c4.064-4.372,8.527-8.862,11-11.557a2.708,2.708,0,0,0-.1-3.713h0a2.564,2.564,0,0,0-3.731.217c-2.368,2.839-6.36,7.35-10.576,11.884C246.5,328.4,249.91,331.568,250.394,331.046Z" transform="translate(-246.937 -315.073)" fill="#3b3b3b"/>
        </g>
      </g>
      <path id="Trazado_150992" data-name="Trazado 150992" d="M254.053,311.312c-.851.358-1.606,2.773-.579,4.707a2.919,2.919,0,0,0,4.589.694C259.151,315.565,254.053,311.312,254.053,311.312Z" transform="translate(-186.93 -248.265)" fill="#f5ce9d"/>
    </g>
  </g>
</svg>
