<svg xmlns="http://www.w3.org/2000/svg" width="509" height="359.193" viewBox="0 0 509 359.193">
  <g id="Grupo_106414" data-name="Grupo 106414" transform="translate(-92.493 -14.099)">
    <g id="Grupo_106366" data-name="Grupo 106366" transform="translate(181.587 14.099)">
      <path id="Trazado_149847" data-name="Trazado 149847" d="M543.9,193.7c0,99.182-94,179.594-209.955,179.594S124,292.881,124,193.7s94-179.6,209.952-179.6S543.9,94.5,543.9,193.7Z" transform="translate(-123.995 -14.099)" fill="#f9e4cf"/>
    </g>
    <g id="coronavirus" transform="translate(92.493 31.23)">
      <g id="Grupo_106376" data-name="Grupo 106376" transform="translate(258.937 2.751)">
        <g id="Grupo_106372" data-name="Grupo 106372" transform="translate(72.263 5.12)">
          <g id="haed" transform="translate(5.376 4.403)">
            <g id="Grupo_106370" data-name="Grupo 106370">
              <g id="Grupo_106367" data-name="Grupo 106367">
                <path id="Trazado_149848" data-name="Trazado 149848" d="M212.25,44.064c-1.134-4.551-1.267-10.122,1.638-14.082,4.565-6.242,16.307-7.489,21.791-2.022,3.634,3.623,4.644,7.916,4.505,12.981-.085,2.879.317,5.707,2.54,7.8.269.255.594.6.438.945-.139.317-.566.334-.905.419-1.063.272-1.55,1.493-1.717,2.574a44.571,44.571,0,0,1-1.406,7.746,2.42,2.42,0,0,1-.993,1.4A2.929,2.929,0,0,1,236.38,62c-2.008-.226-4-.56-5.982-.979a1.129,1.129,0,0,0-.348.215,2.906,2.906,0,0,0-.608,1.445c-.911,4.039-1.821,8.066-2.729,12.108A70.975,70.975,0,0,0,212.5,66.071a18.7,18.7,0,0,0,2.834-13.994A35.1,35.1,0,0,1,212.25,44.064Z" transform="translate(-211.5 -24.496)" fill="#ff8f67"/>
                <path id="Trazado_149849" data-name="Trazado 149849" d="M224.7,43.115a.247.247,0,0,1-.1-.02c-.283-.1-7-2.526-8.649-8.015a.3.3,0,0,1,.2-.365.291.291,0,0,1,.362.2c1.567,5.207,8.219,7.614,8.287,7.639a.292.292,0,0,1-.1.566Z" transform="translate(-203.388 -5.833)" fill="#894c4c"/>
              </g>
              <g id="Grupo_106369" data-name="Grupo 106369" transform="translate(24.137 17.094)">
                <g id="Grupo_106368" data-name="Grupo 106368">
                  <path id="Trazado_149850" data-name="Trazado 149850" d="M223.631,32.225a.784.784,0,0,1-.362.017,3.427,3.427,0,0,0-2.005.308.829.829,0,1,1-.8-1.454,5.125,5.125,0,0,1,3.1-.486.825.825,0,0,1,.662.964A.812.812,0,0,1,223.631,32.225Z" transform="translate(-220.034 -30.54)" fill="#a86060"/>
                  <path id="Trazado_149851" data-name="Trazado 149851" d="M221.926,32.56c.023.679-.221,1.247-.543,1.259s-.6-.535-.625-1.219.223-1.25.546-1.264S221.906,31.878,221.926,32.56Z" transform="translate(-218.713 -29.087)" fill="#a86060"/>
                </g>
              </g>
            </g>
            <path id="Trazado_149852" data-name="Trazado 149852" d="M220.861,35.669a.236.236,0,0,1-.15-.057.233.233,0,0,1-.028-.328,2.532,2.532,0,0,1,2.574-.656.234.234,0,1,1-.116.453,2.1,2.1,0,0,0-2.1.5A.234.234,0,0,1,220.861,35.669Z" transform="translate(-194.81 -6.157)" fill="#894c4c"/>
            <g id="Grupo_106371" data-name="Grupo 106371" transform="translate(11.792 19.613)">
              <path id="Trazado_149853" data-name="Trazado 149853" d="M217.4,32.94a.409.409,0,0,1-.082-.011l-1.434-.416a.293.293,0,0,1-.2-.359.287.287,0,0,1,.359-.2l1.437.413a.292.292,0,0,1-.079.571Z" transform="translate(-215.669 -30.495)" fill="#894c4c"/>
              <path id="Trazado_149854" data-name="Trazado 149854" d="M217.265,35.482h-.009a.29.29,0,0,1-.283-.3c.017-.747-.127-2.777-1-3.2a.291.291,0,0,1-.133-.39.294.294,0,0,1,.39-.133c1.352.667,1.326,3.425,1.318,3.739A.288.288,0,0,1,217.265,35.482Z" transform="translate(-215.402 -31.431)" fill="#894c4c"/>
            </g>
          </g>
          <path id="Trazado_149855" data-name="Trazado 149855" d="M243.243,30.133a16.873,16.873,0,0,0-7.828-6.109c-6.9-2.622-14.56-.26-20.007,4.585a18.243,18.243,0,0,0-5.082,18.321c1.343,4.237,4.3,7.495,4.429,12.04-.02.682.023,1.372.071,2.059a8.376,8.376,0,0,0,1.623-4.723c.651,1.756.181,4.644.311,6.74,1.7-.574,3.173-.863,4.5-2.212a19.745,19.745,0,0,0,2.8-4,15.74,15.74,0,0,0,1.963-7.319c.1-1.191,1.886-4.865,3.077-2.571.611,1.177-.574,4.568,1.988,4.163-.419-2.172-.58-2.938.594-4.78.605-.953,2.91-3.244,2.769-4.4.062.509.1,3.849-.616,3.982,4.777-.888,11.505-6.785,10.792-12.187A8.719,8.719,0,0,0,243.243,30.133Z" transform="translate(-209.599 -22.939)" fill="#a86060"/>
        </g>
        <path id="Trazado_149856" data-name="Trazado 149856" d="M208.036,120.472c-4.525-2.441-9.132-7.4-14.76-6.236-4.174.86-9.562,5.065-9.212,9.667.291,3.716,5.331,6.3,8.1,8.42,6.711,5.136,12.057,9.805,20.12,12.15,7.837,2.28,20.714,2.26,12.24-8.185-2.664-3.281-5.815-6.018-8.233-9.565-1.4-2.065-.687-2.237-2.774-3.827C212.067,121.789,209.583,121.306,208.036,120.472Z" transform="translate(-184.048 148.771)" fill="#b57878"/>
        <g id="Grupo_106373" data-name="Grupo 106373" transform="translate(48.84 54.352)">
          <path id="Trazado_149857" data-name="Trazado 149857" d="M252.832,120.529H218.908c-3.612-.153-6.748-.376-6.748-.376-14.062-.905-11.5-17.515-8.454-27.272,1.935-6.205-.4-10.394.368-16.262.766-5.795,2.953-8.589,2.39-14.712-.84-9.237,8.335-21.559,18.578-21.559h9.879c5.973,0,12.812,1.966,16.8,6.68,4.336,5.125,2.806,11.861,5.984,17.278,3.634,6.185,1.126,14.15,2.41,20.895,1.4,7.325,1.821,14.282,2.61,21.746,0,0,.023.2.042.526C262.918,109.89,262.989,119.938,252.832,120.529Z" transform="translate(-201.317 -40.347)" fill="#b1e5d2"/>
        </g>
        <g id="Grupo_106374" data-name="Grupo 106374" transform="translate(68.697 123.423)">
          <path id="Trazado_149858" data-name="Trazado 149858" d="M242.852,118.941c-5.04,1.01-11.754.13-15.349,4.616-2.661,3.326-4.126,10-.919,13.315,2.591,2.684,8.123,1.457,11.6,1.324,8.448-.328,15.541-.147,23.248-3.484,7.489-3.247,17.391-11.477,4.2-14.113-4.143-.829-8.321-.925-12.441-2.115-2.4-.69-1.954-1.281-4.582-1.174C246.8,117.388,244.569,118.593,242.852,118.941Z" transform="translate(-178.324 31.261)" fill="#b57878"/>
          <path id="Trazado_149859" data-name="Trazado 149859" d="M274.269,143.647c2.834,8.171,2.52,16.964,4.927,25.168,2.118,7.232,5.328,14.871,6.109,22.34.667,6.4,5.249,11.709,6.632,17.9,1.558,6.974-3.872,6.29-8.595,7.729-2.231.676-3.47,2.579-5.614,3.207-4.273,1.244-8.267-2.557-12.608-1.114-3.295,1.1-5.125,4.415-9.107,4.234-6.412-.291-8.029-14.831-8.818-20.8-1.111-8.386-5.614-16.907-5.552-25.31.065-9.115-4.265-15.255-6.87-23.935s-5.852-15.94-7.5-25.095c-1.618-8.963-9.141-13.4-10.968-22.628-.914-4.61-1.024-7.237-3.745-11.35-6.9-10.382-5.868-22.275,6.991-27.643a20.388,20.388,0,0,1,26.636,10.8q5.1,12.069,10.2,24.136,7.233,17.109,14.458,34.221c1.109,2.625,2.41,5.244,3.354,7.936C274.221,143.517,274.246,143.579,274.269,143.647Z" transform="translate(-208.338 -64.769)" fill="#b1e5d2"/>
        </g>
        <path id="Trazado_149860" data-name="Trazado 149860" d="M249.361,159.577q-.412,1.281-.832,2.56c-4.867,14.82-12.987,29.153-19.486,43.351-1.776,3.877-6.132,18.451-9.313,19.065-5.88,1.137-12.843-8.352-18.315-10.15-4.743-1.564-16.457-4.949-16.208-11.876.3-8.377,7.345-16.873,11.3-23.808,2.274-3.993,2.458-7.97,4.027-11.98,2.738-6.991,7.687-12.489,10.247-19.679,1.007-2.831,2.073-5.478,2.879-8.414q3.127-11.378,6.25-22.756,5.006-18.238,10.018-36.47a20.319,20.319,0,1,1,39.188,10.761q-4.013,14.615-8.035,29.235C257.363,132.947,253.635,146.308,249.361,159.577Z" transform="translate(-181.938 58.118)" fill="#b1e5d2"/>
        <path id="Trazado_149861" data-name="Trazado 149861" d="M234.06,51.99a14.771,14.771,0,0,1,6.686-8.926c1.31-.846,12.767-5.368,13.12-3.091-.464-3,2.067-3.875,1.635-6.72-.354-2.342-4.14-5.671-5.863-6.969C234.261,14.7,215.21,24.079,207.715,40.126c-3.018,6.462-3.323,13.96-3.012,20.968.492,11.146,3.877,27.007,17.9,23.644a30.517,30.517,0,0,1,10.886-1.027c7.891.526,4.415-2.808,3.052-7.647-2.016-7.161-4.474-15.807-2.656-23.412C233.941,52.429,234,52.208,234.06,51.99Z" transform="translate(-146.463 -21.129)" fill="#b1e5d2"/>
        <path id="Trazado_149862" data-name="Trazado 149862" d="M231.633,32.386a2.272,2.272,0,0,0-.549-.1,37.312,37.312,0,0,0-4.239.2c-2.613.127-5.224.246-7.84.373L216.972,40.5c-.334,1.261.922,3.5,1.592,4.44a7.051,7.051,0,0,0,3.465,2.562,9.323,9.323,0,0,0,2.825.475,8.517,8.517,0,0,0,2.873-.025c.871-.3,1.2-1.14,1.683-1.855a23.2,23.2,0,0,0,2.3-4.361,33.517,33.517,0,0,0,1.536-5.263C233.573,34.971,233.152,32.887,231.633,32.386Z" transform="translate(-123.959 -0.784)" fill="#b1e5d2"/>
        <path id="Trazado_149863" data-name="Trazado 149863" d="M223.285,35.9s-3.507-7.888-7.885-3.583l-.478,1.117s3.9-5.178,7.648,2.944S223.285,35.9,223.285,35.9Z" transform="translate(-127.605 -3.034)" fill="#b1e5d2"/>
        <path id="Trazado_149864" data-name="Trazado 149864" d="M223.061,37.114s-6.375,0-7.967-5.577l-.4,1.276s.874,4.384,8.445,4.865S223.061,37.114,223.061,37.114Z" transform="translate(-128.014 -2.101)" fill="#b1e5d2"/>
        <g id="Grupo_106375" data-name="Grupo 106375" transform="translate(11.265 52.915)">
          <path id="Trazado_149865" data-name="Trazado 149865" d="M242.192,40.3c-7.614,3.2-12.345,7.65-18.446,13.479a91.906,91.906,0,0,0-8.207,8.459c-3.25,3.979-7.8,5.829-11.084,9.661-3.32,3.877-4.633,8.994-7.489,13.228-2.226,3.315-3.781,5.741-4.89,9.647-1.213,4.293-2.967,8.7-3.227,13.2-.421,7.3,2.882,8.5,9.689,9.76,5.939,1.106,5.917.634,8.111-5.031,1.785-4.607,3.071-9.209,5.159-13.754,2.528-5.523,6-7.382,10.379-11.949,4.839-5.048,7.24-7.9,13.8-10.091,5.4-1.807,6.021-4.316,8.069-9.387,2.192-5.453,8.346-21.48,2.791-26.492-1.547-1.4-3.725-1.844-4.884.206Z" transform="translate(-186.601 -39.839)" fill="#b1e5d2"/>
          <path id="Trazado_149866" data-name="Trazado 149866" d="M188.186,77.111c.679-3.92,1.621-13.233,7.563-13.049,2.543.079,5.481,1.81,7.342,3.354,4.1,3.405,3.312,9.531,2.424,14.169a6.992,6.992,0,0,0-.235,2.393c.153.684,1.069,1.247,1.16,1.8a1.884,1.884,0,0,1-2.277,2.067c-1.343-.161-1.9-1.731-3.306-1.233-1.329.472-.848,2.022-1.273,3.122a2.519,2.519,0,0,1-3.029,1.6c-.617-.093-1.377-.88-1.759-.913-.885-.082-.6.6-1.389.8s-.809.184-1.493-.354c-.17-.127.031-.851-.246-1.032-.255-.161-.687-.006-.747-.031-.614-.331-1.072.274-1.7-.857-.792-1.428-.614-3.824-.8-5.4A22.776,22.776,0,0,1,188.186,77.111Z" transform="translate(-188.031 4.441)" fill="#b1e5d2"/>
        </g>
        <path id="Trazado_149867" data-name="Trazado 149867" d="M203.017,63.885l-.416-.2-.337-.317a21.252,21.252,0,0,1,4.808-5.535c.733-.512,1.64-1.273,2.6-2.082,3.357-2.82,7.532-6.335,10.982-5.422a.455.455,0,0,1,.325.557.446.446,0,0,1-.557.325c-3-.781-7.133,2.7-10.162,5.241-.976.82-1.9,1.6-2.664,2.13A20.64,20.64,0,0,0,203.017,63.885Z" transform="translate(-150.744 31.98)" fill="#fff"/>
        <path id="Trazado_149868" data-name="Trazado 149868" d="M242.087,74.784c2.152,2.707,4.4,5.348,6.516,8.091,3.855,5,6.417,10.428,10.852,14.992,2.017,2.073,11.723,10.088,3.711,10.971,2.042,3.23,3.4,7.407-1.742,8.49-1.951.407-1.92,1.912-4.641,1.431-2.161-.382-4.29-2.548-5.939-3.863-4.075-3.247-5.17-7.189-8.145-11.395-3.326-4.706-8.762-8.733-13.836-12-6.185-3.979-12.585-10.337-11.8-18.18.441-4.463,1.16-18,5.473-20.558,5.382-3.19,11.641,10.131,13.451,13.29A69.772,69.772,0,0,0,242.087,74.784Z" transform="translate(-123.815 35.816)" fill="#b1e5d2"/>
        <path id="Trazado_149869" data-name="Trazado 149869" d="M222.182,91.311a3.943,3.943,0,0,1-.97-.127.456.456,0,1,1,.223-.885,2.479,2.479,0,0,0,2.523-.7c2.656-2.684,2.817-11.417,2.059-14.3a22.49,22.49,0,0,0-1.765-4.271,19.046,19.046,0,0,1-2.005-5.376,49.231,49.231,0,0,1-.424-7.218c-.009-.84-.017-1.663-.042-2.449a.456.456,0,0,1,.444-.469.469.469,0,0,1,.472.441c.023.792.031,1.621.04,2.469a48.622,48.622,0,0,0,.416,7.079,18.056,18.056,0,0,0,1.92,5.116,23.2,23.2,0,0,1,1.827,4.446c.795,3.015.749,12.1-2.291,15.173A3.338,3.338,0,0,1,222.182,91.311Z" transform="translate(-116.736 41.739)" fill="#fff"/>
        <path id="Trazado_149870" data-name="Trazado 149870" d="M198.446,199.813a.561.561,0,0,1-.263-.068.549.549,0,0,1-.221-.744,51.978,51.978,0,0,0,3.541-9.028,69.233,69.233,0,0,1,2.594-7.15c1.143-2.56,2.477-5.068,3.77-7.492,1.326-2.489,2.7-5.062,3.852-7.679,1.318-2.989,2.616-5.778,3.872-8.476,4.177-8.982,8.123-17.464,11.729-31.017,1.287-4.836,2.786-9.7,4.234-14.4.73-2.362,1.459-4.723,2.164-7.093l8.578-28.794a.545.545,0,0,1,.684-.371.552.552,0,0,1,.371.684l-8.578,28.8c-.707,2.37-1.437,4.734-2.166,7.1-1.445,4.689-2.944,9.537-4.223,14.353-3.631,13.649-7.6,22.173-11.8,31.2-1.253,2.7-2.548,5.481-3.863,8.459-1.168,2.653-2.551,5.246-3.886,7.752-1.284,2.407-2.61,4.9-3.739,7.421a69.785,69.785,0,0,0-2.548,7.039,52.772,52.772,0,0,1-3.62,9.214A.549.549,0,0,1,198.446,199.813Z" transform="translate(-158.731 81.893)" fill="#fff"/>
      </g>
      <g id="Grupo_106388" data-name="Grupo 106388" transform="translate(83.83 7.015)">
        <g id="Grupo_106386" data-name="Grupo 106386">
          <g id="Grupo_106384" data-name="Grupo 106384" transform="translate(0.789)">
            <g id="Grupo_106382" data-name="Grupo 106382" transform="translate(46.749 5.121)">
              <g id="haed-2" data-name="haed" transform="translate(5.378 4.401)">
                <g id="Grupo_106380" data-name="Grupo 106380">
                  <g id="Grupo_106377" data-name="Grupo 106377">
                    <path id="Trazado_149871" data-name="Trazado 149871" d="M141.592,45.571c-1.131-4.551-1.264-10.119,1.635-14.082,4.568-6.239,16.313-7.489,21.8-2.019,3.634,3.617,4.644,7.913,4.5,12.981-.082,2.876.32,5.7,2.54,7.8.272.255.6.605.438.942-.136.317-.566.339-.9.421-1.066.272-1.555,1.49-1.717,2.574a44.676,44.676,0,0,1-1.406,7.746,2.445,2.445,0,0,1-.993,1.4,2.908,2.908,0,0,1-1.762.175c-2.008-.226-4-.557-5.982-.979a1.085,1.085,0,0,0-.348.218,2.9,2.9,0,0,0-.608,1.445q-1.366,6.054-2.732,12.1a70.886,70.886,0,0,0-14.212-8.717,18.7,18.7,0,0,0,2.837-13.994A34.956,34.956,0,0,1,141.592,45.571Z" transform="translate(-140.843 -26.003)" fill="#ff8f67"/>
                    <path id="Trazado_149872" data-name="Trazado 149872" d="M154.039,44.621a.244.244,0,0,1-.1-.02c-.283-.1-7-2.523-8.651-8.012a.294.294,0,0,1,.192-.365.291.291,0,0,1,.365.2c1.564,5.207,8.222,7.611,8.289,7.636a.292.292,0,0,1-.1.566Z" transform="translate(-132.733 -7.341)" fill="#894c4c"/>
                  </g>
                  <g id="Grupo_106379" data-name="Grupo 106379" transform="translate(24.135 17.096)">
                    <g id="Grupo_106378" data-name="Grupo 106378">
                      <path id="Trazado_149873" data-name="Trazado 149873" d="M152.975,33.736a.746.746,0,0,1-.362.011,3.421,3.421,0,0,0-2,.308.829.829,0,1,1-.8-1.451,5.142,5.142,0,0,1,3.1-.486.83.83,0,0,1,.062,1.618Z" transform="translate(-149.377 -32.048)" fill="#a86060"/>
                      <path id="Trazado_149874" data-name="Trazado 149874" d="M151.272,34.068c.023.679-.221,1.247-.546,1.259s-.6-.535-.625-1.222.226-1.25.546-1.261S151.249,33.383,151.272,34.068Z" transform="translate(-148.056 -30.596)" fill="#a86060"/>
                    </g>
                  </g>
                </g>
                <path id="Trazado_149875" data-name="Trazado 149875" d="M150.205,37.178a.236.236,0,0,1-.15-.057.233.233,0,0,1-.028-.328,2.539,2.539,0,0,1,2.574-.659.231.231,0,0,1,.167.283.235.235,0,0,1-.283.17,2.056,2.056,0,0,0-2.1.506A.234.234,0,0,1,150.205,37.178Z" transform="translate(-124.153 -7.664)" fill="#894c4c"/>
                <g id="Grupo_106381" data-name="Grupo 106381" transform="translate(11.79 19.613)">
                  <path id="Trazado_149876" data-name="Trazado 149876" d="M146.74,34.445a.276.276,0,0,1-.079-.014l-1.44-.41a.29.29,0,0,1,.161-.557l1.44.41a.288.288,0,0,1,.2.359A.293.293,0,0,1,146.74,34.445Z" transform="translate(-145.012 -31.999)" fill="#894c4c"/>
                  <path id="Trazado_149877" data-name="Trazado 149877" d="M146.605,36.99H146.6a.29.29,0,0,1-.283-.3c.017-.747-.127-2.777-1-3.2a.292.292,0,1,1,.257-.523c1.355.665,1.326,3.425,1.318,3.736A.29.29,0,0,1,146.605,36.99Z" transform="translate(-144.745 -32.938)" fill="#894c4c"/>
                </g>
              </g>
              <path id="Trazado_149878" data-name="Trazado 149878" d="M172.583,31.639a16.851,16.851,0,0,0-7.826-6.106c-6.9-2.622-14.56-.26-20,4.585a18.235,18.235,0,0,0-5.085,18.321c1.343,4.237,4.3,7.492,4.432,12.037a20.177,20.177,0,0,0,.068,2.062,8.355,8.355,0,0,0,1.623-4.723c.65,1.756.184,4.644.314,6.737,1.691-.574,3.17-.86,4.5-2.209a19.722,19.722,0,0,0,2.8-4,15.771,15.771,0,0,0,1.96-7.319c.1-1.191,1.886-4.867,3.077-2.574.614,1.182-.574,4.57,1.991,4.166-.421-2.172-.585-2.939.591-4.782.605-.95,2.91-3.244,2.772-4.4.062.509.1,3.846-.617,3.979,4.777-.885,11.505-6.785,10.792-12.181A8.768,8.768,0,0,0,172.583,31.639Z" transform="translate(-138.942 -24.447)" fill="#a86060"/>
            </g>
            <path id="Trazado_149879" data-name="Trazado 149879" d="M145.472,122.5c-4.913-1.513-10.394-5.487-15.691-3.258-3.928,1.655-8.4,6.822-7.158,11.27,1,3.589,6.448,5.15,9.571,6.689,7.58,3.742,13.728,7.283,22.094,8.021,8.134.718,20.759-1.8,10.422-10.4-3.25-2.707-6.873-4.782-9.927-7.792-1.779-1.748-1.109-2.065-3.47-3.218C149.683,123.02,147.149,123.02,145.472,122.5Z" transform="translate(-122.413 152.763)" fill="#b57878"/>
            <path id="Trazado_149880" data-name="Trazado 149880" d="M166.236,119.7c-5.136.113-11.59-1.934-15.917,1.85-3.2,2.808-5.818,9.121-3.244,12.95,2.079,3.091,7.744,2.859,11.191,3.337,8.374,1.162,15.323,2.588,23.5.65,7.944-1.878,19.136-8.241,6.612-13.148-3.934-1.547-8.024-2.373-11.876-4.271-2.237-1.1-1.7-1.609-4.3-1.96C170.4,118.871,167.993,119.668,166.236,119.7Z" transform="translate(-79.231 153.659)" fill="#b57878"/>
            <g id="Grupo_106383" data-name="Grupo 106383" transform="translate(23.326 54.356)">
              <path id="Trazado_149881" data-name="Trazado 149881" d="M182.178,122.036h-33.93c-3.606-.156-6.748-.376-6.748-.376-14.059-.908-11.494-17.515-8.451-27.272,1.937-6.208-.4-10.4.371-16.265.766-5.8,2.953-8.586,2.39-14.712-.84-9.237,8.335-21.554,18.576-21.554h9.879c5.976,0,12.815,1.96,16.8,6.677,4.336,5.128,2.806,11.861,5.982,17.28,3.631,6.182,1.128,14.144,2.41,20.889,1.4,7.325,1.824,14.285,2.61,21.749,0,0,.02.2.045.523C192.264,111.4,192.335,121.445,182.178,122.036Z" transform="translate(-130.66 -41.856)" fill="#b1e5d2"/>
            </g>
            <path id="Trazado_149882" data-name="Trazado 149882" d="M179.417,158.9c-1.4,8.53-5.869,16.112-7.67,24.472-1.584,7.37-2.4,15.612-5.275,22.552-2.469,5.936-.973,12.789-2.7,18.89-1.954,6.873-6.406,3.685-11.245,2.7-2.282-.467-4.279.617-6.457.144-4.353-.945-6.055-6.188-10.552-6.988-3.422-.6-6.609,1.437-10.029-.619-5.5-3.315.011-16.867,2.161-22.484,3.023-7.9,3.131-17.541,7.189-24.894,4.4-7.981,3.524-15.445,5.374-24.32s2.452-16.8,5.368-25.635c2.854-8.649-1.646-16.129,1.145-25.117,1.4-4.488,2.554-6.85,2.115-11.765-1.106-12.413,5.467-22.377,19.331-20.965a20.384,20.384,0,0,1,18.262,22.193q-1.269,13.045-2.543,26.082-1.8,18.488-3.6,36.973c-.28,2.84-.382,5.761-.834,8.578C179.44,158.765,179.428,158.833,179.417,158.9Z" transform="translate(-121.121 54.333)" fill="#b1e5d2"/>
            <path id="Trazado_149883" data-name="Trazado 149883" d="M194.421,151.1c.184.88.362,1.756.54,2.636,3.074,15.295,3.074,31.769,4.409,47.327.371,4.248,3.762,19.073,1.3,21.178-4.553,3.886-15.286-.936-20.937.19-4.9.981-16.76,3.812-19.959-2.339-3.866-7.435-1.923-18.3-1.9-26.288.014-4.593-1.79-8.142-2.4-12.4-1.066-7.435.532-14.661-.792-22.173-.518-2.964-.894-5.792-1.64-8.742q-2.889-11.442-5.778-22.883l-9.257-36.668a20.32,20.32,0,1,1,39.4-9.955l7.416,29.4C188.259,123.986,191.6,137.449,194.421,151.1Z" transform="translate(-95.031 56.002)" fill="#b1e5d2"/>
            <path id="Trazado_149884" data-name="Trazado 149884" d="M138.144,189.5a.635.635,0,0,1-.147-.017.553.553,0,0,1-.385-.679l14.825-53.679,5.139-56.966a.548.548,0,0,1,1.092.1l-5.153,57.059L138.673,189.1A.549.549,0,0,1,138.144,189.5Z" transform="translate(-94.659 77.963)" fill="#fff"/>
            <path id="Trazado_149885" data-name="Trazado 149885" d="M163.406,53.493a14.758,14.758,0,0,1,6.686-8.92c1.307-.846,12.766-5.368,13.12-3.091-.464-3,2.065-3.875,1.635-6.723-.356-2.336-4.143-5.673-5.866-6.969-15.374-11.581-34.425-2.2-41.922,13.841-3.015,6.462-3.326,13.963-3.012,20.971.492,11.146,3.88,27.007,17.905,23.641a30.624,30.624,0,0,1,10.883-1.027c7.894.526,4.415-2.806,3.054-7.645-2.017-7.161-4.48-15.807-2.659-23.415C163.288,53.937,163.347,53.711,163.406,53.493Z" transform="translate(-101.32 -22.637)" fill="#b1e5d2"/>
            <path id="Trazado_149886" data-name="Trazado 149886" d="M160.972,33.891a2.2,2.2,0,0,0-.543-.1,36.643,36.643,0,0,0-4.24.2q-3.924.182-7.843.37s-2.025,7.633-2.031,7.65c-.334,1.256.919,3.5,1.589,4.435a7.074,7.074,0,0,0,3.465,2.568,9.426,9.426,0,0,0,2.828.472,8.667,8.667,0,0,0,2.873-.023c.871-.3,1.2-1.143,1.683-1.861a23.32,23.32,0,0,0,2.3-4.358,33.256,33.256,0,0,0,1.536-5.266C162.915,36.476,162.49,34.4,160.972,33.891Z" transform="translate(-78.814 -2.291)" fill="#b1e5d2"/>
            <path id="Trazado_149887" data-name="Trazado 149887" d="M152.629,37.4s-3.507-7.888-7.888-3.583l-.475,1.114s3.9-5.178,7.645,2.944S152.629,37.4,152.629,37.4Z" transform="translate(-82.46 -4.541)" fill="#b1e5d2"/>
            <path id="Trazado_149888" data-name="Trazado 149888" d="M152.4,38.622s-6.372,0-7.967-5.577l-.4,1.278s.874,4.378,8.442,4.859S152.4,38.622,152.4,38.622Z" transform="translate(-82.871 -3.608)" fill="#b1e5d2"/>
          </g>
          <g id="Grupo_106385" data-name="Grupo 106385" transform="translate(0 58.811)">
            <path id="Trazado_149889" data-name="Trazado 149889" d="M158.794,44.412c-6.666,4.873-10.247,10.292-14.84,17.371a91.115,91.115,0,0,0-6.03,10.122c-2.248,4.621-6.245,7.469-8.555,11.96-2.336,4.539-2.438,9.82-4.237,14.6-1.408,3.739-2.359,6.462-2.534,10.51-.2,4.466-.882,9.155-.1,13.592,1.276,7.206,4.766,7.605,11.678,7.268,6.038-.294,5.905-.752,6.734-6.774.67-4.89.865-9.667,1.844-14.568,1.191-5.956,4.143-8.564,7.348-14.022,3.541-6.033,5.224-9.359,11.1-13,4.833-3,4.865-5.589,5.682-10.99.88-5.818,3.17-22.835-3.391-26.424-1.827-1-4.047-.936-4.706,1.324Z" transform="translate(-122.134 -43.431)" fill="#b1e5d2"/>
            <path id="Trazado_149890" data-name="Trazado 149890" d="M122.819,85.626c-.249-3.976-1.479-13.259,4.347-14.446,2.492-.506,5.75.5,7.916,1.57,4.785,2.37,5.422,8.513,5.634,13.233a6.664,6.664,0,0,0,.32,2.379c.305.631,1.326.97,1.539,1.482a1.88,1.88,0,0,1-1.737,2.537c-1.341.15-2.248-1.244-3.5-.438-1.188.766-.356,2.161-.52,3.334a2.513,2.513,0,0,1-2.574,2.251c-.625.051-1.547-.54-1.923-.486-.882.127-.441.724-1.171,1.1s-.744.365-1.533,0c-.192-.088-.167-.831-.478-.942-.286-.1-.673.153-.73.136-.673-.175-.984.515-1.855-.438-1.1-1.208-1.479-3.58-2.019-5.071A22.77,22.77,0,0,1,122.819,85.626Z" transform="translate(-121.39 7.051)" fill="#b1e5d2"/>
          </g>
          <path id="Trazado_149891" data-name="Trazado 149891" d="M131.418,80.352a.457.457,0,0,1-.274-.82c2.062-1.561,2.95-4.389,3.894-7.384a21.3,21.3,0,0,1,2.97-6.7c.551-.7,1.2-1.7,1.878-2.757,2.381-3.68,5.342-8.261,8.9-8.411a.436.436,0,0,1,.478.438.46.46,0,0,1-.438.478c-3.083.13-6.021,4.672-8.168,7.99-.7,1.075-1.352,2.09-1.926,2.825a20.7,20.7,0,0,0-2.82,6.414c-.945,3-1.92,6.1-4.214,7.837A.455.455,0,0,1,131.418,80.352Z" transform="translate(-105.994 35.201)" fill="#fff"/>
        </g>
        <path id="Trazado_149892" data-name="Trazado 149892" d="M171.427,76.294c2.155,2.7,4.4,5.342,6.519,8.089,3.855,5,6.42,10.425,10.855,14.989,2.017,2.073,11.72,10.094,3.708,10.976,2.042,3.224,3.405,7.4-1.742,8.487-1.949.407-1.92,1.906-4.638,1.431-2.161-.382-4.293-2.548-5.939-3.86-4.078-3.25-5.17-7.192-8.148-11.4-3.329-4.7-8.759-8.734-13.836-12-6.185-3.979-12.586-10.34-11.8-18.177.444-4.466,1.157-18,5.47-20.558,5.388-3.187,11.647,10.131,13.457,13.29A70.917,70.917,0,0,0,171.427,76.294Z" transform="translate(-77.884 34.309)" fill="#b1e5d2"/>
        <path id="Trazado_149893" data-name="Trazado 149893" d="M151.526,92.821a3.926,3.926,0,0,1-.97-.127.458.458,0,0,1-.331-.554.465.465,0,0,1,.554-.334,2.466,2.466,0,0,0,2.52-.7c2.656-2.681,2.817-11.417,2.062-14.3a22.974,22.974,0,0,0-1.765-4.273,19.052,19.052,0,0,1-2.008-5.376,49.587,49.587,0,0,1-.424-7.246c-.009-.832-.017-1.643-.04-2.418a.46.46,0,0,1,.444-.472h.014a.456.456,0,0,1,.455.444c.025.783.034,1.6.042,2.438a48.665,48.665,0,0,0,.413,7.11,18.042,18.042,0,0,0,1.923,5.116,23.376,23.376,0,0,1,1.827,4.446c.792,3.018.744,12.108-2.294,15.173A3.332,3.332,0,0,1,151.526,92.821Z" transform="translate(-70.803 40.23)" fill="#fff"/>
        <g id="Grupo_106387" data-name="Grupo 106387" transform="translate(14.748 203.848)">
          <path id="Trazado_149894" data-name="Trazado 149894" d="M155.641,164.783a.41.41,0,0,1-.1-.011.457.457,0,0,1-.348-.546c.356-1.6-1.035-8.157-1.6-10.546l-1.6-5.934a.4.4,0,0,1-.014-.119c0-4.146-6.245-24.06-6.307-24.26l-5.806-28.1a.458.458,0,0,1,.354-.54.452.452,0,0,1,.54.356l5.795,28.059c.249.775,6.279,20.018,6.338,24.427l1.587,5.891c.215.914,2.07,8.869,1.606,10.971A.459.459,0,0,1,155.641,164.783Z" transform="translate(-104.477 -94.714)" fill="#fff"/>
          <path id="Trazado_149895" data-name="Trazado 149895" d="M140.006,157.574a.45.45,0,0,1-.348-.161c-1.872-2.183-3.306-17.159-3.465-18.858l-8.832-35.616a.458.458,0,1,1,.888-.221l8.844,35.683c.619,6.629,1.985,16.932,3.258,18.417a.455.455,0,0,1-.048.645A.461.461,0,0,1,140.006,157.574Z" transform="translate(-127.348 -80.714)" fill="#fff"/>
        </g>
      </g>
      <g id="Grupo_106403" data-name="Grupo 106403" transform="translate(58.734)">
        <g id="Grupo_106389" data-name="Grupo 106389" transform="translate(0 108.54)">
          <path id="Trazado_149896" data-name="Trazado 149896" d="M468.189,70.427c0,6.539-8.236,11.893-18.3,11.893H136.966c-10.063,0-18.3-5.354-18.3-11.893s8.236-11.893,18.3-11.893H449.89C459.953,58.534,468.189,63.885,468.189,70.427Z" transform="translate(-103.374 -58.534)" fill="#b57878"/>
          <g id="cascet" transform="translate(0 7.843)">
            <rect id="Rectángulo_33884" data-name="Rectángulo 33884" width="373.273" height="73.635" transform="translate(7.41 22.228)" fill="#b57878"/>
            <rect id="Rectángulo_33885" data-name="Rectángulo 33885" width="372.809" height="23.62" transform="translate(7.41 0.923)" fill="#b57878"/>
            <rect id="Rectángulo_33886" data-name="Rectángulo 33886" width="373.273" height="4.019" transform="translate(7.41 22.228)" fill="#aa6868"/>
            <rect id="Rectángulo_33887" data-name="Rectángulo 33887" width="373.273" height="4.016" transform="translate(7.41)" fill="#aa6868"/>
            <path id="Rectángulo_33888" data-name="Rectángulo 33888" d="M1.965,0H57.778a1.965,1.965,0,0,1,1.965,1.965V12.392a1.965,1.965,0,0,1-1.965,1.965H1.966A1.966,1.966,0,0,1,0,12.391V1.965A1.965,1.965,0,0,1,1.965,0Z" transform="translate(0 10.186)" fill="#b57878"/>
            <rect id="Rectángulo_33889" data-name="Rectángulo 33889" width="59.74" height="14.357" rx="1.965" transform="translate(327.889 10.186)" fill="#b57878"/>
            <rect id="Rectángulo_33890" data-name="Rectángulo 33890" width="366.33" height="6.485" transform="translate(12.964 89.379)" fill="#aa6868"/>
            <path id="Rectángulo_33891" data-name="Rectángulo 33891" d="M1.965,0H57.778a1.965,1.965,0,0,1,1.965,1.965V12.39a1.964,1.964,0,0,1-1.964,1.964H1.964A1.964,1.964,0,0,1,0,12.39V1.965A1.965,1.965,0,0,1,1.965,0Z" transform="translate(2.314 86.603)" fill="#b57878"/>
            <path id="Rectángulo_33892" data-name="Rectángulo 33892" d="M1.965,0H57.778A1.963,1.963,0,0,1,59.74,1.963V12.39a1.964,1.964,0,0,1-1.964,1.964H1.965A1.965,1.965,0,0,1,0,12.389V1.965A1.965,1.965,0,0,1,1.965,0Z" transform="translate(324.034 86.603)" fill="#b57878"/>
          </g>
        </g>
        <g id="Grupo_106390" data-name="Grupo 106390" transform="translate(318.15 153.135)">
          <path id="Trazado_149897" data-name="Trazado 149897" d="M250.757,79.008c0,2.591-2.5,4.709-5.557,4.709h-11.27c-3.054,0-5.557-2.118-5.557-4.709s2.5-4.706,5.557-4.706H245.2C248.254,74.3,250.757,76.417,250.757,79.008Z" transform="translate(-220.962 -74.302)" fill="#8e5757"/>
          <path id="Trazado_149898" data-name="Trazado 149898" d="M229.894,85.9h-3.7V81.115a5.562,5.562,0,0,1,5.557-5.557h23.929a5.561,5.561,0,0,1,5.552,5.557V85.59h-3.7V81.115a1.857,1.857,0,0,0-1.85-1.855H231.746a1.858,1.858,0,0,0-1.853,1.855Z" transform="translate(-224.953 -72.006)" fill="#8e5757"/>
          <path id="Trazado_149899" data-name="Trazado 149899" d="M225.752,81.748A3.241,3.241,0,1,1,229,84.989,3.246,3.246,0,0,1,225.752,81.748Z" transform="translate(-225.752 -66.62)" fill="#8e5757"/>
          <path id="Trazado_149900" data-name="Trazado 149900" d="M236.779,81.748a3.241,3.241,0,1,1,3.241,3.241A3.241,3.241,0,0,1,236.779,81.748Z" transform="translate(-205.592 -66.62)" fill="#8e5757"/>
        </g>
        <g id="Grupo_106391" data-name="Grupo 106391" transform="translate(57.772 153.135)">
          <path id="Trazado_149901" data-name="Trazado 149901" d="M158.689,79.008c0,2.591-2.5,4.709-5.557,4.709H141.864c-3.054,0-5.557-2.118-5.557-4.709s2.5-4.706,5.557-4.706h11.268C156.186,74.3,158.689,76.417,158.689,79.008Z" transform="translate(-128.898 -74.302)" fill="#8e5757"/>
          <path id="Trazado_149902" data-name="Trazado 149902" d="M137.83,85.9h-3.7V81.115a5.561,5.561,0,0,1,5.552-5.557h23.929a5.561,5.561,0,0,1,5.555,5.557V85.59h-3.7V81.115a1.855,1.855,0,0,0-1.85-1.855H139.677a1.855,1.855,0,0,0-1.847,1.855Z" transform="translate(-132.888 -72.006)" fill="#8e5757"/>
          <circle id="Elipse_4245" data-name="Elipse 4245" cx="3.241" cy="3.241" r="3.241" transform="translate(0 11.887)" fill="#8e5757"/>
          <path id="Trazado_149903" data-name="Trazado 149903" d="M144.713,81.748a3.243,3.243,0,1,1,3.244,3.241A3.246,3.246,0,0,1,144.713,81.748Z" transform="translate(-113.531 -66.62)" fill="#8e5757"/>
        </g>
        <g id="Grupo_106402" data-name="Grupo 106402" transform="translate(326.123)">
          <g id="Grupo_106401" data-name="Grupo 106401">
            <g id="Grupo_106399" data-name="Grupo 106399" transform="translate(0.788)">
              <g id="Grupo_106397" data-name="Grupo 106397" transform="translate(46.749 5.12)">
                <g id="haed-3" data-name="haed" transform="translate(5.376 4.402)">
                  <g id="Grupo_106395" data-name="Grupo 106395">
                    <g id="Grupo_106392" data-name="Grupo 106392">
                      <path id="Trazado_149904" data-name="Trazado 149904" d="M248.032,43.091c-1.137-4.551-1.267-10.116,1.635-14.082,4.57-6.242,16.31-7.489,21.8-2.022,3.634,3.62,4.641,7.913,4.5,12.981-.085,2.882.32,5.707,2.54,7.8.269.252.594.6.436.942-.136.32-.563.339-.9.43-1.069.263-1.558,1.485-1.72,2.571a44.879,44.879,0,0,1-1.408,7.741,2.418,2.418,0,0,1-.987,1.4,2.918,2.918,0,0,1-1.762.184q-3.016-.348-5.987-.984a1.065,1.065,0,0,0-.345.215,2.907,2.907,0,0,0-.611,1.451q-1.366,6.05-2.729,12.1A70.776,70.776,0,0,0,248.281,65.1a18.665,18.665,0,0,0,2.837-13.991A35.039,35.039,0,0,1,248.032,43.091Z" transform="translate(-247.28 -23.523)" fill="#ff8f67"/>
                      <path id="Trazado_149905" data-name="Trazado 149905" d="M260.479,42.138a.287.287,0,0,1-.1-.017c-.286-.1-7-2.52-8.654-8.015a.293.293,0,0,1,.2-.362.289.289,0,0,1,.362.2c1.57,5.212,8.222,7.611,8.289,7.633a.29.29,0,0,1,.178.37A.294.294,0,0,1,260.479,42.138Z" transform="translate(-239.169 -4.859)" fill="#894c4c"/>
                    </g>
                    <g id="Grupo_106394" data-name="Grupo 106394" transform="translate(24.139 17.096)">
                      <g id="Grupo_106393" data-name="Grupo 106393">
                        <path id="Trazado_149906" data-name="Trazado 149906" d="M259.412,31.257a.758.758,0,0,1-.365.008,3.376,3.376,0,0,0-2,.314.83.83,0,0,1-.8-1.457,5.166,5.166,0,0,1,3.1-.486.832.832,0,0,1,.065,1.621Z" transform="translate(-255.815 -29.568)" fill="#a86060"/>
                        <path id="Trazado_149907" data-name="Trazado 149907" d="M257.708,31.585c.02.684-.223,1.25-.549,1.259s-.6-.537-.619-1.222.224-1.247.543-1.259S257.685,30.9,257.708,31.585Z" transform="translate(-254.493 -28.114)" fill="#a86060"/>
                      </g>
                    </g>
                  </g>
                  <path id="Trazado_149908" data-name="Trazado 149908" d="M256.643,34.7a.243.243,0,0,1-.153-.057.233.233,0,0,1-.025-.328,2.547,2.547,0,0,1,2.574-.662.234.234,0,1,1-.116.453,2.058,2.058,0,0,0-2.1.512A.24.24,0,0,1,256.643,34.7Z" transform="translate(-230.591 -5.184)" fill="#894c4c"/>
                  <g id="Grupo_106396" data-name="Grupo 106396" transform="translate(11.792 19.615)">
                    <path id="Trazado_149909" data-name="Trazado 149909" d="M253.178,31.966a.255.255,0,0,1-.079-.011l-1.44-.416a.286.286,0,0,1-.2-.359.293.293,0,0,1,.359-.2l1.437.416a.29.29,0,0,1,.2.359A.294.294,0,0,1,253.178,31.966Z" transform="translate(-251.45 -29.523)" fill="#894c4c"/>
                    <path id="Trazado_149910" data-name="Trazado 149910" d="M253.048,34.507h-.008a.29.29,0,0,1-.283-.3c.02-.747-.127-2.772-1-3.2a.289.289,0,0,1-.133-.387.292.292,0,0,1,.39-.133c1.36.667,1.329,3.425,1.321,3.736A.287.287,0,0,1,253.048,34.507Z" transform="translate(-251.184 -30.458)" fill="#894c4c"/>
                  </g>
                </g>
                <path id="Trazado_149911" data-name="Trazado 149911" d="M279.022,29.157a16.889,16.889,0,0,0-7.828-6.106c-6.9-2.619-14.557-.263-20.007,4.585A18.26,18.26,0,0,0,246.1,45.959c1.346,4.239,4.3,7.492,4.435,12.037a20.061,20.061,0,0,0,.065,2.059,8.35,8.35,0,0,0,1.626-4.723c.65,1.756.184,4.647.314,6.74,1.691-.571,3.17-.863,4.5-2.209a19.58,19.58,0,0,0,2.8-4,15.717,15.717,0,0,0,1.96-7.322c.1-1.188,1.889-4.867,3.083-2.571.614,1.179-.577,4.57,1.985,4.16-.416-2.169-.583-2.933.594-4.782.605-.945,2.907-3.241,2.772-4.392.059.509.1,3.846-.617,3.982,4.777-.888,11.505-6.791,10.79-12.184A8.727,8.727,0,0,0,279.022,29.157Z" transform="translate(-245.38 -21.967)" fill="#a86060"/>
              </g>
              <path id="Trazado_149912" data-name="Trazado 149912" d="M251.909,120.018c-4.91-1.513-10.391-5.487-15.688-3.255-3.931,1.652-8.4,6.822-7.161,11.268,1,3.589,6.454,5.15,9.571,6.689,7.585,3.739,13.731,7.283,22.1,8.021,8.131.716,20.759-1.8,10.419-10.4-3.247-2.7-6.873-4.78-9.927-7.792-1.776-1.748-1.106-2.059-3.467-3.216C256.125,120.536,253.586,120.536,251.909,120.018Z" transform="translate(-228.85 155.245)" fill="#b57878"/>
              <path id="Trazado_149913" data-name="Trazado 149913" d="M272.676,117.225c-5.139.11-11.593-1.935-15.914,1.85-3.21,2.806-5.823,9.118-3.25,12.948,2.084,3.094,7.746,2.859,11.188,3.337,8.374,1.162,15.326,2.588,23.5.653,7.942-1.878,19.136-8.241,6.615-13.151-3.94-1.544-8.029-2.376-11.878-4.271-2.234-1.1-1.7-1.6-4.3-1.957C276.833,116.391,274.432,117.188,272.676,117.225Z" transform="translate(-185.669 156.14)" fill="#b57878"/>
              <g id="Grupo_106398" data-name="Grupo 106398" transform="translate(23.329 54.349)">
                <path id="Trazado_149914" data-name="Trazado 149914" d="M288.61,119.561H254.689c-3.612-.156-6.751-.376-6.751-.376-14.059-.905-11.491-17.515-8.451-27.272,1.934-6.208-.4-10.4.371-16.262.764-5.795,2.953-8.589,2.39-14.712-.843-9.24,8.335-21.565,18.579-21.565H270.7c5.973.008,12.812,1.968,16.8,6.686,4.339,5.125,2.808,11.859,5.987,17.275,3.629,6.191,1.123,14.15,2.407,20.9,1.4,7.325,1.824,14.282,2.61,21.746,0,0,.02.192.042.526C298.7,108.919,298.772,118.967,288.61,119.561Z" transform="translate(-237.099 -39.373)" fill="#b1e5d2"/>
              </g>
              <path id="Trazado_149915" data-name="Trazado 149915" d="M285.852,156.421c-1.4,8.536-5.869,16.118-7.667,24.475-1.584,7.365-2.4,15.612-5.28,22.549-2.463,5.939-.97,12.795-2.7,18.892-1.951,6.873-6.4,3.688-11.242,2.7-2.282-.467-4.276.617-6.46.144-4.353-.945-6.052-6.191-10.552-6.991-3.419-.6-6.609,1.44-10.026-.622-5.5-3.309.011-16.865,2.161-22.484,3.02-7.9,3.128-17.535,7.189-24.891,4.4-7.981,3.521-15.445,5.371-24.32s2.452-16.8,5.371-25.635c2.851-8.646-1.649-16.129,1.145-25.117,1.4-4.486,2.551-6.847,2.118-11.765-1.111-12.41,5.461-22.377,19.328-20.963a20.388,20.388,0,0,1,18.262,22.2q-1.273,13.037-2.545,26.079-1.794,18.488-3.6,36.976c-.28,2.837-.382,5.758-.834,8.572C285.875,156.282,285.863,156.353,285.852,156.421Z" transform="translate(-227.557 56.814)" fill="#b1e5d2"/>
              <path id="Trazado_149916" data-name="Trazado 149916" d="M300.864,148.621q.272,1.315.535,2.636c3.077,15.295,3.074,31.766,4.415,47.327.365,4.248,3.759,19.071,1.292,21.178-4.556,3.889-15.289-.936-20.94.192-4.9.981-16.754,3.81-19.953-2.342-3.869-7.435-1.926-18.3-1.9-26.285.014-4.6-1.79-8.142-2.4-12.407-1.069-7.438.535-14.656-.786-22.176-.52-2.958-.9-5.789-1.643-8.739q-2.889-11.437-5.775-22.877-4.633-18.339-9.265-36.671A20.322,20.322,0,1,1,283.847,78.5l7.416,29.4C294.7,121.5,298.042,134.97,300.864,148.621Z" transform="translate(-201.469 58.485)" fill="#b1e5d2"/>
              <path id="Trazado_149917" data-name="Trazado 149917" d="M244.58,187.024a.526.526,0,0,1-.147-.02.55.55,0,0,1-.382-.676l14.825-53.676,5.136-56.969a.55.55,0,0,1,1.095.1l-5.153,57.065-14.842,53.773A.555.555,0,0,1,244.58,187.024Z" transform="translate(-201.096 80.442)" fill="#fff"/>
              <path id="Trazado_149918" data-name="Trazado 149918" d="M269.843,51.014a14.782,14.782,0,0,1,6.683-8.917c1.31-.848,12.769-5.374,13.123-3.091-.464-3,2.07-3.872,1.638-6.723-.356-2.342-4.143-5.673-5.866-6.972-15.377-11.584-34.428-2.2-41.923,13.841-3.018,6.465-3.323,13.96-3.018,20.968.5,11.149,3.883,27.007,17.905,23.644a30.661,30.661,0,0,1,10.886-1.024c7.894.523,4.418-2.806,3.054-7.647-2.016-7.164-4.477-15.807-2.653-23.412C269.724,51.455,269.783,51.235,269.843,51.014Z" transform="translate(-207.758 -20.156)" fill="#b1e5d2"/>
              <path id="Trazado_149919" data-name="Trazado 149919" d="M267.411,31.416a2.054,2.054,0,0,0-.546-.107,36.055,36.055,0,0,0-4.239.2q-3.92.182-7.84.37s-2.028,7.633-2.034,7.647c-.334,1.261.922,3.5,1.592,4.435a7.085,7.085,0,0,0,3.462,2.571,9.434,9.434,0,0,0,2.825.469,8.608,8.608,0,0,0,2.876-.023c.874-.3,1.2-1.143,1.686-1.861a23.222,23.222,0,0,0,2.294-4.358,32.5,32.5,0,0,0,1.536-5.266C269.352,34,268.93,31.917,267.411,31.416Z" transform="translate(-185.252 0.188)" fill="#b1e5d2"/>
              <path id="Trazado_149920" data-name="Trazado 149920" d="M259.067,34.924s-3.507-7.888-7.885-3.586l-.478,1.117s3.9-5.181,7.648,2.95S259.067,34.924,259.067,34.924Z" transform="translate(-188.896 -2.061)" fill="#b1e5d2"/>
              <path id="Trazado_149921" data-name="Trazado 149921" d="M258.844,36.142s-6.375,0-7.964-5.577l-.4,1.273s.88,4.384,8.445,4.859S258.844,36.142,258.844,36.142Z" transform="translate(-189.309 -1.127)" fill="#b1e5d2"/>
            </g>
            <g id="Grupo_106400" data-name="Grupo 106400" transform="translate(0 58.811)">
              <path id="Trazado_149922" data-name="Trazado 149922" d="M265.235,41.93c-6.672,4.876-10.249,10.292-14.842,17.374a91.148,91.148,0,0,0-6.03,10.125c-2.251,4.618-6.242,7.469-8.555,11.955-2.339,4.539-2.441,9.82-4.24,14.6-1.406,3.739-2.359,6.457-2.531,10.512-.2,4.463-.882,9.152-.1,13.592,1.278,7.2,4.768,7.6,11.68,7.266,6.035-.294,5.905-.752,6.731-6.771.673-4.893.865-9.667,1.847-14.568,1.191-5.965,4.143-8.569,7.348-14.022,3.541-6.033,5.224-9.361,11.1-13.007,4.836-3,4.867-5.586,5.685-10.993.877-5.815,3.168-22.829-3.391-26.424-1.83-1-4.05-.936-4.7,1.329Z" transform="translate(-228.571 -40.951)" fill="#b1e5d2"/>
              <path id="Trazado_149923" data-name="Trazado 149923" d="M229.258,83.143c-.249-3.971-1.482-13.25,4.344-14.444,2.495-.506,5.747.5,7.919,1.57,4.78,2.367,5.419,8.507,5.628,13.233a6.776,6.776,0,0,0,.32,2.376c.305.634,1.329.973,1.544,1.482a1.888,1.888,0,0,1-1.739,2.54c-1.343.15-2.246-1.247-3.5-.436-1.185.761-.356,2.158-.518,3.332a2.509,2.509,0,0,1-2.574,2.248c-.628.057-1.544-.535-1.926-.484-.882.127-.438.724-1.165,1.1s-.749.362-1.536,0c-.192-.09-.167-.834-.478-.945-.286-.1-.67.15-.733.136-.673-.178-.981.518-1.852-.438-1.1-1.208-1.479-3.578-2.019-5.071A22.4,22.4,0,0,1,229.258,83.143Z" transform="translate(-227.825 9.533)" fill="#b1e5d2"/>
            </g>
            <path id="Trazado_149924" data-name="Trazado 149924" d="M237.856,77.872a.458.458,0,0,1-.277-.823c2.065-1.561,2.956-4.389,3.9-7.382a21.209,21.209,0,0,1,2.972-6.7c.546-.7,1.191-1.7,1.875-2.755,2.381-3.682,5.342-8.264,8.9-8.417a.457.457,0,1,1,.037.914c-3.08.133-6.021,4.678-8.165,8-.7,1.072-1.349,2.087-1.926,2.823a20.668,20.668,0,0,0-2.82,6.414c-.945,3-1.92,6.1-4.217,7.837A.467.467,0,0,1,237.856,77.872Z" transform="translate(-212.434 37.682)" fill="#fff"/>
          </g>
          <path id="Trazado_149925" data-name="Trazado 149925" d="M277.87,73.813c2.155,2.7,4.4,5.345,6.516,8.091,3.855,4.995,6.417,10.428,10.855,14.989,2.014,2.076,11.717,10.091,3.7,10.973,2.045,3.23,3.405,7.407-1.739,8.487-1.951.413-1.92,1.912-4.641,1.431-2.158-.379-4.29-2.548-5.936-3.858-4.078-3.25-5.173-7.192-8.145-11.4-3.329-4.709-8.765-8.731-13.838-12-6.182-3.982-12.585-10.34-11.8-18.174.447-4.469,1.16-18.01,5.473-20.564,5.385-3.187,11.647,10.131,13.457,13.293A70.054,70.054,0,0,0,277.87,73.813Z" transform="translate(-184.322 36.789)" fill="#b1e5d2"/>
          <path id="Trazado_149926" data-name="Trazado 149926" d="M257.963,90.34a3.961,3.961,0,0,1-.97-.127.458.458,0,0,1-.331-.554.465.465,0,0,1,.557-.331,2.457,2.457,0,0,0,2.52-.7c2.656-2.684,2.817-11.417,2.059-14.3a22.887,22.887,0,0,0-1.762-4.273,18.936,18.936,0,0,1-2.008-5.376,49.536,49.536,0,0,1-.424-7.271c-.008-.823-.017-1.629-.037-2.4a.454.454,0,0,1,.444-.469h.011a.457.457,0,0,1,.458.444c.023.775.031,1.584.04,2.415a48.936,48.936,0,0,0,.41,7.133,18.029,18.029,0,0,0,1.923,5.119,23.316,23.316,0,0,1,1.83,4.446c.792,3.015.744,12.1-2.294,15.173A3.33,3.33,0,0,1,257.963,90.34Z" transform="translate(-177.241 42.71)" fill="#fff"/>
          <path id="Trazado_149927" data-name="Trazado 149927" d="M230.08,145.392h-.051a.688.688,0,0,1-.636-.733c.914-12.75,10.261-41.648,10.659-42.873a.7.7,0,0,1,.865-.441.687.687,0,0,1,.441.865c-.1.3-9.7,29.965-10.6,42.545A.683.683,0,0,1,230.08,145.392Z" transform="translate(-227.072 128.222)" fill="#fff"/>
        </g>
      </g>
      <g id="Grupo_106413" data-name="Grupo 106413" transform="translate(0 10.071)">
        <g id="Grupo_106409" data-name="Grupo 106409" transform="translate(72.259 5.121)">
          <g id="haed-4" data-name="haed" transform="translate(5.376 4.401)">
            <g id="Grupo_106407" data-name="Grupo 106407">
              <g id="Grupo_106404" data-name="Grupo 106404">
                <path id="Trazado_149928" data-name="Trazado 149928" d="M120.695,46.65c-1.137-4.545-1.267-10.119,1.638-14.079,4.568-6.242,16.3-7.489,21.794-2.022,3.637,3.62,4.641,7.916,4.5,12.981-.085,2.879.32,5.707,2.54,7.8.272.255.594.6.438.945-.139.32-.563.334-.9.421-1.069.266-1.558,1.49-1.72,2.571a44.847,44.847,0,0,1-1.408,7.746,2.418,2.418,0,0,1-.987,1.4,2.894,2.894,0,0,1-1.762.178c-2.011-.226-4-.56-5.984-.981a1.193,1.193,0,0,0-.348.218,2.905,2.905,0,0,0-.608,1.448q-1.37,6.054-2.732,12.1a71.164,71.164,0,0,0-14.215-8.717,18.668,18.668,0,0,0,2.837-13.991A35.008,35.008,0,0,1,120.695,46.65Z" transform="translate(-119.943 -27.084)" fill="#ff8f67"/>
                <path id="Trazado_149929" data-name="Trazado 149929" d="M133.145,45.7a.234.234,0,0,1-.1-.02c-.286-.1-7-2.526-8.657-8.015a.293.293,0,0,1,.56-.17c1.564,5.207,8.224,7.614,8.289,7.639a.288.288,0,0,1,.178.37A.294.294,0,0,1,133.145,45.7Z" transform="translate(-111.833 -8.421)" fill="#894c4c"/>
              </g>
              <g id="Grupo_106406" data-name="Grupo 106406" transform="translate(24.139 17.096)">
                <g id="Grupo_106405" data-name="Grupo 106405">
                  <path id="Trazado_149930" data-name="Trazado 149930" d="M132.078,34.812a.761.761,0,0,1-.365.017,3.431,3.431,0,0,0-2,.305.829.829,0,1,1-.8-1.451,5.1,5.1,0,0,1,3.1-.484.819.819,0,0,1,.665.959A.809.809,0,0,1,132.078,34.812Z" transform="translate(-128.478 -33.129)" fill="#a86060"/>
                  <path id="Trazado_149931" data-name="Trazado 149931" d="M130.371,35.146c.023.679-.221,1.247-.546,1.259s-.6-.535-.622-1.219.223-1.253.543-1.261S130.348,34.467,130.371,35.146Z" transform="translate(-127.156 -31.675)" fill="#a86060"/>
                </g>
              </g>
            </g>
            <path id="Trazado_149932" data-name="Trazado 149932" d="M129.305,38.256a.23.23,0,0,1-.15-.057.233.233,0,0,1-.028-.328,2.538,2.538,0,0,1,2.574-.656.236.236,0,0,1,.17.286.241.241,0,0,1-.286.167,2.078,2.078,0,0,0-2.1.5A.229.229,0,0,1,129.305,38.256Z" transform="translate(-103.253 -8.744)" fill="#894c4c"/>
            <g id="Grupo_106408" data-name="Grupo 106408" transform="translate(11.792 19.614)">
              <path id="Trazado_149933" data-name="Trazado 149933" d="M125.841,35.529a.26.26,0,0,1-.079-.014l-1.44-.413a.29.29,0,1,1,.161-.557l1.437.413a.291.291,0,0,1-.079.571Z" transform="translate(-124.113 -33.083)" fill="#894c4c"/>
              <path id="Trazado_149934" data-name="Trazado 149934" d="M125.709,38.069a.31.31,0,0,1-.291-.3c.017-.747-.127-2.774-1-3.2a.291.291,0,0,1,.255-.523c1.358.662,1.329,3.422,1.321,3.736A.287.287,0,0,1,125.709,38.069Z" transform="translate(-123.845 -34.019)" fill="#894c4c"/>
            </g>
          </g>
          <path id="Trazado_149935" data-name="Trazado 149935" d="M151.685,32.721a16.864,16.864,0,0,0-7.829-6.109c-6.9-2.619-14.554-.26-20.007,4.585a18.255,18.255,0,0,0-5.082,18.321c1.346,4.237,4.3,7.5,4.437,12.04a20.074,20.074,0,0,0,.065,2.059,8.376,8.376,0,0,0,1.623-4.723c.653,1.756.184,4.644.311,6.74,1.694-.571,3.176-.86,4.5-2.212a19.512,19.512,0,0,0,2.794-4,15.634,15.634,0,0,0,1.96-7.317c.1-1.194,1.886-4.867,3.083-2.571.614,1.177-.577,4.568,1.985,4.16-.416-2.172-.583-2.936.594-4.782.605-.95,2.91-3.238,2.774-4.392.057.506.1,3.849-.619,3.979,4.777-.888,11.5-6.785,10.792-12.184A8.757,8.757,0,0,0,151.685,32.721Z" transform="translate(-118.043 -25.528)" fill="#a86060"/>
        </g>
        <path id="Trazado_149936" data-name="Trazado 149936" d="M116.476,123.061c-4.519-2.438-9.129-7.4-14.758-6.239-4.172.863-9.562,5.068-9.209,9.667.286,3.719,5.328,6.307,8.091,8.422,6.717,5.136,12.059,9.805,20.123,12.15,7.84,2.28,20.714,2.26,12.24-8.182-2.664-3.284-5.815-6.024-8.236-9.565-1.4-2.065-.684-2.243-2.772-3.829C120.509,124.382,118.023,123.892,116.476,123.061Z" transform="translate(-92.493 146.181)" fill="#b57878"/>
        <g id="Grupo_106410" data-name="Grupo 106410" transform="translate(48.838 54.352)">
          <path id="Trazado_149937" data-name="Trazado 149937" d="M161.276,123.117H127.352c-3.609-.15-6.751-.373-6.751-.373-14.056-.908-11.494-17.518-8.451-27.272,1.937-6.205-.4-10.4.371-16.265.764-5.8,2.953-8.589,2.393-14.709-.846-9.24,8.332-21.562,18.576-21.562h9.876c5.973,0,12.809,1.963,16.8,6.68,4.336,5.128,2.806,11.861,5.984,17.28,3.629,6.185,1.12,14.147,2.407,20.889,1.4,7.331,1.824,14.285,2.61,21.749,0,0,.02.2.042.523C171.361,112.478,171.435,122.526,161.276,123.117Z" transform="translate(-109.761 -42.935)" fill="#b1e5d2"/>
        </g>
        <g id="Grupo_106411" data-name="Grupo 106411" transform="translate(68.695 123.422)">
          <path id="Trazado_149938" data-name="Trazado 149938" d="M151.3,121.528c-5.04,1.01-11.754.13-15.349,4.616-2.664,3.329-4.129,10-.919,13.318,2.591,2.678,8.125,1.454,11.6,1.324,8.448-.331,15.544-.15,23.245-3.487,7.492-3.247,17.393-11.474,4.206-14.113-4.146-.826-8.321-.925-12.444-2.116-2.39-.687-1.951-1.281-4.579-1.171C155.248,119.975,153.017,121.18,151.3,121.528Z" transform="translate(-86.77 28.676)" fill="#b57878"/>
          <path id="Trazado_149939" data-name="Trazado 149939" d="M182.712,146.239c2.834,8.168,2.523,16.964,4.927,25.168,2.118,7.229,5.331,14.865,6.112,22.337.662,6.395,5.246,11.709,6.627,17.9,1.564,6.969-3.866,6.293-8.595,7.73-2.229.679-3.462,2.582-5.611,3.21-4.273,1.242-8.27-2.56-12.605-1.117-3.292,1.1-5.128,4.415-9.11,4.237-6.409-.294-8.032-14.831-8.821-20.8-1.111-8.388-5.611-16.907-5.549-25.31.071-9.115-4.268-15.258-6.87-23.938-2.6-8.7-5.854-15.94-7.5-25.095-1.612-8.963-9.135-13.4-10.965-22.626-.911-4.61-1.024-7.237-3.75-11.352-6.892-10.382-5.863-22.275,7-27.646a20.389,20.389,0,0,1,26.633,10.807q5.1,12.074,10.2,24.136,7.237,17.113,14.461,34.224c1.111,2.625,2.412,5.241,3.354,7.933C182.664,146.106,182.687,146.168,182.712,146.239Z" transform="translate(-116.782 -67.357)" fill="#b1e5d2"/>
        </g>
        <path id="Trazado_149940" data-name="Trazado 149940" d="M157.808,162.165c-.274.854-.554,1.7-.834,2.56-4.862,14.82-12.987,29.153-19.486,43.354-1.776,3.875-6.129,18.448-9.313,19.062-5.88,1.14-12.843-8.352-18.315-10.15-4.743-1.567-16.46-4.947-16.208-11.873.3-8.377,7.345-16.876,11.3-23.811,2.274-4,2.452-7.97,4.027-11.977,2.735-7,7.69-12.492,10.241-19.681,1.01-2.831,2.076-5.478,2.882-8.411q3.127-11.382,6.25-22.756,5.006-18.242,10.018-36.473a20.321,20.321,0,1,1,39.19,10.761Q173.55,107.385,169.528,122C165.809,135.535,162.082,148.9,157.808,162.165Z" transform="translate(-90.384 55.53)" fill="#b1e5d2"/>
        <path id="Trazado_149941" data-name="Trazado 149941" d="M142.5,54.576a14.8,14.8,0,0,1,6.686-8.923c1.309-.846,12.767-5.368,13.117-3.088-.461-3,2.073-3.877,1.638-6.725-.356-2.336-4.138-5.671-5.863-6.966-15.374-11.584-34.425-2.206-41.92,13.841-3.018,6.462-3.326,13.96-3.018,20.968.492,11.149,3.88,27.007,17.905,23.644A30.456,30.456,0,0,1,141.936,86.3c7.891.526,4.415-2.808,3.049-7.65-2.014-7.164-4.474-15.81-2.65-23.409C142.386,55.017,142.445,54.8,142.5,54.576Z" transform="translate(-54.91 -23.717)" fill="#b1e5d2"/>
        <path id="Trazado_149942" data-name="Trazado 149942" d="M140.073,34.974a2.055,2.055,0,0,0-.546-.1,36.625,36.625,0,0,0-4.237.2q-3.92.182-7.845.37s-2.025,7.636-2.028,7.65c-.337,1.261.919,3.5,1.592,4.437a7.066,7.066,0,0,0,3.462,2.565,9.32,9.32,0,0,0,2.825.472,8.591,8.591,0,0,0,2.873-.023c.874-.3,1.2-1.143,1.688-1.858a23.149,23.149,0,0,0,2.291-4.361,32.783,32.783,0,0,0,1.536-5.266C142.019,37.559,141.592,35.478,140.073,34.974Z" transform="translate(-32.404 -3.372)" fill="#b1e5d2"/>
        <path id="Trazado_149943" data-name="Trazado 149943" d="M131.735,38.483s-3.51-7.888-7.888-3.583l-.481,1.117s3.906-5.178,7.65,2.941S131.735,38.483,131.735,38.483Z" transform="translate(-36.051 -5.622)" fill="#b1e5d2"/>
        <path id="Trazado_149944" data-name="Trazado 149944" d="M131.5,39.7s-6.372,0-7.964-5.577l-.4,1.276s.88,4.381,8.445,4.859S131.5,39.7,131.5,39.7Z" transform="translate(-36.463 -4.687)" fill="#b1e5d2"/>
        <g id="Grupo_106412" data-name="Grupo 106412" transform="translate(11.262 52.916)">
          <path id="Trazado_149945" data-name="Trazado 149945" d="M150.636,42.882c-7.614,3.21-12.345,7.653-18.448,13.485a92.179,92.179,0,0,0-8.2,8.456c-3.255,3.976-7.8,5.832-11.081,9.661-3.32,3.877-4.641,8.994-7.495,13.228-2.229,3.317-3.781,5.741-4.884,9.644-1.222,4.3-2.972,8.7-3.233,13.2-.419,7.3,2.885,8.5,9.689,9.76,5.939,1.109,5.919.636,8.111-5.031,1.785-4.607,3.071-9.206,5.156-13.754,2.537-5.526,6-7.379,10.385-11.946,4.836-5.051,7.24-7.9,13.8-10.094,5.4-1.807,6.027-4.316,8.072-9.387,2.2-5.45,8.349-21.48,2.794-26.492-1.55-1.394-3.73-1.844-4.887.2Z" transform="translate(-95.045 -42.427)" fill="#b1e5d2"/>
          <path id="Trazado_149946" data-name="Trazado 149946" d="M96.633,79.7c.676-3.92,1.618-13.233,7.56-13.047,2.545.079,5.481,1.807,7.342,3.351,4.1,3.405,3.312,9.534,2.429,14.172a6.706,6.706,0,0,0-.238,2.39c.147.682,1.066,1.25,1.157,1.8a1.882,1.882,0,0,1-2.28,2.065c-1.335-.161-1.895-1.731-3.3-1.233-1.329.472-.846,2.022-1.276,3.122a2.513,2.513,0,0,1-3.023,1.6c-.622-.1-1.38-.88-1.759-.916-.888-.082-.6.6-1.394.8s-.806.184-1.49-.354c-.164-.127.028-.848-.249-1.032-.255-.158-.687,0-.738-.031-.617-.328-1.078.274-1.708-.857-.789-1.425-.611-3.824-.795-5.4A22.694,22.694,0,0,1,96.633,79.7Z" transform="translate(-96.475 1.854)" fill="#b1e5d2"/>
        </g>
        <path id="Trazado_149947" data-name="Trazado 149947" d="M111.457,66.489l-.4-.221-.351-.3a21.274,21.274,0,0,1,4.822-5.549c.73-.512,1.64-1.276,2.6-2.084,3.357-2.82,7.532-6.332,10.979-5.422a.455.455,0,0,1,.328.557.449.449,0,0,1-.56.325c-2.989-.783-7.13,2.7-10.159,5.241-.979.82-1.9,1.6-2.667,2.132A20.713,20.713,0,0,0,111.457,66.489Z" transform="translate(-59.198 29.392)" fill="#fff"/>
        <path id="Trazado_149948" data-name="Trazado 149948" d="M150.533,77.372c2.155,2.709,4.4,5.345,6.519,8.091,3.849,5,6.414,10.428,10.852,14.992,2.017,2.076,11.717,10.091,3.708,10.973,2.045,3.227,3.4,7.407-1.742,8.49-1.951.407-1.92,1.909-4.641,1.431-2.158-.385-4.288-2.551-5.936-3.863-4.081-3.247-5.17-7.195-8.145-11.395-3.332-4.706-8.765-8.736-13.838-12-6.185-3.979-12.585-10.337-11.8-18.18.45-4.463,1.162-18,5.473-20.558,5.385-3.187,11.647,10.131,13.457,13.29A70.174,70.174,0,0,0,150.533,77.372Z" transform="translate(-32.263 33.228)" fill="#b1e5d2"/>
        <path id="Trazado_149949" data-name="Trazado 149949" d="M130.626,93.9a3.921,3.921,0,0,1-.967-.127.458.458,0,1,1,.223-.888,2.453,2.453,0,0,0,2.52-.7c2.656-2.684,2.817-11.415,2.059-14.294a22.62,22.62,0,0,0-1.762-4.273,18.961,18.961,0,0,1-2.005-5.376,49.146,49.146,0,0,1-.427-7.24c-.009-.834-.014-1.649-.037-2.427a.454.454,0,0,1,.441-.469h.014a.455.455,0,0,1,.458.441c.023.783.031,1.606.04,2.446a48.132,48.132,0,0,0,.413,7.1,17.979,17.979,0,0,0,1.923,5.116,23.592,23.592,0,0,1,1.827,4.449c.795,3.012.744,12.1-2.294,15.171A3.333,3.333,0,0,1,130.626,93.9Z" transform="translate(-25.183 39.151)" fill="#fff"/>
        <path id="Trazado_149950" data-name="Trazado 149950" d="M106.892,202.4a.551.551,0,0,1-.484-.812,52.128,52.128,0,0,0,3.544-9.042,69.8,69.8,0,0,1,2.585-7.133c1.145-2.562,2.483-5.074,3.776-7.5,1.326-2.489,2.7-5.06,3.849-7.673,1.321-2.992,2.619-5.789,3.877-8.49,4.174-8.98,8.12-17.459,11.723-31,1.284-4.833,2.78-9.687,4.231-14.381.733-2.37,1.462-4.737,2.172-7.113l8.578-28.8a.539.539,0,0,1,.684-.371.549.549,0,0,1,.368.684l-8.578,28.8q-1.065,3.568-2.175,7.124c-1.445,4.684-2.938,9.525-4.217,14.336-3.631,13.64-7.594,22.162-11.791,31.187-1.256,2.7-2.551,5.487-3.869,8.47-1.168,2.65-2.548,5.241-3.883,7.744-1.284,2.41-2.613,4.9-3.742,7.43A68.783,68.783,0,0,0,111,192.888a52.922,52.922,0,0,1-3.623,9.228A.556.556,0,0,1,106.892,202.4Z" transform="translate(-67.176 79.302)" fill="#fff"/>
      </g>
    </g>
  </g>
</svg>
