<svg xmlns="http://www.w3.org/2000/svg" width="75.771" height="66.838" viewBox="0 0 75.771 66.838">
  <g id="Grupo_106823" data-name="Grupo 106823" transform="translate(-1089.451 -812.389)">
    <g id="Grupo_106816" data-name="Grupo 106816" transform="translate(1137.232 841.35)">
      <path id="Trazado_151265" data-name="Trazado 151265" d="M1226.541,895.865a7.085,7.085,0,0,1,.281-.76h-.9Z" transform="translate(-1225.917 -895.104)" fill="#00978e"/>
    </g>
    <g id="Grupo_106817" data-name="Grupo 106817" transform="translate(1106.219 841.35)">
      <path id="Trazado_151266" data-name="Trazado 151266" d="M1138.246,895.1h-.9l.624.76A7.085,7.085,0,0,1,1138.246,895.1Z" transform="translate(-1137.341 -895.104)" fill="#00978e"/>
    </g>
    <g id="Grupo_106818" data-name="Grupo 106818" transform="translate(1108.838 824.486)">
      <circle id="Elipse_4282" data-name="Elipse 4282" cx="6.138" cy="6.138" r="6.138" fill="#00978e"/>
    </g>
    <g id="Grupo_106819" data-name="Grupo 106819" transform="translate(1098.501 838.758)">
      <path id="Trazado_151267" data-name="Trazado 151267" d="M1132.5,887.7h-1.967a5.408,5.408,0,0,0-5.408,5.408v.165l-1.212.936-3.629-4.424a2.813,2.813,0,1,0-4.341,3.58l5.591,6.742a2.352,2.352,0,0,0,3.247.361l7.33-5.657.949,1.23-7.935,6.135v4.654h1.9l-4.115,7.035a3.6,3.6,0,0,0-.484,2.054l.613,9.247a3.218,3.218,0,0,0,3.208,3.005q.107,0,.216-.007a3.218,3.218,0,0,0,3-3.424l-.483-7.276a3.6,3.6,0,0,1,.485-2.055l2.608-4.459,2.823,6.519a4.762,4.762,0,0,0,.709,1.153l5.011,6.026a3.217,3.217,0,0,0,4.531.417h0a3.217,3.217,0,0,0,.417-4.531l-4.42-5.316a4.751,4.751,0,0,1-.709-1.153l-3.132-7.234h.6V893.108A5.408,5.408,0,0,0,1132.5,887.7Z" transform="translate(-1115.299 -887.7)" fill="#00978e"/>
    </g>
    <g id="Grupo_106820" data-name="Grupo 106820" transform="translate(1138.947 823.582)">
      <circle id="Elipse_4283" data-name="Elipse 4283" cx="6.138" cy="6.138" r="6.138" transform="matrix(0.987, -0.16, 0.16, 0.987, 0, 1.966)" fill="#00978e"/>
    </g>
    <g id="Grupo_106821" data-name="Grupo 106821" transform="translate(1129.514 838.758)">
      <path id="Trazado_151268" data-name="Trazado 151268" d="M1234.144,920.531l-4.421-5.316a4.765,4.765,0,0,1-.709-1.153l-3.132-7.234h.6V893.108a5.408,5.408,0,0,0-5.408-5.408h-1.966a5.408,5.408,0,0,0-5.408,5.408v.165l-1.212.936-3.629-4.424a2.813,2.813,0,1,0-4.341,3.58l5.591,6.742a2.351,2.351,0,0,0,3.247.361l7.33-5.657.949,1.23-7.935,6.135v4.654h1.9l-4.115,7.035a3.592,3.592,0,0,0-.484,2.054l.613,9.247a3.218,3.218,0,0,0,3.208,3.005c.072,0,.144,0,.216-.007a3.218,3.218,0,0,0,3-3.424l-.483-7.276a3.6,3.6,0,0,1,.484-2.055l2.608-4.459,2.823,6.519a4.769,4.769,0,0,0,.709,1.153l5.011,6.026a3.218,3.218,0,0,0,4.948-4.115Z" transform="translate(-1203.875 -887.7)" fill="#00978e"/>
    </g>
    <g id="Grupo_106822" data-name="Grupo 106822" transform="translate(1089.451 812.389)">
      <path id="Trazado_151269" data-name="Trazado 151269" d="M1158.955,813.272a3.017,3.017,0,0,0-2.133-.883h-58.971a3.016,3.016,0,0,0-2.132.883l-6.268,6.268v20.022a1.788,1.788,0,0,0,1.788,1.788h5.657a4.564,4.564,0,0,1,1.5-2.281,4.6,4.6,0,0,1,6.476.639l1.347,1.642h.9a7.229,7.229,0,0,1,3.919-3.85,7.924,7.924,0,1,1,7.643.124,7.234,7.234,0,0,1,3.641,3.726h5.582a4.564,4.564,0,0,1,1.5-2.281,4.6,4.6,0,0,1,6.476.639l1.347,1.642h.9a7.228,7.228,0,0,1,3.919-3.85,7.924,7.924,0,1,1,7.644.124,7.232,7.232,0,0,1,3.64,3.726h10.1a1.788,1.788,0,0,0,1.788-1.788V819.54Z" transform="translate(-1089.451 -812.389)" fill="#00978e"/>
    </g>
  </g>
</svg>
