<svg xmlns="http://www.w3.org/2000/svg" width="299.269" height="306.2" viewBox="0 0 299.269 306.2">
  <g id="Grupo_106794" data-name="Grupo 106794" transform="translate(-71.704 -92.277)">
    <g id="Grupo_106757" data-name="Grupo 106757" transform="translate(71.704 92.277)">
      <g id="Grupo_106755" data-name="Grupo 106755" transform="translate(6.176 151.318)">
        <path id="Trazado_151006" data-name="Trazado 151006" d="M99.2,609.629,266.832,533.96c4.488-2.242,11.79-2.242,16.24,0l94.894,47.656c4.456,2.242,4.431,5.9-.049,8.135L212.933,672.074c-4.484,2.238-11.785,2.235-16.241,0L93.02,619.919C85.687,616.2,85.95,614.557,99.2,609.629Z" transform="translate(-88.199 -518.869)" fill="#1d99b3" opacity="0.58"/>
        <path id="Trazado_151007" data-name="Trazado 151007" d="M112.676,677.866l94.9,47.659c4.455,2.238,11.757,2.242,16.241,0L388.8,643.206c2.254-1.128,3.386-2.612,3.378-4.092q.019,4.068.029,8.128c0,1.481-1.125,2.968-3.381,4.1L223.835,733.657c-4.476,2.239-11.78,2.235-16.236,0L112.7,685.994c-2.216-1.107-3.32-2.573-3.328-4.035q-.006-4.063-.025-8.128C109.36,675.293,110.464,676.756,112.676,677.866Z" transform="translate(-101.433 -585.708)" fill="#0f6b93"/>
        <path id="Trazado_151008" data-name="Trazado 151008" d="M112.831,580.466l164.985-82.323c4.488-2.242,11.79-2.242,16.241,0L388.95,545.8c4.456,2.242,4.431,5.9-.049,8.136L223.917,636.257c-4.484,2.238-11.785,2.235-16.24,0l-94.9-47.659C108.323,586.356,108.348,582.7,112.831,580.466Z" transform="translate(-101.496 -496.462)" fill="#3dbfc9"/>
        <g id="Grupo_106752" data-name="Grupo 106752" transform="translate(27.373 10.708)" opacity="0.38">
          <path id="Trazado_151009" data-name="Trazado 151009" d="M329.782,670.152l10.317,5.217,12.733-6.322-10.321-5.217Z" transform="translate(-266.712 -611.879)" fill="#1d99b3"/>
          <path id="Trazado_151010" data-name="Trazado 151010" d="M296.409,783.38l10.31,5.215,26.242-13.043.227-1.494-36.42,8.161Z" transform="translate(-245.832 -680.84)" fill="#1d99b3"/>
          <path id="Trazado_151011" data-name="Trazado 151011" d="M201.774,699.942l10.317,5.217,12.731-6.332-10.318-5.214Z" transform="translate(-186.627 -630.512)" fill="#1d99b3"/>
          <path id="Trazado_151012" data-name="Trazado 151012" d="M273.936,731.715l10.321,5.214L297,730.606l-10.32-5.22Z" transform="translate(-231.773 -650.39)" fill="#1d99b3"/>
          <path id="Trazado_151013" data-name="Trazado 151013" d="M312.219,712.706l10.309,5.221,12.735-6.331-10.321-5.214Z" transform="translate(-255.724 -638.501)" fill="#1d99b3"/>
          <path id="Trazado_151014" data-name="Trazado 151014" d="M252.4,708.594l10.316,5.22,12.722-6.321-10.308-5.227Z" transform="translate(-218.301 -635.925)" fill="#1d99b3"/>
          <path id="Trazado_151015" data-name="Trazado 151015" d="M161.315,728.521l10.321,5.217,12.731-6.332-22.543-.116Z" transform="translate(-161.315 -651.582)" fill="#1d99b3"/>
          <path id="Trazado_151016" data-name="Trazado 151016" d="M350.482,693.7l10.309,5.224,12.731-6.331L363.2,687.376Z" transform="translate(-279.662 -626.61)" fill="#1d99b3"/>
          <path id="Trazado_151017" data-name="Trazado 151017" d="M362.515,721.538l10.321,5.217,12.723-6.328-10.311-5.211Z" transform="translate(-287.19 -644.027)" fill="#1d99b3"/>
          <path id="Trazado_151018" data-name="Trazado 151018" d="M324.282,740.538l10.313,5.217,12.73-6.326-10.318-5.217Z" transform="translate(-263.27 -655.912)" fill="#1d99b3"/>
          <path id="Trazado_151019" data-name="Trazado 151019" d="M400.342,702.733l10.317,5.217,12.73-6.328L413.072,696.4Z" transform="translate(-310.855 -632.259)" fill="#1d99b3"/>
          <path id="Trazado_151020" data-name="Trazado 151020" d="M195.03,740.022l10.312,5.224,19.721-9.8-29.637,3.431Z" transform="translate(-182.408 -656.683)" fill="#1d99b3"/>
          <path id="Trazado_151021" data-name="Trazado 151021" d="M230.575,757.927,252.85,769.19l21.468-10.672L263.995,753.3l-6.593,3.281-26.318.254Z" transform="translate(-204.645 -667.854)" fill="#1d99b3"/>
          <path id="Trazado_151022" data-name="Trazado 151022" d="M369.859,752.232l10.315,5.211,19.895-9.877.133-1.45Z" transform="translate(-291.785 -663.359)" fill="#1d99b3"/>
          <path id="Trazado_151023" data-name="Trazado 151023" d="M525.5,534.349l10.311,5.211,18.525-9.276-10.32-5.22Z" transform="translate(-389.156 -525.064)" fill="#1d99b3"/>
          <path id="Trazado_151024" data-name="Trazado 151024" d="M484.565,593.228l10.321,5.217,12.722-6.321-10.313-5.217Z" transform="translate(-363.547 -563.754)" fill="#1d99b3"/>
          <path id="Trazado_151025" data-name="Trazado 151025" d="M323.2,639.613l10.31,5.214,12.733-6.322-10.321-5.217Z" transform="translate(-262.595 -592.772)" fill="#1d99b3"/>
          <path id="Trazado_151026" data-name="Trazado 151026" d="M368.494,650.922l10.309,5.224,12.734-6.332L381.223,644.6Z" transform="translate(-290.931 -599.85)" fill="#1d99b3"/>
          <path id="Trazado_151027" data-name="Trazado 151027" d="M426.438,692.6l10.324,5.217,55.914-27.788.471-2.4Z" transform="translate(-327.182 -614.253)" fill="#1d99b3"/>
          <path id="Trazado_151028" data-name="Trazado 151028" d="M485.112,559.14l10.32,5.22,12.723-6.328-10.3-5.218Z" transform="translate(-363.889 -542.426)" fill="#1d99b3"/>
          <path id="Trazado_151029" data-name="Trazado 151029" d="M592.448,591.82l10.314,5.214,31.334-15.57-10.3-5.221Z" transform="translate(-431.041 -557.083)" fill="#1d99b3"/>
          <path id="Trazado_151030" data-name="Trazado 151030" d="M363.666,619.492l10.32,5.22,12.733-6.322L376.4,613.176Z" transform="translate(-287.91 -580.189)" fill="#1d99b3"/>
          <path id="Trazado_151031" data-name="Trazado 151031" d="M503.446,617.679l10.32,5.22,12.729-6.318-10.321-5.217Z" transform="translate(-375.359 -579.055)" fill="#1d99b3"/>
          <path id="Trazado_151032" data-name="Trazado 151032" d="M638.027,612.87l10.314,5.214,26.963-13.4.39-1.579Z" transform="translate(-459.556 -573.89)" fill="#1d99b3"/>
          <path id="Trazado_151033" data-name="Trazado 151033" d="M406.494,631.424l10.324,5.22,12.722-6.325L419.22,625.1Z" transform="translate(-314.704 -587.65)" fill="#1d99b3"/>
          <path id="Trazado_151034" data-name="Trazado 151034" d="M553.76,626.5l10.321,5.22,12.722-6.325-10.313-5.22Z" transform="translate(-406.837 -584.566)" fill="#1d99b3"/>
          <path id="Trazado_151035" data-name="Trazado 151035" d="M465.22,636.679l10.317,5.217,12.723-6.328-10.321-5.217Z" transform="translate(-351.444 -590.934)" fill="#1d99b3"/>
          <path id="Trazado_151036" data-name="Trazado 151036" d="M515.933,645.3l10.321,5.217,12.726-6.325-10.318-5.211Z" transform="translate(-383.172 -596.334)" fill="#1d99b3"/>
          <path id="Trazado_151037" data-name="Trazado 151037" d="M282.745,659.716l10.3,5.214,12.744-6.322-10.325-5.216Z" transform="translate(-237.284 -605.348)" fill="#1d99b3"/>
          <path id="Trazado_151038" data-name="Trazado 151038" d="M580.633,647.357l10.32,5.22,19.889-9.886.273-1.52Z" transform="translate(-423.649 -597.704)" fill="#1d99b3"/>
          <path id="Trazado_151039" data-name="Trazado 151039" d="M426.438,655.962l10.405,5.175,12.638-6.283-10.321-5.217Z" transform="translate(-327.182 -603)" fill="#1d99b3"/>
          <path id="Trazado_151040" data-name="Trazado 151040" d="M477.69,664.3,488,669.521l12.744-6.326-10.321-5.217Z" transform="translate(-359.246 -608.218)" fill="#1d99b3"/>
          <path id="Trazado_151041" data-name="Trazado 151041" d="M242.255,679.827l10.321,5.217,12.718-6.321L254.978,673.5Z" transform="translate(-211.953 -617.93)" fill="#1d99b3"/>
          <path id="Trazado_151042" data-name="Trazado 151042" d="M388.707,674.695l10.32,5.22,12.728-6.319-10.321-5.217Z" transform="translate(-303.576 -614.725)" fill="#1d99b3"/>
          <path id="Trazado_151043" data-name="Trazado 151043" d="M291.112,689.372l10.3,5.218,12.736-6.322-10.316-5.221Z" transform="translate(-242.519 -623.902)" fill="#1d99b3"/>
          <path id="Trazado_151044" data-name="Trazado 151044" d="M439.872,683.1l10.321,5.217L462.911,682l-10.321-5.217Z" transform="translate(-335.586 -619.982)" fill="#1d99b3"/>
          <path id="Trazado_151045" data-name="Trazado 151045" d="M444.611,579.259l10.322,5.211,12.726-6.322-10.306-5.221Z" transform="translate(-338.551 -555.009)" fill="#1d99b3"/>
          <path id="Trazado_151046" data-name="Trazado 151046" d="M524.979,557.694l10.309,5.224,31.346-15.576-10.32-5.22Z" transform="translate(-388.831 -535.736)" fill="#1d99b3"/>
          <path id="Trazado_151047" data-name="Trazado 151047" d="M580.09,570.776,590.406,576l23.338-11.6-10.313-5.22Z" transform="translate(-423.309 -546.407)" fill="#1d99b3"/>
          <path id="Trazado_151048" data-name="Trazado 151048" d="M404.155,599.369l10.321,5.217,12.722-6.321-10.31-5.218Z" transform="translate(-313.241 -567.596)" fill="#1d99b3"/>
          <path id="Trazado_151049" data-name="Trazado 151049" d="M541.7,598.67l10.321,5.217,12.729-6.319-10.316-5.221Z" transform="translate(-399.29 -567.159)" fill="#1d99b3"/>
          <path id="Trazado_151050" data-name="Trazado 151050" d="M445.905,612.454l10.3,5.221,12.744-6.322-10.324-5.22Z" transform="translate(-339.361 -575.783)" fill="#1d99b3"/>
        </g>
        <path id="Trazado_151051" data-name="Trazado 151051" d="M349.554,559.086l.077,1.319-22.487,11.176L271.7,599.129l-1.1-.553-.018,1.118-20.073,9.96-1.064-.536.075,1.036-26.079,13.389-10.34-5.227.009-2.193-2.249,1.053L188.6,605.919l-.024-3.537-3.521,1.753-9.874-5-.025-1.916-2.118.847-10.367-5.415v-3.618L175.4,582.7l2.424,1.232V581.5l12.73-6.328,2.425,1.222V573.97l12.723-6.325L208.128,569l.007-2.562,12.722-6.324,2.425,1.467v-2.669L236,552.59l2.63,1.7-.2-2.909,12.736-6.316,2.527,1.781-.1-2.995,12.732-6.322,2.413,1.581v-2.782l12.742-6.332,2.458,1.244-.038-2.448,12.741-6.326,2.184,2.426.194-3.541,18.516-9.274,10.321,5.22V519.6l2.3-1.145,10.32,5.22V526l2.319-1.154,10.313,5.221v2.323l2.318-1.154,10.3,5.221v2.387l2.39-1.187,10.3,5.215-.118,3.285-27.4,13.617Z" transform="translate(-134.793 -506.228)" fill="#1f9db2"/>
        <g id="Grupo_106753" data-name="Grupo 106753" transform="translate(27.881 5.844)">
          <path id="Trazado_151052" data-name="Trazado 151052" d="M331.14,657.16l10.317,5.217,12.733-6.322-10.321-5.217Z" transform="translate(-268.069 -598.888)" fill="#8ff2f2"/>
          <path id="Trazado_151053" data-name="Trazado 151053" d="M297.766,764.161l10.31,5.215,26.242-13.043-10.305-5.221Z" transform="translate(-247.19 -661.621)" fill="#8ff2f2"/>
          <path id="Trazado_151054" data-name="Trazado 151054" d="M203.132,686.95l10.317,5.217,12.731-6.331-10.318-5.214Z" transform="translate(-187.985 -617.521)" fill="#8ff2f2"/>
          <path id="Trazado_151055" data-name="Trazado 151055" d="M275.294,718.723l10.321,5.214,12.74-6.322-10.32-5.22Z" transform="translate(-233.131 -637.398)" fill="#8ff2f2"/>
          <path id="Trazado_151056" data-name="Trazado 151056" d="M313.577,699.715l10.309,5.221,12.735-6.331L326.3,693.39Z" transform="translate(-257.082 -625.509)" fill="#8ff2f2"/>
          <path id="Trazado_151057" data-name="Trazado 151057" d="M253.76,695.6l10.316,5.22L276.8,694.5l-10.308-5.227Z" transform="translate(-219.659 -622.934)" fill="#8ff2f2"/>
          <path id="Trazado_151058" data-name="Trazado 151058" d="M162.673,707l10.321,5.217,12.731-6.332-10.317-5.217Z" transform="translate(-162.673 -630.065)" fill="#8ff2f2"/>
          <path id="Trazado_151059" data-name="Trazado 151059" d="M351.839,680.709l10.309,5.224,12.731-6.331-10.321-5.217Z" transform="translate(-281.019 -613.619)" fill="#8ff2f2"/>
          <path id="Trazado_151060" data-name="Trazado 151060" d="M363.873,708.546l10.321,5.217,12.723-6.328-10.311-5.211Z" transform="translate(-288.548 -631.035)" fill="#8ff2f2"/>
          <path id="Trazado_151061" data-name="Trazado 151061" d="M325.64,727.546l10.313,5.217,12.73-6.325-10.318-5.217Z" transform="translate(-264.628 -642.92)" fill="#8ff2f2"/>
          <path id="Trazado_151062" data-name="Trazado 151062" d="M401.7,689.741l10.317,5.217,12.73-6.328-10.317-5.217Z" transform="translate(-312.213 -619.267)" fill="#8ff2f2"/>
          <path id="Trazado_151063" data-name="Trazado 151063" d="M196.388,718.316,206.7,723.54l19.721-9.8-10.314-5.214Z" transform="translate(-183.766 -634.978)" fill="#8ff2f2"/>
          <path id="Trazado_151064" data-name="Trazado 151064" d="M231.933,740.315l11.955,6.046,6.859,3.468,3.462,1.748,21.468-10.672-10.324-5.217-6.593,3.281L246.8,732.924Z" transform="translate(-206.003 -650.242)" fill="#8ff2f2"/>
          <path id="Trazado_151065" data-name="Trazado 151065" d="M371.217,732.941l10.315,5.211,19.895-9.877-10.321-5.22Z" transform="translate(-293.142 -644.068)" fill="#8ff2f2"/>
          <path id="Trazado_151066" data-name="Trazado 151066" d="M526.857,521.358l10.311,5.211,18.525-9.276-10.32-5.22Z" transform="translate(-390.514 -512.073)" fill="#8ff2f2"/>
          <path id="Trazado_151067" data-name="Trazado 151067" d="M485.923,580.237l10.321,5.217,12.722-6.321-10.313-5.217Z" transform="translate(-364.905 -550.762)" fill="#8ff2f2"/>
          <path id="Trazado_151068" data-name="Trazado 151068" d="M324.56,626.622l10.31,5.214,12.733-6.322L337.282,620.3Z" transform="translate(-263.953 -579.78)" fill="#8ff2f2"/>
          <path id="Trazado_151069" data-name="Trazado 151069" d="M369.852,637.93l10.309,5.224,12.734-6.332-10.314-5.211Z" transform="translate(-292.288 -586.858)" fill="#8ff2f2"/>
          <path id="Trazado_151070" data-name="Trazado 151070" d="M427.8,674.9l10.324,5.217,55.914-27.788-10.3-5.217Z" transform="translate(-328.539 -596.553)" fill="#8ff2f2"/>
          <path id="Trazado_151071" data-name="Trazado 151071" d="M486.47,546.149l10.321,5.22,12.723-6.328-10.3-5.218Z" transform="translate(-365.247 -529.434)" fill="#8ff2f2"/>
          <path id="Trazado_151072" data-name="Trazado 151072" d="M593.806,578.828l10.314,5.214,31.334-15.57-10.3-5.221Z" transform="translate(-432.399 -544.091)" fill="#8ff2f2"/>
          <path id="Trazado_151073" data-name="Trazado 151073" d="M365.024,606.5l10.32,5.22,12.733-6.322-10.317-5.214Z" transform="translate(-289.268 -567.197)" fill="#8ff2f2"/>
          <path id="Trazado_151074" data-name="Trazado 151074" d="M504.8,604.687l10.32,5.22,12.729-6.318-10.321-5.217Z" transform="translate(-376.717 -566.063)" fill="#8ff2f2"/>
          <path id="Trazado_151075" data-name="Trazado 151075" d="M639.385,593.8l10.314,5.214,26.964-13.4-10.3-5.215Z" transform="translate(-460.914 -554.822)" fill="#8ff2f2"/>
          <path id="Trazado_151076" data-name="Trazado 151076" d="M407.852,618.433l10.324,5.22,12.722-6.325-10.321-5.217Z" transform="translate(-316.062 -574.659)" fill="#8ff2f2"/>
          <path id="Trazado_151077" data-name="Trazado 151077" d="M555.117,613.505l10.321,5.22L578.16,612.4l-10.313-5.22Z" transform="translate(-408.194 -571.574)" fill="#8ff2f2"/>
          <path id="Trazado_151078" data-name="Trazado 151078" d="M466.578,623.688l10.317,5.217,12.723-6.328L479.3,617.36Z" transform="translate(-352.802 -577.943)" fill="#8ff2f2"/>
          <path id="Trazado_151079" data-name="Trazado 151079" d="M517.291,632.309l10.321,5.217,12.726-6.325-10.318-5.211Z" transform="translate(-384.53 -583.342)" fill="#8ff2f2"/>
          <path id="Trazado_151080" data-name="Trazado 151080" d="M284.1,646.724l10.3,5.215,12.744-6.323L296.825,640.4Z" transform="translate(-238.642 -592.357)" fill="#8ff2f2"/>
          <path id="Trazado_151081" data-name="Trazado 151081" d="M581.991,628.183l10.32,5.22,19.889-9.886-10.309-5.22Z" transform="translate(-425.007 -578.529)" fill="#8ff2f2"/>
          <path id="Trazado_151082" data-name="Trazado 151082" d="M427.8,642.971l10.405,5.175,12.638-6.283-10.321-5.217Z" transform="translate(-328.539 -590.008)" fill="#8ff2f2"/>
          <path id="Trazado_151083" data-name="Trazado 151083" d="M479.048,651.309l10.309,5.221L502.1,650.2l-10.321-5.217Z" transform="translate(-360.604 -595.227)" fill="#8ff2f2"/>
          <path id="Trazado_151084" data-name="Trazado 151084" d="M243.613,666.836l10.321,5.217,12.718-6.321-10.316-5.221Z" transform="translate(-213.311 -604.939)" fill="#8ff2f2"/>
          <path id="Trazado_151085" data-name="Trazado 151085" d="M390.065,661.7l10.32,5.22,12.729-6.319-10.321-5.217Z" transform="translate(-304.934 -601.734)" fill="#8ff2f2"/>
          <path id="Trazado_151086" data-name="Trazado 151086" d="M292.47,676.381l10.3,5.218,12.736-6.322-10.316-5.221Z" transform="translate(-243.877 -610.91)" fill="#8ff2f2"/>
          <path id="Trazado_151087" data-name="Trazado 151087" d="M441.23,670.112l10.321,5.217,12.718-6.321-10.321-5.217Z" transform="translate(-336.944 -606.99)" fill="#8ff2f2"/>
          <path id="Trazado_151088" data-name="Trazado 151088" d="M445.969,566.268l10.322,5.211,12.726-6.322-10.306-5.221Z" transform="translate(-339.909 -542.017)" fill="#8ff2f2"/>
          <path id="Trazado_151089" data-name="Trazado 151089" d="M526.337,544.7l10.309,5.224,31.346-15.576-10.32-5.22Z" transform="translate(-390.189 -522.744)" fill="#8ff2f2"/>
          <path id="Trazado_151090" data-name="Trazado 151090" d="M581.447,557.784,591.764,563l23.339-11.6-10.313-5.22Z" transform="translate(-424.667 -533.415)" fill="#8ff2f2"/>
          <path id="Trazado_151091" data-name="Trazado 151091" d="M405.513,586.378l10.321,5.217,12.722-6.321-10.31-5.218Z" transform="translate(-314.599 -554.604)" fill="#8ff2f2"/>
          <path id="Trazado_151092" data-name="Trazado 151092" d="M543.055,585.679l10.321,5.217,12.728-6.319-10.316-5.221Z" transform="translate(-400.648 -554.167)" fill="#8ff2f2"/>
          <path id="Trazado_151093" data-name="Trazado 151093" d="M447.263,599.463l10.3,5.221,12.744-6.322-10.324-5.22Z" transform="translate(-340.718 -562.791)" fill="#8ff2f2"/>
        </g>
        <path id="Trazado_151094" data-name="Trazado 151094" d="M421.055,743.315l26.16,13.139,40.366-20.145-26.163-13.136Z" transform="translate(-296.441 -638.298)" fill="#168ca8" opacity="0.57"/>
        <g id="Grupo_106754" data-name="Grupo 106754" transform="translate(15.67 97.335)" opacity="0.64">
          <path id="Trazado_151095" data-name="Trazado 151095" d="M349.122,867.973c0,1.089-.883,1.53-1.971.985A3.709,3.709,0,0,1,345.179,866c0-1.089.883-1.53,1.971-.986A3.71,3.71,0,0,1,349.122,867.973Z" transform="translate(-264.642 -824.226)" fill="#00234c" opacity="0.51"/>
          <path id="Trazado_151096" data-name="Trazado 151096" d="M269.928,828.642l-9.864-4.933v-3.8l9.864,4.933Z" transform="translate(-211.392 -796.155)" fill="#00234c" opacity="0.51"/>
          <path id="Trazado_151097" data-name="Trazado 151097" d="M142.6,765.9l-12.543-6.247v-3.194L142.6,762.7Z" transform="translate(-130.057 -756.453)" fill="#00234c" opacity="0.51"/>
          <path id="Trazado_151098" data-name="Trazado 151098" d="M309.11,848.119l-9.864-4.933v-3.8l9.864,4.933Z" transform="translate(-235.905 -808.34)" fill="#00234c" opacity="0.51"/>
        </g>
      </g>
      <g id="Grupo_106756" data-name="Grupo 106756">
        <path id="Trazado_151099" data-name="Trazado 151099" d="M79.824,175.558,244.808,93.236c2.253-1.125,4.307-1.228,5.789-.48q4.071,2.045,8.137,4.085c-1.482-.747-177.666,231.6-176.2,232.335-1.35-.676-2.709-1.359-4.064-2.036s-2.713-1.363-4.064-2.047a4.729,4.729,0,0,1-2.389-4.512L71.7,187.712C71.691,183.263,75.34,177.8,79.824,175.558Z" transform="translate(-71.704 -92.277)" fill="#168ca8"/>
        <path id="Trazado_151100" data-name="Trazado 151100" d="M109.828,312.182l-18.485-9.244-15.992,8a13.927,13.927,0,0,0-3.646,8.57v.477l11.262,5.632Z" transform="translate(-71.705 -224.071)" fill="#47c7d1" opacity="0.41"/>
        <path id="Trazado_151101" data-name="Trazado 151101" d="M263.744,96.841q-4.069-2.039-8.136-4.085c-1.483-.747-3.537-.644-5.789.48L84.835,175.558a15.159,15.159,0,0,0-5.122,4.421c5.7,3.172,11.685,6.6,11.685,6.6l168.267-85C262.164,98.48,263.616,96.777,263.744,96.841Z" transform="translate(-76.715 -92.277)" fill="#56d5d8"/>
        <path id="Trazado_151102" data-name="Trazado 151102" d="M93.427,198.629l.308,132.863c.016,4.452,3.694,6.274,8.178,4.039L266.9,253.209c4.48-2.242,8.133-7.715,8.116-12.171L274.7,108.175c-.012-4.448-3.685-6.264-8.174-4.022l-164.98,82.322C97.063,188.711,93.41,194.174,93.427,198.629Z" transform="translate(-85.294 -99.106)" fill="#33b3c4"/>
        <path id="Trazado_151103" data-name="Trazado 151103" d="M115.805,219.786l158.412-79.048c2.7-1.342,4.891-.242,4.9,2.427l.288,118.172c.009,2.669-2.17,5.943-4.867,7.285L116.123,347.669c-2.685,1.338-4.9.26-4.913-2.409l-.284-118.175C110.917,224.423,113.116,221.124,115.805,219.786Z" transform="translate(-96.242 -122.237)" fill="#9fedeb"/>
        <path id="Trazado_151104" data-name="Trazado 151104" d="M310.455,223.135,336.321,210.2a1.827,1.827,0,0,0,.968-1.451h0c0-.532-.435-.75-.968-.484L310.455,221.2a1.827,1.827,0,0,0-.968,1.451h0C309.487,223.183,309.922,223.4,310.455,223.135Z" transform="translate(-220.466 -164.769)" fill="#168ca8"/>
        <path id="Trazado_151105" data-name="Trazado 151105" d="M292.979,250.025c0,.936.758,1.314,1.693.847a3.187,3.187,0,0,0,1.694-2.541c0-.935-.758-1.314-1.694-.846A3.187,3.187,0,0,0,292.979,250.025Z" transform="translate(-210.138 -189.253)" fill="#168ca8"/>
        <path id="Trazado_151106" data-name="Trazado 151106" d="M186.666,208.078l134.949-67.34c2.7-1.341,4.891-.242,4.9,2.427l.275,82.893Z" transform="translate(-143.627 -122.237)" fill="#defffc" opacity="0.54"/>
      </g>
    </g>
    <g id="Grupo_106771" data-name="Grupo 106771" transform="translate(89.729 117.268)">
      <path id="Trazado_151107" data-name="Trazado 151107" d="M319.3,413.08l-50.728,25.193V393.539L319.3,368.346Z" transform="translate(-212.894 -289.983)" fill="#0f6b93"/>
      <g id="Grupo_106758" data-name="Grupo 106758" transform="translate(0 2.612)" opacity="0.35">
        <path id="Trazado_151108" data-name="Trazado 151108" d="M170.578,355.114,119.85,380.307V335.574l50.728-25.193Z" transform="translate(-119.85 -256.33)" fill="#33b3c4"/>
        <path id="Trazado_151109" data-name="Trazado 151109" d="M462.363,210.74l-50.728,25.193V191.2l50.728-25.193Z" transform="translate(-302.397 -166.006)" fill="#33b3c4"/>
        <path id="Trazado_151110" data-name="Trazado 151110" d="M315.7,282.844l-50.728,25.193V263.3L315.7,238.111Z" transform="translate(-210.644 -211.116)" fill="#33b3c4"/>
        <path id="Trazado_151111" data-name="Trazado 151111" d="M171.534,492.326l-50.728,25.193V472.786l50.728-25.193Z" transform="translate(-120.448 -342.173)" fill="#33b3c4"/>
        <path id="Trazado_151112" data-name="Trazado 151112" d="M463.319,347.952l-50.728,25.193V328.411l50.728-25.193Z" transform="translate(-302.995 -251.849)" fill="#33b3c4"/>
      </g>
      <g id="Grupo_106759" data-name="Grupo 106759" transform="translate(0.989)">
        <path id="Trazado_151113" data-name="Trazado 151113" d="M124.826,374.7l-2.335-1.366V328.6L173.219,303.4v9.252Z" transform="translate(-122.491 -249.353)" fill="#33b3c4"/>
        <path id="Trazado_151114" data-name="Trazado 151114" d="M465,203.763l-48.3,26.534-2.433-1.341V184.222L465,159.03Z" transform="translate(-305.038 -159.03)" fill="#33b3c4"/>
        <path id="Trazado_151115" data-name="Trazado 151115" d="M318.345,275.868,270.05,302.4l-2.433-1.341V256.327l50.728-25.193Z" transform="translate(-213.285 -204.14)" fill="#33b3c4"/>
        <path id="Trazado_151116" data-name="Trazado 151116" d="M125.886,511.883l-2.44-1.341V465.809l50.728-25.193Z" transform="translate(-123.089 -335.196)" fill="#33b3c4"/>
        <path id="Trazado_151117" data-name="Trazado 151117" d="M465.959,340.975l-48.3,26.534-2.433-1.341V321.434l50.728-25.193Z" transform="translate(-305.636 -244.872)" fill="#33b3c4"/>
      </g>
      <g id="Grupo_106760" data-name="Grupo 106760" transform="translate(3.421 1.341)">
        <path id="Trazado_151118" data-name="Trazado 151118" d="M179.717,351.719l-50.728,25.193V332.178l50.728-25.193Z" transform="translate(-128.989 -252.935)" fill="#d9fdff"/>
        <path id="Trazado_151119" data-name="Trazado 151119" d="M471.5,207.344l-50.728,25.193V187.8L471.5,162.611Z" transform="translate(-311.536 -162.611)" fill="#d9fdff"/>
        <path id="Trazado_151120" data-name="Trazado 151120" d="M324.843,279.449l-50.728,25.193V259.908l50.728-25.193Z" transform="translate(-219.783 -207.721)" fill="#d9fdff"/>
        <path id="Trazado_151121" data-name="Trazado 151121" d="M180.672,488.931l-50.728,25.193V469.39L180.672,444.2Z" transform="translate(-129.587 -338.778)" fill="#d9fdff"/>
        <path id="Trazado_151122" data-name="Trazado 151122" d="M472.457,344.556l-50.728,25.193V325.016l50.728-25.193Z" transform="translate(-312.134 -248.454)" fill="#d9fdff"/>
      </g>
      <g id="Grupo_106761" data-name="Grupo 106761" transform="translate(0.989)">
        <path id="Trazado_151123" data-name="Trazado 151123" d="M175.652,304.793l-2.433-1.389L122.491,328.6l2.433,1.34Z" transform="translate(-122.491 -249.353)" fill="#fff"/>
        <path id="Trazado_151124" data-name="Trazado 151124" d="M270.05,257.668l-2.433-1.341,50.728-25.193,2.433,1.341Z" transform="translate(-213.285 -204.14)" fill="#fff"/>
        <path id="Trazado_151125" data-name="Trazado 151125" d="M465,159.03l2.433,1.341-50.728,25.193-2.433-1.341Z" transform="translate(-305.038 -159.03)" fill="#fff"/>
        <path id="Trazado_151126" data-name="Trazado 151126" d="M415.231,321.434l2.433,1.341,50.728-25.193-2.433-1.341Z" transform="translate(-305.636 -244.872)" fill="#fff"/>
        <path id="Trazado_151127" data-name="Trazado 151127" d="M174.174,440.616l2.433,1.341L125.879,467.15l-2.433-1.341Z" transform="translate(-123.089 -335.196)" fill="#fff"/>
      </g>
      <g id="Grupo_106762" data-name="Grupo 106762" transform="translate(25.96 139.243)">
        <path id="Trazado_151128" data-name="Trazado 151128" d="M195.327,534.131a5.771,5.771,0,0,1-3.067,4.6c-1.694.847-3.067.161-3.067-1.533a5.771,5.771,0,0,1,3.067-4.6C193.954,531.75,195.327,532.437,195.327,534.131Z" transform="translate(-189.193 -531.758)" fill="#33b3c4" opacity="0.28"/>
        <path id="Trazado_151129" data-name="Trazado 151129" d="M193.435,535.182l5.931,2.966,2.692-3.813-5.931-2.966Z" transform="translate(-191.847 -531.217)" fill="#0f6b93"/>
        <path id="Trazado_151130" data-name="Trazado 151130" d="M204.673,533.76a5.77,5.77,0,0,1-3.067,4.6,12.05,12.05,0,0,1-1.6.532l-.73-.44a1.852,1.852,0,0,1-.736-1.625,5.772,5.772,0,0,1,3.067-4.6A2.5,2.5,0,0,1,203.7,532l.978.578Z" transform="translate(-195.04 -531.526)" fill="#70e2e5"/>
        <path id="Trazado_151131" data-name="Trazado 151131" d="M206.634,534.949a5.772,5.772,0,0,1-3.067,4.6c-1.694.847-3.067.161-3.067-1.533a5.771,5.771,0,0,1,3.067-4.6C205.261,532.569,206.634,533.255,206.634,534.949Z" transform="translate(-196.267 -532.27)" fill="#3dbfc9"/>
        <ellipse id="Elipse_4272" data-name="Elipse 4272" cx="3.259" cy="1.986" rx="3.259" ry="1.986" transform="translate(3.938 5.559) rotate(-52.02)" fill="#e9ffff"/>
        <ellipse id="Elipse_4273" data-name="Elipse 4273" cx="3.259" cy="1.986" rx="3.259" ry="1.986" transform="matrix(0.615, -0.788, 0.788, 0.615, 4.322, 5.837)" fill="#9fedeb"/>
        <path id="Trazado_151132" data-name="Trazado 151132" d="M195.794,532.1a3.457,3.457,0,0,1-1.837,2.756c-1.015.507-1.837.1-1.837-.918a3.458,3.458,0,0,1,1.837-2.756C194.971,530.672,195.794,531.083,195.794,532.1Z" transform="translate(-191.024 -530.962)" fill="#0f6b93"/>
      </g>
      <g id="Grupo_106763" data-name="Grupo 106763" transform="translate(25.96 87.942)">
        <path id="Trazado_151133" data-name="Trazado 151133" d="M195.327,397.1a5.771,5.771,0,0,1-3.067,4.6c-1.694.847-3.067.161-3.067-1.533a5.771,5.771,0,0,1,3.067-4.6C193.954,394.718,195.327,395.4,195.327,397.1Z" transform="translate(-189.193 -394.726)" fill="#33b3c4" opacity="0.28"/>
        <path id="Trazado_151134" data-name="Trazado 151134" d="M193.435,398.15l5.931,2.966,2.692-3.813-5.931-2.966Z" transform="translate(-191.847 -394.185)" fill="#0f6b93"/>
        <path id="Trazado_151135" data-name="Trazado 151135" d="M204.673,396.728a5.77,5.77,0,0,1-3.067,4.6,12.042,12.042,0,0,1-1.6.532l-.73-.44a1.852,1.852,0,0,1-.736-1.625,5.772,5.772,0,0,1,3.067-4.6,2.5,2.5,0,0,1,2.089-.223l.978.578Z" transform="translate(-195.04 -394.494)" fill="#70e2e5"/>
        <path id="Trazado_151136" data-name="Trazado 151136" d="M206.634,397.917a5.772,5.772,0,0,1-3.067,4.6c-1.694.847-3.067.161-3.067-1.533a5.771,5.771,0,0,1,3.067-4.6C205.261,395.537,206.634,396.223,206.634,397.917Z" transform="translate(-196.267 -395.238)" fill="#3dbfc9"/>
        <path id="Trazado_151137" data-name="Trazado 151137" d="M207.544,399.154A4.788,4.788,0,0,1,205,402.97c-1.405.7-2.544.133-2.544-1.272A4.787,4.787,0,0,1,205,397.882C206.4,397.179,207.544,397.749,207.544,399.154Z" transform="translate(-197.491 -396.214)" fill="#e9ffff"/>
        <ellipse id="Elipse_4274" data-name="Elipse 4274" cx="3.259" cy="1.986" rx="3.259" ry="1.986" transform="matrix(0.615, -0.788, 0.788, 0.615, 4.322, 5.837)" fill="#9fedeb"/>
        <path id="Trazado_151138" data-name="Trazado 151138" d="M195.794,395.065a3.457,3.457,0,0,1-1.837,2.756c-1.015.507-1.837.1-1.837-.918a3.457,3.457,0,0,1,1.837-2.756C194.971,393.64,195.794,394.051,195.794,395.065Z" transform="translate(-191.024 -393.93)" fill="#0f6b93"/>
      </g>
      <g id="Grupo_106764" data-name="Grupo 106764" transform="translate(81.723 60.054)">
        <path id="Trazado_151139" data-name="Trazado 151139" d="M344.275,322.609a5.77,5.77,0,0,1-3.067,4.6c-1.694.847-3.067.161-3.067-1.533a5.772,5.772,0,0,1,3.067-4.6C342.9,320.228,344.275,320.915,344.275,322.609Z" transform="translate(-338.141 -320.236)" fill="#33b3c4" opacity="0.28"/>
        <path id="Trazado_151140" data-name="Trazado 151140" d="M342.383,323.66l5.931,2.966L351,322.813l-5.931-2.966Z" transform="translate(-340.795 -319.695)" fill="#0f6b93"/>
        <path id="Trazado_151141" data-name="Trazado 151141" d="M353.621,322.238a5.77,5.77,0,0,1-3.067,4.6,12.022,12.022,0,0,1-1.6.531l-.73-.439a1.852,1.852,0,0,1-.736-1.625,5.772,5.772,0,0,1,3.067-4.6,2.5,2.5,0,0,1,2.089-.223l.978.578Z" transform="translate(-343.988 -320.004)" fill="#70e2e5"/>
        <path id="Trazado_151142" data-name="Trazado 151142" d="M355.581,323.427a5.772,5.772,0,0,1-3.067,4.6c-1.694.847-3.067.161-3.067-1.533a5.771,5.771,0,0,1,3.067-4.6C354.208,321.047,355.581,321.733,355.581,323.427Z" transform="translate(-345.214 -320.748)" fill="#3dbfc9"/>
        <path id="Trazado_151143" data-name="Trazado 151143" d="M356.492,324.664a4.788,4.788,0,0,1-2.544,3.817c-1.405.7-2.544.133-2.544-1.272a4.788,4.788,0,0,1,2.544-3.817C355.352,322.689,356.492,323.259,356.492,324.664Z" transform="translate(-346.438 -321.724)" fill="#e9ffff"/>
        <ellipse id="Elipse_4275" data-name="Elipse 4275" cx="3.259" cy="1.986" rx="3.259" ry="1.986" transform="matrix(0.615, -0.788, 0.788, 0.615, 4.322, 5.837)" fill="#9fedeb"/>
        <path id="Trazado_151144" data-name="Trazado 151144" d="M344.742,320.575a3.457,3.457,0,0,1-1.837,2.756c-1.015.507-1.837.1-1.837-.918a3.458,3.458,0,0,1,1.837-2.756C343.919,319.15,344.742,319.561,344.742,320.575Z" transform="translate(-339.972 -319.44)" fill="#0f6b93"/>
      </g>
      <g id="Grupo_106765" data-name="Grupo 106765" transform="translate(137.21 33.544)">
        <path id="Trazado_151145" data-name="Trazado 151145" d="M492.485,251.8a5.771,5.771,0,0,1-3.067,4.6c-1.694.847-3.067.161-3.067-1.533a5.772,5.772,0,0,1,3.067-4.6C491.112,249.418,492.485,250.1,492.485,251.8Z" transform="translate(-486.351 -249.425)" fill="#33b3c4" opacity="0.28"/>
        <path id="Trazado_151146" data-name="Trazado 151146" d="M490.593,252.849l5.931,2.966L499.215,252l-5.931-2.966Z" transform="translate(-489.005 -248.884)" fill="#0f6b93"/>
        <path id="Trazado_151147" data-name="Trazado 151147" d="M501.831,251.427a5.772,5.772,0,0,1-3.067,4.6,12.084,12.084,0,0,1-1.6.531l-.73-.44a1.852,1.852,0,0,1-.736-1.625,5.772,5.772,0,0,1,3.067-4.6,2.5,2.5,0,0,1,2.089-.223l.977.578Z" transform="translate(-492.198 -249.193)" fill="#70e2e5"/>
        <path id="Trazado_151148" data-name="Trazado 151148" d="M503.791,252.616a5.771,5.771,0,0,1-3.067,4.6c-1.694.847-3.067.161-3.067-1.533a5.771,5.771,0,0,1,3.067-4.6C502.418,250.236,503.791,250.922,503.791,252.616Z" transform="translate(-493.424 -249.937)" fill="#3dbfc9"/>
        <ellipse id="Elipse_4276" data-name="Elipse 4276" cx="3.259" cy="1.986" rx="3.259" ry="1.986" transform="matrix(0.615, -0.788, 0.788, 0.615, 3.938, 5.559)" fill="#e9ffff"/>
        <ellipse id="Elipse_4277" data-name="Elipse 4277" cx="3.259" cy="1.986" rx="3.259" ry="1.986" transform="translate(4.322 5.837) rotate(-52.02)" fill="#9fedeb"/>
        <path id="Trazado_151149" data-name="Trazado 151149" d="M492.952,249.765a3.456,3.456,0,0,1-1.837,2.756c-1.015.508-1.837.1-1.837-.918a3.458,3.458,0,0,1,1.837-2.756C492.129,248.339,492.952,248.75,492.952,249.765Z" transform="translate(-488.182 -248.629)" fill="#0f6b93"/>
      </g>
      <g id="Grupo_106770" data-name="Grupo 106770" transform="translate(0.013 102.709)">
        <g id="Grupo_106766" data-name="Grupo 106766" transform="translate(0 2.682)" opacity="0.35">
          <path id="Trazado_151150" data-name="Trazado 151150" d="M119.885,626.465a5.206,5.206,0,0,0,1.843-.553l48.886-24.394V584.912L119.885,610.1Z" transform="translate(-119.885 -530.861)" fill="#33b3c4"/>
          <path id="Trazado_151151" data-name="Trazado 151151" d="M411.672,482,462.4,456.685V440.537L411.672,465.73Z" transform="translate(-302.433 -440.537)" fill="#33b3c4"/>
          <path id="Trazado_151152" data-name="Trazado 151152" d="M315.741,529.193V512.642l-50.728,25.193v16.672Z" transform="translate(-210.68 -485.647)" fill="#33b3c4"/>
        </g>
        <g id="Grupo_106767" data-name="Grupo 106767" transform="translate(1.333)">
          <path id="Trazado_151153" data-name="Trazado 151153" d="M123.446,602.942v18.692c.17-.067.335-.116.51-.2l38.251-19.087L174.174,587v-9.252Z" transform="translate(-123.446 -523.698)" fill="#33b3c4"/>
          <path id="Trazado_151154" data-name="Trazado 151154" d="M415.232,476.852l49.687-24.793a7.709,7.709,0,0,0,1.041-.635V433.374l-50.728,25.193Z" transform="translate(-305.994 -433.374)" fill="#33b3c4"/>
          <path id="Trazado_151155" data-name="Trazado 151155" d="M319.3,524.047V505.479l-50.728,25.193V549.36Z" transform="translate(-214.241 -478.485)" fill="#33b3c4"/>
        </g>
        <g id="Grupo_106768" data-name="Grupo 106768" transform="translate(3.766 1.341)">
          <path id="Trazado_151156" data-name="Trazado 151156" d="M180.673,597.4V581.33l-50.728,25.193v16.188Z" transform="translate(-129.945 -527.279)" fill="#d9fdff"/>
          <path id="Trazado_151157" data-name="Trazado 151157" d="M472.457,436.955l-50.729,25.193v15.73L468.983,454.3a9.292,9.292,0,0,0,3.474-3.189Z" transform="translate(-312.491 -436.955)" fill="#d9fdff"/>
          <path id="Trazado_151158" data-name="Trazado 151158" d="M325.8,525.074V509.06L275.07,534.253v16.133Z" transform="translate(-220.738 -482.066)" fill="#d9fdff"/>
        </g>
        <g id="Grupo_106769" data-name="Grupo 106769" transform="translate(1.333 0)">
          <path id="Trazado_151159" data-name="Trazado 151159" d="M176.607,579.138l-2.433-1.389-50.728,25.193,2.433,1.34Z" transform="translate(-123.446 -523.698)" fill="#fff"/>
          <path id="Trazado_151160" data-name="Trazado 151160" d="M271,532.013l-2.433-1.341L319.3,505.479l2.433,1.341Z" transform="translate(-214.24 -478.485)" fill="#fff"/>
          <path id="Trazado_151161" data-name="Trazado 151161" d="M465.959,433.374l2.433,1.341-50.728,25.193-2.433-1.341Z" transform="translate(-305.993 -433.374)" fill="#fff"/>
        </g>
      </g>
    </g>
    <g id="Grupo_106772" data-name="Grupo 106772" transform="translate(145.284 245.345)">
      <path id="Trazado_151162" data-name="Trazado 151162" d="M268.262,556.064l-.02-54.928,37.593,34.386-2.656,3.118Z" transform="translate(-268.243 -501.135)" fill="#00638e" opacity="0.18"/>
      <path id="Trazado_151163" data-name="Trazado 151163" d="M319.342,579.771l-51.1,25.5,6.485,3.254,2.586-1.274,10.4,5.16-.045,2.354,2.385-1.193,10.3,5.223v2.333L302.8,619.9l10.426,5.174-.008,2.322,2.346-1.161,10.418,5.17-.009,2.376.709-.353,1.294.655v-1.3l.39-.194,4.486,2.227,50.728-25.193Z" transform="translate(-268.243 -550.332)" fill="#00638e" opacity="0.37"/>
    </g>
    <g id="Grupo_106790" data-name="Grupo 106790" transform="translate(145.388 142.946)">
      <path id="Trazado_151164" data-name="Trazado 151164" d="M268.52,487.507l20.486-40.243,97.334,48.819-50.728,25.193Z" transform="translate(-268.52 -365.034)" fill="#3dbfc9"/>
      <path id="Trazado_151165" data-name="Trazado 151165" d="M358.958,420.364l78.311,38.76V432.235l-78.311-38.76Z" transform="translate(-325.1 -331.382)" fill="#fff"/>
      <path id="Trazado_151166" data-name="Trazado 151166" d="M356.379,422.543l76.07,37.945V433.6l-76.07-37.945Z" transform="translate(-323.487 -332.745)" fill="#33b3c4"/>
      <g id="Grupo_106773" data-name="Grupo 106773" transform="translate(2.502 61.995)">
        <path id="Trazado_151167" data-name="Trazado 151167" d="M340.215,429.224l-35.967,19.1,19-55.112h16.969Z" transform="translate(-293.374 -393.213)" fill="#0f6b93" opacity="0.26"/>
        <path id="Trazado_151168" data-name="Trazado 151168" d="M324.586,427.283,287.457,446.15l-1.58-39.324,38.709-13.613Z" transform="translate(-281.881 -393.213)" fill="#0f6b93" opacity="0.31"/>
        <path id="Trazado_151169" data-name="Trazado 151169" d="M324.049,425.962l-34.945,17.3,24.3-50.045h10.649Z" transform="translate(-283.9 -393.213)" fill="#0f6b93" opacity="0.55"/>
        <path id="Trazado_151170" data-name="Trazado 151170" d="M316.962,424.713l-35.472,17.3,27.146-48.8h8.326Z" transform="translate(-279.137 -393.213)" fill="#0f6b93" opacity="0.55"/>
        <path id="Trazado_151171" data-name="Trazado 151171" d="M315.239,424.226l-33.749,16.593,27.146-47.606h6.6Z" transform="translate(-279.137 -393.213)" fill="#0f6b93" opacity="0.55"/>
        <path id="Trazado_151172" data-name="Trazado 151172" d="M312.8,423.221l-33.164,17.6,27.839-47.606H312.8Z" transform="translate(-277.979 -393.213)" fill="#0f6b93" opacity="0.55"/>
        <path id="Trazado_151173" data-name="Trazado 151173" d="M309.172,422.532,275.2,440.283l10.874-37.268,22.789-9.8Z" transform="translate(-275.203 -393.213)" fill="#0f6b93" opacity="0.94"/>
      </g>
      <g id="Grupo_106777" data-name="Grupo 106777" transform="translate(0.02 61.655)">
        <g id="Grupo_106774" data-name="Grupo 106774">
          <path id="Trazado_151174" data-name="Trazado 151174" d="M268.574,449.719l36.783-20.209v-37.2l-36.783,18.268Z" transform="translate(-268.574 -392.306)" fill="#33b3c4"/>
          <path id="Trazado_151175" data-name="Trazado 151175" d="M268.574,451.761l38.806-19.272v-37.2l-38.806,19.272Z" transform="translate(-268.574 -394.169)" fill="#229aaa"/>
          <path id="Trazado_151176" data-name="Trazado 151176" d="M268.574,412.693l38.806-19.272-2.024-1.115-36.783,18.268Z" transform="translate(-268.574 -392.306)" fill="#33b3c4"/>
        </g>
        <g id="Grupo_106775" data-name="Grupo 106775" transform="translate(0.441 1.717)">
          <path id="Trazado_151177" data-name="Trazado 151177" d="M311.942,434.1l-40.167,22.068-2.023-1.115v-37.2l42.19-20.953Z" transform="translate(-269.752 -396.893)" fill="#229aaa"/>
          <path id="Trazado_151178" data-name="Trazado 151178" d="M317.346,437.076l-42.19,20.952v-37.2l42.19-20.953Z" transform="translate(-273.133 -398.756)" fill="#33b3c4"/>
          <path id="Trazado_151179" data-name="Trazado 151179" d="M311.942,396.893l2.023,1.115-42.19,20.952-2.023-1.115Z" transform="translate(-269.752 -396.893)" fill="#58cdd6"/>
        </g>
        <g id="Grupo_106776" data-name="Grupo 106776" transform="translate(3.726 4.355)">
          <path id="Trazado_151180" data-name="Trazado 151180" d="M320.716,441.144l-40.167,22.068-2.023-1.115v-37.2l42.19-20.953Z" transform="translate(-278.526 -403.94)" fill="#229aaa"/>
          <path id="Trazado_151181" data-name="Trazado 151181" d="M326.12,444.122l-42.19,20.953v-37.2l42.19-20.953Z" transform="translate(-281.907 -405.803)" fill="#58cdd6"/>
          <path id="Trazado_151182" data-name="Trazado 151182" d="M320.716,403.94l2.023,1.115-42.19,20.953-2.023-1.115Z" transform="translate(-278.526 -403.94)" fill="#80e5e8"/>
        </g>
      </g>
      <g id="Grupo_106778" data-name="Grupo 106778" transform="translate(9.307 67.322)">
        <path id="Trazado_151183" data-name="Trazado 151183" d="M335.569,444.646,295.4,466.714l-2.023-1.115v-37.2l42.19-20.953Z" transform="translate(-293.379 -407.442)" fill="#33b3c4"/>
        <path id="Trazado_151184" data-name="Trazado 151184" d="M340.973,447.625l-42.19,20.953v-37.2l42.19-20.953Z" transform="translate(-296.76 -409.306)" fill="#80e5e8"/>
        <path id="Trazado_151185" data-name="Trazado 151185" d="M335.569,407.442l2.023,1.115L295.4,429.51l-2.023-1.115Z" transform="translate(-293.379 -407.442)" fill="#9af4f4"/>
      </g>
      <g id="Grupo_106779" data-name="Grupo 106779" transform="translate(12.378 69.223)">
        <path id="Trazado_151186" data-name="Trazado 151186" d="M343.773,449.725l-40.167,22.068-2.023-1.115v-37.2l42.19-20.953Z" transform="translate(-301.583 -412.521)" fill="#33b3c4"/>
        <path id="Trazado_151187" data-name="Trazado 151187" d="M349.177,452.7l-42.19,20.953v-37.2l42.19-20.953Z" transform="translate(-304.964 -414.385)" fill="#9af4f4"/>
        <path id="Trazado_151188" data-name="Trazado 151188" d="M343.773,412.521l2.023,1.115-42.19,20.953-2.023-1.115Z" transform="translate(-301.583 -412.521)" fill="#b6fffd"/>
      </g>
      <g id="Grupo_106780" data-name="Grupo 106780" transform="translate(16.498 72.264)">
        <path id="Trazado_151189" data-name="Trazado 151189" d="M354.778,457.846l-40.167,22.068-2.023-1.115v-37.2l42.19-20.953Z" transform="translate(-312.588 -420.642)" fill="#33b3c4"/>
        <path id="Trazado_151190" data-name="Trazado 151190" d="M360.182,460.825l-42.19,20.953v-37.2l42.19-20.953Z" transform="translate(-315.969 -422.506)" fill="#b6fffd"/>
        <path id="Trazado_151191" data-name="Trazado 151191" d="M354.778,420.642l2.023,1.115-42.19,20.953-2.023-1.115Z" transform="translate(-312.588 -420.642)" fill="#d4fffd"/>
      </g>
      <g id="Grupo_106781" data-name="Grupo 106781" transform="translate(21.166 72.821)">
        <path id="Trazado_151192" data-name="Trazado 151192" d="M367.247,459.336,327.08,481.4l-2.023-1.115v-37.2l42.19-20.953Z" transform="translate(-325.057 -422.131)" fill="#58cdd6"/>
        <path id="Trazado_151193" data-name="Trazado 151193" d="M372.651,462.314l-42.19,20.953v-37.2l42.19-20.953Z" transform="translate(-328.438 -423.995)" fill="#cafffc"/>
        <path id="Trazado_151194" data-name="Trazado 151194" d="M367.247,422.131l2.023,1.115L327.08,444.2l-2.023-1.115Z" transform="translate(-325.057 -422.131)" fill="#e9fffd"/>
      </g>
      <g id="Grupo_106782" data-name="Grupo 106782" transform="translate(25.549 75.084)">
        <path id="Trazado_151195" data-name="Trazado 151195" d="M378.953,465.379l-40.167,22.068-2.023-1.115v-37.2l42.19-20.953Z" transform="translate(-336.763 -428.174)" fill="#80e5e8"/>
        <path id="Trazado_151196" data-name="Trazado 151196" d="M384.358,468.357l-42.19,20.953v-37.2l42.19-20.953Z" transform="translate(-340.144 -430.038)" fill="#d9fdff"/>
        <path id="Trazado_151197" data-name="Trazado 151197" d="M378.953,428.174l2.023,1.115-42.19,20.953-2.023-1.115Z" transform="translate(-336.763 -428.174)" fill="#f5fffe"/>
      </g>
      <g id="Grupo_106783" data-name="Grupo 106783" transform="translate(29.18 78.371)">
        <path id="Trazado_151198" data-name="Trazado 151198" d="M388.654,474.16l-40.167,22.068-2.023-1.115v-37.2l42.19-20.953Z" transform="translate(-346.464 -436.955)" fill="#91eded"/>
        <path id="Trazado_151199" data-name="Trazado 151199" d="M394.058,477.138l-42.19,20.953v-37.2l42.19-20.953Z" transform="translate(-349.845 -438.819)" fill="#d9fdff"/>
        <path id="Trazado_151200" data-name="Trazado 151200" d="M388.654,436.955l2.023,1.115-42.19,20.953-2.023-1.115Z" transform="translate(-346.464 -436.955)" fill="#fff"/>
      </g>
      <g id="Grupo_106784" data-name="Grupo 106784" transform="translate(32.461 79.965)">
        <path id="Trazado_151201" data-name="Trazado 151201" d="M397.417,478.418l-40.167,22.068-2.023-1.115v-37.2l42.19-20.953Z" transform="translate(-355.228 -441.214)" fill="#9eefed"/>
        <path id="Trazado_151202" data-name="Trazado 151202" d="M402.822,481.4l-42.19,20.953v-37.2l42.19-20.953Z" transform="translate(-358.608 -443.077)" fill="#d9fdff"/>
        <path id="Trazado_151203" data-name="Trazado 151203" d="M397.417,441.214l2.023,1.115-42.19,20.953-2.023-1.115Z" transform="translate(-355.228 -441.214)" fill="#fff"/>
      </g>
      <g id="Grupo_106785" data-name="Grupo 106785" transform="translate(36.803 78.928)">
        <path id="Trazado_151204" data-name="Trazado 151204" d="M409.015,475.649l-40.167,22.068-2.023-1.115V459.4l42.19-20.953Z" transform="translate(-366.825 -438.445)" fill="#a9fcfa"/>
        <path id="Trazado_151205" data-name="Trazado 151205" d="M414.419,478.628l-42.19,20.952v-37.2l42.19-20.953Z" transform="translate(-370.206 -440.308)" fill="#e3ffff"/>
        <path id="Trazado_151206" data-name="Trazado 151206" d="M409.015,438.445l2.023,1.115-42.19,20.953-2.023-1.115Z" transform="translate(-366.825 -438.445)" fill="#fff"/>
      </g>
      <g id="Grupo_106788" data-name="Grupo 106788" transform="translate(53.361)">
        <path id="Trazado_151207" data-name="Trazado 151207" d="M539.353,394.854l-.418-1.623-1.685-1.662s-1.4,2.418-1.9,3.063c0,0-2.065.52-2.069.533a6.5,6.5,0,0,0,.437,3.7L539,402.839l3.309-1.011.388-.3.621-.977-2.018-2.416.444-.931Z" transform="translate(-487.432 -330.19)" fill="#fbb686"/>
        <path id="Trazado_151208" data-name="Trazado 151208" d="M531.561,391.451l-2.072,2.433-1.2-1.919,5.273-6.174.706,1.089,1.436,1.631Z" transform="translate(-484.397 -326.575)" fill="#fff"/>
        <path id="Trazado_151209" data-name="Trazado 151209" d="M512.113,332.31l-10.247-13.067s-.162-2.145-.4-3.949c1.03-3.608,5.634-28.13,5.634-28.13l.959,3.715s.4,2.614.475,3.8c.218,2.219.188,4.59.281,6.891.016,1.705.3,10.339.3,10.339l8.967,13.538-5.26,4.219A17.012,17.012,0,0,0,512.113,332.31Z" transform="translate(-467.615 -264.872)" fill="#002756"/>
        <path id="Trazado_151210" data-name="Trazado 151210" d="M489.139,546.374l-4.3-3.353-2.527-2.87-.021.016s-6.811-.669-8.878,1.263c.13.9-.311,3.4-.231,3.915.233.159,6.674,3.062,7.157,3.336.383.24,5.312,2.626,5.312,2.626l3.82-3.014Z" transform="translate(-449.914 -423.086)" fill="#002b6a"/>
        <path id="Trazado_151211" data-name="Trazado 151211" d="M427.8,565.34l-3.909-3.029s-1.559-2.377-1.809-2.8c-.015-.012-.018-.038-.031-.051-.444-.7-9.414-1.556-10.917.294-.008.039-.1,2.73-.076,3.275.466.4,1.262,1,2.249,1.711.173-.436.678-.128,1.051.114.593.378.833,1.4,1.011,1.975a31.826,31.826,0,0,0,8.044,3.329v-.012c.908-.026,4.486-2.71,4.486-2.71Z" transform="translate(-411.053 -434.717)" fill="#002b6a"/>
        <path id="Trazado_151212" data-name="Trazado 151212" d="M441.619,396.871c-.018-1.177-.052-2.292-.064-3.351-.009-.106-26.04,6.188-26.264,6.045-.1.823-.21,1.648-.286,2.45-.019,1.134.14,6.455.14,6.455s.584,17.356.572,21.221l-4.226,26.277,4.076,2.8,8.817-.294,3.658-26.523,1.509-19.408,5.978,18.069s-1.014,17.516-.811,18.7c.083.114,6.155,1.862,6.155,1.862l3.84-.168,2.371-25.555S441.648,397.828,441.619,396.871Z" transform="translate(-411.327 -331.409)" fill="#002b6a"/>
        <path id="Trazado_151213" data-name="Trazado 151213" d="M448.658,318.59s1.151-5.346,2.064-8.473c1.028-3.608,6.554-18.856,6.554-18.856l-.921-9.274-6.989-3.1-14.185,1.417-6.837,4.954L424.6,308.378l-4.243,19.29,6.1,3.087,21.086-2.734Z" transform="translate(-416.875 -259.694)" fill="#002b6a"/>
        <path id="Trazado_151214" data-name="Trazado 151214" d="M488.151,305.732c.664-2.063,2.35-3.792,2.635-5.975.035-.193.06-.4.082-.6a35.771,35.771,0,0,0,.165-7.689,9.992,9.992,0,0,0-.529-2.452c-.061-.182-.127-.339-.191-.509a4.719,4.719,0,0,0-1.9-2.488,7.339,7.339,0,0,0,2.158-.492,39.776,39.776,0,0,1,2.379,3.374l-1.011,1.872,2.256,1.675-.227,3.82s-6.346,14.2-6.963,15.107c.5-.808.015-2.656.483-3.543A11.609,11.609,0,0,0,488.151,305.732Z" transform="translate(-458.57 -263.848)" fill="#11487f"/>
        <path id="Trazado_151215" data-name="Trazado 151215" d="M461.947,281.8a12.053,12.053,0,0,0,1.323,2.321c.3.38.586.77.878,1.134a25.532,25.532,0,0,1,3.332,4.844,25.058,25.058,0,0,1,2.365,8.09c.015.1.027.213.038.325a13.99,13.99,0,0,1-.373,3.665,21.034,21.034,0,0,0-.246,2.44l-.131-2.3c-.3-3.223-2.955-7.881-2.955-7.881l-4.674-4.27.717-2.634-2.2-.31-.548-3.016s-.844-4.755-.07-6.2a41.043,41.043,0,0,1,3.143-2.794c-.057.391-.1.785-.148,1.192-.085.776-.183,1.548-.268,2.324a2.512,2.512,0,0,1-.09-.328l-.027.006A3.4,3.4,0,0,0,461.947,281.8Z" transform="translate(-441.1 -257.394)" fill="#11487f"/>
        <g id="Grupo_106786" data-name="Grupo 106786" transform="translate(20.43 21.005)">
          <path id="Trazado_151216" data-name="Trazado 151216" d="M478.107,304.308c.035-.193.06-.4.081-.6a75.8,75.8,0,0,0,.165-7.689,17.008,17.008,0,0,0-.529-2.453c-.712-.632-10.494-.021-11.087-.766a18.751,18.751,0,0,0,1.323,2.321l.878,1.134,3.332,4.843a48.452,48.452,0,0,1,2.365,8.09c.016.1.939,2.09.95,2.2C475.953,309.521,477.184,307.319,478.107,304.308Z" transform="translate(-466.321 -289.403)" fill="#dcffff"/>
          <path id="Trazado_151217" data-name="Trazado 151217" d="M489.916,303.121l-1.119-5.959-.063-.225.134-2.311s-.473-.6-.725-.854a5.061,5.061,0,0,0-1.39-.763c-.334.507-.7,1.1-1.037,1.715-.028.059-.072.127-.1.2a9.4,9.4,0,0,0,1.833,2.386c.141,2.1.126,6.556.126,6.556L486.4,309.39l-.655,7.823c.092-.324,3.966-11.5,3.966-11.5Z" transform="translate(-478.13 -289.533)" fill="#ff5252"/>
          <path id="Trazado_151218" data-name="Trazado 151218" d="M466.228,284.053c1.152,3.287,7.622,4.18,8.211,2.108l.187-2.361c.137.558,1.857,2.485,2.31,3.58.064.17.13.327.191.509a5.675,5.675,0,0,1-.466,1.255l-.3-.326-.724-.854-1.39-.763c-.334.507-1.758,3.365-1.758,3.365l-.024-.008L468.3,289a14.133,14.133,0,0,1-2.259-1.88,3.4,3.4,0,0,1,.07-3.392l.027-.006A2.512,2.512,0,0,0,466.228,284.053Z" transform="translate(-465.623 -283.725)" fill="#fff"/>
        </g>
        <g id="Grupo_106787" data-name="Grupo 106787" transform="translate(16.942)">
          <path id="Trazado_151219" data-name="Trazado 151219" d="M475.537,276.753c.073.023-.531,2.675-.55,2.8-.216.881-6.917.98-8.18-3.02.085-.776.684-4.616.725-5a.89.89,0,0,0,.678-.032A62.86,62.86,0,0,0,475.537,276.753Z" transform="translate(-462.876 -255.077)" fill="#f89c69"/>
          <path id="Trazado_151220" data-name="Trazado 151220" d="M478.582,249.027c-.778.7-2.92.705-4,.916-1.521.268-5.572,1.24-5.572,1.24a14.787,14.787,0,0,1-.6,2.459c-.274,1.082-.952,1.8-.724,4.2-.462-.4-.912-.8-1.32-1.218-.087-.94-.145-1.9-.235-2.442-.431-.515-1.871-.414-1.544.863.257,1.007.377,3.208,1.3,3.519a.892.892,0,0,0,.675-.081,6.918,6.918,0,0,0,1.408,1.945s5.358,3.21,5.869,3.25c.074.018,2.806-.672,2.806-.672l1.878-8.554S478.635,249.417,478.582,249.027Z" transform="translate(-461.457 -241.012)" fill="#fbb686"/>
          <path id="Trazado_151221" data-name="Trazado 151221" d="M463.857,243.569a14.781,14.781,0,0,1-.6,2.46c-.273,1.082-.952,1.8-.723,4.2-.462-.4-.912-.8-1.321-1.217-.087-.94-.145-1.9-.235-2.442-.431-.515-1.872-.414-1.544.863.257,1.007.377,3.209,1.3,3.519-.013.383-.052,1.147-.052,1.147l-.97-.615-.54-1.554a83.948,83.948,0,0,1-2.863-8.234l.4-4.841S461.108,242.215,463.857,243.569Z" transform="translate(-456.308 -233.399)" fill="#11487f"/>
          <path id="Trazado_151222" data-name="Trazado 151222" d="M465.608,238.179s-.968-.321-1.086-.389c-2.749-1.354-5.1-4.308-7.151-6.712a16.145,16.145,0,0,1,2.871-2.67c1.012-.628,6.564-1.08,8.069-.565l.012,0c.653.274,2.886,1.307,3.338,1.467-.237-.074,3.928,1.235,4.018,1.267,0,0,.444,2.891-.46,4.105-.266.351-1.489,1.689-1.489,1.689S467.3,238.538,465.608,238.179Z" transform="translate(-456.974 -227.62)" fill="#002b6a"/>
        </g>
        <path id="Trazado_151223" data-name="Trazado 151223" d="M421.664,288.826l-2.352,9.626-4.079,20.271,16.445,12.1,1.9-17.016-5.032-14.962,1.892-13.318Z" transform="translate(-413.668 -263.848)" fill="#002b6a"/>
      </g>
      <path id="Trazado_151224" data-name="Trazado 151224" d="M268.52,507.579l66.433,32.992V513.682L268.52,480.69Z" transform="translate(-268.52 -385.946)" fill="#fff"/>
      <path id="Trazado_151225" data-name="Trazado 151225" d="M268.54,510.764l66.414,33.283V517.158L268.52,484.217Z" transform="translate(-268.52 -388.152)" fill="#33b3c4"/>
      <g id="Grupo_106789" data-name="Grupo 106789" transform="translate(64.659 85.035)">
        <path id="Trazado_151226" data-name="Trazado 151226" d="M491.958,499.489l-48.3,26.534-2.433-1.341V479.948l50.728-25.193Z" transform="translate(-441.23 -454.755)" fill="#33b3c4"/>
        <path id="Trazado_151227" data-name="Trazado 151227" d="M498.456,503.07l-50.728,25.193V483.53l50.728-25.193Z" transform="translate(-445.295 -456.996)" fill="#d9fdff"/>
        <path id="Trazado_151228" data-name="Trazado 151228" d="M491.958,454.755l2.433,1.341-50.728,25.193-2.433-1.341Z" transform="translate(-441.23 -454.755)" fill="#fff"/>
      </g>
    </g>
    <g id="Grupo_106791" data-name="Grupo 106791" transform="translate(235.756 268.829)">
      <path id="Trazado_151229" data-name="Trazado 151229" d="M516.036,567.032a5.771,5.771,0,0,1-3.067,4.6c-1.694.847-3.067.161-3.067-1.533a5.77,5.77,0,0,1,3.067-4.6C514.663,564.652,516.036,565.338,516.036,567.032Z" transform="translate(-509.902 -564.66)" fill="#33b3c4" opacity="0.28"/>
      <path id="Trazado_151230" data-name="Trazado 151230" d="M514.144,568.084l5.931,2.966,2.692-3.813-5.931-2.966Z" transform="translate(-512.556 -564.118)" fill="#0f6b93"/>
      <path id="Trazado_151231" data-name="Trazado 151231" d="M525.382,566.661a5.771,5.771,0,0,1-3.067,4.6,12.075,12.075,0,0,1-1.6.531l-.73-.439a1.852,1.852,0,0,1-.736-1.625,5.77,5.77,0,0,1,3.067-4.6,2.5,2.5,0,0,1,2.089-.223l.978.578Z" transform="translate(-515.749 -564.427)" fill="#70e2e5"/>
      <path id="Trazado_151232" data-name="Trazado 151232" d="M527.343,567.851a5.771,5.771,0,0,1-3.067,4.6c-1.694.847-3.067.161-3.067-1.533a5.771,5.771,0,0,1,3.067-4.6C525.97,565.47,527.343,566.157,527.343,567.851Z" transform="translate(-516.976 -565.172)" fill="#3dbfc9"/>
      <path id="Trazado_151233" data-name="Trazado 151233" d="M528.253,569.088a4.787,4.787,0,0,1-2.544,3.816c-1.405.7-2.544.133-2.544-1.272a4.788,4.788,0,0,1,2.544-3.816C527.113,567.113,528.253,567.683,528.253,569.088Z" transform="translate(-518.199 -566.148)" fill="#e9ffff"/>
      <path id="Trazado_151234" data-name="Trazado 151234" d="M529.277,569.833a4.787,4.787,0,0,1-2.544,3.816c-1.405.7-2.544.133-2.544-1.272a4.787,4.787,0,0,1,2.544-3.816C528.138,567.858,529.277,568.428,529.277,569.833Z" transform="translate(-518.84 -566.614)" fill="#9fedeb"/>
      <path id="Trazado_151235" data-name="Trazado 151235" d="M516.5,565a3.458,3.458,0,0,1-1.837,2.756c-1.015.507-1.837.1-1.837-.919a3.456,3.456,0,0,1,1.837-2.756C515.68,563.573,516.5,563.984,516.5,565Z" transform="translate(-511.733 -563.863)" fill="#0f6b93"/>
    </g>
    <g id="Grupo_106792" data-name="Grupo 106792" transform="translate(216.804 160.385)">
      <path id="Trazado_151236" data-name="Trazado 151236" d="M517.563,274.714l-.621-.513-17.511,4.543-3.264,4.887-36.889,10.318,3.9,54.3.621.513,59.44-22.139Z" transform="translate(-459.279 -274.201)" fill="#ff815a"/>
      <path id="Trazado_151237" data-name="Trazado 151237" d="M521.835,293.887,518.6,275.572l-17.511,4.543L497.826,285,460.937,295.32l3.9,54.3L524.9,327.993Z" transform="translate(-460.316 -275.059)" fill="#d84021"/>
      <path id="Trazado_151238" data-name="Trazado 151238" d="M528.243,312.471c.112-.676-1.338-11.851-1.338-11.851l-54.939,13.85L472.7,355.4Z" transform="translate(-467.216 -290.729)" fill="#b3e8e8"/>
      <path id="Trazado_151239" data-name="Trazado 151239" d="M534.322,301.412c.112-.676-1.338-11.851-1.338-11.851l-54.939,13.85.734,40.928Z" transform="translate(-471.019 -283.811)" fill="#d2ffff"/>
      <path id="Trazado_151240" data-name="Trazado 151240" d="M547.068,314.949V304.8l-54.712,4.252v22.586Z" transform="translate(-479.973 -293.344)" fill="#ebfffe"/>
      <path id="Trazado_151241" data-name="Trazado 151241" d="M538.871,330.2v-10.15L484.159,324.3v22.586Z" transform="translate(-474.844 -302.885)" fill="#fff"/>
      <path id="Trazado_151242" data-name="Trazado 151242" d="M535.608,310.778l1,.774-6.19,37.692-58.054,23.174-1-.774,5.186-46.5,37.977-11.054,3.011,1.988Z" transform="translate(-466.84 -297.084)" fill="#d84021"/>
      <path id="Trazado_151243" data-name="Trazado 151243" d="M538.289,312.846,533.1,351.313l-59.057,22.4,5.186-46.5,37.977-11.054,3.011,1.988Z" transform="translate(-468.517 -298.378)" fill="#ff815a"/>
      <path id="Trazado_151244" data-name="Trazado 151244" d="M524.2,320.406l-1-.774-37.977,11.054,1,.774Z" transform="translate(-475.507 -302.624)" fill="#ffbf8f"/>
      <path id="Trazado_151245" data-name="Trazado 151245" d="M459.9,327.463l-.621-.513,3.9,54.3.621.513Z" transform="translate(-459.279 -307.202)" fill="#99291d"/>
      <path id="Trazado_151246" data-name="Trazado 151246" d="M561.332,286.85l-.621-.513-3.482,5.049.839.351Z" transform="translate(-520.558 -281.793)" fill="#99291d"/>
      <path id="Trazado_151247" data-name="Trazado 151247" d="M594.7,316.081l1,.774,18.069-5.3-1-.774Z" transform="translate(-544.003 -297.084)" fill="#ffbf8f"/>
    </g>
    <g id="Grupo_106793" data-name="Grupo 106793" transform="translate(200.921 195.647)">
      <path id="Trazado_151248" data-name="Trazado 151248" d="M480.36,418.1l.923-2.833-.211-1.16-1.409.224-2.99-1.592-2.916.853-2,2.9-1.132,1.265,4.836,2.159Z" transform="translate(-450.495 -396.138)" fill="#ffbb8d"/>
      <path id="Trazado_151249" data-name="Trazado 151249" d="M472,411.264l-3.581,5.5-1.526-1.067,3.61-5.924Z" transform="translate(-448.157 -394.278)" fill="#fff"/>
      <path id="Trazado_151250" data-name="Trazado 151250" d="M416.854,370.474s18.967,20.363,19.318,20.073,3.8-6.318,3.8-6.318l-12.9-15.841Z" transform="translate(-416.854 -368.388)" fill="#002b6a"/>
    </g>
  </g>
</svg>
