<svg xmlns="http://www.w3.org/2000/svg" xmlns:xlink="http://www.w3.org/1999/xlink" width="505" height="311.378" viewBox="0 0 505 311.378">
  <defs>
    <clipPath id="clip-path">
      <path id="Trazado_151625" data-name="Trazado 151625" d="M320.869,184.475H198.4L180.443,135H338.825Z" transform="translate(-180.443 -135)" fill="none"/>
    </clipPath>
    <clipPath id="clip-path-2">
      <path id="Trazado_151632" data-name="Trazado 151632" d="M234.268,107.779H285l53.824,64.645H180.443Z" transform="translate(-180.443 -107.779)" fill="none"/>
    </clipPath>
  </defs>
  <g id="Grupo_107013" data-name="Grupo 107013" transform="translate(-119.9 -54.308)">
    <g id="Grupo_106987" data-name="Grupo 106987" transform="translate(418.006 54.307)">
      <path id="Trazado_151570" data-name="Trazado 151570" d="M276.9,65.357c.325,1.75.721,3.573,1.2,5.451q.291,1.13.6,2.216c-2.334,1.226-3.172.857-3.486.609C273.514,72.3,276.525,66.113,276.9,65.357Z" transform="translate(-150.275 -35.196)" fill="#f9afb6"/>
      <path id="Trazado_151571" data-name="Trazado 151571" d="M298.17,122.9l-20.483,57.968-13.154,80.9,25.074-.819,17.745-65.892,24.367-62.357-9.534,45.745,22.366,83.323h26.343l-16.566-84.082,14.721-47.29a41.654,41.654,0,0,0-.248-25.549s-31.606-2.186-32.487-1.834S298.17,122.9,298.17,122.9Z" transform="translate(-167.851 29.855)" fill="#64546f"/>
      <path id="Trazado_151572" data-name="Trazado 151572" d="M298.05,161.143h26.343l3.849,16.279a3.4,3.4,0,0,1-3.4,3.483H291.958l-.445-3.428a10.242,10.242,0,0,1,2.809-8.65,13.419,13.419,0,0,0,2.05-2.574A10.082,10.082,0,0,0,298.05,161.143Z" transform="translate(-121.35 130.473)" fill="#4c4056"/>
      <path id="Trazado_151573" data-name="Trazado 151573" d="M311.362,89.657l-1.269,44.268-.074,2.519a9.549,9.549,0,0,1-8.26,9.188l-40.2,5.462a6.142,6.142,0,0,1-3.18-11.759L295.855,123.8l-8.331,11.7L280.114,91.84a15.738,15.738,0,0,1,31.032-5.268A16.667,16.667,0,0,1,311.362,89.657Z" transform="translate(-185.038 -21.169)" fill="#4c4056"/>
      <path id="Trazado_151574" data-name="Trazado 151574" d="M366.386,165.4l-33.434,17.355a41.827,41.827,0,0,1-35.875,1.291l-1.313-.573L265.93,87.018l4.662-4.556,3.961-3.854,8.751-8.519,2.2-2.14,1.062.085,7.288.508,5.467.382,17.737,1.269a22.7,22.7,0,0,1,9.745,4.747,22.431,22.431,0,0,1,6.379,8.773Z" transform="translate(-165.436 -30.713)" fill="#4c4056"/>
      <g id="Grupo_106979" data-name="Grupo 106979" transform="translate(127.65 129.246)">
        <path id="Trazado_151575" data-name="Trazado 151575" d="M293.171,123.241a42.5,42.5,0,0,1-16.88-3.5.682.682,0,1,1,.54-1.253,41.016,41.016,0,0,0,35.293-1.25l29.853-15.5a.683.683,0,0,1,.63,1.212l-29.853,15.5A42.465,42.465,0,0,1,293.171,123.241Z" transform="translate(-275.879 -101.658)" fill="#af9caa"/>
      </g>
      <path id="Trazado_151576" data-name="Trazado 151576" d="M340.6,85.256l-2.79,51.562-.1,1.9a10.507,10.507,0,0,1-11.063,9.927,10.979,10.979,0,0,1-2.282-.377l-59.95-16.891a6.113,6.113,0,0,1,2.312-11.961l61.926,6.638L315.195,137.5l-5.909-51.3a15.718,15.718,0,0,1,31.229-3.6A17.249,17.249,0,0,1,340.6,85.256Z" transform="translate(-175.772 -29.432)" fill="#4c4056"/>
      <g id="Grupo_106980" data-name="Grupo 106980" transform="translate(83.501 44.523)">
        <path id="Trazado_151577" data-name="Trazado 151577" d="M327.645,146.007c-.2,0-.4-.005-.609-.016a11.6,11.6,0,0,1-2.429-.4L264.657,128.7a6.794,6.794,0,0,1,2.566-13.3l46.124,4.943-4.31-37.4a16.3,16.3,0,0,1,3.447-12.07.682.682,0,0,1,1.07.846,14.944,14.944,0,0,0-3.161,11.068l4.408,38.244a.685.685,0,0,1-.753.756l-46.97-5.033a5.43,5.43,0,0,0-2.053,10.626l59.95,16.888a10.349,10.349,0,0,0,2.132.355,9.846,9.846,0,0,0,10.348-9.286l2.378-43.992a.663.663,0,0,1,.721-.641.683.683,0,0,1,.644.718l-2.38,43.99A11.208,11.208,0,0,1,327.645,146.007Z" transform="translate(-259.705 -70.619)" fill="#af9caa"/>
      </g>
      <path id="Trazado_151578" data-name="Trazado 151578" d="M288.852,68.541c-.063,4.111-.931,11.74-6.483,16.953-.742.674-6.464,5.931-10.064,4.13a6.039,6.039,0,0,1-2.481-3.03,9.248,9.248,0,0,1-.761-2.268,10.842,10.842,0,0,1,.019-4.618c.087-.21.235-.592.467-1.1,1.146-2.566,4.346-8.246,10.954-10.659l1.062.085,5.107.36Z" transform="translate(-160.432 -30.713)" fill="#f9afb6"/>
      <path id="Trazado_151579" data-name="Trazado 151579" d="M285.852,67.6c-1.641,9.256-6.414,16.241-12.51,17.426a10.469,10.469,0,0,1-4.28-.085,10.842,10.842,0,0,1,.019-4.618c.087-.21.235-.592.467-1.1,1.146-2.566,4.346-8.246,10.954-10.659l1.062.085Z" transform="translate(-160.432 -31.323)" fill="#e59ca9"/>
      <g id="Grupo_106986" data-name="Grupo 106986" transform="translate(87.186)">
        <path id="Trazado_151580" data-name="Trazado 151580" d="M263.292,79.345c1.076,11.284,11.175,22.9,20.559,21.31,9.147-1.542,14.688-15.133,12.709-25.77C294.794,65.4,286.37,54.628,277.079,55.87,267.815,57.107,262.372,69.652,263.292,79.345Z" transform="translate(-257.36 -51.774)" fill="#f9afb6"/>
        <g id="Grupo_106985" data-name="Grupo 106985" transform="translate(8.173 32.094)">
          <path id="Trazado_151581" data-name="Trazado 151581" d="M268.041,67.946a1.065,1.065,0,1,0,1.3-.762A1.065,1.065,0,0,0,268.041,67.946Z" transform="translate(-257.204 -64.191)" fill="#64546f"/>
          <path id="Trazado_151582" data-name="Trazado 151582" d="M264.892,69.006a1.065,1.065,0,1,0,1.3-.762A1.065,1.065,0,0,0,264.892,69.006Z" transform="translate(-262.65 -62.355)" fill="#64546f"/>
          <g id="Grupo_106981" data-name="Grupo 106981" transform="translate(8.015)">
            <path id="Trazado_151583" data-name="Trazado 151583" d="M267.492,67.888a.507.507,0,0,1-.265-.939,5.931,5.931,0,0,1,1.6-.693,6.129,6.129,0,0,1,3.164.035.51.51,0,0,1,.355.625.5.5,0,0,1-.622.355,5.087,5.087,0,0,0-2.637-.033,4.916,4.916,0,0,0-1.332.573A.5.5,0,0,1,267.492,67.888Z" transform="translate(-266.985 -66.065)" fill="#64546f"/>
          </g>
          <g id="Grupo_106982" data-name="Grupo 106982" transform="translate(0 2.53)">
            <path id="Trazado_151584" data-name="Trazado 151584" d="M264.557,68.346a.508.508,0,0,1-.175-.985,6.336,6.336,0,0,1,2.312-.366.507.507,0,0,1,.491.524.524.524,0,0,1-.524.491,4.74,4.74,0,0,0-1.93.306A.546.546,0,0,1,264.557,68.346Z" transform="translate(-264.049 -66.992)" fill="#64546f"/>
          </g>
          <g id="Grupo_106983" data-name="Grupo 106983" transform="translate(5.142 5.293)">
            <path id="Trazado_151585" data-name="Trazado 151585" d="M269.859,75.368a1.513,1.513,0,0,1-.811-.216c-.519-.322-.636-.846-.8-1.572l-.055-.243a20.138,20.138,0,0,0-.7-2.459,5.45,5.45,0,0,0-1.4-2,.509.509,0,0,1-.027-.718.517.517,0,0,1,.721-.027,6.489,6.489,0,0,1,1.657,2.372,21.045,21.045,0,0,1,.74,2.6l.057.248c.128.579.191.838.341.931a1.11,1.11,0,0,0,.887-.079.508.508,0,1,1,.379.942A2.635,2.635,0,0,1,269.859,75.368Z" transform="translate(-265.932 -68.004)" fill="#64546f"/>
          </g>
          <g id="Grupo_106984" data-name="Grupo 106984" transform="translate(10.659 10.505)">
            <path id="Trazado_151586" data-name="Trazado 151586" d="M268.462,74.475a.511.511,0,0,1-.322-.115.5.5,0,0,1-.068-.715,13.368,13.368,0,0,1,4.79-3.682.5.5,0,0,1,.674.248.509.509,0,0,1-.248.674,12.418,12.418,0,0,0-4.433,3.407A.5.5,0,0,1,268.462,74.475Z" transform="translate(-267.954 -69.914)" fill="#64546f"/>
          </g>
        </g>
        <path id="Trazado_151587" data-name="Trazado 151587" d="M267.541,85.132c2.383-.21,2.792-3.054,6.185-5.5,2.454-1.766,8.6-3.371,9.259-2.992.273.156.592.142.917.349.77.491,7.809,6.922,9.338,5.388,1.111-1.114-1.381-3.543-.268-7.4.106-.368,5.71-1.067,5.839-.819,1.7,3.281.62,7.252,1.313,10.31.459,2.014,2.252-6.092,2.252-6.092,1.788-12.813-3.516-19.863-8.958-22.614-5.645-2.858-11.743-.789-14.6.183-1.968.671-15.924,12.662-17.188,17.245-1,3.633-.587,6.065.393,7.749C263.073,82.741,265.182,85.339,267.541,85.132Z" transform="translate(-261.055 -54.307)" fill="#64546f"/>
        <path id="Trazado_151588" data-name="Trazado 151588" d="M272.43,66.424c-.016,3.008,1.725,5.456,3.887,5.465s3.928-2.418,3.942-5.429S278.531,61,276.369,61,272.444,63.416,272.43,66.424Z" transform="translate(-241.381 -42.74)" fill="#f9afb6"/>
      </g>
      <path id="Trazado_151589" data-name="Trazado 151589" d="M229.113,263.481h7.613L318.907,89.32h-7.614Z" transform="translate(-229.113 6.25)" fill="#d9edd9"/>
      <path id="Trazado_151590" data-name="Trazado 151590" d="M280.808,93.845a47.022,47.022,0,0,0-2.893-3.759,22.964,22.964,0,0,0-6.753-5.882c-1.149-.666-8.505,4.146-8.47,4.335.131.712-2.277.86-4,2.82-2.937,3.327-1.49,9.125-.912,11.451.62,2.478.928,3.715,1.924,4.714,2.342,2.345,6.084,2.342,12.223,2.181a7.02,7.02,0,0,0,6.693-5.563Q279.71,98.99,280.808,93.845Z" transform="translate(-181.043 -2.708)" fill="#f9afb6"/>
      <path id="Trazado_151591" data-name="Trazado 151591" d="M273.351,111.712c.027-1.1,1.556-12.108.759-13.913-.538-1.215-14.622-1.687-17.174-1.122-4.332.961-6.578,6.5-7.479,8.718-.958,2.367-1.439,3.548-1.217,4.943.51,3.273,3.538,5.476,8.593,8.958a7.017,7.017,0,0,0,8.686-.557Q269.435,115.227,273.351,111.712Z" transform="translate(-196.127 18.565)" fill="#f9afb6"/>
      <path id="Trazado_151592" data-name="Trazado 151592" d="M283.276,161.662l-7.192,2.888a38.062,38.062,0,0,1-7.094,2.072l-10.733,2.025a5.6,5.6,0,0,0-4.558,5.5v7.28h28.068l15.632-1.586.156,1.586H304.7a3.652,3.652,0,0,0,3.652-3.652V160.843Z" transform="translate(-186.592 129.954)" fill="#4c4056"/>
    </g>
    <path id="Trazado_151593" data-name="Trazado 151593" d="M233.755,224.209h-7.613L164.42,112.026h7.613Z" transform="translate(77.002 99.829)" fill="#d9edd9"/>
    <g id="Grupo_106998" data-name="Grupo 106998" transform="translate(119.9 63.53)">
      <path id="Trazado_151594" data-name="Trazado 151594" d="M216.867,122.9l20.483,57.968,2.47,80.9-25.074-.819-7.064-65.892-24.367-62.357-9.826,57.154-25.516,71.913H121.125l20.223-72.669,4.638-58.7a41.675,41.675,0,0,1,.251-25.549s31.606-2.186,32.487-1.834S216.867,122.9,216.867,122.9Z" transform="translate(-117.78 20.632)" fill="#64546f"/>
      <path id="Trazado_151595" data-name="Trazado 151595" d="M155.424,160.843v16.929a3.652,3.652,0,0,0,3.652,3.652h51a14.374,14.374,0,0,0-11.71-14.126l-3.578-.677a38.028,38.028,0,0,1-7.1-2.072l-7.192-2.888Z" transform="translate(-58.458 120.731)" fill="#af9caa"/>
      <path id="Trazado_151596" data-name="Trazado 151596" d="M150.092,161.143H123.244L119.9,177.422a3.394,3.394,0,0,0,3.393,3.483h32.891l.445-3.428a10.242,10.242,0,0,0-2.809-8.65,13.418,13.418,0,0,1-2.05-2.574A10.054,10.054,0,0,1,150.092,161.143Z" transform="translate(-119.9 121.25)" fill="#af9caa"/>
      <path id="Trazado_151597" data-name="Trazado 151597" d="M240.718,99.789a172.187,172.187,0,0,0-16.994,25.044c-1.122,1.993-2.225,4.07-3.284,6.21A165.365,165.365,0,0,0,203.6,188.251a60.732,60.732,0,0,1-14.494,2.861c-30.047,2.162-52.7-19.3-58.97-25.68q2.256-8.2,4.515-16.4a162.57,162.57,0,0,1,28.33-56.723c4.891-6.313,7.924-10.678,11.208-14.98a21.3,21.3,0,0,1,19.325-8.243l12.119,1.357,2.669.295,13.476,1.529,8.857,12.881,1.378,1.973Z" transform="translate(-102.202 -38.21)" fill="#af9caa"/>
      <path id="Trazado_151598" data-name="Trazado 151598" d="M190.938,92.623l-2.32,45.005-.614-3.2,11.18,48.106a6.125,6.125,0,0,1-11.508,4l-21.042-44.68a3.438,3.438,0,0,1-.3-.988l-.314-2.211L159.646,94.04A15.735,15.735,0,0,1,190.8,89.588,16.5,16.5,0,0,1,190.938,92.623Z" transform="translate(-51.431 -25.877)" fill="#af9caa"/>
      <g id="Grupo_106994" data-name="Grupo 106994" transform="translate(102.824)">
        <path id="Trazado_151599" data-name="Trazado 151599" d="M166.6,113.242s12.75-4.531,15.6-12.957a89.293,89.293,0,0,1,16.025-28.734l-21.7-9.1L175,61.809a31.031,31.031,0,0,1-.748,3.164,32.113,32.113,0,0,1-4.99,10.176c-.265.382-.543.756-.849,1.133a31.843,31.843,0,0,1-7.973,7.089C151.4,89.036,166.6,113.242,166.6,113.242Z" transform="translate(-157.57 -50.555)" fill="#f9afb6"/>
        <path id="Trazado_151600" data-name="Trazado 151600" d="M162.7,73.781a25.552,25.552,0,0,0-.658,8.287c.62,7.037,4.476,16.244,10.842,17.628a8.025,8.025,0,0,0,1.747.183,89.293,89.293,0,0,1,16.025-28.734l-21.7-9.1a23.447,23.447,0,0,0-2.287,2.522,49.965,49.965,0,0,1-1.788,4.777C164.175,70.981,163.433,72.463,162.7,73.781Z" transform="translate(-149.992 -50.149)" fill="#e59ca9"/>
        <g id="Grupo_106993" data-name="Grupo 106993" transform="translate(7.512)">
          <path id="Trazado_151601" data-name="Trazado 151601" d="M195.516,82.732c-1.842,11.229-12.753,22.17-22.044,19.945C164.416,100.507,159.792,86.518,162.5,76c2.416-9.382,11.584-19.593,20.807-17.718C192.5,60.147,197.1,73.088,195.516,82.732Z" transform="translate(-157.886 -57.047)" fill="#f9afb6"/>
          <g id="Grupo_106992" data-name="Grupo 106992" transform="translate(18.392 24.689)">
            <g id="Grupo_106988" data-name="Grupo 106988" transform="translate(2.414)">
              <path id="Trazado_151602" data-name="Trazado 151602" d="M172.624,69.239a.5.5,0,0,1-.347-.139,5.11,5.11,0,0,0-1.2-.838,5.022,5.022,0,0,0-2.6-.5.49.49,0,0,1-.54-.472.508.508,0,0,1,.475-.54,6.124,6.124,0,0,1,3.114.609,6.059,6.059,0,0,1,1.439,1.01.509.509,0,0,1-.349.876Z" transform="translate(-167.945 -66.731)" fill="#64546f"/>
            </g>
            <g id="Grupo_106989" data-name="Grupo 106989" transform="translate(12.007 4.39)">
              <path id="Trazado_151603" data-name="Trazado 151603" d="M175.842,71.491a.51.51,0,0,1-.4-.2,4.9,4.9,0,0,0-1.04-1.018,5.118,5.118,0,0,0-2.481-.92.5.5,0,0,1-.456-.551.51.51,0,0,1,.554-.459,6.1,6.1,0,0,1,2.975,1.105,5.95,5.95,0,0,1,1.256,1.228.506.506,0,0,1-.1.712A.518.518,0,0,1,175.842,71.491Z" transform="translate(-171.459 -68.339)" fill="#64546f"/>
            </g>
            <g id="Grupo_106990" data-name="Grupo 106990" transform="translate(4.596 6.073)">
              <path id="Trazado_151604" data-name="Trazado 151604" d="M169.874,76.744a3.017,3.017,0,0,1-.751-.106.511.511,0,0,1-.363-.622.5.5,0,0,1,.62-.36,1.086,1.086,0,0,0,.9-.035c.134-.112.167-.374.218-.964l.025-.262a22.132,22.132,0,0,1,.409-2.686,6.518,6.518,0,0,1,1.351-2.569.508.508,0,0,1,.781.65,5.475,5.475,0,0,0-1.144,2.167,20.056,20.056,0,0,0-.385,2.536l-.025.257c-.068.74-.117,1.275-.592,1.66A1.6,1.6,0,0,1,169.874,76.744Z" transform="translate(-168.744 -68.956)" fill="#64546f"/>
            </g>
            <g id="Grupo_106991" data-name="Grupo 106991" transform="translate(0 14.157)">
              <path id="Trazado_151605" data-name="Trazado 151605" d="M172.95,75.59c-.827,0-5.41-2.274-5.809-2.891a.507.507,0,0,1,.15-.7.513.513,0,0,1,.685.126,25.194,25.194,0,0,0,4.962,2.454.464.464,0,0,1,.527.467.524.524,0,0,1-.489.546Z" transform="translate(-167.06 -71.918)" fill="#64546f"/>
            </g>
            <path id="Trazado_151606" data-name="Trazado 151606" d="M171.147,70.706a1.066,1.066,0,1,0,1.171-.95A1.062,1.062,0,0,0,171.147,70.706Z" transform="translate(-160.002 -61.51)" fill="#64546f"/>
            <path id="Trazado_151607" data-name="Trazado 151607" d="M168.279,69.034a1.068,1.068,0,1,0,1.174-.95A1.063,1.063,0,0,0,168.279,69.034Z" transform="translate(-164.963 -64.402)" fill="#64546f"/>
          </g>
          <path id="Trazado_151608" data-name="Trazado 151608" d="M160.742,86.578c.682.287,2.582-2.593,3.229-3.573,1.993-3.013,1.5-5.353,3.491-6.491a3.452,3.452,0,0,1,2.528-.418c2.012.669,3.065,4.608,2.252,9.8a17.68,17.68,0,0,0,2.118-6.818c.235-2.538-.262-3.532.2-4.968.584-1.81,2.577-3.947,8.814-5.306l14.409,7.124s.145,6.876.033,8.284c.729-1.526,1.6-2.342,2.56-5.1,1.6-4.632,2.4-6.947,2.137-9.038-.833-6.633-9.734-10.209-11.09-10.754a18.5,18.5,0,0,0-20.857,3.813C161.026,71.842,159.372,86,160.742,86.578Z" transform="translate(-160.322 -57.686)" fill="#b27070"/>
          <path id="Trazado_151609" data-name="Trazado 151609" d="M165.743,72.451c.281-.276,3.21-3.084,6.922-2.317s5.252,4.5,5.713,5.617a10.822,10.822,0,0,1,.778,4.714,5.8,5.8,0,0,0,1.059-1.392,6.817,6.817,0,0,0,.464-4.965,6.157,6.157,0,0,1,3.42,4.042,5.95,5.95,0,0,1-1.965,5.825,5.5,5.5,0,0,0,2.847-.928,5.721,5.721,0,0,0,2.32-3.576,16.681,16.681,0,0,1-.794,8.609,6.987,6.987,0,0,0,2.579-.928c5.7-3.491,6.846-16.4.729-23.638-2.689-3.185-7.853-6.535-12.447-5.233-2.558.726-4.16,2.67-6.491,5.5A32.866,32.866,0,0,0,165.743,72.451Z" transform="translate(-150.946 -57.154)" fill="#b27070"/>
          <path id="Trazado_151610" data-name="Trazado 151610" d="M168.462,70.2c-.762,3.295-2.863,5.623-4.689,5.2s-2.7-3.439-1.932-6.734,2.861-5.623,4.692-5.2S169.226,66.909,168.462,70.2Z" transform="translate(-158.177 -47.764)" fill="#f9afb6"/>
        </g>
      </g>
      <path id="Trazado_151611" data-name="Trazado 151611" d="M185.1,88.266a1.1,1.1,0,0,0-1.441-.827L173.574,91.3l-3.857-10.108a1.086,1.086,0,0,0-.655-.636,1.147,1.147,0,0,0-.912.128l-16.719,10.7a1.064,1.064,0,0,0-.489,1.059l3.158,19.6a1.059,1.059,0,0,0,.508.764,1.255,1.255,0,0,0,.532.15,1.212,1.212,0,0,0,.379-.087l10.108-3.854,3.857,10.1a1.031,1.031,0,0,0,.658.636.788.788,0,0,0,.317.044,1.038,1.038,0,0,0,.57-.15l13.435-8.6c1.059-2.14,2.162-4.217,3.284-6.21ZM155.988,110.43l-2.839-17.652,15.043-9.619,3.39,8.9-9.851,3.75a1.047,1.047,0,0,0-.614,1.357l3.75,9.876Zm7.479-13.012,8.879-3.39,3.368,8.879-8.857,3.368Zm7.523,19.729-3.39-8.879,9.873-3.772a1.033,1.033,0,0,0,.614-1.357l-3.77-9.873,8.9-3.371,2.817,17.63Z" transform="translate(-66.227 -18.211)" fill="#c0aeba"/>
      <g id="Grupo_106995" data-name="Grupo 106995" transform="translate(101.74 32.231)">
        <path id="Trazado_151612" data-name="Trazado 151612" d="M185.242,86.172c-4.493,7.858-17.1,14.6-17.587,14.767l-.808.3-.442-.721a86.076,86.076,0,0,1-6.57-12.99c-3.18-8.03-3.518-14.6-.974-18.032l2.669.295c-3.876,2.65-1.993,11.232.276,16.953a88.377,88.377,0,0,0,5.931,11.887C170.365,97.57,180.9,90.6,183.863,84.2Z" transform="translate(-157.173 -69.494)" fill="#c0aeba"/>
      </g>
      <path id="Trazado_151613" data-name="Trazado 151613" d="M175.925,89.126,167.038,135.7l-3.218-9.046,32.935,40.722a6.121,6.121,0,0,1-8.661,8.565l-40.359-33.38a8.894,8.894,0,0,1-3.226-6.859l.011-2.186.227-47.413a15.729,15.729,0,0,1,31.458.15A16.9,16.9,0,0,1,175.925,89.126Z" transform="translate(-77.338 -35.61)" fill="#af9caa"/>
      <g id="Grupo_106996" data-name="Grupo 106996" transform="translate(66.488 69.948)">
        <path id="Trazado_151614" data-name="Trazado 151614" d="M180.889,148.06a.683.683,0,0,1-.434-.156l-32.722-27.066a9.561,9.561,0,0,1-3.475-7.383l.142-29.463a.682.682,0,1,1,1.365.005l-.142,29.46a8.2,8.2,0,0,0,2.981,6.33l32.719,27.064a.682.682,0,0,1-.434,1.209Z" transform="translate(-144.258 -83.312)" fill="#c0aeba"/>
      </g>
      <g id="Grupo_106997" data-name="Grupo 106997" transform="translate(89.8 52.831)">
        <path id="Trazado_151615" data-name="Trazado 151615" d="M169.461,140.637a.684.684,0,0,1-.532-.251L152.95,120.624a.68.68,0,0,1-.139-.557l8.1-42.469a.682.682,0,1,1,1.34.257l-8.047,42.158,15.782,19.514a.681.681,0,0,1-.53,1.111Z" transform="translate(-152.798 -77.041)" fill="#c0aeba"/>
      </g>
      <path id="Trazado_151616" data-name="Trazado 151616" d="M173.769,85.572A31.989,31.989,0,0,0,154.832,82.7,30.79,30.79,0,0,0,144.3,86.5q-.029,5.753-.06,11.505a23.948,23.948,0,0,1,10.591-5.214,24.853,24.853,0,0,1,17.281,2.978Q172.94,90.672,173.769,85.572Z" transform="translate(-77.799 -15.116)" fill="#4c4056"/>
      <path id="Trazado_151617" data-name="Trazado 151617" d="M233.755,224.209h-7.613L164.42,112.026h7.613Z" transform="translate(-42.898 36.299)" fill="#d9edd9"/>
      <path id="Trazado_151618" data-name="Trazado 151618" d="M159.523,112.171c.759-.8,1.922-1.965,3.437-3.27a22.99,22.99,0,0,1,7.58-4.774c1.236-.48,7.766,5.4,7.7,5.585-.237.685,2.118,1.2,3.524,3.4,2.391,3.74.071,9.245-.86,11.453-.991,2.353-1.488,3.529-2.626,4.362-2.672,1.957-6.371,1.378-12.411.276a7.02,7.02,0,0,1-5.759-6.526Q159.816,117.426,159.523,112.171Z" transform="translate(-51.368 22.588)" fill="#f9afb6"/>
      <path id="Trazado_151619" data-name="Trazado 151619" d="M167.51,124.818c1.892,1.526,3.213,2,5.091.295,1.785-1.621-1.717-7.444-.994-7.951a9.194,9.194,0,0,1,4.471-1.4c5.819-.822,6.185-2.724,8.432-2.165,3.587.9,5.967,6.573,5.661,11.262-.295,4.567-3.093,7.539-4.427,8.958-1.632,1.736-6.324,6.726-10.67,5.031C172.24,137.743,167.592,128.918,167.51,124.818Z" transform="translate(-37.554 38.836)" fill="#f9afb6"/>
    </g>
    <g id="Grupo_107012" data-name="Grupo 107012" transform="translate(279.864 200.262)">
      <g id="Grupo_107004" data-name="Grupo 107004" transform="translate(5.294 74.302)">
        <g id="Grupo_107003" data-name="Grupo 107003" clip-path="url(#clip-path)">
          <path id="Trazado_151620" data-name="Trazado 151620" d="M320.869,184.475H198.4L180.443,135H338.825Z" transform="translate(-180.443 -135)" fill="#b27070"/>
          <g id="Grupo_106999" data-name="Grupo 106999" transform="translate(-2.993 4.232)">
            <path id="Trazado_151621" data-name="Trazado 151621" d="M219.521,196.261c-8.347,0-16.735-2.574-22.863-7.179-5.677-4.266-15.49-15.114-11.98-25.631,3.338-10,16.246-12.578,20.122-13.126,2.664-.377,16.328-1.766,23.895,7.853a20.982,20.982,0,0,1,4.291,11.431c.123,1.922.341,11.814-7.64,17.862-5.708,4.324-14.7,6.267-20.862,1.61a17.433,17.433,0,0,1-6.4-12.447c-.153-3.087.712-5.664,2.435-7.255,2.9-2.691,8.453-2.716,12.368-.066,4.842,3.278,6.327,10.091,3.453,15.842a.691.691,0,1,1-1.237-.617c2.566-5.134,1.28-11.191-2.992-14.082-3.357-2.274-8.238-2.3-10.654-.065-1.419,1.31-2.126,3.5-1.993,6.174a15.977,15.977,0,0,0,5.852,11.415c6.267,4.733,14.912,1.63,19.194-1.613,7.419-5.62,7.214-14.871,7.1-16.669a19.572,19.572,0,0,0-4-10.667c-7.1-9.024-20.079-7.7-22.612-7.34-3.682.521-15.919,2.945-19.009,12.2-3.262,9.772,6.1,20.032,11.5,24.091,7.239,5.44,17.77,7.938,27.506,6.507,7.839-1.146,14.322-4.717,18.255-10.048,5.852-7.935,4.733-17.816,4.247-20.655-.928-5.467-3.95-13.342-13.064-19.809-9.4-6.657-19.5-6.27-30.2-5.86a81.915,81.915,0,0,0-23.968,4.567.691.691,0,1,1-.456-1.3,83.267,83.267,0,0,1,24.372-4.64c10.462-.4,21.266-.816,31.043,6.109,9.5,6.745,12.657,14.983,13.631,20.707.508,2.975,1.679,13.331-4.5,21.706-4.152,5.631-10.959,9.4-19.164,10.6A39.368,39.368,0,0,1,219.521,196.261Z" transform="translate(-179.347 -136.55)" fill="#c6827f"/>
          </g>
          <g id="Grupo_107000" data-name="Grupo 107000" transform="translate(60.084 -20.678)">
            <path id="Trazado_151622" data-name="Trazado 151622" d="M217.417,206.848a.7.7,0,0,1-.68-.565c-1.368-7.531-.65-14.183,2.135-19.77a31.107,31.107,0,0,1,6.338-8.3c2.238-2.26,3.857-3.9,3.72-6.314-.172-3.049-2.94-4.8-6.769-7.209a49.139,49.139,0,0,1-7.747-5.678c-7.162-6.712-11.186-17.1-11.958-30.852a.692.692,0,0,1,.652-.729.662.662,0,0,1,.726.652c.753,13.391,4.629,23.458,11.524,29.922a48.04,48.04,0,0,0,7.539,5.516c4.021,2.536,7.2,4.537,7.411,8.3.172,3.03-1.72,4.941-4.116,7.362a29.523,29.523,0,0,0-6.084,7.946c-2.648,5.317-3.325,11.677-2.012,18.908a.691.691,0,0,1-.554.8A.674.674,0,0,1,217.417,206.848Z" transform="translate(-202.456 -127.424)" fill="#c6827f"/>
          </g>
          <g id="Grupo_107001" data-name="Grupo 107001" transform="translate(86.731 -34.948)">
            <path id="Trazado_151623" data-name="Trazado 151623" d="M263.149,187.809a78.988,78.988,0,0,1-23.543-3.977c-15.769-5.1-26.5-13.544-27.328-21.506-1.507-14.423,25.628-32.042,61.773-40.111a.684.684,0,0,1,.824.524.694.694,0,0,1-.524.824c-39.074,8.721-61.931,26.837-60.7,38.618.775,7.422,11.131,15.4,26.381,20.335,15.163,4.9,35.042,6.207,42.862-2.538,1.9-2.124,4.411-6.382,5.585-14.6a52.17,52.17,0,0,0,.363-8.956,51.854,51.854,0,0,1-5.481,3.355c.049.087.1.175.15.259a9.107,9.107,0,0,1,1.25,7.007c-1.81,6.27-12.329,7.5-17.387,8.093-12.168,1.414-31.532-1.842-32.99-10-1.065-5.97,7.525-14.1,16.508-19.516,10.413-6.273,25.347-11.431,33.172-5.32,3.854,3.011,5.4,8.478,5.945,13.563q1.908-1.474,3.75-3.169a.692.692,0,0,1,.936,1.018,57.7,57.7,0,0,1-4.547,3.767,52.871,52.871,0,0,1-.3,10.094c-1.22,8.56-3.9,13.061-5.923,15.327C279.521,185.819,271.818,187.809,263.149,187.809Zm11.759-48.832c-7.045,0-15.908,3.374-23.3,7.828-10.146,6.111-16.669,13.55-15.862,18.089,1.182,6.622,18.288,10.427,31.469,8.874,4.392-.513,14.669-1.717,16.222-7.1a7.771,7.771,0,0,0-1.125-5.94c-.06-.106-.12-.21-.183-.314a44.161,44.161,0,0,1-10.55,3.669c-4.283.887-13.195,2.727-16.582-1.881a6.269,6.269,0,0,1-1.029-5.235c1.441-5.314,10.907-7.725,17.644-5.97a20.711,20.711,0,0,1,11,7.648,49.218,49.218,0,0,0,6.122-3.824c-.42-5.011-1.8-10.525-5.522-13.432A13.267,13.267,0,0,0,274.908,138.977Zm-8.066,12.81c-5.418,0-10.659,2.282-11.543,5.538a4.942,4.942,0,0,0,.811,4.059c2.866,3.9,11.5,2.107,15.187,1.343a42.774,42.774,0,0,0,10.069-3.453,19.26,19.26,0,0,0-10.1-6.944A17.694,17.694,0,0,0,266.842,151.787Z" transform="translate(-212.218 -122.196)" fill="#c6827f"/>
          </g>
          <g id="Grupo_107002" data-name="Grupo 107002" transform="translate(85.863 30.698)">
            <path id="Trazado_151624" data-name="Trazado 151624" d="M248.615,181.473c-8.393,0-16.68-3.15-21.588-9.038-3.21-3.854-6.98-11.172-4.2-15.548,1.3-2.047,4.015-3.393,7.632-3.783,5.568-.6,13.522,1.155,18.763,6.431a21.2,21.2,0,0,1,5.721,12.37.693.693,0,0,1-.6.772.684.684,0,0,1-.772-.6,19.845,19.845,0,0,0-5.331-11.571c-4.919-4.951-12.4-6.6-17.633-6.03-3.147.341-5.557,1.49-6.616,3.153-2.369,3.723,1.253,10.514,4.092,13.921,7.757,9.305,24.449,11.391,35.711,4.457,2.323-1.43,9.848-6.5,9.114-11.748-.816-5.849-11.909-8.767-23.652-11.857-16.533-4.343-28.464-7.484-33.606-1.376-4.345,5.159-1.791,14.478.117,19.571a.69.69,0,1,1-1.291.486c-2.017-5.377-4.684-15.25.117-20.947,5.708-6.772,17.993-3.546,35,.928,12.747,3.352,23.744,6.243,24.686,13,.827,5.907-6.548,11.139-9.758,13.116A30.487,30.487,0,0,1,248.615,181.473Z" transform="translate(-211.9 -146.247)" fill="#c6827f"/>
          </g>
        </g>
      </g>
      <path id="Trazado_151626" data-name="Trazado 151626" d="M341.495,141.119H183.333a4.829,4.829,0,1,1,0-9.657H341.495a4.829,4.829,0,0,1,0,9.657Z" transform="translate(-178.504 -66.817)" fill="#b27070"/>
      <g id="Grupo_107005" data-name="Grupo 107005" transform="translate(4.605 73.612)">
        <path id="Trazado_151627" data-name="Trazado 151627" d="M338.5,136.128H180.882a.691.691,0,1,1,0-1.381H338.5a.691.691,0,0,1,0,1.381Z" transform="translate(-180.191 -134.747)" fill="#c6827f"/>
      </g>
      <g id="Grupo_107010" data-name="Grupo 107010" transform="translate(5.294)">
        <g id="Grupo_107009" data-name="Grupo 107009" clip-path="url(#clip-path-2)">
          <path id="Trazado_151628" data-name="Trazado 151628" d="M234.268,107.779H285l53.824,64.645H180.443Z" transform="translate(-180.443 -107.779)" fill="#b27070"/>
          <g id="Grupo_107006" data-name="Grupo 107006" transform="translate(88.769 8.315)">
            <path id="Trazado_151629" data-name="Trazado 151629" d="M254.807,164.273a49.12,49.12,0,0,1-21.332-4.749c-.467-.224-1.013-.472-1.619-.748-6.161-2.817-17.625-8.055-18.8-17.284-.808-6.371,3.5-14.36,11.249-20.854,7.867-6.592,20.461-12.332,32.231-8.669,7.766,2.418,15.43,9.193,19.069,16.855,2.4,5.066,2.806,9.9,1.163,13.989-3.42,8.508-15.133,12.147-24.419,11.251-6.139-.6-17.15-3.939-19.478-12.712a13.66,13.66,0,0,1,1.217-9.723c3.344-5.991,11.224-8.808,19.623-7.015a.691.691,0,1,1-.289,1.351c-7.67-1.64-15.127.966-18.13,6.338A12.444,12.444,0,0,0,234.21,141c2.14,8.058,12.892,11.169,18.277,11.691,7.534.742,19.637-2.017,23-10.391,1.889-4.7.429-9.6-1.13-12.881-3.483-7.334-10.812-13.817-18.234-16.129-11.235-3.5-23.346,2.053-30.931,8.413-7.389,6.191-11.516,13.711-10.765,19.617,1.073,8.467,12.084,13.5,18,16.2.611.281,1.166.535,1.638.759,23.693,11.309,48-1.886,50.7-3.428a.69.69,0,1,1,.685,1.2A65.3,65.3,0,0,1,254.807,164.273Z" transform="translate(-212.965 -110.825)" fill="#c6827f"/>
          </g>
          <g id="Grupo_107007" data-name="Grupo 107007" transform="translate(-19.516 35.232)">
            <path id="Trazado_151630" data-name="Trazado 151630" d="M236.774,195.511a70.106,70.106,0,0,1-44.41-16.077c-8.522-7.222-22.243-21.5-18.408-35.927,4.4-16.56,28.857-21.312,36.249-22.374,11.53-1.649,21.932,1.368,42.647,7.383,14.325,4.165,22.967,6.677,32.659,13.214a81.315,81.315,0,0,1,22.519,22.986.69.69,0,0,1-1.155.756,79.979,79.979,0,0,0-22.137-22.6c-9.513-6.42-17.595-8.767-32.266-13.031-20.532-5.964-30.841-8.958-42.065-7.345-7.184,1.032-30.929,5.62-35.116,21.362-3.641,13.7,9.7,27.506,17.966,34.518,21.13,17.914,54.359,21.07,72.566,6.887,2.751-2.143,10.056-7.834,10.323-15.821.472-14.246-21.932-24.52-29.294-27.9-16.266-7.457-31.592-8.994-45.543-4.572a54.037,54.037,0,0,0-12.275,5.68.69.69,0,1,1-.734-1.168,55.357,55.357,0,0,1,12.589-5.83c14.295-4.528,29.949-2.973,46.539,4.635,7.569,3.472,30.6,14.033,30.1,29.2-.289,8.636-7.968,14.617-10.858,16.869C258.755,192.525,248.082,195.508,236.774,195.511Z" transform="translate(-173.294 -120.686)" fill="#c6827f"/>
          </g>
          <g id="Grupo_107008" data-name="Grupo 107008" transform="translate(20.95 -25.388)">
            <path id="Trazado_151631" data-name="Trazado 151631" d="M223.953,161.886c-17.073,0-32.283-12.5-35.6-15.414a.69.69,0,1,1,.912-1.037c3.84,3.379,24.017,19.926,44,13.672,7.774-2.435,12.8-7.424,19.748-14.333,8.986-8.931,22.568-22.423,19.628-31.292-2.2-6.638-14.595-12-30.844-13.331-16.967-1.387-36.6,2.006-42.246,12.744-3.144,5.983-2.192,15.174,2.266,21.856,7.3,10.937,21.583,10.539,22.191,10.512,11.579-.415,24.88-8.983,25.347-19.825.3-6.933-4.85-11.693-5.069-11.893-4.2-3.816-11.21-5.4-17.832-4.037-4.981,1.024-8.833,3.568-10.312,6.8a13.127,13.127,0,0,0,.292,10.124,8.664,8.664,0,0,0,4.829,5.052,8.764,8.764,0,0,0,6.649-.8,17.418,17.418,0,0,0,8.358-10.274.69.69,0,1,1,1.31.434,18.8,18.8,0,0,1-9.054,11.077,9.013,9.013,0,0,1-13.361-4.943,14.563,14.563,0,0,1-.278-11.243c1.684-3.693,5.8-6.458,11.289-7.585,7.165-1.463,14.456.2,19.042,4.37.6.543,5.839,5.527,5.519,12.971-.5,11.573-14.5,20.712-26.679,21.149-.652.011-15.668.448-23.39-11.126-4.722-7.078-5.7-16.861-2.339-23.264,5.94-11.3,26.174-14.906,43.58-13.481,12.955,1.067,29.119,5.443,32.042,14.276,3.207,9.679-10.738,23.537-19.967,32.706-7.089,7.045-12.212,12.136-20.305,14.671A32.407,32.407,0,0,1,223.953,161.886Z" transform="translate(-188.119 -98.478)" fill="#c6827f"/>
          </g>
        </g>
      </g>
      <g id="Grupo_107011" data-name="Grupo 107011" transform="translate(4.605 63.954)">
        <path id="Trazado_151633" data-name="Trazado 151633" d="M338.5,132.59H180.882a.691.691,0,1,1,0-1.381H338.5a.691.691,0,0,1,0,1.381Z" transform="translate(-180.191 -131.209)" fill="#c6827f"/>
      </g>
    </g>
  </g>
</svg>
