<svg xmlns="http://www.w3.org/2000/svg" width="505" height="363.52" viewBox="0 0 505 363.52">
  <g id="Grupo_106900" data-name="Grupo 106900" transform="translate(-379.789 -252.088)">
    <line id="Línea_1606" data-name="Línea 1606" x2="505" transform="translate(379.789 614.323)" fill="none" stroke="#231f20" stroke-miterlimit="10" stroke-width="2"/>
    <g id="Grupo_106841" data-name="Grupo 106841" transform="translate(436.737 322.462)">
      <g id="Grupo_106833" data-name="Grupo 106833" transform="translate(9.207 27.907)">
        <path id="Trazado_151274" data-name="Trazado 151274" d="M962.962,815.662a7.747,7.747,0,0,1-8.216,7.172l-332.2-9.126a7.66,7.66,0,0,1-7.68-7.673l7.559-200.649a7.747,7.747,0,0,1,8.215-7.175l329.345,6.267a7.664,7.664,0,0,1,7.681,7.675Z" transform="translate(-614.858 -598.208)" fill="#fff"/>
      </g>
      <g id="Grupo_106834" data-name="Grupo 106834" transform="translate(9.207 10.231)">
        <path id="Trazado_151275" data-name="Trazado 151275" d="M962.962,770.532a7.747,7.747,0,0,1-8.216,7.172l-332.2-9.126a7.66,7.66,0,0,1-7.68-7.673l7.559-200.649a7.747,7.747,0,0,1,8.215-7.175L957.03,535.4c11.952,0,10.779,24.091,10.631,28.192Z" transform="translate(-614.858 -535.402)"/>
      </g>
      <g id="Grupo_106835" data-name="Grupo 106835" transform="translate(121.094 232.092)">
        <path id="Trazado_151276" data-name="Trazado 151276" d="M1014.921,1378.926c-19.8,0,84.717.286,84.717.286,5.486-7.464,1.7-55.472,1.7-55.472h-71.453S1034.722,1378.926,1014.921,1378.926Z" transform="translate(-1012.425 -1323.74)"/>
      </g>
      <rect id="Rectángulo_34054" data-name="Rectángulo 34054" width="103.37" height="4.755" rx="2.377" transform="translate(108.025 286.787)"/>
      <g id="Grupo_106836" data-name="Grupo 106836" transform="translate(118.205 232.092)">
        <path id="Trazado_151277" data-name="Trazado 151277" d="M1004.685,1378.926c-19.8,0,83.287-.286,83.287-.286,5.486-7.464,3.134-54.9,3.134-54.9h-71.453S1024.487,1378.926,1004.685,1378.926Z" transform="translate(-1002.159 -1323.74)" fill="#dcdcdc"/>
      </g>
      <g id="Grupo_106837" data-name="Grupo 106837" transform="translate(124.522 232.092)">
        <path id="Trazado_151278" data-name="Trazado 151278" d="M1107.237,1323.74h-71.453a135.6,135.6,0,0,1,.47,16.429s54.893,3.788,60.546,5.5c7.8,2.358,6.074,12.589,5.4,16.573-.691,4.058-1.348,8.171-4.05,11.356-4.328,5.1-67.354,4.79-73.539,5.123,15.188-.044,79.5-.078,79.5-.078C1109.589,1371.177,1107.237,1323.74,1107.237,1323.74Z" transform="translate(-1024.608 -1323.74)"/>
      </g>
      <g id="Grupo_106838" data-name="Grupo 106838" transform="translate(0 27.617)">
        <path id="Trazado_151279" data-name="Trazado 151279" d="M930.628,814.927a7.747,7.747,0,0,1-8.216,7.172l-332.587-9.138a7.659,7.659,0,0,1-7.677-7.673l9.573-200.662c.148-4.1,1.81-7.582,6.2-7.444l332.2,9.126a7.664,7.664,0,0,1,7.681,7.675Z" transform="translate(-582.143 -597.179)" fill="#dcdcdc"/>
      </g>
      <g id="Grupo_106839" data-name="Grupo 106839" transform="translate(1.215)">
        <path id="Trazado_151280" data-name="Trazado 151280" d="M934.48,724.633l-348.021-9.624s.12-3.324.268-7.427l7.559-200.646a8.331,8.331,0,0,1,8.213-7.885l331.822,9.823c4.388.138,8.13,3.683,7.982,7.784Z" transform="translate(-586.459 -499.047)" fill="#dcdcdc"/>
      </g>
      <g id="Grupo_106840" data-name="Grupo 106840" transform="translate(17.205 14.13)">
        <path id="Trazado_151281" data-name="Trazado 151281" d="M961.2,745.749l-317.922-8.677,7.1-187.816,317.922,8.676Z" transform="translate(-643.276 -549.257)" fill="#fff"/>
      </g>
      <path id="Trazado_151282" data-name="Trazado 151282" d="M952.44,740.156l-328.878-8.975L630.9,536.558l328.878,8.975Z" transform="translate(-611.905 -526.002)" fill="#f7f5ee"/>
      <path id="Trazado_151283" data-name="Trazado 151283" d="M799.785,587.55a12.956,12.956,0,0,0-1.654-.209C796.122,587.22,796.92,587.308,799.785,587.55Z" transform="translate(-736.545 -562.454)" fill="#aacaf9" style="mix-blend-mode: multiply;isolation: isolate"/>
      <rect id="Rectángulo_34055" data-name="Rectángulo 34055" width="100.653" height="4.755" rx="2.377" transform="translate(100.592 286.787)" fill="#dcdcdc"/>
    </g>
    <g id="Grupo_106842" data-name="Grupo 106842" transform="translate(492.811 323.828)">
      <path id="Trazado_151284" data-name="Trazado 151284" d="M1054.976,517.54c-1.429-1.952-1.859-4.071-3.3-6.02L781.816,503.9c6.859,17.863,7.2,50.521,13.7,68.5-6.314,1.126-14.837,6.267-14.077,13.074q11.388,50.944,21.854,102.055c-.149,2.745,1.911,6.006,4.393,7.459,2.934,4.5,9.643,4.857,14.615,3.985l1.457-.279a1438.613,1438.613,0,0,1,178.46-6.112c5.561-.028,11.233-3.67,12.293-8.824q11.462-47.107,24.038-93.974a8.512,8.512,0,0,0-1.814-7.166,17.355,17.355,0,0,0-4.626-4.535q2.253-6.176,4.528-12.346Q1045.589,541.567,1054.976,517.54Z" transform="translate(-781.391 -503.903)" fill="#f5e7d7" style="mix-blend-mode: multiply;isolation: isolate"/>
    </g>
    <g id="Grupo_106860" data-name="Grupo 106860" transform="translate(480.974 253.302)">
      <path id="Trazado_151285" data-name="Trazado 151285" d="M826.416,776.812l175.895,30.6c8.149.918,15.2-5.488,14.527-13.2l11.172-127.127c.2-7.684-8.31-14.532-14.864-14.67L813.734,651.25c-14.267,1.242-10.04,24.1-9.414,31.285l9.514,78.8C814.331,767.043,815,775.469,826.416,776.812Z" transform="translate(-785.264 -539.256)" fill="#e89952"/>
      <path id="Trazado_151286" data-name="Trazado 151286" d="M820.144,778.02l182.449,11.463c8.149.917,7.72,3.322,7.048-4.389l7.94-121.2a12.929,12.929,0,0,0-12.5-11.528L810.806,651.25c-14.267,1.242-11.965,16.769-10.591,28.106.459,3.791,15-4.615,15-4.615-7.659-.088-13.782,6.095-13.155,13.283l6.883,79.039A12.353,12.353,0,0,0,820.144,778.02Z" transform="translate(-782.335 -539.256)" fill="#313851"/>
      <g id="Grupo_106850" data-name="Grupo 106850" transform="translate(77.033 27.439)">
        <path id="Trazado_151287" data-name="Trazado 151287" d="M1013.048,519.947,1145.3,541.683l32.682-172.253-109.84-18.49-21.811,15.072Z" transform="translate(-1013.048 -350.9)" fill="#fffcf8"/>
        <path id="Trazado_151288" data-name="Trazado 151288" d="M1013.048,519.947,1145.3,541.683l32.682-172.253-109.84-18.49-21.811,15.072Z" transform="translate(-1013.048 -350.9)" fill="none" stroke="#414042" stroke-miterlimit="10" stroke-width="2"/>
        <path id="Trazado_151289" data-name="Trazado 151289" d="M1378.96,603.57a2.378,2.378,0,0,0,1.989,2.706l31.533,5.961a2.377,2.377,0,0,0,2.838-1.794h0a2.377,2.377,0,0,0-1.988-2.706l-31.533-5.961a2.378,2.378,0,0,0-2.839,1.794Z" transform="translate(-1275.955 -531.111)"/>
        <path id="Trazado_151290" data-name="Trazado 151290" d="M1275.04,609.065a1.594,1.594,0,0,0,1.333,1.815l61.035,11.538a1.6,1.6,0,0,0,1.9-1.2h0a1.6,1.6,0,0,0-1.333-1.815l-61.035-11.538a1.594,1.594,0,0,0-1.9,1.2Z" transform="translate(-1201.289 -535.495)" fill="#f2e0c9"/>
        <path id="Trazado_151291" data-name="Trazado 151291" d="M1271.484,627.879a1.594,1.594,0,0,0,1.333,1.815l61.035,11.539a1.6,1.6,0,0,0,1.9-1.2h0a1.6,1.6,0,0,0-1.333-1.815l-61.035-11.538a1.594,1.594,0,0,0-1.9,1.2Z" transform="translate(-1198.734 -549.014)" fill="#f2e0c9"/>
        <path id="Trazado_151292" data-name="Trazado 151292" d="M1415.5,674.422a1.6,1.6,0,0,0,1.333,1.816l19.513,3.689a1.6,1.6,0,0,0,1.9-1.2h0a1.594,1.594,0,0,0-1.333-1.815l-19.513-3.689a1.6,1.6,0,0,0-1.9,1.2Z" transform="translate(-1302.217 -582.458)" fill="#f2e0c9"/>
        <path id="Trazado_151293" data-name="Trazado 151293" d="M1359.019,709.056a2.378,2.378,0,0,0,1.989,2.706l31.533,5.961a2.377,2.377,0,0,0,2.839-1.793h0a2.377,2.377,0,0,0-1.988-2.706l-31.533-5.961a2.378,2.378,0,0,0-2.839,1.794Z" transform="translate(-1261.626 -606.911)"/>
        <path id="Trazado_151294" data-name="Trazado 151294" d="M1255.1,714.551a1.6,1.6,0,0,0,1.333,1.816l61.035,11.538a1.6,1.6,0,0,0,1.9-1.2h0a1.6,1.6,0,0,0-1.333-1.815L1257,713.348a1.594,1.594,0,0,0-1.9,1.2Z" transform="translate(-1186.96 -611.294)" fill="#f2e0c9"/>
        <path id="Trazado_151295" data-name="Trazado 151295" d="M1251.541,733.364a1.6,1.6,0,0,0,1.333,1.816l61.035,11.538a1.6,1.6,0,0,0,1.9-1.2h0a1.6,1.6,0,0,0-1.333-1.816l-61.035-11.538a1.6,1.6,0,0,0-1.9,1.2Z" transform="translate(-1184.404 -624.813)" fill="#f2e0c9"/>
        <path id="Trazado_151296" data-name="Trazado 151296" d="M1395.554,779.91a1.594,1.594,0,0,0,1.334,1.815l19.513,3.689a1.6,1.6,0,0,0,1.9-1.2h0a1.6,1.6,0,0,0-1.333-1.816l-19.513-3.689a1.6,1.6,0,0,0-1.9,1.2Z" transform="translate(-1287.888 -658.259)" fill="#f2e0c9"/>
        <path id="Trazado_151297" data-name="Trazado 151297" d="M1338.021,820.126a2.377,2.377,0,0,0,1.989,2.706l31.533,5.961a2.376,2.376,0,0,0,2.838-1.794h0a2.377,2.377,0,0,0-1.988-2.706l-31.533-5.961a2.377,2.377,0,0,0-2.839,1.794Z" transform="translate(-1246.537 -686.722)"/>
        <path id="Trazado_151298" data-name="Trazado 151298" d="M1234.1,825.622a1.594,1.594,0,0,0,1.333,1.815l61.035,11.538a1.6,1.6,0,0,0,1.9-1.2h0a1.6,1.6,0,0,0-1.333-1.815L1236,824.419a1.594,1.594,0,0,0-1.9,1.2Z" transform="translate(-1171.872 -691.106)" fill="#f2e0c9"/>
        <path id="Trazado_151299" data-name="Trazado 151299" d="M1230.544,844.435a1.6,1.6,0,0,0,1.333,1.816l61.034,11.538a1.6,1.6,0,0,0,1.9-1.2h0a1.6,1.6,0,0,0-1.333-1.815l-61.035-11.538a1.594,1.594,0,0,0-1.9,1.2Z" transform="translate(-1169.316 -704.626)" fill="#f2e0c9"/>
        <path id="Trazado_151300" data-name="Trazado 151300" d="M1374.557,890.98a1.6,1.6,0,0,0,1.334,1.815l19.513,3.689a1.6,1.6,0,0,0,1.9-1.2h0a1.594,1.594,0,0,0-1.333-1.814l-19.513-3.689a1.6,1.6,0,0,0-1.9,1.2Z" transform="translate(-1272.799 -738.071)" fill="#f2e0c9"/>
        <path id="Trazado_151301" data-name="Trazado 151301" d="M1131.783,365.9l15.9,6.906,5.547-22Z" transform="translate(-1098.368 -350.8)" fill="#f2e0c9"/>
        <path id="Trazado_151302" data-name="Trazado 151302" d="M1131.317,366.012l18.936,3.286,2.875-18.359Z" transform="translate(-1098.032 -350.9)"/>
        <g id="Grupo_106843" data-name="Grupo 106843" transform="translate(43.044 25.863)">
          <path id="Trazado_151303" data-name="Trazado 151303" d="M1166,463.4l3.913-20.7,20.7,3.913-3.913,20.7Zm18.342.458,2.815-14.888-14.887-2.814-2.815,14.888Z" transform="translate(-1165.995 -442.698)"/>
          <path id="Trazado_151304" data-name="Trazado 151304" d="M1173.018,446.117l19.081,3.607-3.607,19.08-19.081-3.607Zm17.55,4.651-16.5-3.12-3.12,16.506,16.505,3.12Z" transform="translate(-1168.45 -445.155)"/>
        </g>
        <g id="Grupo_106844" data-name="Grupo 106844" transform="translate(48.792 30.759)">
          <path id="Trazado_151305" data-name="Trazado 151305" d="M1200.46,468.431l-1.667-2.443-5,3.409-4.741-9.3-2.635,1.343,6.266,12.3Z" transform="translate(-1186.418 -460.095)"/>
          <path id="Trazado_151306" data-name="Trazado 151306" d="M1195.822,475.353l6.32-4.311-.738-1.082-5.092,3.471-4.791-9.4-1.167.595Z" transform="translate(-1189.247 -462.922)"/>
        </g>
        <g id="Grupo_106845" data-name="Grupo 106845" transform="translate(36.478 57.082)">
          <path id="Trazado_151307" data-name="Trazado 151307" d="M1142.664,574.328l3.913-20.7,20.7,3.913-3.913,20.7Zm18.342.458,2.814-14.888-14.887-2.814-2.815,14.888Z" transform="translate(-1142.664 -553.629)"/>
          <path id="Trazado_151308" data-name="Trazado 151308" d="M1149.691,557.047l19.081,3.607-3.607,19.081-19.08-3.607Zm17.549,4.651-16.5-3.12-3.12,16.507,16.5,3.12Z" transform="translate(-1145.121 -556.085)"/>
        </g>
        <g id="Grupo_106846" data-name="Grupo 106846" transform="translate(42.227 61.976)">
          <path id="Trazado_151309" data-name="Trazado 151309" d="M1177.133,579.359l-1.667-2.443-5,3.408-4.74-9.3-2.634,1.345,6.266,12.294Z" transform="translate(-1163.093 -571.021)"/>
          <path id="Trazado_151310" data-name="Trazado 151310" d="M1172.5,586.282l6.32-4.31-.739-1.083-5.091,3.472-4.792-9.4-1.167.6Z" transform="translate(-1165.922 -573.85)"/>
        </g>
        <g id="Grupo_106847" data-name="Grupo 106847" transform="translate(30.021 87.036)">
          <path id="Trazado_151311" data-name="Trazado 151311" d="M1119.721,680.763l3.913-20.7,20.7,3.913-3.913,20.7Zm18.343.46,2.815-14.888-14.887-2.814-2.815,14.888Z" transform="translate(-1119.721 -660.066)"/>
          <path id="Trazado_151312" data-name="Trazado 151312" d="M1126.748,663.483l19.081,3.607-3.607,19.081-19.081-3.607Zm17.549,4.651-16.5-3.12-3.12,16.5,16.5,3.12Z" transform="translate(-1122.178 -662.521)"/>
        </g>
        <g id="Grupo_106848" data-name="Grupo 106848" transform="translate(29.264 91.931)">
          <path id="Trazado_151313" data-name="Trazado 151313" d="M1154.193,685.794l-1.667-2.441-5,3.408-4.74-9.3-2.634,1.344,6.265,12.294Z" transform="translate(-1133.645 -677.459)"/>
          <path id="Trazado_151314" data-name="Trazado 151314" d="M1131.071,796.061l-1.667-2.441-5,3.408-4.74-9.3-2.634,1.344,6.265,12.294Z" transform="translate(-1117.031 -756.693)"/>
          <path id="Trazado_151315" data-name="Trazado 151315" d="M1149.552,692.72l6.321-4.313-.739-1.079-5.091,3.47-4.792-9.4-1.167.6Z" transform="translate(-1136.471 -680.288)"/>
        </g>
        <g id="Grupo_106849" data-name="Grupo 106849" transform="translate(23.552 117.753)">
          <path id="Trazado_151316" data-name="Trazado 151316" d="M1096.734,789.908l3.913-20.7,20.7,3.913-3.913,20.7Zm18.342.46,2.814-14.886L1103,772.667l-2.814,14.886Z" transform="translate(-1096.734 -769.21)"/>
          <path id="Trazado_151317" data-name="Trazado 151317" d="M1103.757,772.631l19.081,3.607-3.607,19.081-19.082-3.607Zm17.55,4.653-16.5-3.12-3.12,16.5,16.5,3.12Z" transform="translate(-1099.189 -771.668)"/>
        </g>
        <path id="Trazado_151318" data-name="Trazado 151318" d="M1400.271,490.844a2.378,2.378,0,0,0,1.989,2.707l31.533,5.961a2.377,2.377,0,0,0,2.838-1.794h0a2.377,2.377,0,0,0-1.988-2.706l-31.533-5.961a2.377,2.377,0,0,0-2.839,1.794Z" transform="translate(-1291.268 -450.11)"/>
        <path id="Trazado_151319" data-name="Trazado 151319" d="M1296.35,496.339a1.6,1.6,0,0,0,1.333,1.816l61.035,11.538a1.6,1.6,0,0,0,1.9-1.2h0a1.6,1.6,0,0,0-1.333-1.815l-61.035-11.539a1.6,1.6,0,0,0-1.9,1.2Z" transform="translate(-1216.603 -454.493)" fill="#f2e0c9"/>
        <path id="Trazado_151320" data-name="Trazado 151320" d="M1292.793,515.153a1.6,1.6,0,0,0,1.334,1.816l61.034,11.539a1.6,1.6,0,0,0,1.9-1.2h0a1.6,1.6,0,0,0-1.333-1.815L1294.7,513.95a1.6,1.6,0,0,0-1.9,1.2Z" transform="translate(-1214.047 -468.012)" fill="#f2e0c9"/>
        <path id="Trazado_151321" data-name="Trazado 151321" d="M1436.806,561.7a1.594,1.594,0,0,0,1.334,1.815l19.513,3.689a1.6,1.6,0,0,0,1.9-1.2h0a1.6,1.6,0,0,0-1.333-1.815l-19.513-3.689a1.594,1.594,0,0,0-1.9,1.2Z" transform="translate(-1317.53 -501.458)" fill="#f2e0c9"/>
      </g>
      <path id="Trazado_151322" data-name="Trazado 151322" d="M1028.694,471.564l26-87.251L1084.54,474l77.513,3.378L1145.3,565.664l-132.254-21.736Z" transform="translate(-936.015 -347.443)" fill="#f5e7d7" style="mix-blend-mode: multiply;isolation: isolate"/>
      <g id="Grupo_106859" data-name="Grupo 106859" transform="translate(0 0)">
        <path id="Trazado_151323" data-name="Trazado 151323" d="M766.577,436.136l116.864-29.073L849.183,253.3l-97.214,23.784-12.641,20.191Z" transform="translate(-739.328 -253.302)" fill="#fffcf8"/>
        <path id="Trazado_151324" data-name="Trazado 151324" d="M766.577,436.136l116.864-29.073L849.183,253.3l-97.214,23.784-12.641,20.191Z" transform="translate(-739.328 -253.302)" fill="none" stroke="#414042" stroke-miterlimit="10" stroke-width="2"/>
        <path id="Trazado_151325" data-name="Trazado 151325" d="M953.558,479.8a2.136,2.136,0,0,1-1.682,2.506l-28.08,6.554a2.136,2.136,0,0,1-2.617-1.5h0a2.136,2.136,0,0,1,1.681-2.505l28.08-6.554a2.136,2.136,0,0,1,2.617,1.5Z" transform="translate(-869.965 -414.93)"/>
        <path id="Trazado_151326" data-name="Trazado 151326" d="M983.607,480.691a1.433,1.433,0,0,1-1.128,1.681l-54.351,12.685a1.433,1.433,0,0,1-1.755-1.008h0a1.433,1.433,0,0,1,1.128-1.68l54.351-12.686a1.432,1.432,0,0,1,1.755,1.008Z" transform="translate(-873.709 -415.943)" fill="#f2e0c9"/>
        <path id="Trazado_151327" data-name="Trazado 151327" d="M987.517,497.445a1.433,1.433,0,0,1-1.128,1.68l-54.351,12.686a1.433,1.433,0,0,1-1.755-1.008h0a1.433,1.433,0,0,1,1.128-1.68l54.351-12.685a1.432,1.432,0,0,1,1.755,1.008Z" transform="translate(-876.519 -427.982)" fill="#f2e0c9"/>
        <path id="Trazado_151328" data-name="Trazado 151328" d="M954.419,544.718a1.433,1.433,0,0,1-1.128,1.681l-17.376,4.056a1.433,1.433,0,0,1-1.755-1.008h0a1.433,1.433,0,0,1,1.128-1.68l17.376-4.056a1.433,1.433,0,0,1,1.756,1.007Z" transform="translate(-879.304 -461.951)" fill="#f2e0c9"/>
        <path id="Trazado_151329" data-name="Trazado 151329" d="M975.482,573.73a2.137,2.137,0,0,1-1.682,2.505l-28.08,6.554a2.136,2.136,0,0,1-2.616-1.5h0a2.136,2.136,0,0,1,1.681-2.505l28.08-6.554a2.137,2.137,0,0,1,2.618,1.5Z" transform="translate(-885.719 -482.428)"/>
        <path id="Trazado_151330" data-name="Trazado 151330" d="M1005.531,574.625a1.434,1.434,0,0,1-1.128,1.681l-54.351,12.685a1.433,1.433,0,0,1-1.755-1.008h0a1.433,1.433,0,0,1,1.127-1.681l54.351-12.685a1.433,1.433,0,0,1,1.755,1.008Z" transform="translate(-889.463 -483.441)" fill="#f2e0c9"/>
        <path id="Trazado_151331" data-name="Trazado 151331" d="M1009.442,591.378a1.433,1.433,0,0,1-1.128,1.681l-54.351,12.685a1.433,1.433,0,0,1-1.755-1.008h0a1.434,1.434,0,0,1,1.128-1.681l54.351-12.685a1.433,1.433,0,0,1,1.755,1.008Z" transform="translate(-892.273 -495.479)" fill="#f2e0c9"/>
        <path id="Trazado_151332" data-name="Trazado 151332" d="M976.344,638.654a1.433,1.433,0,0,1-1.128,1.68l-17.376,4.055a1.433,1.433,0,0,1-1.755-1.007h0a1.433,1.433,0,0,1,1.127-1.681l17.376-4.056a1.433,1.433,0,0,1,1.756,1.008Z" transform="translate(-895.059 -529.451)" fill="#f2e0c9"/>
        <path id="Trazado_151333" data-name="Trazado 151333" d="M998.567,672.637a2.136,2.136,0,0,1-1.682,2.505l-28.08,6.554a2.136,2.136,0,0,1-2.617-1.5h0a2.136,2.136,0,0,1,1.681-2.505l28.08-6.554a2.136,2.136,0,0,1,2.618,1.5Z" transform="translate(-902.307 -553.5)"/>
        <path id="Trazado_151334" data-name="Trazado 151334" d="M1028.616,673.532a1.432,1.432,0,0,1-1.128,1.68L973.138,687.9a1.433,1.433,0,0,1-1.755-1.007h0a1.433,1.433,0,0,1,1.128-1.681l54.351-12.685a1.432,1.432,0,0,1,1.755,1.008Z" transform="translate(-906.051 -554.513)" fill="#f2e0c9"/>
        <path id="Trazado_151335" data-name="Trazado 151335" d="M1032.527,690.285a1.432,1.432,0,0,1-1.128,1.681l-54.351,12.686a1.433,1.433,0,0,1-1.755-1.008h0a1.433,1.433,0,0,1,1.128-1.68l54.351-12.685a1.432,1.432,0,0,1,1.755,1.007Z" transform="translate(-908.861 -566.552)" fill="#f2e0c9"/>
        <path id="Trazado_151336" data-name="Trazado 151336" d="M999.429,737.56a1.433,1.433,0,0,1-1.128,1.681L980.925,743.3a1.433,1.433,0,0,1-1.755-1.008h0a1.433,1.433,0,0,1,1.128-1.68l17.376-4.056a1.433,1.433,0,0,1,1.756,1.007Z" transform="translate(-911.647 -600.522)" fill="#f2e0c9"/>
        <path id="Trazado_151337" data-name="Trazado 151337" d="M739.695,358.076l15.575.047-3.244-20.129Z" transform="translate(-739.592 -314.159)" fill="#f2e0c9"/>
        <path id="Trazado_151338" data-name="Trazado 151338" d="M739.328,358.005l16.794-4.019-4.153-16.172Z" transform="translate(-739.328 -314.03)"/>
        <g id="Grupo_106851" data-name="Grupo 106851" transform="translate(15.104 43.859)">
          <path id="Trazado_151339" data-name="Trazado 151339" d="M797.126,431.745,793,413.273l18.471-4.128,4.128,18.471Zm15.3-6.141-2.969-13.286-13.286,2.969,2.969,13.286Z" transform="translate(-792.998 -409.145)"/>
          <path id="Trazado_151340" data-name="Trazado 151340" d="M796.135,416.091l17.028-3.806,3.805,17.027-17.028,3.806Zm16.135-2.4-14.729,3.292,3.292,14.73,14.729-3.292Z" transform="translate(-795.252 -411.401)"/>
        </g>
        <g id="Grupo_106852" data-name="Grupo 106852" transform="translate(20.32 48.08)">
          <path id="Trazado_151341" data-name="Trazado 151341" d="M811.531,432.992l1.176-2.383,4.875,2.407,3.052-8.871,2.513.864-4.034,11.725Z" transform="translate(-811.531 -424.145)"/>
        </g>
        <g id="Grupo_106853" data-name="Grupo 106853" transform="translate(22.303 71.83)">
          <path id="Trazado_151342" data-name="Trazado 151342" d="M822.7,531.135l-4.128-18.471,18.471-4.128,4.128,18.471Zm15.3-6.141-2.969-13.286-13.286,2.969,2.969,13.286Z" transform="translate(-818.576 -508.535)"/>
          <path id="Trazado_151343" data-name="Trazado 151343" d="M821.713,515.48l17.028-3.806,3.805,17.027-17.028,3.805Zm16.135-2.4-14.729,3.292,3.292,14.73,14.729-3.292Z" transform="translate(-820.83 -510.791)"/>
        </g>
        <g id="Grupo_106854" data-name="Grupo 106854" transform="translate(27.518 76.051)">
          <path id="Trazado_151344" data-name="Trazado 151344" d="M837.109,532.382,838.286,530l4.875,2.407,3.052-8.871,2.513.864-4.034,11.725Z" transform="translate(-837.109 -523.535)"/>
        </g>
        <g id="Grupo_106855" data-name="Grupo 106855" transform="translate(28.884 97.95)">
          <path id="Trazado_151345" data-name="Trazado 151345" d="M846.09,623.947l-4.128-18.471,18.471-4.128,4.128,18.471Zm15.3-6.141-2.969-13.286-13.285,2.969,2.969,13.286Z" transform="translate(-841.962 -601.347)"/>
          <path id="Trazado_151346" data-name="Trazado 151346" d="M845.1,608.293l17.028-3.806,3.806,17.027L848.9,625.32Zm16.135-2.4L846.5,609.184l3.292,14.73,14.729-3.292Z" transform="translate(-844.216 -603.603)"/>
        </g>
        <g id="Grupo_106856" data-name="Grupo 106856" transform="translate(34.1 102.172)">
          <path id="Trazado_151347" data-name="Trazado 151347" d="M860.5,625.195l1.177-2.383,4.875,2.407,3.052-8.871,2.512.864-4.034,11.725Z" transform="translate(-860.495 -616.347)"/>
        </g>
        <g id="Grupo_106857" data-name="Grupo 106857" transform="translate(36.494 127.155)">
          <path id="Trazado_151348" data-name="Trazado 151348" d="M873.129,727.721,869,709.25l18.471-4.128,4.128,18.471Zm15.3-6.141-2.969-13.286-13.286,2.969,2.969,13.286Z" transform="translate(-869.001 -705.122)"/>
          <path id="Trazado_151349" data-name="Trazado 151349" d="M872.138,712.068l17.028-3.806,3.805,17.027-17.028,3.805Zm16.135-2.4-14.729,3.292,3.292,14.73,14.729-3.292Z" transform="translate(-871.255 -707.378)"/>
        </g>
        <g id="Grupo_106858" data-name="Grupo 106858" transform="translate(41.71 131.377)">
          <path id="Trazado_151350" data-name="Trazado 151350" d="M887.535,728.969l1.177-2.383,4.875,2.407,3.052-8.871,2.513.864-4.034,11.725Z" transform="translate(-887.535 -720.122)"/>
        </g>
        <path id="Trazado_151351" data-name="Trazado 151351" d="M930.128,379.415a2.137,2.137,0,0,1-1.682,2.506l-28.08,6.554a2.136,2.136,0,0,1-2.617-1.5h0a2.136,2.136,0,0,1,1.681-2.5l28.08-6.554a2.137,2.137,0,0,1,2.617,1.5Z" transform="translate(-853.129 -342.799)"/>
        <path id="Trazado_151352" data-name="Trazado 151352" d="M960.177,380.31a1.433,1.433,0,0,1-1.128,1.681L904.7,394.676a1.433,1.433,0,0,1-1.755-1.008h0a1.433,1.433,0,0,1,1.128-1.68l54.35-12.686a1.433,1.433,0,0,1,1.755,1.007Z" transform="translate(-856.873 -343.812)" fill="#f2e0c9"/>
        <path id="Trazado_151353" data-name="Trazado 151353" d="M964.087,397.064a1.432,1.432,0,0,1-1.128,1.681L908.609,411.43a1.434,1.434,0,0,1-1.755-1.008h0a1.433,1.433,0,0,1,1.128-1.68l54.351-12.685a1.432,1.432,0,0,1,1.755,1.007Z" transform="translate(-859.683 -355.851)" fill="#f2e0c9"/>
        <path id="Trazado_151354" data-name="Trazado 151354" d="M930.99,444.338a1.433,1.433,0,0,1-1.128,1.681l-17.376,4.055a1.433,1.433,0,0,1-1.755-1.008h0a1.433,1.433,0,0,1,1.128-1.68l17.376-4.055a1.433,1.433,0,0,1,1.756,1.007Z" transform="translate(-862.469 -389.821)" fill="#f2e0c9"/>
      </g>
      <path id="Trazado_151355" data-name="Trazado 151355" d="M898.025,641.682l15.9,33.018L797.064,703.773l-15.309-78.014Z" transform="translate(-769.814 -520.938)" fill="#f5e7d7" style="mix-blend-mode: multiply;isolation: isolate"/>
      <path id="Trazado_151356" data-name="Trazado 151356" d="M792.184,795.477l181.648,27.688c8.267,1.009,17.184-1.779,15.685-18.468l4.277-104.171a13.082,13.082,0,0,0-12.7-11.908l-73.47-1.837a13.083,13.083,0,0,1-8.839-3.744L889,673.428a13.082,13.082,0,0,0-8.973-3.747l-96.993.257c-7.763-.115-15.452,8.9-14.758,16.637l12.465,97.086A13.082,13.082,0,0,0,792.184,795.477Z" transform="translate(-760.097 -552.5)" fill="#e89952"/>
      <path id="Trazado_151357" data-name="Trazado 151357" d="M794.446,822.461l178,7.228a13.081,13.081,0,0,0,14.614-14.155l3.322-104.212a13.082,13.082,0,0,0-12.7-11.908l-73.471-1.837a13.082,13.082,0,0,1-8.839-3.744l-9.784-9.608a13.081,13.081,0,0,0-8.973-3.747l-95.144-1.409a13.082,13.082,0,0,0-13.223,14.25L783,810.645A13.082,13.082,0,0,0,794.446,822.461Z" transform="translate(-760.072 -559.244)" fill="#f4b671"/>
    </g>
    <path id="Trazado_151358" data-name="Trazado 151358" d="M1293.68,1058.675h151.889l.873-56.208a8.356,8.356,0,0,0-1.857-5.4c-1.982-2.8-5.263-4.839-8.391-4.56l-9.63.688a8.353,8.353,0,0,0-4.736-.729s-1.747.287-4.693.768c-1.567-25.98-.846-55.133-10.591-60.69-17.44-9.944-103.169.716-103.169.716.1.038.191.082.287.122h-.048a5.792,5.792,0,0,0-.681.115l-.278,0c-8.023.87-1.389,14.965,1.721,25.959l-13.05,1.763c4.952,9.184,8.834,10.906,10.359,11.213l-.663.046c.245,0,.479-.016.7-.039a2.264,2.264,0,0,0,.663.049c1.181-.1,2.291-.212,3.332-.338l12.343-.861c.612,6.992.977,14.449,1.316,21.946l-23.61,3.389c-4.225.623-9.189,6.011-8.458,11.271Z" transform="translate(-652.065 -485.037)" fill="#e8cfb8" style="mix-blend-mode: multiply;isolation: isolate"/>
    <g id="Grupo_106861" data-name="Grupo 106861" transform="translate(433.015 365.116)" style="mix-blend-mode: multiply;isolation: isolate">
      <path id="Trazado_151359" data-name="Trazado 151359" d="M570.284,792.107l5.869,3.056a2.553,2.553,0,0,0,3.433-1.082l5.34-9.9a5.288,5.288,0,0,0,.565-.085c5.206-1.1,6.866-3.569,8.919-6.585a20.887,20.887,0,0,0,8.288,10.167,79.872,79.872,0,0,1-1.154,8.187,39.563,39.563,0,0,1-2.871,9.259c-.043.089.531.766,1.791,1.526q-.2.68-.392,1.346t-.389,1.313q-.776,2.6-1.537,4.982-.38,1.192-.755,2.331c-2.124,6.457-4.116,11.653-5.828,15.711q-.151.358-.3.7-.592,1.385-1.135,2.584-.135.3-.267.589-.264.577-.514,1.109-.125.266-.246.521-.242.51-.47.975-.114.233-.223.455-.439.887-.811,1.6l-.181.347q-.177.336-.336.631c-.795,1.473-1.243,2.166-1.243,2.166a5.835,5.835,0,0,0-1.087,1.017c-.059.072-.116.147-.171.225a3.466,3.466,0,0,0-.228.366,2.638,2.638,0,0,0-.173.394c-.016.045-.029.091-.042.137-.344,1.27.509,2.82,5.475,3.816l-.013.046h40.555q.011-.478.022-.93h0c0-.081,0-.158.006-.238,0-.1.005-.209.007-.311l.008-.364c0-.085,0-.17.006-.253,3.18-1.323,3.93-2.557,3.93-2.557s2.863-33.428-.485-43.287l0,0c-.015-.044-.031-.084-.046-.128-.022-.062-.044-.124-.067-.185-.033-.088-.067-.173-.1-.257-.022-.055-.044-.11-.067-.163-.038-.089-.077-.173-.117-.256-.02-.042-.04-.086-.06-.127s-.028-.055-.042-.082c.323-.457.42-.855.258-1.157-1.107-2.07-7.272-15.52-5.919-24,.687-4.308,1.668-9.968.182-14.6,5.752-1.113,14.442-8.512,18.438-11.826a2.7,2.7,0,0,0,.915-1.852,3.292,3.292,0,0,0,.037-.655c2-3.269,1.84-8.277,2.315-11.3.052-.333.1-.664.146-.993.01-.069.019-.139.028-.208.252-1.854.431-3.663.775-5.531a7.321,7.321,0,0,1,.271-1.459,4.567,4.567,0,0,0,2.115-3.579s-.2.041-.524.135q1.229-.645,2.428-1.385a38.828,38.828,0,1,0-53.451-12.576q.644,1.04,1.343,2.022c-.042.214-.08.428-.112.646a14.749,14.749,0,0,0,2.275,10.332l-15.756,29.229c0-.01,0-.021,0-.03s-4.313-1.666-5.462,8.292a29.775,29.775,0,0,0-1.5,4.649L569.2,788.674A2.553,2.553,0,0,0,570.284,792.107Zm75.636-59.389c-.828,2.834-4.31,8.143-5.612,11.482-6.773,2.316-17.805,6.854-20.519,9.214l-.168-.13s-.876.069-2.258.223q-.075-.473-.15-.946a4.6,4.6,0,0,0-1.162-2.126c-.033-.049-.073-.092-.108-.14a7.327,7.327,0,0,0,2.782-1.041c.4-.468.031-1.25-.277-2.327a22.491,22.491,0,0,0-2.5-5.974c3.645-2.78,1.948-8.837-2.123-10.378l.674-1.251c.114.02.227.043.342.06a14.743,14.743,0,0,0,10.219-2.2,38.793,38.793,0,0,0,20.049-.476l-.677.55a8.314,8.314,0,0,1,2.558.935l.081,0A44.864,44.864,0,0,1,645.92,732.717Zm-29.556-72.044a33.836,33.836,0,1,1-10.959,46.58A33.836,33.836,0,0,1,616.364,660.673Z" transform="translate(-568.916 -650.61)" fill="#e8cfb8"/>
    </g>
    <g id="Grupo_106864" data-name="Grupo 106864" transform="translate(414.252 340.986)">
      <path id="Trazado_151360" data-name="Trazado 151360" d="M779.074,880.064c-.362.233-2.373.515-2.335.807.162,1.265-.242,3.178-1.342,6.941-.986,3.372-5.524,10.059-6.34,13.368s3.132,6.036,6.323,3.039c3.415-3.207,3.086-9.764,3.671-13.486.379-2.416.562-4.723,1-7.126a4.853,4.853,0,0,1,.779-2.486c-.313.435-.909.148-1.76-1.057Z" transform="translate(-693.891 -791.36)" fill="#f99e82"/>
      <path id="Trazado_151361" data-name="Trazado 151361" d="M780.886,914.651c-1.192,3.257-2.2,6.574-4.073,9.527a4.446,4.446,0,0,1-3.594,2.134c1.284,1.1,3.383,1.287,5.23-.448,3.415-3.207,3.086-9.764,3.671-13.486.116-.739.213-1.468.305-2.193C781.986,911.685,781.432,913.161,780.886,914.651Z" transform="translate(-696.96 -813.003)" fill="#f99e82" style="mix-blend-mode: multiply;isolation: isolate"/>
      <g id="Grupo_106863" data-name="Grupo 106863" transform="translate(0 0)">
        <path id="Trazado_151362" data-name="Trazado 151362" d="M513.54,928.6l40.988-76.025c-.254-.01-.509-.018-.765-.045a9.941,9.941,0,0,1-6.537-3.61,10.352,10.352,0,0,1-3.473-2.483l-41.2,76.44a2.7,2.7,0,0,0,1.145,3.634l6.212,3.235A2.7,2.7,0,0,0,513.54,928.6Z" transform="translate(-502.246 -767.198)" fill="#dcdcdc"/>
        <path id="Trazado_151363" data-name="Trazado 151363" d="M513.54,928.6l40.988-76.025c-.254-.01-.509-.018-.765-.045a9.941,9.941,0,0,1-6.537-3.61,10.352,10.352,0,0,1-3.473-2.483l-41.2,76.44a2.7,2.7,0,0,0,1.145,3.634l6.212,3.235A2.7,2.7,0,0,0,513.54,928.6Z" transform="translate(-502.246 -767.198)" fill="none" stroke="#414042" stroke-miterlimit="10" stroke-width="2"/>
        <path id="Trazado_151364" data-name="Trazado 151364" d="M655.55,831.606a11.434,11.434,0,0,1-7.479-.412c-8.023-3.414-15.418-8.212-18.685-16.5a15.672,15.672,0,0,0,26.164,16.908Z" transform="translate(-592.419 -744.389)" fill="#22a2ff"/>
        <path id="Trazado_151365" data-name="Trazado 151365" d="M655.343,832.032a11.433,11.433,0,0,1-7.479-.412c-8.023-3.414-15.419-8.212-18.685-16.5a15.672,15.672,0,0,0,26.164,16.908Z" transform="translate(-592.27 -744.695)" fill="#dcdcdc"/>
        <path id="Trazado_151366" data-name="Trazado 151366" d="M655.343,832.032a11.433,11.433,0,0,1-7.479-.412c-8.023-3.414-15.419-8.212-18.685-16.5a15.672,15.672,0,0,0,26.164,16.908Z" transform="translate(-592.27 -744.695)" fill="none" stroke="#414042" stroke-miterlimit="10" stroke-width="2"/>
        <g id="Grupo_106862" data-name="Grupo 106862" transform="translate(18.425)">
          <path id="Trazado_151367" data-name="Trazado 151367" d="M664.37,674.838a41.1,41.1,0,1,0-56.576-13.311A41.1,41.1,0,0,0,664.37,674.838Zm-52.084-16.092a35.814,35.814,0,1,1,49.3,11.6A35.815,35.815,0,0,1,612.286,658.745Z" transform="translate(-592.089 -589.245)" fill="#dcdcdc"/>
          <path id="Trazado_151368" data-name="Trazado 151368" d="M664.37,674.838a41.1,41.1,0,1,0-56.576-13.311A41.1,41.1,0,0,0,664.37,674.838Zm-52.084-16.092a35.814,35.814,0,1,1,49.3,11.6A35.815,35.815,0,0,1,612.286,658.745Z" transform="translate(-592.089 -589.245)" fill="none" stroke="#414042" stroke-miterlimit="10" stroke-width="2"/>
          <circle id="Elipse_4287" data-name="Elipse 4287" cx="35.814" cy="35.814" r="35.814" transform="translate(0 50.649) rotate(-45)" fill="#fffcf8" opacity="0.2"/>
        </g>
        <path id="Trazado_151369" data-name="Trazado 151369" d="M755.667,823.38a35.873,35.873,0,0,0,29.3-18.68Q770.324,814.055,755.667,823.38Z" transform="translate(-684.347 -737.205)" fill="#fff" opacity="0.77"/>
        <path id="Trazado_151370" data-name="Trazado 151370" d="M697.933,675.678a35.925,35.925,0,0,0-9.817-20.292q-29.516,18.942-59.151,37.7a35.923,35.923,0,0,0,14.2,17.437C661.481,699,679.682,687.3,697.933,675.678Z" transform="translate(-593.303 -629.912)" fill="#fff" opacity="0.77"/>
        <path id="Trazado_151371" data-name="Trazado 151371" d="M667.344,620.771c-.816-.244-1.64-.471-2.484-.659a35.815,35.815,0,0,0-42.76,27.146c-.2.882-.348,1.763-.477,2.643Q644.5,635.369,667.344,620.771Z" transform="translate(-588.027 -603.941)" fill="#fff" opacity="0.77"/>
      </g>
      <path id="Trazado_151372" data-name="Trazado 151372" d="M788.966,878.455a8.8,8.8,0,0,0-2.708-.99l1.148-.932a14.078,14.078,0,0,0,4.19-1.507,13.926,13.926,0,0,1,3.424-1.32c-.267,2.525-1.626,3.551-3.7,4.664" transform="translate(-706.329 -786.79)" fill="#f99e82"/>
      <path id="Trazado_151373" data-name="Trazado 151373" d="M573.185,988.922c-.006.007-.724.9-1.761,2.033a29.356,29.356,0,0,1-3.7,3.492.7.7,0,0,1-.838-1.12,28.159,28.159,0,0,0,3.511-3.316c.5-.55.931-1.043,1.232-1.4.151-.18.27-.322.35-.418l.092-.112.03-.038a.7.7,0,0,1,1.089.877Z" transform="translate(-548.49 -868.765)" fill="#f99e82"/>
      <path id="Trazado_151374" data-name="Trazado 151374" d="M555.718,997.771c.373.314.348,1.9.214,2.12-.582.952-1.373.982-1.165,4.372.187,3.037-.4,15.25-.407,18.177,0,0-4.074,3.3-5.6-.423-1.5-3.67-.28-11.945.131-15.12.267-2.06,1.394-4.348,2-6.332.729-2.4,1.42-.153,1.368-1.664.843.257.2,1.228.55,1.473.592.421-.247-2.243.641-2.659" transform="translate(-535.144 -875.9)" fill="#f99e82"/>
      <path id="Trazado_151375" data-name="Trazado 151375" d="M561.82,1000.8c-.582.952-1.739.07-1.531,3.46.187,3.037-.4,15.25-.407,18.177,0,0-2.282,2.059-4.167.862,1.891-.877,3.2-2.465,2.909-4.54-.143-1.034.552-12.771.733-13.917l.032-.2c.039-.128.08-.257.125-.383a9.813,9.813,0,0,1,.552-1.256,4.592,4.592,0,0,0-1.13-5.275.382.382,0,0,1,.034-.02l2.272.056A6.684,6.684,0,0,1,561.82,1000.8Z" transform="translate(-540.667 -875.9)" fill="#f99e82"/>
      <path id="Trazado_151376" data-name="Trazado 151376" d="M560.349,989.815a21.837,21.837,0,0,0,3.534-4.01l-.948-1.127c-.771-.49-.586-3.227-.44-4.546,0,0-4.785-1.851-5.863,9.545" transform="translate(-541.326 -863.186)" fill="#f99e82"/>
      <path id="Trazado_151377" data-name="Trazado 151377" d="M558.394,997.286c-7.39,9.107-11.094,14.009-12.043,15.474-1.78,2.75-1.167,10.843,4.494,9.652,8.674-1.824,8.046-7.263,14.382-12.868,2.539-2.247,6.568-9.984,3.472-15.834-3.211-6.068-10.306,3.576-10.306,3.576Z" transform="translate(-533.302 -871.582)" fill="#71c6c1"/>
      <path id="Trazado_151379" data-name="Trazado 151379" d="M633.888,921.475l7.912-3.9a19.034,19.034,0,0,0,2.781,3.451c2.485,2.418,3.724,5.588,4.638,8.784.326,1.14.712,1.968.293,2.463-.471.557-4.633,1.882-8.226,1.493l-4.857-2.866a14.659,14.659,0,0,1-1.621-3.064,13.635,13.635,0,0,1-.919-6.357Z" transform="translate(-596.791 -818.311)" fill="#f99e82"/>
      <path id="Trazado_151380" data-name="Trazado 151380" d="M617.777,916.581c.287-.8-.015-1.62.163-2.319-.469-6.5,1.483-13.487,8.363-15.728,7.842-2.555,12.4,9.466,4.518,12.032-.742.841-1.982,3.334.784,8.271-3.158,1.7-6.182-.154-6.143,3.6a10.052,10.052,0,0,0,10,9.793,9.951,9.951,0,0,0,7.907-4.184,6.065,6.065,0,0,1,2,5.505c-1.129,9.2-5.105,22.886-14.545,23.25C626.109,956.988,607.317,945.887,617.777,916.581Z" transform="translate(-583.021 -804.377)"/>
      <path id="Trazado_151381" data-name="Trazado 151381" d="M713.592,946.651c-6.119,1.711-22.8,8.283-25.495,11.129a7.714,7.714,0,0,0-1.753,2.985c.266.968,6.792,4.628,7.555,4.857,5.6,1.68,17.381-8.371,22.338-12.481,2.33-1.933.178-7.28-2.645-6.491Z" transform="translate(-634.534 -839.15)" fill="#71c6c1"/>
      <path id="Trazado_151383" data-name="Trazado 151383" d="M713.36,967.37c-1.453-1.024-.084,1.524-1.446,2.74a1.689,1.689,0,0,0,.359.163c5.6,1.68,17.381-8.371,22.338-12.481a3.442,3.442,0,0,0,.1-4.748c.435,4.871-17.7,16.9-21.351,14.325Z" transform="translate(-652.908 -843.802)" fill="#e8cfb8" style="mix-blend-mode: multiply;isolation: isolate"/>
      <path id="Trazado_151384" data-name="Trazado 151384" d="M704.437,1302.754c-1.173-.285-9.965,6.036-10.219,8.881-2.808,31.414,2.138,26.458,2.643,52.68l6.608,1.851c-.024-21.729,1.252-57.9,1.025-57.951Z" transform="translate(-639.576 -1095.086)" fill="#f99e82"/>
      <path id="Trazado_151385" data-name="Trazado 151385" d="M694.218,1311.635c.254-2.845,9.046-9.166,10.219-8.881l.057,5.461c.059.015.016,2.475-.079,6.49a18.858,18.858,0,0,0-3.8,1.649,10.148,10.148,0,0,0-4.426,4.188c-1.409,2.97-.5,5.982-.379,9.1q.248,6.227.644,12.447c.474,7.544,1.088,15.079,1.766,22.607l-1.362-.382C696.356,1338.093,691.41,1343.049,694.218,1311.635Z" transform="translate(-639.576 -1095.086)" fill="#f99e82" style="mix-blend-mode: multiply;isolation: isolate"/>
      <path id="Trazado_151386" data-name="Trazado 151386" d="M699.459,1511.663c-1.633.5-1.946,4.532-1.244,6.044s14.714,1.555,14.752-.948-.841-2.617-3.847-3.136a16.339,16.339,0,0,0-5.336-.326c-3.185.356-2.65-2.152-4.326-1.633Z" transform="translate(-642.811 -1245.158)" fill="#e3eeff"/>
      <path id="Trazado_151387" data-name="Trazado 151387" d="M699.055,1507.806c-1.618.5-2.247,4.52-1.553,6.029s14.6,2.077,14.644-.425-1.039-3.591-1.92-3.622c-3.717-.131-2.569-1.634-4.94-1.43-4.378.376-4.571-1.069-6.232-.551Z" transform="translate(-642.351 -1242.356)" fill="#0f3871"/>
      <path id="Trazado_151388" data-name="Trazado 151388" d="M698.179,1339.716q-.009-.092-.018-.183h0c.005.061.012.122.018.183h0" transform="translate(-643.025 -1121.521)" fill="#0e1f30"/>
      <path id="Trazado_151389" data-name="Trazado 151389" d="M555.87,1304.194c4.107-5.809,11.232-2.791,10.469,2.449-4.494,30.846-10.968,27.4-16.982,55.375l-8.262-.136C546.252,1340.773,551.763,1310,555.87,1304.194Z" transform="translate(-530.162 -1093.855)" fill="#f99e82"/>
      <path id="Trazado_151390" data-name="Trazado 151390" d="M564.45,1317.268c-3.208-.1-6.481-.2-9,2.191-2.195,2.088-2.7,5.544-3.381,8.355-.87,3.6-2,7.148-2.933,10.733-2.029,7.76-3.871,15.566-5.706,23.373l-2.337-.039c5.157-21.109,10.668-51.879,14.775-57.688s11.232-2.791,10.469,2.449C565.742,1310.738,565.11,1314.228,564.45,1317.268Z" transform="translate(-530.162 -1093.855)" fill="#f99e82" style="mix-blend-mode: multiply;isolation: isolate"/>
      <path id="Trazado_151391" data-name="Trazado 151391" d="M525.065,1509.551c1.833.445,2.321,4.459,1.593,5.995s-19.644,1.55-19.774-.95,4.184-2.11,7.507-2.737a20.159,20.159,0,0,1,5.921-.519c3.553.241,2.872-2.246,4.753-1.789Z" transform="translate(-505.577 -1243.65)" fill="#e3eeff"/>
      <path id="Trazado_151392" data-name="Trazado 151392" d="M525.944,1505.727c1.817.446,2.655,4.436,1.935,5.969s-19.5,2.068-19.635-.432,4.37-3.09,5.348-3.153c4.128-.266,2.8-1.726,5.442-1.608,4.88.217,5.045-1.234,6.909-.776Z" transform="translate(-506.555 -1240.878)" fill="#0f3871"/>
      <path id="Trazado_151393" data-name="Trazado 151393" d="M629.83,1341.352l.061-.173h0l-.061.173h0" transform="translate(-593.924 -1122.703)" fill="#0e1f30"/>
      <path id="Trazado_151394" data-name="Trazado 151394" d="M561.1,1195.512s8.636-13.369,17.564-47.073c2.551-9.629,6.986.721,6.986.721l-.612-3.192s21.406-4.183,25.989,3.6,1.192,47.366,1.192,47.366-4.64,7.66-39.237,5.768C552.273,1201.57,561.1,1195.512,561.1,1195.512Z" transform="translate(-543.196 -981.259)"/>
      <path id="Trazado_151395" data-name="Trazado 151395" d="M561.1,1195.512s8.636-13.369,17.564-47.073c2.551-9.629,6.986.721,6.986.721l-.612-3.192s21.406-4.183,25.989,3.6a8.374,8.374,0,0,1,.681,1.545,3.949,3.949,0,0,0-.314.488c-.276.51-.568,1.009-.892,1.49-.059.088-.121.173-.182.26-.1.128-.207.255-.314.38a21.248,21.248,0,0,1-2.159,2.113l-.124.09q-.285.207-.576.407-.7.48-1.438.909c-.73.427-1.5.771-2.249,1.149.071-.043-.022,0-.506.261l-.023.01q-.4.166-.81.322-.679.261-1.367.5-1.238.429-2.5.794c-1.915.56-3.857,1.026-5.8,1.459-4.187.93-8.583,1.632-12.1,4.28a16.728,16.728,0,0,0-5.265,6.394,56.573,56.573,0,0,0-2.489,6.914c-.2.628-.393,1.256-.606,1.878a6.67,6.67,0,0,1-.558,1.531c.056-.083.434-.966.08-.21-.113.241-.22.486-.338.725-.235.479-.462.962-.7,1.441-1.306,2.63-2.751,5.135-3.842,7.87a4.588,4.588,0,0,0,2.167,5.169c3.54,1.591,7.113,3.324,10.93,4.141a57.312,57.312,0,0,0,12.108.767q.716,0,1.433-.01a151.688,151.688,0,0,1-20.287.068C552.273,1201.57,561.1,1195.512,561.1,1195.512Z" transform="translate(-543.196 -981.259)" fill="#5e98ff" style="mix-blend-mode: multiply;isolation: isolate"/>
      <path id="Trazado_151396" data-name="Trazado 151396" d="M645.557,990.641c3.13,5.227,1.831,12.642.969,18.046-1.432,8.977,5.094,23.213,6.265,25.4s-10.375,9.033-24.83,9.295-10.788-5.879-10.788-5.879,7.537-21.595.307-45.191c-1.715-5.6,20.72-7.366,20.72-7.366" transform="translate(-584.531 -866.728)" fill="#71c6c1"/>
      <path id="Trazado_151398" data-name="Trazado 151398" d="M615.643,1022.672l-2.145.193c2.443-2.726,3.821,1.278,3.821,1.278,8.966,9.892-.3,37.979,3.689,43.142s27.809-3.808,27.809-3.808c-25.175,13.487-35.315,3.275-35.133,2.9,4.681-9.612,4.94-27.893,4.906-27.929l-2.947-15.776Z" transform="translate(-582.188 -893.29)" fill="#e8cfb8" style="mix-blend-mode: multiply;isolation: isolate"/>
      <path id="Trazado_151399" data-name="Trazado 151399" d="M674.235,969.768l0,0-.251-.685.007-.024c.075.2.158.447.246.711" transform="translate(-625.651 -855.307)" fill="#0f2c4a"/>
      <path id="Trazado_151400" data-name="Trazado 151400" d="M674.888,971.617l-.015-.042,0,0,.013.04" transform="translate(-626.291 -857.117)" fill="#0f2c4a"/>
      <path id="Trazado_151401" data-name="Trazado 151401" d="M665.986,972.39l-4.649-1.339c.445-.849,2.631-.278,3.168-1.056a2.934,2.934,0,0,0,.391-.853l.251.685.015.042c.271.816.583,1.821.825,2.521" transform="translate(-616.564 -855.368)" fill="#fb9d6f"/>
      <path id="Trazado_151402" data-name="Trazado 151402" d="M641.815,911.547a.638.638,0,0,0,0-.458,4.416,4.416,0,0,0-1.136-1.3,6.952,6.952,0,0,0-2.886-1.874,3.7,3.7,0,0,0-3.041.369c-.1.06-.175.14-.264.208a.366.366,0,0,0-.11-.028,6.048,6.048,0,0,0-3.21.689,6.612,6.612,0,0,0-2.4,2.534,9.064,9.064,0,0,0-1.394,3.088,5.879,5.879,0,0,0,.306,2.66l3.471,8.79,3.77-.377c-.685-3.354-2.229-6.688,1.157-9.686l2.069-1.358,3.99-2.619c.35-.23.033-.689-.319-.641Z" transform="translate(-592.12 -811.255)"/>
      <path id="Trazado_151403" data-name="Trazado 151403" d="M654.429,937.681a11.8,11.8,0,0,1,5.252-10.337s-3.776.785-5.128,3.023-.124,7.314-.124,7.314Z" transform="translate(-611.233 -825.333)"/>
      <path id="Trazado_151404" data-name="Trazado 151404" d="M609.511,923.3c8.066-1.9,4.522-14.261-3.505-12.365-7.043,1.664-9.566,8.463-9.637,14.982-.235.681,0,1.52-.354,2.3-12.851,28.338,4.955,40.959,9.674,41.169,9.438.419,14.533-12.888,16.421-21.965a6.231,6.231,0,0,0-4.054-7.308,6.578,6.578,0,0,0-1.153-1.534,4.765,4.765,0,0,0,.381-.636l.591-1.533a6.423,6.423,0,0,0-.058-3.281q-.179-1.133-.359-2.265a4.869,4.869,0,0,0-1.23-2.25,4.785,4.785,0,0,0-1.891-1.647,7.187,7.187,0,0,0-4.814-.533c-.105.035-.209.078-.313.117a17.658,17.658,0,0,1,.068-2.368q.09-.451.156-.907.461-.754.077.029" transform="translate(-566.337 -813.399)"/>
    </g>
    <g id="Grupo_106866" data-name="Grupo 106866" transform="translate(667.189 504.945)">
      <path id="Trazado_151405" data-name="Trazado 151405" d="M1434.429,1186.074c.709,10.207-4.612,23.366-15.143,24.354-9.94.933-18.224-10.972-18.279-21.215-.133-24.11,22.025-41.747,22.025-41.747C1423.906,1160.042,1433.719,1175.867,1434.429,1186.074Z" transform="translate(-1401.007 -1147.466)" fill="#f5e7d7"/>
      <path id="Trazado_151406" data-name="Trazado 151406" d="M1419.287,1210.428c-9.94.933-18.224-10.972-18.279-21.215-.133-24.11,22.025-41.747,22.025-41.747C1407.073,1186.226,1419.287,1210.428,1419.287,1210.428Z" transform="translate(-1401.007 -1147.466)" fill="#f5e7d7"/>
      <path id="Trazado_151407" data-name="Trazado 151407" d="M1419.287,1210.428c-9.94.933-18.224-10.972-18.279-21.215-.133-24.11,22.025-41.747,22.025-41.747C1407.073,1186.226,1419.287,1210.428,1419.287,1210.428Z" transform="translate(-1401.007 -1147.466)" fill="#f5e7d7" opacity="0.3" style="mix-blend-mode: multiply;isolation: isolate"/>
      <g id="Grupo_106865" data-name="Grupo 106865" transform="translate(13.096 8.992)" style="mix-blend-mode: multiply;isolation: isolate">
        <path id="Trazado_151408" data-name="Trazado 151408" d="M1450.662,1228.8l-.534-1.918c-.182-.614-.388-1.368-.562-2.26s-.442-1.889-.591-3.019l-.28-1.765c-.088-.615-.136-1.259-.209-1.922-.171-1.327-.207-2.752-.3-4.248a86.061,86.061,0,0,1,.314-9.718,148.821,148.821,0,0,1,2.83-17.4c.989-4.4,1.6-7.13,1.6-7.13s-.806,2.668-1.93,7.04a113.678,113.678,0,0,0-3.174,17.4,73.121,73.121,0,0,0-.211,9.809c.122,1.51.2,2.946.407,4.281.094.668.164,1.315.272,1.932s.234,1.2.344,1.768c.192,1.13.493,2.13.717,3.013a22.691,22.691,0,0,0,.668,2.242Z" transform="translate(-1447.542 -1179.419)" fill="#f5e7d7"/>
      </g>
    </g>
    <path id="Trazado_151409" data-name="Trazado 151409" d="M1893.083,939.661c-7.964,1.15-9.16-11.272-1.235-12.416,6.953-1,11.652,4.239,14.037,10.1.455.532.542,1.372,1.137,1.949,21.694,21.022,10.1,38.76,5.914,40.628-8.375,3.737-17.713-6.468-22.65-14a6.049,6.049,0,0,1,1.061-8.044,6.379,6.379,0,0,1,.5-1.8,4.608,4.608,0,0,1-.571-.439l-1.08-1.175a6.234,6.234,0,0,1-1.115-2.984l-.482-2.173a4.724,4.724,0,0,1,.31-2.47,4.646,4.646,0,0,1,1.121-2.16,6.981,6.981,0,0,1,4.159-2.2c.107-.006.216,0,.325-.006a17.193,17.193,0,0,0-.9-2.115q-.243-.375-.463-.764Q1892.458,939.091,1893.083,939.661Z" transform="translate(-1082.659 -484.187)"/>
    <path id="Trazado_151410" data-name="Trazado 151410" d="M1830.344,1021.284c4.672-4.027,19.57-14.39,23.375-14.342,1.033.013,1.466,5.292,1.8,6.185a2.761,2.761,0,0,1,.75,2.437c-1.654,5.431-16.112,9.55-22.1,11.347C1831.354,1027.756,1828.188,1023.142,1830.344,1021.284Z" transform="translate(-1041.815 -541.545)" fill="#00978e"/>
    <path id="Trazado_151412" data-name="Trazado 151412" d="M1860.605,1013.127c-.332-.892-.766-6.172-1.8-6.185a3.386,3.386,0,0,0-.727.086,2.063,2.063,0,0,1-.329.929c-1.538,2.427-1.62,3.86-3.712,5.784-1.149,1.058-2.384,4-2.9,5.288a7.4,7.4,0,0,1-3.495,3.4,40.213,40.213,0,0,1-10.935,3.939,2.953,2.953,0,0,0,2.544.54c5.987-1.8,20.445-5.916,22.1-11.347A2.759,2.759,0,0,0,1860.605,1013.127Z" transform="translate(-1046.904 -541.545)" fill="#008f85"/>
    <path id="Trazado_151413" data-name="Trazado 151413" d="M1752.787,1056.432c.29-.3.818-2.212,1.128-2.1,1.341.49,3.44.589,7.606.481,3.732-.1,11.421-2.843,15.067-2.788s6.132,4.668,2.556,7.043c-3.826,2.541-11.091,1-15.155.6-2.636-.254-4.965-.563-7.6-.752-.56-.04-3.738-.261-4.377.457C1752.269,1057.532,1753.986,1057.588,1752.787,1056.432Z" transform="translate(-986.043 -573.94)" fill="#f99e82"/>
    <path id="Trazado_151414" data-name="Trazado 151414" d="M1780.339,1057.6c-2.557-.685-5.106-2.755-4.928-5.364-3.933.4-10.523,2.641-13.891,2.728-4.166.108-6.264.01-7.606-.48-.31-.113-.838,1.8-1.128,2.1,1.2,1.156-.518,1.1-.771,2.945.639-.718,3.818-.5,4.377-.457,2.63.189,4.959.5,7.6.752,4.063.391,11.328,1.937,15.155-.6a3.946,3.946,0,0,0,1.425-1.573A2.043,2.043,0,0,1,1780.339,1057.6Z" transform="translate(-986.043 -574.094)" fill="#f99e82" style="mix-blend-mode: multiply;isolation: isolate"/>
    <path id="Trazado_151415" data-name="Trazado 151415" d="M1766.206,1015.116a24.528,24.528,0,0,1,3.533,3.463" transform="translate(-996.239 -547.418)" fill="none" stroke="#f99e82" stroke-linecap="round" stroke-linejoin="round" stroke-width="6"/>
    <path id="Trazado_151416" data-name="Trazado 151416" d="M1764.6,1000.3c-1.12-1.2-2.425-2.409-2.425-2.409s-4.111.215-4.78.1c-1.671-.3-.023,4.892,1.5,5.242,2.06.472,3.124-.259,5.352.407" transform="translate(-989.402 -535.038)" fill="#f99e82"/>
    <path id="Trazado_151417" data-name="Trazado 151417" d="M1761.832,1005.406a24.5,24.5,0,0,1-4.9-.658" transform="translate(-989.573 -539.968)" fill="none" stroke="#f99e82" stroke-linecap="round" stroke-linejoin="round" stroke-width="6"/>
    <path id="Trazado_151418" data-name="Trazado 151418" d="M1840.262,1097.994a32.548,32.548,0,0,1,4.652,4.639" transform="translate(-1049.454 -606.971)" fill="none" stroke="#f99e82" stroke-linecap="round" stroke-linejoin="round" stroke-width="8"/>
    <path id="Trazado_151419" data-name="Trazado 151419" d="M1502.715,1197.867l-124.632,36.051a8.9,8.9,0,0,1-11.031-8.353l-11.326-90.255c-.775-5.567,4.479-11.27,8.951-11.929l51.139-7.341c9.861-.313,9.211,14.225,17.487,13.073,20.924-2.913,64.79-10.13,64.79-10.13a8.9,8.9,0,0,1,10.1,8.532l1.844,58.03C1510.171,1189.737,1510.413,1195.918,1502.715,1197.867Z" transform="translate(-701.226 -619.935)" fill="#e89952"/>
    <path id="Trazado_151420" data-name="Trazado 151420" d="M1517.708,1198.3l-123.847,23.886c-5.5,1.362-10.851,4.077-11.031-1.584l-9.632-88.415a8.9,8.9,0,0,1,7.6-9.084l49.448-7.287c9.862-.313,9.211,18.286,17.488,17.134,20.924-2.912,64.79-10.13,64.79-10.13a8.9,8.9,0,0,1,10.1,8.532l1.844,58.03A8.9,8.9,0,0,1,1517.708,1198.3Z" transform="translate(-713.831 -619.775)" fill="#f4b671"/>
    <path id="Trazado_151421" data-name="Trazado 151421" d="M1580.4,1189.382l-1.844-58.03a8.9,8.9,0,0,0-10.1-8.532s-43.865,7.218-64.789,10.13c-8.277,1.152-7.626-17.448-17.488-17.134l-35.138,5.047,16.33,78.1,106.275-.659A8.9,8.9,0,0,0,1580.4,1189.382Z" transform="translate(-769.773 -619.775)" fill="#e89952"/>
    <path id="Trazado_151422" data-name="Trazado 151422" d="M1382.732,1012.367s-4.9.7-11.706-11.927l24.78-3.348,1.09,12.811A66.63,66.63,0,0,1,1382.732,1012.367Z" transform="translate(-712.274 -534.466)" fill="#fff"/>
    <path id="Trazado_151423" data-name="Trazado 151423" d="M1403.316,904.74c-14,1.517,14.159,41.068-1.728,41.255l97.929-6.83-32.073-33.8Z" transform="translate(-732.574 -468.105)"/>
    <path id="Trazado_151424" data-name="Trazado 151424" d="M1406.923,904.318c-14,1.517,14.159,41.068-1.729,41.255l97.928-6.83-32.073-33.8Z" transform="translate(-735.166 -467.802)" fill="none" stroke="#231f20" stroke-miterlimit="10" stroke-width="2"/>
    <path id="Trazado_151425" data-name="Trazado 151425" d="M1416.341,890.463s90.731-11.282,109.188-.758,1.437,101.036,26.318,109.133c17.73,5.77-73.039,19.472-93.1,23.508C1417.537,1030.635,1447.408,902.61,1416.341,890.463Z" transform="translate(-744.836 -454.076)" fill="#fffcf8"/>
    <path id="Trazado_151426" data-name="Trazado 151426" d="M1416.341,890.463s90.731-11.282,109.188-.758,1.437,101.036,26.318,109.133c17.73,5.77-73.039,19.472-93.1,23.508C1417.537,1030.635,1447.408,902.61,1416.341,890.463Z" transform="translate(-744.836 -454.076)" fill="none" stroke="#414042" stroke-miterlimit="10" stroke-width="2"/>
    <g id="Grupo_106867" data-name="Grupo 106867" transform="translate(702.334 552.516)">
      <path id="Trazado_151427" data-name="Trazado 151427" d="M1549.385,1317.191a.722.722,0,0,1-.722.867c-7.183.7-14.368,1.2-21.585,1.356a1.208,1.208,0,0,1-1.167-.678h0c-.119-.387.214-.716.738-.729,7.228-.207,14.423-.757,21.613-1.5a1.042,1.042,0,0,1,1.123.687Z" transform="translate(-1525.887 -1316.498)" fill="#f2e0c9"/>
    </g>
    <g id="Grupo_106868" data-name="Grupo 106868" transform="translate(703.414 556.761)">
      <path id="Trazado_151428" data-name="Trazado 151428" d="M1544.907,1332.217c.13.379-.175.7-.688.732-4.421.237-8.84.371-13.268.377a1.333,1.333,0,0,1-1.2-.618h0c-.135-.344.184-.631.707-.634,4.434-.045,8.857-.217,13.283-.489a1.168,1.168,0,0,1,1.163.631Z" transform="translate(-1529.724 -1331.583)" fill="#f2e0c9"/>
    </g>
    <g id="Grupo_106872" data-name="Grupo 106872" transform="translate(689.736 444.802)">
      <g id="Grupo_106869" data-name="Grupo 106869">
        <path id="Trazado_151429" data-name="Trazado 151429" d="M1484.479,934.557l-2.791-.023a.6.6,0,0,1-.55-.392c-.062-.214.084-.383.326-.381l2.79.026a.6.6,0,0,1,.555.388C1484.872,934.387,1484.723,934.559,1484.479,934.557Z" transform="translate(-1481.124 -933.761)" fill="#f2e0c9"/>
      </g>
      <g id="Grupo_106870" data-name="Grupo 106870" transform="translate(8.161 0.075)">
        <path id="Trazado_151430" data-name="Trazado 151430" d="M1583.009,935.325l-5.446-.041a.581.581,0,0,1-.549-.334c-.053-.182.107-.327.357-.325l5.447.048a.576.576,0,0,1,.544.329C1583.415,935.182,1583.256,935.327,1583.009,935.325Zm-10.95-.082-5.552-.041a.59.59,0,0,1-.558-.343c-.054-.187.108-.335.363-.333l5.554.049a.587.587,0,0,1,.555.336C1572.474,935.1,1572.312,935.245,1572.059,935.243Zm-11.14-.081-5.615-.04a.6.6,0,0,1-.566-.352c-.056-.192.107-.344.365-.342l5.618.049a.6.6,0,0,1,.564.345C1561.339,935.012,1561.174,935.165,1560.919,935.163Zm-11.246-.081-5.636-.041a.609.609,0,0,1-.571-.362c-.058-.2.1-.354.362-.352l5.64.05a.606.606,0,0,1,.57.354C1550.094,934.927,1549.931,935.084,1549.673,935.082ZM1538.405,935l-5.615-.041a.611.611,0,0,1-.571-.371c-.059-.2.1-.363.356-.361l5.619.05a.611.611,0,0,1,.573.364C1538.825,934.841,1538.663,935,1538.405,935Zm-11.2-.082-5.553-.042a.611.611,0,0,1-.568-.38c-.061-.207.094-.372.347-.37l5.555.05a.613.613,0,0,1,.572.373C1527.614,934.754,1527.456,934.92,1527.2,934.918Zm-11.058-.084-5.448-.043a.607.607,0,0,1-.56-.387c-.062-.211.088-.379.336-.377l5.449.05a.612.612,0,0,1,.566.381C1516.547,934.667,1516.393,934.836,1516.143,934.834Z" transform="translate(-1510.121 -934.027)" fill="#f2e0c9"/>
      </g>
      <g id="Grupo_106871" data-name="Grupo 106871" transform="translate(85.879 0.768)">
        <path id="Trazado_151431" data-name="Trazado 151431" d="M1789.612,937.159l-2.79-.022a.57.57,0,0,1-.537-.328c-.053-.179.1-.321.346-.319l2.79.025a.568.568,0,0,1,.535.325C1790.009,937.017,1789.855,937.161,1789.612,937.159Z" transform="translate(-1786.276 -936.49)" fill="#f2e0c9"/>
      </g>
    </g>
    <g id="Grupo_106876" data-name="Grupo 106876" transform="translate(698.378 527.731)">
      <g id="Grupo_106873" data-name="Grupo 106873" transform="translate(0 10.667)">
        <path id="Trazado_151432" data-name="Trazado 151432" d="M1515.105,1267.277c-1.114.093-1.672.137-2.787.219a.471.471,0,0,1-.486-.436.445.445,0,0,1,.395-.5c1.116-.083,1.673-.127,2.787-.221a.464.464,0,0,1,.485.433A.45.45,0,0,1,1515.105,1267.277Z" transform="translate(-1511.829 -1266.336)" fill="#f2e0c9"/>
      </g>
      <g id="Grupo_106874" data-name="Grupo 106874" transform="translate(8.094 0.716)">
        <path id="Trazado_151433" data-name="Trazado 151433" d="M1609.663,1231.925q-2.648.275-5.293.58a.419.419,0,0,1-.458-.421.5.5,0,0,1,.419-.525q2.647-.305,5.3-.582a.425.425,0,0,1,.457.43A.494.494,0,0,1,1609.663,1231.925Zm-10.578,1.233q-2.64.347-5.277.714a.411.411,0,0,1-.46-.41.51.51,0,0,1,.414-.533q2.639-.367,5.281-.714a.414.414,0,0,1,.459.416A.506.506,0,0,1,1599.085,1233.158Zm-10.549,1.474q-2.635.392-5.268.794a.41.41,0,0,1-.465-.4.513.513,0,0,1,.409-.539q2.636-.4,5.272-.794a.41.41,0,0,1,.462.408A.511.511,0,0,1,1588.536,1234.633ZM1578,1236.241l-5.265.82a.414.414,0,0,1-.469-.4.509.509,0,0,1,.4-.541l5.27-.82a.411.411,0,0,1,.466.405A.511.511,0,0,1,1578,1236.241Zm-10.53,1.635q-2.633.4-5.268.793a.423.423,0,0,1-.474-.408.5.5,0,0,1,.4-.539q2.637-.392,5.273-.793a.418.418,0,0,1,.471.407A.5.5,0,0,1,1567.472,1237.875Zm-10.541,1.554q-2.637.366-5.278.713a.437.437,0,0,1-.48-.415.483.483,0,0,1,.4-.53q2.642-.347,5.282-.714a.429.429,0,0,1,.477.412A.49.49,0,0,1,1556.932,1239.429Zm-10.563,1.366q-2.645.3-5.294.58a.454.454,0,0,1-.484-.426.463.463,0,0,1,.395-.516q2.65-.276,5.3-.582a.445.445,0,0,1,.481.422A.472.472,0,0,1,1546.369,1240.8Z" transform="translate(-1540.589 -1230.975)" fill="#f2e0c9"/>
      </g>
      <g id="Grupo_106875" data-name="Grupo 106875" transform="translate(82.013 0)">
        <path id="Trazado_151434" data-name="Trazado 151434" d="M1806.49,1229.385c-1.115.082-1.672.126-2.786.219a.434.434,0,0,1-.458-.438.488.488,0,0,1,.423-.513c1.114-.094,1.671-.138,2.787-.221a.44.44,0,0,1,.458.444A.48.48,0,0,1,1806.49,1229.385Z" transform="translate(-1803.245 -1228.431)" fill="#f2e0c9"/>
      </g>
    </g>
    <g id="Grupo_106880" data-name="Grupo 106880" transform="translate(700.956 547.122)">
      <g id="Grupo_106877" data-name="Grupo 106877" transform="translate(0 8.914)">
        <path id="Trazado_151435" data-name="Trazado 151435" d="M1524.3,1329.749c-1.108.056-1.663.081-2.775.122a.514.514,0,0,1-.522-.35c-.046-.2.115-.376.357-.385,1.112-.045,1.667-.071,2.776-.129a.5.5,0,0,1,.52.35A.336.336,0,0,1,1524.3,1329.749Z" transform="translate(-1520.991 -1329.005)" fill="#f2e0c9"/>
      </g>
      <g id="Grupo_106878" data-name="Grupo 106878" transform="translate(8.047 0.465)">
        <path id="Trazado_151436" data-name="Trazado 151436" d="M1617.546,1299.879q-2.62.19-5.236.431a.455.455,0,0,1-.487-.4.427.427,0,0,1,.38-.482q2.617-.246,5.239-.443a.466.466,0,0,1,.486.415A.42.42,0,0,1,1617.546,1299.879Zm-10.448.953q-2.6.281-5.191.6a.44.44,0,0,1-.488-.376.429.429,0,0,1,.372-.483q2.6-.32,5.2-.608a.446.446,0,0,1,.486.389A.426.426,0,0,1,1607.1,1300.833Zm-10.367,1.251q-2.584.339-5.166.7a.434.434,0,0,1-.491-.359.425.425,0,0,1,.366-.48q2.584-.361,5.17-.706a.435.435,0,0,1,.488.369A.424.424,0,0,1,1596.732,1302.083Zm-10.324,1.417-5.156.729a.436.436,0,0,1-.5-.348.414.414,0,0,1,.36-.471l5.162-.739a.433.433,0,0,1,.492.355A.417.417,0,0,1,1586.408,1303.5Zm-10.315,1.449q-2.582.356-5.165.7a.447.447,0,0,1-.5-.343.4.4,0,0,1,.356-.458q2.587-.344,5.171-.706a.439.439,0,0,1,.5.347A.4.4,0,0,1,1576.093,1304.949Zm-10.342,1.351q-2.595.314-5.192.6a.465.465,0,0,1-.51-.342.376.376,0,0,1,.354-.438q2.6-.287,5.2-.608a.453.453,0,0,1,.5.344A.384.384,0,0,1,1565.75,1306.3Zm-10.4,1.119q-2.617.241-5.238.432a.488.488,0,0,1-.517-.345.351.351,0,0,1,.354-.411q2.622-.2,5.24-.445a.474.474,0,0,1,.512.345A.361.361,0,0,1,1555.345,1307.419Z" transform="translate(-1549.584 -1298.984)" fill="#f2e0c9"/>
      </g>
      <g id="Grupo_106879" data-name="Grupo 106879" transform="translate(80.782 0)">
        <path id="Trazado_151437" data-name="Trazado 151437" d="M1811.3,1298.246c-1.111.041-1.666.066-2.775.121a.481.481,0,0,1-.488-.43.417.417,0,0,1,.387-.477c1.108-.059,1.663-.084,2.775-.129a.491.491,0,0,1,.489.442A.412.412,0,0,1,1811.3,1298.246Z" transform="translate(-1808.034 -1297.331)" fill="#f2e0c9"/>
      </g>
    </g>
    <g id="Grupo_106881" data-name="Grupo 106881" transform="translate(697.336 504.77)">
      <path id="Trazado_151438" data-name="Trazado 151438" d="M1551.779,1148.732a2.309,2.309,0,0,1-1.818,2.4c-13.241,1.854-26.488,3.666-39.813,4.8a2.022,2.022,0,0,1-2.016-2.075h0a2.153,2.153,0,0,1,1.753-2.4c13.354-1.1,26.639-2.833,39.918-4.6a1.8,1.8,0,0,1,1.976,1.87Z" transform="translate(-1508.127 -1146.845)" fill="#f2e0c9"/>
    </g>
    <g id="Grupo_106882" data-name="Grupo 106882" transform="translate(699.871 534.555)">
      <path id="Trazado_151439" data-name="Trazado 151439" d="M1559.928,1254.331a2,2,0,0,1-1.631,2.189c-12.952,2-25.911,3.914-38.991,4.844a2.039,2.039,0,0,1-2.152-1.671h0a1.725,1.725,0,0,1,1.614-1.973c13.12-1.018,26.123-2.98,39.117-5.017a1.781,1.781,0,0,1,2.043,1.629Z" transform="translate(-1517.135 -1252.679)" fill="#f2e0c9"/>
    </g>
    <path id="Trazado_151440" data-name="Trazado 151440" d="M1490.319,1244.489c4.026-.208,8.057-.1,12.086-.179,4.763-.088,9.506-.794,14.255-1.145,5.618-.415-1.346,1.356,4.287,1.271,2.866-.044,18.328-2,21.194-2.055,2.411-.047,4.816-.242,7.211-.518,3.5-.476,6.982-1.095,10.464-1.692,3.106-.532,6.237-.238,9.327-.853,2.871-.571,9.862-1.57,12.7-2.269,2.944-.724,3.439-.068,6.435-.541.077-.012-1.537-1.8-1.46-1.809a75.432,75.432,0,0,1-1.975-8.61,13.922,13.922,0,0,1-4.1,6.565,16.994,16.994,0,0,1-7.583,3.572c-3.137.635-6.355.912-9.534,1.251-4.151.443-8.3.871-12.463,1.222a161.269,161.269,0,0,1-24.226.6,106.139,106.139,0,0,1-22.892-3.96,119.741,119.741,0,0,1-22.044-9.162,6.118,6.118,0,0,1-1.869-1.563c.47,7.368,1.1,14.417,2.108,20.748A58.305,58.305,0,0,1,1490.319,1244.489Z" transform="translate(-790.678 -697.957)" fill="#cad8ef" style="mix-blend-mode: multiply;isolation: isolate"/>
    <g id="Grupo_106883" data-name="Grupo 106883" transform="translate(770.129 506.289)">
      <path id="Trazado_151441" data-name="Trazado 151441" d="M1779.865,1154.116a2.143,2.143,0,0,1-1.86,2.183q-4.657.41-9.3.912a1.766,1.766,0,0,1-1.921-1.841h0a2.206,2.206,0,0,1,1.864-2.245q4.652-.479,9.312-.877a1.8,1.8,0,0,1,1.909,1.868Z" transform="translate(-1766.781 -1152.242)" fill="#f2e0c9"/>
    </g>
    <g id="Grupo_106884" data-name="Grupo 106884" transform="translate(712.359 507.501)">
      <path id="Trazado_151442" data-name="Trazado 151442" d="M1615.656,1158.463a2.4,2.4,0,0,1-1.889,2.482c-16.667,2.506-33.315,5.175-50.112,6.67a2.1,2.1,0,0,1-2.14-2.085h0a2.2,2.2,0,0,1,1.822-2.45c16.838-1.484,33.539-4.075,50.257-6.513a1.841,1.841,0,0,1,2.061,1.9Z" transform="translate(-1561.51 -1156.547)" fill="#f2e0c9"/>
    </g>
    <g id="Grupo_106885" data-name="Grupo 106885" transform="translate(770.288 514.966)">
      <path id="Trazado_151443" data-name="Trazado 151443" d="M1780.4,1184.96a2.139,2.139,0,0,1-1.843,2.2q-4.645.42-9.277.945a1.764,1.764,0,0,1-1.931-1.823h0a2.212,2.212,0,0,1,1.842-2.267q4.64-.515,9.287-.938a1.819,1.819,0,0,1,1.921,1.882Z" transform="translate(-1767.348 -1183.071)" fill="#f2e0c9"/>
    </g>
    <g id="Grupo_106886" data-name="Grupo 106886" transform="translate(696.235 485.592)">
      <path id="Trazado_151444" data-name="Trazado 151444" d="M1548.336,1080.617a2.193,2.193,0,0,1-1.837,2.315c-13.4,1.394-26.807,2.762-40.254,3.652a2.106,2.106,0,0,1-2.023-2.161h0a2.106,2.106,0,0,1,1.74-2.39c13.474-.811,26.912-2.057,40.348-3.327a1.9,1.9,0,0,1,2.026,1.911Z" transform="translate(-1504.216 -1078.698)" fill="#f2e0c9"/>
    </g>
    <g id="Grupo_106887" data-name="Grupo 106887" transform="translate(696.803 493.689)">
      <path id="Trazado_151445" data-name="Trazado 151445" d="M1558.4,1109.354a2.261,2.261,0,0,1-1.85,2.336c-16.08,1.967-32.15,4.054-48.306,5.313a2.06,2.06,0,0,1-2.011-2.136h0a2.155,2.155,0,0,1,1.757-2.417c16.19-1.182,32.305-3.131,48.43-4.969a1.82,1.82,0,0,1,1.979,1.874Z" transform="translate(-1506.234 -1107.468)" fill="#f2e0c9"/>
    </g>
    <g id="Grupo_106888" data-name="Grupo 106888" transform="translate(694.728 467.905)">
      <path id="Trazado_151446" data-name="Trazado 151446" d="M1543.385,1017.7a1.92,1.92,0,0,1-1.783,2.1c-13.538.825-27.078,1.635-40.631,2.148a2.21,2.21,0,0,1-2.1-2.1h0a1.864,1.864,0,0,1,1.656-2.21c13.579-.419,27.147-1.1,40.714-1.785a2.049,2.049,0,0,1,2.141,1.848Z" transform="translate(-1498.861 -1015.852)" fill="#f2e0c9"/>
    </g>
    <g id="Grupo_106889" data-name="Grupo 106889" transform="translate(695.566 475.816)">
      <path id="Trazado_151447" data-name="Trazado 151447" d="M1554.552,1045.816a2.055,2.055,0,0,1-1.828,2.178c-16.265,1.339-32.526,2.763-48.826,3.626a2.153,2.153,0,0,1-2.053-2.148h0a2.008,2.008,0,0,1,1.708-2.322c16.331-.753,32.633-2.007,48.938-3.186a1.933,1.933,0,0,1,2.062,1.852Z" transform="translate(-1501.836 -1043.959)" fill="#f2e0c9"/>
    </g>
    <g id="Grupo_106890" data-name="Grupo 106890" transform="translate(692.155 451.514)">
      <path id="Trazado_151448" data-name="Trazado 151448" d="M1534.633,959.27a1.532,1.532,0,0,1-1.653,1.756c-13.659.229-27.319.455-40.979.562a2.385,2.385,0,0,1-2.244-1.877h0a1.475,1.475,0,0,1,1.494-1.858c13.684-.028,27.369-.134,41.052-.243a2.336,2.336,0,0,1,2.33,1.661Z" transform="translate(-1489.719 -957.61)" fill="#f2e0c9"/>
    </g>
    <g id="Grupo_106891" data-name="Grupo 106891" transform="translate(741.669 450.664)">
      <path id="Trazado_151449" data-name="Trazado 151449" d="M1693.548,956.059a1.341,1.341,0,0,1-1.366,1.591c-2.743.084-21.787.493-24.529.587a1.977,1.977,0,0,1-1.971-1.526h0a1.337,1.337,0,0,1,1.385-1.6c2.743-.073,21.788-.461,24.531-.527a1.955,1.955,0,0,1,1.95,1.47Z" transform="translate(-1665.655 -954.588)" fill="#f2e0c9"/>
    </g>
    <g id="Grupo_106892" data-name="Grupo 106892" transform="translate(754.48 466.312)">
      <path id="Trazado_151450" data-name="Trazado 151450" d="M1740.046,1011.686a1.388,1.388,0,0,1-1.389,1.668c-2.838.129-22.547.838-25.384.977a2.048,2.048,0,0,1-2.065-1.55h0a1.385,1.385,0,0,1,1.411-1.673c2.838-.116,22.548-.8,25.387-.914a2.023,2.023,0,0,1,2.04,1.493Z" transform="translate(-1711.177 -1010.192)" fill="#f2e0c9"/>
    </g>
    <g id="Grupo_106893" data-name="Grupo 106893" transform="translate(749.684 458.202)">
      <path id="Trazado_151451" data-name="Trazado 151451" d="M1722.029,982.845a1.341,1.341,0,0,1-1.366,1.591c-2.743.085-21.787.493-24.529.588a1.978,1.978,0,0,1-1.972-1.526h0a1.338,1.338,0,0,1,1.386-1.6c2.743-.072,21.788-.461,24.531-.527a1.954,1.954,0,0,1,1.949,1.47Z" transform="translate(-1694.136 -981.374)" fill="#f2e0c9"/>
    </g>
    <g id="Grupo_106894" data-name="Grupo 106894" transform="translate(693.587 458.731)">
      <path id="Trazado_151452" data-name="Trazado 151452" d="M1548.035,984.98a1.709,1.709,0,0,1-1.733,1.89c-16.433.611-32.867,1.269-49.308,1.632a2.284,2.284,0,0,1-2.166-2h0a1.672,1.672,0,0,1,1.582-2.044c16.473-.255,32.94-.747,49.408-1.2a2.147,2.147,0,0,1,2.217,1.727Z" transform="translate(-1494.805 -983.252)" fill="#f2e0c9"/>
    </g>
    <g id="Grupo_106895" data-name="Grupo 106895" transform="translate(773.69 450.452)">
      <path id="Trazado_151453" data-name="Trazado 151453" d="M1786.434,955.288c.041.812-.377,1.49-.93,1.5q-2.488.046-4.976.117c-.562.017-1.048-.659-1.089-1.5h0c-.042-.838.378-1.508.941-1.519q2.488-.036,4.976-.055c.553,0,1.037.64,1.078,1.453Z" transform="translate(-1779.436 -953.835)" fill="#f2e0c9"/>
    </g>
    <g id="Grupo_106896" data-name="Grupo 106896" transform="translate(743.138 467.166)">
      <path id="Trazado_151454" data-name="Trazado 151454" d="M1679.544,1014.975c.089,1-.4,1.863-1.082,1.9q-3.079.174-6.158.379c-.695.047-1.329-.767-1.418-1.8h0c-.091-1.036.4-1.886,1.094-1.926q3.08-.162,6.161-.3c.684-.032,1.314.744,1.4,1.749Z" transform="translate(-1670.875 -1013.224)" fill="#f2e0c9"/>
    </g>
    <g id="Grupo_106897" data-name="Grupo 106897" transform="translate(751.082 475.11)">
      <path id="Trazado_151455" data-name="Trazado 151455" d="M1707.771,1043.2c.089,1-.4,1.863-1.082,1.9q-3.079.174-6.158.378c-.7.047-1.329-.767-1.418-1.8h0c-.091-1.036.4-1.886,1.094-1.926q3.08-.162,6.16-.3c.685-.032,1.314.744,1.4,1.749Z" transform="translate(-1699.103 -1041.451)" fill="#f2e0c9"/>
    </g>
    <g id="Grupo_106898" data-name="Grupo 106898" transform="translate(754.553 483.18)">
      <path id="Trazado_151456" data-name="Trazado 151456" d="M1741.462,1071.662a1.445,1.445,0,0,1-1.429,1.749c-2.951.162-23.448,1.1-26.4,1.272a2.13,2.13,0,0,1-2.163-1.591h0a1.441,1.441,0,0,1,1.451-1.755c2.952-.15,23.45-1.065,26.4-1.207a2.106,2.106,0,0,1,2.138,1.532Z" transform="translate(-1711.435 -1070.128)" fill="#f2e0c9"/>
    </g>
    <g id="Grupo_106899" data-name="Grupo 106899" transform="translate(742.995 484.695)">
      <path id="Trazado_151457" data-name="Trazado 151457" d="M1679.2,1077.294c.09,1.023-.406,1.9-1.1,1.936q-3.138.177-6.275.386c-.708.048-1.354-.781-1.445-1.835h0c-.093-1.055.4-1.922,1.115-1.962q3.138-.165,6.277-.307c.7-.033,1.338.758,1.43,1.783Z" transform="translate(-1670.366 -1075.511)" fill="#f2e0c9"/>
    </g>
    <path id="Trazado_151458" data-name="Trazado 151458" d="M1580.536,1147.555v-50.527l-40.419,2.89a8.9,8.9,0,0,0-5.9,2.992l-6.152,7.009a8.9,8.9,0,0,1-5.806,2.984l-43.766,4.348v30.3Z" transform="translate(-789.498 -606.277)" fill="#f2e0c9" style="mix-blend-mode: multiply;isolation: isolate"/>
    <path id="Trazado_151459" data-name="Trazado 151459" d="M1481.11,1484.316v6.406l28.944-6.406Z" transform="translate(-791.377 -884.571)" fill="#f2e0c9"/>
    <path id="Trazado_151460" data-name="Trazado 151460" d="M1552.036,1212.2,1420.981,1241.2c-5.556,1.1-11.744-.342-11.567-11.737l1.11-71.529a8.9,8.9,0,0,1,8.016-8.715l49.737-4.942a8.9,8.9,0,0,0,5.807-2.984l6.152-7.009a8.9,8.9,0,0,1,5.9-2.992l65.8-4.7c5.26-.469,10.928,5.262,10.846,10.541l-3.571,66.473A8.9,8.9,0,0,1,1552.036,1212.2Z" transform="translate(-739.856 -627.502)" fill="#e89952"/>
    <path id="Trazado_151461" data-name="Trazado 151461" d="M1560.922,1218.685l-132,26.137a8.9,8.9,0,0,1-10.624-8.866l1.11-71.529a8.9,8.9,0,0,1,8.016-8.715l49.737-4.942a8.9,8.9,0,0,0,5.807-2.984l6.152-7.009a8.9,8.9,0,0,1,5.9-2.992l64.458-5.741a8.9,8.9,0,0,1,9.685,9l-1.072,69.051A8.9,8.9,0,0,1,1560.922,1218.685Z" transform="translate(-746.243 -631.414)" fill="#f4b671"/>
    <path id="Trazado_151462" data-name="Trazado 151462" d="M1898.584,1132.908l-2.177.194a9.841,9.841,0,0,1,.556,2.862,10.06,10.06,0,0,1-.237,5.3,129.758,129.758,0,0,0-3.4,16.266c-.551,4.5-.925,9.023-1.185,13.551-.962,16.79-.415,33.656-1.919,50.412l9.812-1.943a8.9,8.9,0,0,0,7.168-8.589l1.072-69.051A8.9,8.9,0,0,0,1898.584,1132.908Z" transform="translate(-1085.351 -632.034)" fill="#e89952"/>
    <path id="Trazado_151463" data-name="Trazado 151463" d="M1920.341,934.65c-7.841,1.806-10.062-10.474-2.259-12.271,6.846-1.577,11.964,3.26,14.826,8.9.5.492.655,1.323,1.3,1.848,23.361,19.153,13.278,37.789,9.26,40-8.037,4.418-18.188-4.978-23.731-12.071a6.049,6.049,0,0,1,.391-8.1,6.364,6.364,0,0,1,.345-1.831,4.614,4.614,0,0,1-.6-.39l-1.173-1.081a6.236,6.236,0,0,1-1.359-2.881l-.661-2.126a4.722,4.722,0,0,1,.1-2.488,4.646,4.646,0,0,1,.939-2.246,6.977,6.977,0,0,1,3.962-2.532c.107-.015.215-.022.323-.033a17.233,17.233,0,0,0-1.076-2.033q-.273-.353-.525-.723Q1919.671,934.133,1920.341,934.65Z" transform="translate(-1101.883 -480.562)"/>
    <path id="Trazado_151464" data-name="Trazado 151464" d="M1905.288,1448.141c1.163-.149,7.063,1.235,7.063,1.235l-1.572,19.513-6.576,1.07C1906.581,1449,1905.063,1448.169,1905.288,1448.141Z" transform="translate(-1095.399 -858.569)" fill="#f99e82"/>
    <path id="Trazado_151465" data-name="Trazado 151465" d="M1876.567,1512.361c1.258.631,1.065,4.545.335,5.939s-21.309,1.39-21.064-1.027,5.279-3.934,10.705-4.05a28.977,28.977,0,0,1,6.368.331C1875.431,1514.181,1875.277,1511.713,1876.567,1512.361Z" transform="translate(-1060.644 -904.645)" fill="#fff" stroke="#231f20" stroke-miterlimit="10" stroke-width="2"/>
    <path id="Trazado_151466" data-name="Trazado 151466" d="M1877.3,1508.671c1.245.631,1.308,4.56.584,5.954s-21.368,1.386-21.124-1.031,5.233-3.937,10.609-4.056c1.024-.023,2.062-1.627,3.763-.724C1874.95,1510.84,1876.026,1508.024,1877.3,1508.671Z" transform="translate(-1061.31 -901.978)"/>
    <path id="Trazado_151467" data-name="Trazado 151467" d="M1886.12,1511.729c1.167-.187,1.921.719,2,2.526" transform="translate(-1082.406 -904.252)" fill="none" stroke="#f7f5ee" stroke-linecap="round" stroke-linejoin="round" stroke-width="1"/>
    <path id="Trazado_151468" data-name="Trazado 151468" d="M1879.658,1512.747c1.1-.176,1.81.678,1.884,2.381" transform="translate(-1077.763 -904.985)" fill="none" stroke="#f7f5ee" stroke-linecap="round" stroke-linejoin="round" stroke-width="1"/>
    <path id="Trazado_151469" data-name="Trazado 151469" d="M1872.519,1514.251c.992-.159,1.634.612,1.7,2.149" transform="translate(-1072.633 -906.067)" fill="none" stroke="#f7f5ee" stroke-linecap="round" stroke-linejoin="round" stroke-width="1"/>
    <path id="Trazado_151470" data-name="Trazado 151470" d="M1914.231,1162.577l-6.285,45.567,15.892,4.768,15.858-50.994Z" transform="translate(-1098.089 -652.906)"/>
    <path id="Trazado_151471" data-name="Trazado 151471" d="M2054.6,1471.9l6.86-2.777,2.37,13.825-5.607.759Z" transform="translate(-1203.468 -873.657)" fill="#f99e82"/>
    <path id="Trazado_151472" data-name="Trazado 151472" d="M2038.724,1510.413c1.278.588,1.22,4.506.538,5.925s-21.249,2.119-21.087-.306,5.141-4.112,10.561-4.414a29,29,0,0,1,6.375.113C2037.65,1512.271,2037.412,1509.81,2038.724,1510.413Z" transform="translate(-1177.295 -903.255)" fill="#fff" stroke="#231f20" stroke-miterlimit="10" stroke-width="2"/>
    <path id="Trazado_151473" data-name="Trazado 151473" d="M2039.336,1506.8c1.266.588,1.464,4.513.787,5.931s-21.309,2.117-21.148-.308,5.095-4.114,10.465-4.417c1.022-.058,2-1.7,3.736-.852C2037.057,1509.049,2038.037,1506.2,2039.336,1506.8Z" transform="translate(-1177.872 -900.667)"/>
    <path id="Trazado_151474" data-name="Trazado 151474" d="M2047.809,1511.2c1.16-.227,1.944.653,2.084,2.456" transform="translate(-1198.591 -903.866)" fill="none" stroke="#f7f5ee" stroke-linecap="round" stroke-linejoin="round" stroke-width="1"/>
    <path id="Trazado_151475" data-name="Trazado 151475" d="M2041.386,1512.445c1.093-.214,1.833.615,1.964,2.315" transform="translate(-1193.975 -904.76)" fill="none" stroke="#f7f5ee" stroke-linecap="round" stroke-linejoin="round" stroke-width="1"/>
    <path id="Trazado_151476" data-name="Trazado 151476" d="M2034.3,1514.194c.985-.193,1.653.555,1.772,2.089" transform="translate(-1188.886 -906.019)" fill="none" stroke="#f7f5ee" stroke-linecap="round" stroke-linejoin="round" stroke-width="1"/>
    <path id="Trazado_151477" data-name="Trazado 151477" d="M2016.881,1346.506l-16.654-.442a51.8,51.8,0,0,0,2.506,9.256c2.51,7.193,11.634,27.467,12.36,29.829s11.337,2.227,10.568-.673S2019.437,1356.955,2016.881,1346.506Z" transform="translate(-1164.4 -785.228)"/>
    <path id="Trazado_151478" data-name="Trazado 151478" d="M1917.291,1330.717l-15.892-4.544s-2.446,38.741-2.563,40.989,12.253,4.192,12.564,1.148S1913.84,1340.166,1917.291,1330.717Z" transform="translate(-1091.543 -770.934)"/>
    <path id="Trazado_151479" data-name="Trazado 151479" d="M1927.357,1162.577l-1.144,8.3c1.287.68,2.581,1.347,3.873,2.02a22.421,22.421,0,0,1,4.137,2.43c1.766,1.472,2.514,3.688,3.027,5.851a32.305,32.305,0,0,1,.805,9.019,59.872,59.872,0,0,1-1.152,9.392c-.612,2.929-1.678,5.79-1.86,8.794a2.5,2.5,0,0,1-.528,1.429,14.375,14.375,0,0,1-.333,2.27l2.781.834,15.858-50.994Z" transform="translate(-1111.216 -652.906)"/>
    <path id="Trazado_151480" data-name="Trazado 151480" d="M1959.935,1165.6l11.363,49.12s14.085,2.608,16.629.278c-5.994-26.32,3.322-33.036-4.485-50.213C1981.473,1160.447,1959.935,1165.6,1959.935,1165.6Z" transform="translate(-1135.448 -653.716)"/>
    <path id="Trazado_151481" data-name="Trazado 151481" d="M2043.959,1350.674c1.2,3.706,2.6,7.342,3.97,10.988,1.467,3.906,2.725,7.887,3.811,11.917a52.529,52.529,0,0,1,1.353,5.948c.291,1.974.45,3.959.641,5.944.059.611.126,1.226.209,1.841,1.56-.355,2.64-1.025,2.376-2.022-.77-2.9-6.224-27.522-8.781-37.97l-4.646-.123C2043.227,1348.367,2043.588,1349.528,2043.959,1350.674Z" transform="translate(-1195.059 -786.041)"/>
    <path id="Trazado_151482" data-name="Trazado 151482" d="M1962.916,1178.438c1.372-2.219,5-4.047,7.856-4.151s6.383-1.65,8.83.078c2.892,2.042,2.974,6.087,2.736,9.289-.3,4.028-1.91,18.177,1.262,32.3,1.977-.041,3.611-.305,4.328-.962-5.994-26.32,3.322-33.036-4.485-50.213-1.97-4.335-23.508.814-23.508.814l2.605,12.876C1962.66,1178.452,1962.846,1178.551,1962.916,1178.438Z" transform="translate(-1135.448 -653.716)"/>
    <path id="Trazado_151483" data-name="Trazado 151483" d="M1946.227,1340.783c-.427,1.682-.8,3.385-1.08,5.1-.525,3.178-.646,6.392-.852,9.6-.215,3.349-.422,6.7-.536,10.053-.1,2.983-.076,5.961-.266,8.94-.076,1.2-.168,2.421-.163,3.638a1.092,1.092,0,0,0,.043-.2c.311-3.044,2.439-28.144,5.89-37.594l-2.743-.784C1946.434,1339.947,1946.334,1340.363,1946.227,1340.783Z" transform="translate(-1123.516 -780.534)"/>
    <path id="Trazado_151484" data-name="Trazado 151484" d="M1894.395,1008.787c-1.131,5.806,2.5,12.147,5.074,16.8,4.272,7.723,3.015,22.875,2.669,25.262s12.454,4.82,25.738.285,7.907-8.93,7.907-8.93-14.012-17.225-15.2-41.155c-.283-5.676-21.349.118-21.349.118" transform="translate(-1088.199 -535.516)" fill="#00978e"/>
    <path id="Trazado_151485" data-name="Trazado 151485" d="M1938.69,1018.384l2.022-.531c-3.13-1.683-11.766,6.71-11.766,6.71-3.924,8.216-3.679,14.47-9.81,18.148-1.654-.031,1.647,4.841-.854,5.391l1.715,6.528c5.243-.505,10.828-1.365,11.126-1.638,6.337-5.823,10.067-19.187,10.086-19.232Z" transform="translate(-1105.517 -549.224)" fill="#008f85"/>
    <path id="Trazado_151487" data-name="Trazado 151487" d="M1942.174,1008.08c-2.891,11.013-7.318,21.844-6.672,23.411,1.56,3.784.335,6.836,4.866,3.517,6.942-5.086,9.4-11.327,12.757-18.82,1.347-3,1.813-11.459-3.267-15.395C1944.59,996.71,1942.174,1008.08,1942.174,1008.08Z" transform="translate(-1117.845 -536.49)" fill="#00978e"/>
    <path id="Trazado_151489" data-name="Trazado 151489" d="M1849.073,1107.451c.312-.31.953-2.348,1.262-2.217,1.337.568,3.465.739,7.706.753,3.8.013,11.768-2.692,15.471-2.519s5.979,5.2,2.213,7.636c-4.029,2.606-11.331.721-15.441.174-2.667-.355-5.018-.76-7.682-1.045-.567-.061-2.211.137-4.111.094C1848.851,1108.355,1850.229,1108.728,1849.073,1107.451Z" transform="translate(-1055.369 -610.9)" fill="#f99e82"/>
    <path id="Trazado_151490" data-name="Trazado 151490" d="M1834.069,1104.933a20.918,20.918,0,0,0-3.854-3.424l-1.128.89c-.5.73-2.419.64-3.711.483-2.237-.271-2.993,4.938-.97,5.42,2.731.651,7.91,1.319,9.568-.26" transform="translate(-1037.215 -609.497)" fill="#f99e82"/>
    <path id="Trazado_151491" data-name="Trazado 151491" d="M1884.568,1103.634a3.278,3.278,0,0,1,1.312,4.29c-1.325,2.324-4.822,3.22-7.26,3.436-3.036.27-6.043-.529-9.029-.937a32.235,32.235,0,0,0-6.275-.058c2.638.284,4.974.686,7.62,1.038,4.11.547,11.411,2.432,15.441-.174C1890,1108.884,1888.03,1104.137,1884.568,1103.634Z" transform="translate(-1066.02 -611.024)" fill="#f99e82" style="mix-blend-mode: multiply;isolation: isolate"/>
    <path id="Trazado_151492" data-name="Trazado 151492" d="M1822.165,1105.629a32.564,32.564,0,0,1-6.345-1.7" transform="translate(-1031.89 -611.234)" fill="none" stroke="#f99e82" stroke-linecap="round" stroke-linejoin="round" stroke-width="8"/>
    <path id="Trazado_151493" data-name="Trazado 151493" d="M1822.489,1110.981a32.545,32.545,0,0,1-6.416-1.417" transform="translate(-1032.072 -615.285)" fill="none" stroke="#f99e82" stroke-linecap="round" stroke-linejoin="round" stroke-width="8"/>
    <path id="Trazado_151494" data-name="Trazado 151494" d="M1822.866,1116.11a32.573,32.573,0,0,1-6.416-1.417" transform="translate(-1032.343 -618.971)" fill="none" stroke="#f99e82" stroke-linecap="round" stroke-linejoin="round" stroke-width="8"/>
    <path id="Trazado_151495" data-name="Trazado 151495" d="M1826.339,1122.134a32.559,32.559,0,0,1-6.453-1.236" transform="translate(-1034.812 -623.43)" fill="none" stroke="#f99e82" stroke-linecap="round" stroke-linejoin="round" stroke-width="8"/>
    <path id="Trazado_151496" data-name="Trazado 151496" d="M1925.322,976.8l5-.486,2.192,7.279s-5.778,5.423-6.3,1.38C1926.035,983.548,1925.322,976.8,1925.322,976.8Z" transform="translate(-1110.576 -519.536)" fill="#f99e82"/>
    <path id="Trazado_151497" data-name="Trazado 151497" d="M1926.748,990.884c-.122-.957-.368-2.447-.461-3.315a2.852,2.852,0,0,0,.722.592c.8.447,2.46-.988,3.212-.441Z" transform="translate(-1111.268 -527.623)" fill="#f99e82" style="mix-blend-mode: multiply;isolation: isolate"/>
    <path id="Trazado_151498" data-name="Trazado 151498" d="M1918.668,937.664H1910.1a18.484,18.484,0,0,1-.939,4.2c-1.125,3.173-.842,6.465-.265,9.639.206,1.133.226,2.019.8,2.27.649.282,4.843-.351,7.8-2.233l3-4.582a14.242,14.242,0,0,0,.1-3.364A13.237,13.237,0,0,0,1918.668,937.664Z" transform="translate(-1098.41 -491.763)" fill="#f99e82"/>
    <path id="Trazado_151499" data-name="Trazado 151499" d="M1904,969.913c.06.764.9.468,1.443,1.539.276.547.8-.45.745-1.214s-.9-3.438-.951-2.813C1905.038,969.906,1903.942,969.148,1904,969.913Z" transform="translate(-1095.253 -513.081)" fill="#f99e82"/>
    <path id="Trazado_151500" data-name="Trazado 151500" d="M1900.844,931a.621.621,0,0,1-.194-.4,4.286,4.286,0,0,1,.432-1.617,6.75,6.75,0,0,1,1.707-2.871,3.592,3.592,0,0,1,2.806-.985c.109.012.212.047.319.068a.347.347,0,0,1,.083-.071,5.868,5.868,0,0,1,3.091-.779,6.417,6.417,0,0,1,3.178,1.175,8.8,8.8,0,0,1,2.541,2.09,5.7,5.7,0,0,1,.876,2.447l.753,9.144-3.444,1.291c-.844-3.214-.932-6.781-5.168-7.936l-2.385-.294-4.6-.567C1900.438,931.643,1900.517,931.108,1900.844,931Z" transform="translate(-1092.788 -482.187)"/>
    <path id="Trazado_151501" data-name="Trazado 151501" d="M1839.13,1029.859a3.239,3.239,0,0,1,.393-.132C1840.007,1029.6,1839.817,1029.66,1839.13,1029.859Z" transform="translate(-1048.64 -557.869)" fill="#aacaf9" style="mix-blend-mode: multiply;isolation: isolate"/>
    <path id="Trazado_151502" data-name="Trazado 151502" d="M1917.043,957.362a11.459,11.459,0,0,0-9.013-6.744s3.625-.938,5.763.429S1917.043,957.362,1917.043,957.362Z" transform="translate(-1098.15 -500.845)"/>
  </g>
</svg>
