<svg xmlns="http://www.w3.org/2000/svg" width="446.564" height="141.397" viewBox="0 0 446.564 141.397">
  <g id="Grupo_106717" data-name="Grupo 106717" transform="translate(-249.131 -163.326)">
    <g id="Grupo_106713" data-name="Grupo 106713" transform="translate(249.131 163.326)">
      <path id="Trazado_150907" data-name="Trazado 150907" d="M337.14,195.826H308.268v-32.5H282.06v32.5H253.187v26.207H282.06v63h26.208v-63H337.14Z" transform="translate(-245.192 -163.326)" fill="#636363"/>
      <rect id="Rectángulo_33987" data-name="Rectángulo 33987" width="78.845" height="13.326" transform="translate(7.329 119.119)" fill="#707070"/>
      <rect id="Rectángulo_33988" data-name="Rectángulo 33988" width="69.295" height="13.326" transform="translate(7.329 119.119)" fill="#878787"/>
      <path id="Trazado_150908" data-name="Trazado 150908" d="M333.084,195.826H304.211v-32.5H278v32.5H249.131v26.207H278v63h26.208v-63h28.873Z" transform="translate(-249.131 -163.326)" fill="#878787"/>
      <path id="Trazado_150909" data-name="Trazado 150909" d="M279.356,281.058v-63H250.483V197.178h28.873v-32.5h20.877v32.5h28.873v20.877H300.233v63Z" transform="translate(-247.818 -162.013)" fill="#9c9c9c"/>
    </g>
    <g id="Grupo_106716" data-name="Grupo 106716" transform="translate(387.59 197.676)">
      <path id="Trazado_150910" data-name="Trazado 150910" d="M509.235,180.752h-104.9v38.9H536.743l-7.459-24.482A20.788,20.788,0,0,0,509.235,180.752Z" transform="translate(-236.852 -180.752)" fill="#2e2e2e"/>
      <rect id="Rectángulo_33989" data-name="Rectángulo 33989" width="8.214" height="17.409" rx="1.069" transform="translate(299.89 45.688)" fill="#c45c5c"/>
      <path id="Trazado_150911" data-name="Trazado 150911" d="M346.734,243.335H326.627a6.212,6.212,0,0,1-6.211-6.211v-29.1a6.212,6.212,0,0,1,6.211-6.211h76.5C370.027,206.885,347.579,218.488,346.734,243.335Z" transform="translate(-318.357 -160.295)" fill="#4f4f4f"/>
      <path id="Trazado_150912" data-name="Trazado 150912" d="M321.087,226.826c2.626,0,4.755-2.752,4.755-6.144v-8.837c0-3.53-2.214-6.391-4.946-6.391h-.223c-2.17,0-1.24,21.451,0,21.372Z" transform="translate(-319.372 -156.761)" fill="#ffd795"/>
      <g id="Grupo_106714" data-name="Grupo 106714" transform="translate(26.52 0)">
        <path id="Trazado_150913" data-name="Trazado 150913" d="M400.475,180.752a17.123,17.123,0,0,0-14.2,7.556c-7.41,11-22.271,30.481-36.552,33.964-18.8,20.761-16.836,41.52-16.836,41.52h5.72a21.414,21.414,0,0,1,42.829,0h95.625V180.752Z" transform="translate(-332.825 -180.752)" fill="#4f4f4f"/>
      </g>
      <rect id="Rectángulo_33990" data-name="Rectángulo 33990" width="6.539" height="3.596" rx="0.228" transform="translate(34.587 51.001)" fill="#ffd795"/>
      <circle id="Elipse_4260" data-name="Elipse 4260" cx="19.943" cy="19.943" r="19.943" transform="matrix(0.231, -0.973, 0.973, 0.231, 29.707, 97.843)" fill="#333"/>
      <path id="Trazado_150914" data-name="Trazado 150914" d="M350.4,234.347a7.683,7.683,0,1,1,7.684-7.684A7.692,7.692,0,0,1,350.4,234.347Z" transform="translate(-296.692 -143.623)" fill="#ababab"/>
      <g id="Grupo_106715" data-name="Grupo 106715" transform="translate(170.753 35.636)">
        <path id="Trazado_150915" data-name="Trazado 150915" d="M535.133,198.83H405.995v47.4H409a21.413,21.413,0,1,1,42.827,0h83.3a4.575,4.575,0,0,0,4.575-4.577V203.407A4.575,4.575,0,0,0,535.133,198.83Z" transform="translate(-405.995 -198.83)" fill="#4f4f4f"/>
      </g>
      <circle id="Elipse_4261" data-name="Elipse 4261" cx="19.943" cy="19.943" r="19.943" transform="matrix(0.231, -0.973, 0.973, 0.231, 171.168, 97.843)" fill="#333"/>
      <path id="Trazado_150916" data-name="Trazado 150916" d="M422.169,234.347a7.683,7.683,0,1,1,7.684-7.684A7.692,7.692,0,0,1,422.169,234.347Z" transform="translate(-226.994 -143.623)" fill="#ababab"/>
      <rect id="Rectángulo_33991" data-name="Rectángulo 33991" width="36.452" height="28.606" rx="0.311" transform="translate(127.272 7.029)" fill="#3b3b3b"/>
      <path id="Trazado_150917" data-name="Trazado 150917" d="M358.716,212.924H402a.614.614,0,0,0,.613-.613v-27.38a.614.614,0,0,0-.613-.613H377.149a7.043,7.043,0,0,0-5.888,3.176l-14.423,21.949A2.248,2.248,0,0,0,358.716,212.924Z" transform="translate(-283.346 -177.288)" fill="#3b3b3b"/>
      <path id="Trazado_150918" data-name="Trazado 150918" d="M381.719,262.688h1.144V180.752h-1.144Z" transform="translate(-258.819 -180.752)" fill="#454545"/>
      <rect id="Rectángulo_33992" data-name="Rectángulo 33992" width="16.346" height="5.067" rx="0.788" transform="translate(102.262 43.155)" fill="#b3b3b3"/>
    </g>
  </g>
</svg>
